<?xml version="1.0" encoding="utf-8"?>
<!-- Generator: Adobe Illustrator 21.1.0, SVG Export Plug-In . SVG Version: 6.00 Build 0)  -->
<svg version="1.1" id="Layer_1" xmlns="http://www.w3.org/2000/svg" xmlns:xlink="http://www.w3.org/1999/xlink" x="0px" y="0px"
	 viewBox="0 0 609.9 385" style="enable-background:new 0 0 609.9 385;" xml:space="preserve">
<style type="text/css">
	.st0{fill:#CCCCCC;}
	.st1{fill:none;stroke:#000000;stroke-width:0.75;stroke-miterlimit:10;}
	.st2{fill:#FDFDFF;}
	.st3{fill:#070707;}
	.st4{fill:#FFFFFF;stroke:#B3B3B3;stroke-miterlimit:10;}
</style>
<title>Artboard 1</title>
<path class="st0" d="M125.4,7h457.3c11.6,0.1,21,9.6,20.9,21.2v313.6c0.1,11.6-9.2,21.1-20.8,21.2h-0.1H125.4
	c-11.6-0.1-21-9.6-20.9-21.2V28.2C104.4,16.6,113.7,7.1,125.4,7L125.4,7z"/>
<rect x="133.5" y="33" width="444" height="307"/>
<circle cx="356" cy="16.5" r="2.5"/>
<path class="st1" d="M121,11.5h466c6.7,0.1,12,5.5,12,12.2v324c0.1,6.7-5.3,12.1-12,12.2l0,0H121c-6.7-0.1-12-5.5-12-12.2v-324
	C109,17,114.3,11.6,121,11.5z"/>
<g id="AnAgVU.tif">
	
		<image style="overflow:visible;enable-background:new    ;" width="503" height="347" id="Layer_0_1_" xlink:href="CE057CADF590B726.png"  transform="matrix(0.876 0 0 0.8756 134.8569 34.1977)">
	</image>
</g>
<g id="cellphone">
	<g id="cell_phone">
		
			<ellipse transform="matrix(1.443384e-02 -0.9999 0.9999 1.443384e-02 -1.0509 199.3893)" cx="100.6" cy="100.2" rx="1.8" ry="1.8"/>
		<path class="st2" d="M34.2,97.4l97.6,1.4c10.3,0.2,18.6,8.7,18.5,19l-3.5,242.6c-0.2,10.3-8.7,18.6-19,18.5l-97.6-1.4
			c-10.3-0.2-18.6-8.7-18.5-19l3.5-242.6C15.4,105.6,23.8,97.3,34.2,97.4z"/>
		
			<rect x="-33.6" y="181.2" transform="matrix(1.443384e-02 -0.9999 0.9999 1.443384e-02 -158.8677 314.1962)" class="st3" width="227" height="113"/>
		
			<ellipse transform="matrix(1.443384e-02 -0.9999 0.9999 1.443384e-02 -284.7155 438.9706)" class="st4" cx="80.3" cy="363.9" rx="8.2" ry="8.8"/>
		<path d="M73.2,113l19,0.2c0.5,0,1,0.4,1,0.9v0.1l0,0c0,0.5-0.4,1-0.9,1h-0.1l-19-0.2c-0.5,0-1-0.4-1-0.9V114l0,0
			C72.2,113.4,72.7,113,73.2,113z"/>
		<ellipse transform="matrix(1.443384e-02 -0.9999 0.9999 1.443384e-02 -47.703 179.4133)" cx="67.2" cy="113.9" rx="1" ry="1"/>
		
			<ellipse transform="matrix(1.443384e-02 -0.9999 0.9999 1.443384e-02 -25.0589 186.989)" cx="82.3" cy="106.2" rx="1.5" ry="1.5"/>
	</g>
</g>
<g id="RKhAgE.tif">
	
		<image style="overflow:visible;enable-background:new    ;" width="224" height="400" id="Layer_0_2_" xlink:href="CE057CADF590B72A.png"  transform="matrix(0.5191 2.174082e-03 -2.393542e-03 0.5715 22.2417 123.097)">
	</image>
</g>
</svg>
