<?xml version="1.0" encoding="utf-8"?>
<!-- Generator: Adobe Illustrator 21.1.0, SVG Export Plug-In . SVG Version: 6.00 Build 0)  -->
<svg version="1.1" id="Layer_1" xmlns="http://www.w3.org/2000/svg" xmlns:xlink="http://www.w3.org/1999/xlink" x="0px" y="0px"
	 viewBox="0 0 100 100" style="enable-background:new 0 0 100 100;" xml:space="preserve">
<style type="text/css">
	.st0{fill:#FBB03B;}
	.st1{fill:#FFFFFF;}
	.st2{fill:#F15A24;}
</style>
<g>
	<ellipse class="st0" cx="47.5" cy="47" rx="10.5" ry="22"/>
</g>
<ellipse class="st1" cx="43.5" cy="36" rx="1.5" ry="1"/>
<ellipse class="st1" cx="51.5" cy="36.5" rx="2.5" ry="1.5"/>
<path class="st1" d="M47.5,56.5H56c0,3.6-3.8,6.5-8.5,6.5S39,60.1,39,56.5c0-0.6,0.1-1.1,0.3-1.7L47.5,56.5z"/>
<path class="st2" d="M48.7,48.3c0,0.2,0,0.5-0.1,0.7c-0.2,0.4-0.8,0.5-1.2,0.5c-1.2,0.1-2.4,0.2-3.4-0.3c-0.9-0.4-1.7-1.4-1.3-2.3
	c0.3-0.7,1.1-0.9,1.7-1.4c0.4-0.4,0.7-0.9,1-1.4c1.1-2.1,1.7-4.6,1.6-7c0-0.1,1.1-0.2,1.2-0.1c0.5,0.2,0.3,0.3,0.4,0.8
	c0.3,0.9,0,2.5,0,3.4C48.6,43.6,48.7,46,48.7,48.3z"/>
<circle cx="43.5" cy="36.5" r="0.5">
		<animateTransform 
		attributeName="transform"
		attributeType="XML"
		type="translate"
		dur="3s"
		values="1,0;-1;1,0"
		repeatCount="indefinite" />
</circle>
<ellipse cx="51.3" cy="37.1" rx="0.7" ry="0.6">
		<animateTransform 
		attributeName="transform"
		attributeType="XML"
		type="translate"
		dur="3s"
		values="0,6;-6;0,6"
		repeatCount="indefinite" />
</ellipse>
</svg>
