<svg id="Layer_1" data-name="Layer 1" xmlns="http://www.w3.org/2000/svg" viewBox="0 0 200 100"><defs><style>.cls-1{fill:#e2c271;}.cls-2{fill:#fff;}.cls-12,.cls-3{isolation:isolate;font-family:Chalkduster, Chalkduster;}.cls-3{font-size:11.67px;}.cls-4{letter-spacing:-0.01em;}.cls-5{letter-spacing:-0.07em;}.cls-6{letter-spacing:-0.01em;}.cls-7{letter-spacing:-0.08em;}.cls-8{letter-spacing:-0.07em;}.cls-9{letter-spacing:-0.04em;}.cls-10{letter-spacing:-0.02em;}.cls-11{letter-spacing:-0.12em;}.cls-12{font-size:10px;}.cls-13{letter-spacing:0.02em;}.cls-14{letter-spacing:0.01em;}.cls-15{letter-spacing:-0.02em;}.cls-16{letter-spacing:-0.03em;}.cls-17{letter-spacing:0.03em;}.cls-18{letter-spacing:0em;}.cls-19{letter-spacing:-0.07em;}.cls-20{fill:#0074a2;stroke:#f2f2f2;}.cls-20,.cls-21,.cls-24,.cls-25,.cls-26,.cls-27,.cls-28{stroke-miterlimit:10;}.cls-21,.cls-23,.cls-24,.cls-26,.cls-27,.cls-28{fill:none;}.cls-21,.cls-24,.cls-26,.cls-27,.cls-28{stroke:#000;}.cls-21{stroke-width:0.5px;}.cls-22{fill:#e6e7e8;}.cls-24{stroke-width:0.25px;}.cls-25{fill:#e6e6e6;stroke:#c1272d;}.cls-25,.cls-26{stroke-width:2px;}.cls-27{stroke-width:0.75px;}</style></defs><title>Artboard 1</title><rect class="cls-1" x="0.5" y="0.5" width="199" height="99"/><path d="M199,1V99H1V1H199m1-1H0V100H200V0Z"/><path class="cls-2" d="M49.6,79.5a2.8,2.8,0,0,1-2.8-2.8V43.3a2.8,2.8,0,0,1,2.8-2.8H156.7a2.8,2.8,0,0,1,2.8,2.8V76.6a2.8,2.8,0,0,1-2.8,2.8l-107.1.1Z"/><path d="M156.7,41a2.26,2.26,0,0,1,2.3,2.3V76.6a2.26,2.26,0,0,1-2.3,2.3H49.6a2.26,2.26,0,0,1-2.3-2.3V43.3A2.26,2.26,0,0,1,49.6,41H156.7m0-1H49.6a3.33,3.33,0,0,0-3.3,3.3V76.6a3.33,3.33,0,0,0,3.3,3.3H156.7a3.33,3.33,0,0,0,3.3-3.3V43.3a3.33,3.33,0,0,0-3.3-3.3Z"/><text class="cls-3" transform="translate(66.16 54.79) scale(0.89 1)"><tspan class="cls-4">N</tspan><tspan class="cls-5" x="8.15" y="0">a</tspan><tspan class="cls-6" x="15.39" y="0">t</tspan><tspan x="20.6" y="0">e</tspan><tspan class="cls-7" x="27.83" y="0"> </tspan><tspan class="cls-8" x="32.72" y="0">W</tspan><tspan class="cls-9" x="42.52" y="0">a</tspan><tspan class="cls-10" x="50.08" y="0">lk</tspan><tspan class="cls-6" x="64.15" y="0">e</tspan><tspan class="cls-11" x="71.26" y="0">r</tspan><tspan x="76.05" y="0">,</tspan></text><text class="cls-12" transform="translate(64.02 66.79) scale(0.89 1)">P<tspan class="cls-13" x="7.11" y="0">h</tspan><tspan class="cls-14" x="13.45" y="0">i</tspan><tspan class="cls-15" x="17.49" y="0">l</tspan><tspan class="cls-16" x="21.98" y="0">a</tspan><tspan x="28.55" y="0">del</tspan><tspan class="cls-17" x="47.26" y="0">p</tspan><tspan class="cls-13" x="53.76" y="0">h</tspan><tspan class="cls-14" x="60.1" y="0">i</tspan><tspan class="cls-18" x="64.14" y="0">a </tspan><tspan class="cls-19" x="76.01" y="0">P</tspan><tspan x="82.45" y="0">a</tspan></text><path class="cls-20" d="M191.2,21.7H172.4a5,5,0,0,1-5-5V10a5,5,0,0,1,5-5h18.8a5,5,0,0,1,5,5v6.7A5,5,0,0,1,191.2,21.7Z"/><path class="cls-21" d="M153.5,12.8c-.2,4.4-3.5,7.7-7.5,7.4s-6.9-4.1-6.7-8.6,3.5-7.7,7.5-7.4S153.7,8.4,153.5,12.8Z"/><polygon class="cls-22" points="175.3 18.3 180.8 8.6 186.2 18.3 175.3 18.3"/><polygon class="cls-22" points="187.6 7.6 181.5 18.3 193.8 18.3 187.6 7.6"/><path class="cls-23" d="M161.2,3.3c0,3.7,5.6,6.7,12.5,6.7"/><path class="cls-21" d="M167.5,8.3a7.66,7.66,0,0,0,3.4.9c2.6-.1,3.3-2,5.5-1.7s2.2,1.8,4.1,1.7,2.2-1.6,4.1-1.7c1.7-.1,2.3,1.1,4.1,1.7,1.3.5,3.4.6,6.2-.9"/><path class="cls-21" d="M166.2,11.6a8.11,8.11,0,0,0,3.9.8c2.9-.1,3.7-1.8,6.2-1.6,2.3.2,2.5,1.7,4.7,1.6s2.5-1.5,4.7-1.6c2-.1,2.6,1,4.7,1.6a10.27,10.27,0,0,0,7-.8"/><path class="cls-21" d="M166.2,17.9a16.86,16.86,0,0,0,3.9.5c2.9-.1,3.7-1,6.2-.9,2.3.1,2.5,1,4.7.9s2.5-.9,4.7-.9c2-.1,2.6.6,4.7.9a16.41,16.41,0,0,0,7-.5"/><path class="cls-21" d="M170,15a5.45,5.45,0,0,0,3.1.8c2.4-.1,3-1.9,5-1.7s2,1.7,3.8,1.7,2-1.6,3.8-1.7c1.6-.1,2.1,1.1,3.8,1.7,1.2.5,3,.6,5.6-.8"/><path class="cls-24" d="M151.9,13.1c-.3,3.8-3.1,6.5-6.2,6s-5.4-4-5-7.8,3.1-6.5,6.2-6S152.2,9.3,151.9,13.1Z"/><line class="cls-24" x1="121.3" y1="93.4" x2="121.3" y2="90"/><line class="cls-24" x1="123.8" y1="93.4" x2="123.8" y2="91.6"/><line class="cls-24" x1="126.3" y1="93.4" x2="126.3" y2="91.6"/><line class="cls-24" x1="128.8" y1="93.4" x2="128.8" y2="90"/><line class="cls-24" x1="131.3" y1="93.4" x2="131.3" y2="91.6"/><line class="cls-24" x1="133.8" y1="93.4" x2="133.8" y2="91.6"/><line class="cls-24" x1="136.3" y1="93.4" x2="136.3" y2="91.6"/><line class="cls-21" x1="118.8" y1="93.4" x2="136.3" y2="93.4"/><line class="cls-24" x1="136.3" y1="93.4" x2="136.3" y2="91.6"/><line class="cls-24" x1="138.8" y1="93.4" x2="138.8" y2="90"/><line class="cls-24" x1="141.3" y1="93.4" x2="141.3" y2="91.6"/><line class="cls-24" x1="143.8" y1="93.4" x2="143.8" y2="91.6"/><line class="cls-24" x1="146.3" y1="93.4" x2="146.3" y2="90"/><line class="cls-24" x1="148.8" y1="93.4" x2="148.8" y2="91.6"/><line class="cls-21" x1="151.3" y1="93.4" x2="151.3" y2="91.6"/><line class="cls-21" x1="136.3" y1="93.4" x2="153.8" y2="93.4"/><line class="cls-24" x1="153.8" y1="93.4" x2="153.8" y2="91.6"/><line class="cls-24" x1="156.3" y1="93.4" x2="156.3" y2="90"/><line class="cls-24" x1="158.8" y1="93.4" x2="158.8" y2="91.6"/><line class="cls-24" x1="161.3" y1="93.4" x2="161.3" y2="91.6"/><line class="cls-24" x1="163.8" y1="93.4" x2="163.8" y2="90"/><line class="cls-24" x1="166.3" y1="93.4" x2="166.3" y2="91.6"/><line class="cls-24" x1="168.8" y1="93.4" x2="168.8" y2="91.6"/><line class="cls-21" x1="153.8" y1="93.4" x2="171.3" y2="93.4"/><line class="cls-24" x1="171.3" y1="93.4" x2="171.3" y2="91.6"/><line class="cls-24" x1="173.8" y1="93.4" x2="173.8" y2="90"/><line class="cls-24" x1="176.3" y1="93.4" x2="176.3" y2="91.6"/><line class="cls-24" x1="178.8" y1="93.4" x2="178.8" y2="91.6"/><line class="cls-24" x1="181.3" y1="93.4" x2="181.3" y2="90"/><line class="cls-24" x1="183.8" y1="93.4" x2="183.8" y2="91.6"/><line class="cls-24" x1="186.3" y1="93.4" x2="186.3" y2="91.6"/><line class="cls-21" x1="171.3" y1="93.4" x2="188.8" y2="93.4"/><path class="cls-25" d="M17,28.3H6.7a3,3,0,0,1-3-3V8a3,3,0,0,1,3-3H17a3,3,0,0,1,3,3V25.4A2.93,2.93,0,0,1,17,28.3Z"/><line class="cls-26" x1="6.2" y1="10" x2="16.2" y2="10"/><line class="cls-27" x1="7.5" y1="15" x2="15" y2="15"/><line class="cls-27" x1="6.2" y1="18.3" x2="16.2" y2="18.3"/><line class="cls-27" x1="7.5" y1="23.3" x2="16.2" y2="23.3"/><line class="cls-28" x1="1" y1="1" x2="200"/><line class="cls-28" y1="100" x2="199" y2="99"/><line class="cls-28" x1="0.5" y1="0.5" y2="100"/></svg>