<svg id="Layer_1" data-name="Layer 1" xmlns="http://www.w3.org/2000/svg" viewBox="0 0 231.5 207.8"><defs><style>.cls-1{fill:#c45f3b;}.cls-10,.cls-11,.cls-2,.cls-9{fill:none;}.cls-2{stroke:#cc4a2b;}.cls-10,.cls-11,.cls-2{stroke-miterlimit:10;stroke-width:0.25px;}.cls-3{fill:#ffe0bd;}.cls-4{fill:#603813;}.cls-5{fill:#e5bbac;}.cls-6{fill:#fff;}.cls-7{fill:#e5907f;}.cls-8{fill:#efa08b;}.cls-10{stroke:#e5bbac;}.cls-11{stroke:#f9d5c5;}.cls-12{fill:#070707;}.cls-13{fill:#cc4a2b;}</style></defs><title>Artboard 1</title><g id="Layer_2" data-name="Layer 2"><ellipse class="cls-1" cx="116.3" cy="103.9" rx="109.3" ry="101.9"/></g><path class="cls-2" d="M114.1,138h-6.8c-2,0-14.1-.4-17.4.1"/><path class="cls-3" d="M174.1,82a3.59,3.59,0,0,0,2.4.5c.5-.5,0-1.5,1-2.1.5-.5.5,0,2-.5.5,0,1.5-.5,1.4-1.1s-1-1.5-1-2.1,2-.5,2-.5-2-1.5-1.5-2.1c0-.5,2.4-.5,2.4-1.1v-.2a8.51,8.51,0,0,1,2.4,3.3q.75,1.5,1.5,3.3a3.81,3.81,0,0,1,0,3.3c-.5,2.1-1.9,2.1-3.3,4.4A8.93,8.93,0,0,0,182,92c0,2.6,0,3.3-.4,4.4a5.59,5.59,0,0,1-4.8,2.1h0c-1.5-3.9-3-7.5-4.9-11.3h0a1.1,1.1,0,0,0,1-1.1c0-1-1-2.1-.5-2.6C172.2,81.5,173.6,81.4,174.1,82Z"/><path class="cls-4" d="M165.9,85.9v1.5h-.5A3,3,0,0,1,165.9,85.9Z"/><path class="cls-3" d="M165.6,89.1c-.3,2.2.9,2.5.5,4.3a.6.6,0,0,0,.1.4c2.8,4.2-1.5,7.3-1.4,10.4a26.06,26.06,0,0,1-3.8,13.4c-2.4,4.9-10.5,14-20.2,14-12.1.6-17.7-12.8-29.1-10.6-2.9.5-4.8,2.1-9.7,2.2a20.56,20.56,0,0,1-4.2-.4.52.52,0,0,1,0-1,10.77,10.77,0,0,0,4.2-1.6h0c2.4-1.1,4.3-3.3,6.7-3.4s5.3,2.5,8.6,2h.1c1.8-1.1,1.3-3.8-.1-5.4s-2.9-3.3-4.8-4.3l-.1-.1A16.8,16.8,0,0,1,108,97.8c0-3.9.4-8-.1-11.8a36,36,0,0,0-3-10.3c-3-7.5-4.3,2.6-4.8,5.4a107.9,107.9,0,0,1-3.7,15.2c-1.9,5.9-4.2,11.8-6.6,17.3v.1c-.5,2-1.4,4.3,0,5.9a5.77,5.77,0,0,0,2.9,1.5h-.5c-5.8.6-5.7,5.4-13.4,8.1a26.15,26.15,0,0,1-17.7-.4,15,15,0,0,1-7.3-7.4h0c-2.9-4.8-4.9-10.2-3.5-15.2,0,0-1.6,1.8-.5,1.5,0-3.3.9-5.9,2.3-9.2v-.1a42.15,42.15,0,0,1,3.3-4.9c.5-.5.9-1,1.4-1.5l.1-.1.9-.5h0c4.1-3.7,6-12.1,6.2-12.9v-.1a9.18,9.18,0,0,0,.5-3.6.37.37,0,0,0-.1-.3c-1-1.5-2.3-2.5-2.4-5.3v-.5h0a37.87,37.87,0,0,1,7.1-20.1,33.31,33.31,0,0,1,7.1-6.9c.1,0,.1-.1.2-.1h.4c3.8,2,3.8,4.3,5.7,5.3h.1c5.8,2,14.9-6,16.9-4.5,1,.5-1,2.6,0,3.9,1.9,2,12.5,0,19.7-4.5.1,0,.1-.1.2-.2,3-5.7,2.8-1.5,3.3-1.5.5.5-3.3,4.4-2.9,4.9s7.8-8.1,8.6-5.4c.9,3.1.6.4.5.8-.3.6-.9,1.3-.9,2,0,.3.3.8.5.5,3.9-4.4,6.4-3.9,7.3-3.4.7.3-.9,1.9-1.6,3-.2.4,0,1,.4.8,2.1-.6,7.1-3.8,7.9-3.3.5.5.2,1-2.4,3.3-2.4,2.1,13.1.4,13.6,2.5,0,1,6.4-.6,0,4.2a.56.56,0,0,0,.1.9c.5.2-.3.3-1.8.6-.4.1-.5.9,0,1,2.6.7-3.9,2-3.1,2.3,4.2.2,1.2,1.9.6,3.2a.78.78,0,0,0,.2.8c1,.4,2.7.4,3.1.9s3,8.2-1.4,3.3a26.76,26.76,0,0,0,2.4,2h.1c2.4,1,4.8-.6,5.3,0,1,.5,4,3-2.1,5.8a.37.37,0,0,0-.2.5c.2,1.8,1.3,3.2,1,5.3v.3c2.4,6.7,3.9,10,5.7,11.1h.2a3.92,3.92,0,0,1,1.3.3C165.6,88.6,165.7,88.8,165.6,89.1Zm-11.6-8c0-.5-.5-.5-1-.5h-.1c-.5.1-.4,1,.1,1h0a1.75,1.75,0,0,0,1-.5Zm-9.7-12.8c0,.5.2.5,0,0,1.1.8,2,1.3,2.7,1.2.3,0,.5-.5.3-.8-2-3.1-4.8-6.3-9.3-6.8h-.1a14.18,14.18,0,0,0-4.3-.5m13.7,20.7c0-5.4-7.3-9.2-16-9.1s-15.9,4.5-15.9,9.4c0,5.4,7.3,9.2,16,9.1s15.9-4.5,15.9-9.4Zm-51.8-.6c0-5.4-6.8-9.2-16-9.1s-15.9,4.5-15.9,9.4,6.8,9.2,16,9.1C88.3,90.8,95.5,86.4,95.5,81.5Z"/><ellipse cx="153.1" cy="81.1" rx="1" ry="0.5" transform="translate(-0.59 1.12) rotate(-0.42)"/><path d="M148.4,73.7a5,5,0,0,1-2.9-1,9.44,9.44,0,0,1-2-3.3c-2.9-5.4-8.8-5.8-14.1-6.9-1,0-2-.5-2.9-.5s-2,.5-3.4,2.1a77.76,77.76,0,0,0-6.7,4.9,14.52,14.52,0,0,0-2.9,2.1c-4.3,2.1-2-3.3-.5-5.9a16.87,16.87,0,0,1,8.2-5.5,41.76,41.76,0,0,1,14-.6c2,.5,3.4.5,4.8,1.5C144.5,63.7,149.1,69,148.4,73.7Z"/><path class="cls-5" d="M131.2,71.4c9.2-.1,15.5,4.5,16,9.7.8,7.6-8.3,12.6-17.1,11.5-11.9-1.3-15.2-4-14.6-11.3C115.6,76.2,122.1,71.5,131.2,71.4ZM146.5,80c0-4.1-6.8-6.8-15-6.7-7.7.1-14.9,3.7-14.9,6.9,0,4.1,6.8,6.8,15,6.7C139.3,86.9,146.5,84.4,146.5,80Z"/><path class="cls-6" d="M131.5,73.3c8.7-.1,15,3.7,15,7.1,0,3.8-6.7,7.2-14.9,7.3-7.7.1-15-3.7-15-7.1C116.3,76.9,123.1,73.4,131.5,73.3Z"/><circle class="cls-7" cx="105.9" cy="116.9" r="0.5" transform="translate(-0.85 0.77) rotate(-0.42)"/><circle class="cls-7" cx="103.7" cy="113.3" r="0.5" transform="translate(-0.82 0.76) rotate(-0.42)"/><ellipse class="cls-7" cx="100.3" cy="109" rx="1" ry="0.5" transform="translate(-0.79 0.73) rotate(-0.42)"/><circle class="cls-7" cx="100.9" cy="114.9" r="0.5" transform="translate(-0.83 0.74) rotate(-0.42)"/><path class="cls-8" d="M100.2,117.5a.49.49,0,0,1,.5.5c0,.5,0,.5-.5.5h0V118h0Z"/><path class="cls-7" d="M100.2,118.2h0c0,.5,0,.5-.5.5s-.5,0-.5-.5a.49.49,0,0,1,.5-.5h0l.5.5Z"/><circle class="cls-8" cx="98.7" cy="117.5" r="0.5" transform="translate(-0.85 0.72) rotate(-0.42)"/><circle class="cls-7" cx="97.9" cy="113.4" r="0.5" transform="translate(-0.82 0.72) rotate(-0.42)"/><circle class="cls-7" cx="97.5" cy="116.5" r="0.5" transform="translate(-0.85 0.71) rotate(-0.42)"/><ellipse class="cls-7" cx="96.2" cy="108" ry="0.5" transform="translate(-0.78 0.7) rotate(-0.42)"/><circle class="cls-7" cx="95.8" cy="119.3" r="0.5" transform="translate(-0.87 0.7) rotate(-0.42)"/><path d="M95.9,67.3c0,1.5,0,2.8-1.4,3.9-1-2.1-2.4-2.8-3.9-4.3-1-.5-2-2-3.4-2.6-1,0-2-.5-2.9-.5-3.4,0-7.2,0-10.6.1-1,0-2.4,0-2.9.5-2.4.5-3.4,3.9-4.8,5.9-.5.5-1,2.6-2.4,2.6-1,0,0-2.8,0-3.9a23.62,23.62,0,0,1,4.8-7c1-.5,2.4-2.1,3.4-2.6a10.48,10.48,0,0,1,3.9-.5c2.9,0,6.8,0,10.1-.1a17.44,17.44,0,0,1,8.7,4.3A10.19,10.19,0,0,0,95.9,67.3Z"/><circle class="cls-7" cx="95" cy="114.9" r="0.5" transform="translate(-0.83 0.69) rotate(-0.42)"/><ellipse class="cls-7" cx="95" cy="111.6" ry="0.5" transform="translate(-0.81 0.69) rotate(-0.42)"/><circle class="cls-8" cx="94.1" cy="109.5" r="0.5" transform="translate(-0.79 0.69) rotate(-0.42)"/><circle class="cls-7" cx="94.1" cy="120.3" r="0.5" transform="translate(-0.87 0.69) rotate(-0.42)"/><circle class="cls-8" cx="93.3" cy="112.1" r="0.5" transform="translate(-0.81 0.68) rotate(-0.42)"/><circle class="cls-7" cx="93.4" cy="117.8" r="0.5" transform="translate(-0.85 0.68) rotate(-0.42)"/><path class="cls-8" d="M91.7,115.5a.49.49,0,0,1,.5.5h0c0,.5-.5.5-1,.5s-1,0-1-.5a1.84,1.84,0,0,1,1.5-.5h0c-.5.5,0,.5,0,.5s1.2,0,0-.5Z"/><circle class="cls-8" cx="92.9" cy="114.4" r="0.5" transform="translate(-0.83 0.68) rotate(-0.42)"/><circle class="cls-8" cx="92.9" cy="119.3" r="0.5" transform="translate(-0.87 0.68) rotate(-0.42)"/><ellipse class="cls-8" cx="92.9" cy="117" ry="0.5" transform="translate(-0.85 0.68) rotate(-0.42)"/><path class="cls-7" d="M91.7,115.5h0v.5a.49.49,0,0,1-.5-.5Z"/><circle class="cls-7" cx="90.7" cy="117.8" r="0.5" transform="translate(-0.85 0.66) rotate(-0.42)"/><path class="cls-9" d="M77.3,39.9c1.5,0,2.4.5,3.9,0a8.63,8.63,0,0,1-2-1.5c-.5,0-1-.5-2-.5-4.8-.5-9.2,2.2-9.7,1.6s5.8-3.9,5.3-5.4-9.2.1-9.2-.4,23.2-5.6,22.6-7.6c0-.5-1-.5-2.4-1.5a5.47,5.47,0,0,1-2-1,79.07,79.07,0,0,0,11.6,2.5c2.9,0,6.8,0,6.8-.5S93,24.1,93,23.1c0-1.5,21.7-1.7,26.1-1.2,1.5,0,2.4.5,3.9.5h4.4c1.5,0,2-.5,2.9-.5a3,3,0,0,1,2,.5l4.8,1.5c4.8,1.5,5.3.5,9.2,2,2.9,1.5,4.4,3.3,5.8,2.5,1-.5,1.4-1.1,2-1.1,1,0,1.5,1.5,2.4,1.5s1.9-1.5,2.4-1.6.5,1.5,2,3.3a4.17,4.17,0,0,0,3.4,2c7.3,5.4,12.7,12.8,14.2,21,.5,6.9-2.3,12.4,1.6,15.7,0,0,2,1.5,2,2"/><path class="cls-10" d="M131.2,71.4c8.8-.1,16,4,16,9.2s-7.1,9.3-15.9,9.4-16-4-16-9.2S122.4,71.5,131.2,71.4Z"/><path class="cls-11" d="M118.5,109.4a36.65,36.65,0,0,1,12.6,8.4,16.72,16.72,0,0,1,5.4,12.3"/><path class="cls-11" d="M88.3,110.1c-6.7,4.4-12,10.9-14.1,17.9"/><path class="cls-11" d="M65.2,92A21.46,21.46,0,0,0,72,95.3c2,.5,3.9.5,5.8,1a50.8,50.8,0,0,0,8.7-.5,15.47,15.47,0,0,0,7.2-3.4"/><path class="cls-11" d="M115,91.1c3.4,3.3,7.3,4.8,12.6,5.3a30.33,30.33,0,0,0,13.5-1.6"/><path class="cls-4" d="M172.7,92.5h0c-2,1.1-3.4,1.1-5.8,1.1h0v0h0c-1,0-2.4,0-2.9-.5-2-.5-2.9-4.3-6.4-12.3a9.53,9.53,0,0,1-1-6.5c-5.6-1.5,2.9-5.9,2.4-6.5s-2.9,1.1-5.8,0a3.72,3.72,0,0,1-2.4-2.6c0-2.1,1.9-2.6,1.4-3.3-.5-1-2.4,0-3.4-1-1-.5-.5-2.6-.5-3.9a5,5,0,0,1,.5-2.8c0-.5.5-1.1.5-2.1,1-2.8,4.8-3.9,4.3-5.4-.5-2.1-18.4-.9-14.1-2.7-1.2,1.1,2.4-2.8,2.4-3.3,0,0-7.7,4.4-8.7,3.4-1-.5,2.4-3.9,1.9-3.9-.5-.5-7.2,3.9-8.2,3.4s1.4-2.8,1-3.3c-1-.5-8.7,6-9.1,6-.5-.5,3.3-4.4,2.9-5.4s-2.4,1.1-3.4,2.1c-7.7,4.5-18.3,7.1-20.5,4.5-1-1,1-3.3,0-3.9-2-2-10.6,7-17.4,4.5-2-.5-2-3.3-6.4-5.9h-.5c.5-.5,1-.5,1.4-1.1h0c1.5,0,2.4.5,4.4,0a6,6,0,0,1-2-2c-.5,0-1-.5-2-.5-5.3-.5-9.2,2.6-9.7,2.2s6.3-3.9,5.7-5.9-9.2.1-9.2-.4S86,28.4,85.7,26.3c0-.5-1-.5-2.4-2a5.47,5.47,0,0,1-2-1c4.4,1,7.8,2.5,11.6,2.8,2.9,0,7.2,0,7.2-.5s-7.7-2-7.8-2.8c0-2.1,22.7-2.2,26.6-1.2,1.5,0,2.4.5,4.4.5h4.8c1.5,0,2-.5,2.9-.5a3,3,0,0,1,2,.5l5.3,2c5.3,2,5.8.5,9.2,2.5,2.9,2,4.9,3.3,6.3,2.8,1-.5,1.4-1.1,2-1.1,1,0,1.5,2.1,2.4,2s1.9-2.1,2.4-2.1.5,2.1,2,3.3c.5,1,2,2.6,3.4,2.6,7.8,5.8,13.2,13.8,14.4,22.6.5,7.5-2.3,13.4,1.6,16.7,0,0,2,2,2,2.6h0v.5c-.5.5-2.4.5-2.4,1.1s2,2,1.5,2.6-1.5,0-2,.5,1,2.1,1,2.6-1,.5-1.4,1.1-1.5,0-2,.5c-1,.5-.5,2.1-1,2.6s-1.5,0-2.4-.5-1.5-.5-1.5,0,1,2.1.5,2.8A17.3,17.3,0,0,1,172.7,92.5Z"/><path class="cls-6" d="M79.5,72.3c9.2-.1,15.8,4,15.8,7.8,0,4.1-7.1,8-15.7,8-8.1.1-15.8-4-15.8-7.8C63.7,76.2,70.8,72.3,79.5,72.3Z"/><ellipse id="eye_1" data-name="eye 1" class="cls-12" cx="78.3" cy="79.6" rx="2.5" ry="2.3" transform="translate(-0.58 0.57) rotate(-0.42)"/><path class="cls-10" d="M80,72.8c8.8-.1,16,4,16,9.2s-7.1,9.3-15.9,9.4-16-4-16-9.2S71.2,72.9,80,72.8Z"/><ellipse id="eye_2" data-name="eye 2" class="cls-12" cx="130.6" cy="81" rx="2.4" ry="2.2" transform="translate(-0.59 0.95) rotate(-0.42)"/><path class="cls-5" d="M79.4,71c9.5-.1,16,4.7,16.5,10.2.8,8.1-8.7,13.3-17.6,12.2-12.2-1.4-15.8-4.2-15-11.9C63.5,76,70,71.1,79.4,71ZM95,78.8C93.5,75.7,88.5,73,80,73c-8,.1-15.4,3.8-15.4,7.3,0,4.3,7.1,7.1,15.5,7.1C88.1,87.3,96.7,82.5,95,78.8Z"/><path class="cls-4" d="M49.76,104.94l-1.11,1,1.7-1.4a20.35,20.35,0,0,0,2.78,16.07A17.58,17.58,0,0,0,59.8,128c8,4.8,16.84.81,17.7.4,7.2-2.6,7.2-8,13.5-8.1h3a21.08,21.08,0,0,0,7.7,1.5c4.4,0,6.3-1.6,9.7-2.2,11.1-2.2,17,10.7,29.1,10.6,10.1-.6,17.4-9.4,20.2-14a37.29,37.29,0,0,0,3.8-13.4c0-3.9,0-4.4-.1-8a38.4,38.4,0,0,1,.9-7.5h.5a8.55,8.55,0,0,0,5.3-1.6A110.3,110.3,0,0,1,176,97c4.4,13.3,6.5,33.4-3.5,51.5-10.5,18.4-35.5,40.4-67.9,37.2-1.77-.17-40.08-4.82-53.7-38C43,128.54,47.89,110.78,49.76,104.94Z"/><path class="cls-8" d="M119,114.3a4.56,4.56,0,0,1,0,6c-2.9.5-6.4-2.6-9.4-2.6-3.4,0-5.4,2.7-7.8,3.4-2.9,2.1-6.4,2.1-8.8,2.2H92a4.06,4.06,0,0,1-3.4-2c-1.5-2.1-.5-3.9,0-6.5,2.9-6.5,5.3-12.6,7.7-19.1,1.4-5.5,3.4-10.5,4.3-16.5.5-2.9,2.4-14.1,5.4-6a46,46,0,0,1,3.5,10.9c.5,3.9.1,8.9.1,13.1a18.55,18.55,0,0,0,5,12.5C115.6,110.9,116.8,113,119,114.3Zm-13.9,3.8c0-.6-.5-.6,0,0a.69.69,0,0,0-1,0Zm-1.8-4.2a.49.49,0,0,0-.5-.5c-.5,0-.5,0-.5.5a.5.5,0,0,0,1,0Zm-3.5-4.4c0-.5-.5-.5-1-.5a1.75,1.75,0,0,0-1,.5c0,.5.5.5,1,.5s1,0,1-.5Zm.1,6.5c0-.5,0-.5-.5-.5s-.5,0-.5.5,0,.5.5.5h0l.5-.5Zm-1,3.4c0-.5,0-.5-.5-.5s-.5,0-.5.5h0c-.5,0-.5,0-.5.5s0,.5.5.5.5,0,.5-.5h0a.49.49,0,0,0,.5-.5Zm-2-.2h0a.69.69,0,0,0-1,0,1.48,1.48,0,0,0,1,0Zm-.4,3.4Zm-.1-8.6h0a.69.69,0,0,0-1,0,.69.69,0,0,0,1,0Zm-.5,3.6h0a.69.69,0,0,0-1,0s.3.5,1,0Zm-2.5-6.5Zm0-2.8v-.5s-.5-.1,0,.5c-.5.5-.5.5,0,.5.8.2,0,.2,0-.5Zm.1,12.2h0a.69.69,0,0,0-1,0c0,.5.5.5,1,0Zm-.5-4.4h0a.69.69,0,0,0-1,0c-.3.5.5.5,1,0Zm0-3.4h0Zm-1.3-2.6a.49.49,0,0,0-.5-.5h0c-.5,0-.5,0-.5.5s0,.5.5.5A.49.49,0,0,0,91.7,110.1Zm.1,11.5a.49.49,0,0,0-.5-.5h0c-.5,0-.5,0-.5.5s0,.5.5.5C91.8,122.6,91.8,121.6,91.8,121.6Zm-1-8.4h0a.69.69,0,0,0-1,0c-.3.5-.3.5,1,0h0c-.3.5,0,.5,0,0Zm0,6.2h0a.69.69,0,0,0-1,0s-.3.6,1,0Zm-.3-2.3c0-.5,0-.5-.5-.5h0a.49.49,0,0,0-.5.5h0c0,.5.5.5,1,.5v-.5Zm0-1.5h0a.69.69,0,0,0-1,0c-.5.5-.5.5,1,0Zm0,4.9h0a.69.69,0,0,0-1,0c-.4.6-.4.6,1,0Zm0-2.3h0Zm-2.2,1.3h0a.69.69,0,0,0-1,0,.69.69,0,0,0,1,0Z"/><path class="cls-13" d="M113.1,135.4c1.5,0,8.7.4,9.7-.1a15.42,15.42,0,0,1-8.7,2.6c-9.7.6-20.5,1.2-30-1.3,0-1.5,15.9-.6,18.3-.6A70.88,70.88,0,0,1,113.1,135.4Z"/></svg>