<?xml version="1.0" encoding="utf-8"?>
<!-- Generator: Adobe Illustrator 21.1.0, SVG Export Plug-In . SVG Version: 6.00 Build 0)  -->
<svg version="1.1" id="Layer_1" xmlns="http://www.w3.org/2000/svg" xmlns:xlink="http://www.w3.org/1999/xlink" x="0px" y="0px"
	 viewBox="0 0 456 248" style="enable-background:new 0 0 456 248;" xml:space="preserve">
<style type="text/css">
	.st0{fill:#FFE0BD;}
	.st1{fill:#0A1A5E;}
	.st2{fill:#FFFFFF;}
	.st3{font-family:'Chalkboard-Bold';}
	.st4{font-size:10.5654px;}
	.st5{fill:none;stroke:#CC4A2B;stroke-width:0.25;stroke-miterlimit:10;}
	.st6{fill:#603813;}
	.st7{fill:#E5BBAC;}
	.st8{fill:#E5907F;}
	.st9{fill:#EFA08B;}
	.st10{fill:none;}
	.st11{fill:none;stroke:#E5BBAC;stroke-width:0.25;stroke-miterlimit:10;}
	.st12{fill:none;stroke:#F9D5C5;stroke-width:0.25;stroke-miterlimit:10;}
	.st13{fill:#070707;}
	.st14{fill:#CC4A2B;}
	.st15{fill:#C16A29;}
	.st16{display:none;fill:#FFFFFF;stroke:#000000;stroke-miterlimit:10;}
	.st17{fill:#1747BF;}
	.st18{fill:#0A0908;}
	.st19{fill:#C4C5CC;}
	.st20{display:none;}
	.st21{display:inline;fill:#FFFFFF;stroke:#000000;stroke-miterlimit:10;}
	.st22{display:inline;fill:#C4C5CC;}
	.st23{display:inline;fill:#E2D134;}
	.st24{display:inline;}
	.st25{fill:#E2D134;}
	.st26{fill:#FAF9F6;}
	.st27{fill:#1F6B12;}
	.st28{fill:#E2C271;}
	.st29{font-family:'Chalkduster';}
	.st30{font-size:2.2802px;}
	.st31{font-size:1.9545px;}
	.st32{fill:#0074A2;stroke:#F2F2F2;stroke-miterlimit:10;}
	.st33{fill:none;stroke:#000000;stroke-width:0.5;stroke-miterlimit:10;}
	.st34{fill:#E6E7E8;}
	.st35{fill:none;stroke:#000000;stroke-width:0.25;stroke-miterlimit:10;}
	.st36{fill:#E6E6E6;stroke:#C1272D;stroke-width:0.75;stroke-miterlimit:10;}
	.st37{fill:none;stroke:#000000;stroke-width:0.75;stroke-miterlimit:10;}
	.st38{fill:#F3FAFF;}
	.st39{fill:#FFFFFF;stroke:#F3FAFF;stroke-miterlimit:10;}
	.st40{fill:#32FF41;}
	.st41{fill:#DFE0E5;}
</style>
<g id="nate">
	<g id="right_hand">
		<path class="st0" d="M177.9,81.3c1.3,1,2.3,2.4,2.7,3.9c1.9,5-0.8,10.4-6.1,12.3c-5.3,1.7-11.1-0.9-13.1-5.8
			c-1.9-5,0.8-10.4,6.1-12.3c1.8-0.7,3.6-0.7,5.3-0.3"/>
		<g>
			<path class="st0" d="M181,90.7c0,0,0.5-0.3,1.1-1c0.6-0.5,1.8-1.7,2.4-2.7c0.6-1,1.3-2.2,1.1-2.9c-0.2-0.7-0.3-2-0.5-3.2
				c0,0,0,0-0.2-0.3c-0.2-0.3-0.2-0.3-0.2-0.3c-0.3-1.4-0.8-2.9-1.3-3.2c-0.5-0.3-1.1-0.5-1.6-0.3c-0.5,0.2-1.1,0.3-1.6,0.5
				c-0.3,0.2-0.8,0.5-1,0.9c-0.3,0.3-0.3,1.2-0.3,1.4c0,0.2,0.5,1.5,0.5,1.9c0,0.3-0.3,1-0.5,1.2c-0.3,0.3-1,0.9-1.6,1.2
				c-0.5,0.3-1.3,0.7-1.6,1c-0.3,0.2-1,0.7-1.3,0.9c-0.5,0.2-1,0.7-1,1c-0.2,0.3-0.3,0.7-0.5,0.9c-0.2,0.2-0.2,0.3-0.3,0.7"/>
		</g>
		<polyline class="st0" points="178.9,82.8 177.3,78.4 175.7,74.3 173.7,68.8 172.9,66.8 169.5,65.7 168.3,66.1 168.1,67.1 
			168.3,68.8 169.2,70.9 170,73.4 170.8,75.5 172,78.5 		"/>
		<polyline class="st0" points="171,78.9 167,68 166,65.4 163.3,65.6 162.3,65.7 161.8,67.3 166.5,80.4 		"/>
		<polyline class="st0" points="165.2,80.1 161.2,69.3 159.4,68.1 157.6,68.8 156.6,69.8 162.4,84.9 		"/>
		<polyline class="st0" points="161.5,84.9 159.5,82 156.6,79.2 155,80.3 155.5,81.5 160.8,90.3 		"/>
	</g>
	<path class="st1" d="M253.3,93.4c-1.2,0.7-2.5,1.4-3.7,2l-3.4,2.2c0,0-2.7,2.2-4,2.2s-4.2,3.8-5.3,2.7s-5.5,1.4-8.1,1.5
		c-2.7,0.2-5,0.2-6.9,0.2c-1.8,0-5.5,0-5.5,0l-3.1-3.9l-3.4-0.5c-2.3-0.3-5.5,0.9-5.5,0.9l-3.2,3.4l-2.7,5.3l-5.2,10.8l-1.8,4.8
		l-4.2,2.6h-5.2l-1.8-3.4c0,0-1-3.1-1-3.9s0.5-7.9,0-8.7c-0.5-0.9-1.8-7.3-1.8-7.3v-2.9v-5.6l-2.3-1.2l-3.7,0.9l-2.7,0.9l-2.3,1.7
		v3.4v9.9v6.1l1.8,6.1c0,0,1,5.6,1.3,6.1c0.5,0.3,2.3,3.9,2.3,3.9l4.2,4.3l4.7,0.9h5.5h4.7c2.3-0.2,4-0.9,5.2-1.2
		c1.5-0.7,2.3-1.2,5.5-3.4c0,0,3.7-4.3,4.2-5.6c0.5-1.4,2.3-7,2.3-7l1.8,0.3c0,0,1,6.1,0,7.9c-1,1.7-1.8,5.3-2.3,7
		c-0.5,1.7-2.3,8.2-1.3,9.6c1,1.4-1,7.9,0,9.9c1,2.2,0,4.8,0,4.8v3.1v3.1c0,0-0.5,1.2,0,1.7c0.5,0.3,0,0,0,0s1,1.7,5.2,2.2
		c4.2,0.3,10.7,0,10.7,0s7.4,0.3,12.9,0s5.2,0,9.7,0c4.5,0,7.9,0,7.9,0h5.2c0,0,4.7,0.3,6-1.2c1.5-1.7,1.8-1.7,1.8-2.6s0-3.1,0-3.1
		v-4.3c-0.5-0.7-1.1-1.9-1.3-3.4c-0.3-1.5,0.2-1.7,0-3.9s-0.8-2.4-0.5-3.9c0.2-1.2,0.8-1.7,0.5-2.6c-0.2-0.9-0.6-1.2-1-2.2
		c-0.2-0.5-0.2-0.9,0-1.7c0.2-1.2,0.3-1.4,0.5-2.6c0.2-0.9,0.3-1.7,0-2.6c-0.2-0.7-0.3-0.7-0.5-1.2c-0.5-1.9,0.2-2.7-0.5-3.9
		c-0.5-0.9-1.3-1.4-1.3-1.2c-0.3,0.2,1.8,3.4,1.8,3.4s-0.8-1.7-2.3-4.3c-0.3-1.5-0.6-3.2-1-4.8c0-1,0-1.9,0-3.1
		c-0.2-2.2-0.5-4.3-1-6.1v-3.4v-3.6c0.3,0.3,0.8,0.8,1.3,1.4c0.3,0.4,0.4,0.5,1,1.3c1.2,1.5,1.3,1.6,1.6,2c0.3,0.4,0.6,1.1,0.9,2
		c1.3,2.5,3.3,4.5,5.1,4.3c3.5-0.3,4.5-7.8,4.1-9.1c0-0.1-0.2-0.8-0.4-1.2c-0.3-1-0.3-1.1-0.4-1.2c0,0-0.1-0.1-0.1-0.2
		c-0.4-0.7-0.9-1.2-1.1-1.4c-0.8-0.8-0.9-0.7-1.5-1.4c-0.2-0.2-0.3-0.4-0.7-0.8c-0.3-0.3-0.5-0.5-0.7-0.7c-0.6-0.6-0.6-0.8-1.1-1.5
		c-0.6-0.7-0.6-0.5-1.5-1.5c-0.5-0.6-0.9-1.2-1.2-1.4c-0.2-0.3-0.3-0.4-0.5-0.7c-0.4-0.6-0.4-0.8-0.8-1.3c-0.4-0.6-0.6-0.9-0.9-1.2
		c-0.5-0.4-0.9-0.6-1.3-0.7C258.5,94.7,255.9,94,253.3,93.4z"/>
	<text transform="matrix(0.7621 -5.427109e-02 8.048434e-02 0.9968 219.223 123.8557)" class="st2 st3 st4">L.  B.  I.</text>
	<g id="oars">
		<path class="st2" d="M229.4,143.5l0.8-1l2.6-3.1l0.3-0.9v-0.9l0.2-0.5l7.1-8.9l0.8-0.7l0.2-0.3l-0.5-0.3h-0.3h-0.3l-0.3,0.3
			l-0.2,0.2l-6.9,8.9l-0.6,0.5l-0.5,0.2l-1,0.3c-0.2,0.2-0.5,0.7-0.8,1c-0.5,0.5-0.6,0.5-1.1,1.2c-0.3,0.3-0.6,0.7-1,1.2
			c-0.3,0.3-0.5,0.7-0.6,1c0,0.2,0,0.3,0.2,0.5l1.3,0.7L229.4,143.5z"/>
		<path class="st2" d="M243.9,142.1l-0.8-0.9l-2.6-2.9l-0.8-0.3l-1-0.2l-0.5-0.2l-7.6-8.5l-0.6-0.9l-0.3-0.2l-0.5,0.2v0.3v0.2
			l0.3,0.3l0.3,0.2l7.6,8.4l0.3,0.7v0.3v0.9c0.2,0.2,0.5,0.5,0.8,1c0.5,0.5,0.5,0.7,0.8,1.2c0.3,0.3,0.5,0.7,1,1.2
			c0.3,0.3,0.6,0.7,0.8,0.9c0.2,0,0.3,0,0.5,0l1.1-0.7L243.9,142.1z"/>
	</g>
	<g id="Layer_2">
		<g id="head_2_">
			<path class="st5" d="M228.6,85.6c-1.1,0-1.9,0-3.1,0c-0.8,0-6.5-0.2-7.9,0"/>
			<path class="st0" d="M256.4,59.4c0.3,0.2,0.6,0.2,1.1,0.2c0.3-0.2,0-0.7,0.5-1c0.3-0.2,0.3,0,0.8-0.2c0.3,0,0.6-0.2,0.6-0.5
				c0-0.2-0.5-0.7-0.5-1s0.8-0.2,0.8-0.2s-0.8-0.7-0.6-1c0-0.2,1.1-0.2,1.1-0.5V55c0.5,0.5,0.8,1,1.1,1.5c0.3,0.5,0.5,1,0.6,1.5
				c0.3,0.5,0.3,1,0,1.5c-0.3,1-0.8,1-1.6,2c-0.5,0.7-0.6,1.5-0.6,2.2c0,1.2,0,1.5-0.2,2c-0.5,0.7-1.3,1-2.3,1l0,0
				c-0.6-1.7-1.3-3.4-2.3-5.3l0,0c0.3,0,0.5-0.2,0.5-0.5c0-0.5-0.5-1-0.3-1.2C255.4,59.2,256,59.2,256.4,59.4z"/>
			<path class="st6" d="M252.5,61.3c0,0.2,0,0.5,0,0.7h-0.3C252.3,61.6,252.3,61.5,252.5,61.3z"/>
			<path class="st0" d="M252.3,62.7c-0.2,1,0.3,1.2,0.3,2v0.2c1.3,1.9-0.6,3.4-0.6,4.8c0,2.2-0.6,4.3-1.8,6.3
				c-1.1,2.2-4.8,6.5-9.2,6.5c-5.5,0.2-8.2-6-13.4-5c-1.3,0.2-2.3,1-4.4,1c-0.6,0-1.3,0-1.9-0.2c-0.3,0-0.3-0.3,0-0.5
				c0.6-0.2,1.3-0.3,1.9-0.7l0,0c1.1-0.5,1.9-1.5,3.1-1.5c1.1,0,2.4,1.2,4,1l0,0c0.8-0.5,0.6-1.7,0-2.6c-0.6-0.7-1.3-1.5-2.3-2l0,0
				c-1.3-1.5-1.9-3.2-1.9-5.3c0-1.7,0.2-3.8,0-5.5c-0.3-1.7-0.8-3.2-1.3-4.8c-1.3-3.4-1.9,1.2-2.3,2.6c-0.5,2.2-0.8,4.6-1.8,7.2
				c-0.8,2.7-1.9,5.5-3.1,8l0,0c-0.3,1-0.6,2,0,2.7c0.3,0.2,0.8,0.7,1.3,0.7h-0.3l0,0c-2.6,0.2-2.6,2.6-6.1,3.8
				c-2.6,1-5.8,0.7-8.2-0.2c-1.6-0.7-2.7-2-3.4-3.4l0,0c-1.3-2.2-2.3-4.8-1.6-7c0,0-0.8,0.9-0.3,0.7c0-1.5,0.5-2.7,1-4.3l0,0
				c0.5-0.7,0.8-1.5,1.6-2.2c0.3-0.2,0.5-0.5,0.6-0.7l0,0l0.5-0.2l0,0c1.9-1.7,2.7-5.6,2.9-6l0,0c0.2-0.3,0.3-0.9,0.3-1.7v-0.2
				c-0.5-0.7-1-1.2-1.1-2.4v-0.5l0,0c0.3-3.4,1.3-6.7,3.2-9.4c0.8-1.2,1.9-2.2,3.2-3.2c0,0,0,0,0.2,0h0.2c0,0,0,0,0.2,0
				c1.8,1,1.8,2,2.6,2.6l0,0c2.7,0.9,6.8-2.7,7.7-2c0.5,0.2-0.5,1.2,0,1.7c0.8,1,5.8,0,9-2c0,0,0,0,0.2-0.2c1.3-2.7,1.3-0.7,1.6-0.7
				c0.3,0.2-1.6,2-1.3,2.2s3.6-3.8,3.9-2.6c0.3,1.4,0.3,0.2,0.3,0.3c-0.2,0.2-0.3,0.7-0.3,1c0,0.2,0.2,0.3,0.3,0.2
				c1.8-2,2.9-1.7,3.4-1.5c0.3,0.2-0.3,0.9-0.8,1.4c-0.2,0.2,0,0.3,0.2,0.3c1-0.3,3.2-1.7,3.7-1.5c0.3,0.2,0.2,0.5-1.1,1.5
				c-1.1,1,6,0.2,6.3,1.2c0,0.5,2.9-0.3,0,1.9c-0.2,0.2-0.2,0.3,0,0.3c0.3,0.2-0.2,0.2-0.8,0.3c-0.2,0-0.3,0.3,0,0.5
				c1.1,0.3-1.8,1-1.5,1c1.9,0.2,0.5,0.9,0.3,1.5c0,0.2,0,0.3,0.2,0.3c0.5,0.2,1.3,0.2,1.3,0.3c0.3,0.2,1.3,3.8-0.6,1.5
				c-0.3-0.3,0.6,0.7,1.1,1l0,0c1.1,0.5,2.3-0.2,2.4,0c0.5,0.2,1.8,1.4-1,2.7c-0.2,0-0.2,0.2-0.2,0.2c0.2,0.9,0.6,1.5,0.5,2.6v0.2
				c1.1,3.1,1.8,4.8,2.6,5.1c0,0,0,0,0.2,0s0.3,0,0.6,0.2C252.3,62.7,252.3,62.7,252.3,62.7z M247,59.1c0-0.2-0.3-0.2-0.5-0.2l0,0
				c-0.3,0-0.2,0.5,0,0.5l0,0C246.8,59.2,247,59.1,247,59.1L247,59.1L247,59.1L247,59.1z M242.5,53.1
				C242.5,53.3,242.7,53.3,242.5,53.1c0.5,0.3,0.8,0.7,1.3,0.5c0.2,0,0.3-0.2,0.2-0.3c-0.8-1.5-2.3-2.9-4.4-3.1l0,0
				c-0.8-0.2-1.3-0.2-1.9-0.2 M243.9,59.6c0-2.6-3.4-4.3-7.3-4.3s-7.3,2-7.3,4.3c0,2.6,3.4,4.3,7.3,4.3S243.9,61.8,243.9,59.6
				L243.9,59.6z M220.2,59.2c0-2.6-3.1-4.3-7.3-4.3s-7.3,2-7.3,4.3c0,2.2,3.1,4.3,7.3,4.3C216.8,63.5,220.2,61.5,220.2,59.2z"/>
			<ellipse transform="matrix(1 -7.181912e-03 7.181912e-03 1 -0.418 1.7734)" cx="246.7" cy="59.1" rx="0.5" ry="0.2"/>
			<path d="M244.4,55.7c-0.5,0-1.1-0.2-1.3-0.5c-0.5-0.5-0.6-1-0.8-1.5c-1.3-2.6-4-2.7-6.5-3.2c-0.5,0-0.8-0.2-1.3-0.2
				s-0.8,0.2-1.6,1c-1.1,0.7-2.3,1.5-3.1,2.2c-0.5,0.2-1.1,0.7-1.3,1c-1.9,1-0.8-1.5-0.3-2.7c1.1-1.2,2.3-2,3.7-2.6
				c2.3-0.5,4.4-0.5,6.5-0.2c0.8,0.2,1.6,0.2,2.3,0.7C242.7,50.9,244.7,53.4,244.4,55.7z"/>
			<path class="st7" d="M236.7,54.6c4.2,0,7.1,2,7.3,4.4c0.3,3.6-3.9,5.8-7.9,5.3c-5.5-0.7-6.9-1.9-6.6-5.3
				C229.4,56.7,232.3,54.6,236.7,54.6z M243.6,58.6c0-1.9-3.1-3.1-6.9-3.1c-3.6,0-6.8,1.7-6.8,3.2c0,1.9,3.1,3.1,6.9,3.1
				C240.2,61.6,243.6,60.6,243.6,58.6z"/>
			<path class="st2" d="M236.7,55.5c4,0,6.9,1.7,6.9,3.2c0,1.7-3.1,3.4-6.8,3.4c-3.6,0-6.9-1.7-6.9-3.2
				C229.7,57,232.8,55.5,236.7,55.5z"/>
			
				<ellipse transform="matrix(1 -7.181912e-03 7.181912e-03 1 -0.5388 1.6173)" class="st8" cx="224.9" cy="75.8" rx="0.3" ry="0.2"/>
			<ellipse transform="matrix(1 -7.181912e-03 7.181912e-03 1 -0.5265 1.6103)" class="st8" cx="224" cy="74.1" rx="0.3" ry="0.2"/>
			
				<ellipse transform="matrix(1 -7.181912e-03 7.181912e-03 1 -0.5119 1.5987)" class="st8" cx="222.3" cy="72.1" rx="0.5" ry="0.2"/>
			
				<ellipse transform="matrix(1 -7.181912e-03 7.181912e-03 1 -0.5315 1.6011)" class="st8" cx="222.7" cy="74.8" rx="0.3" ry="0.2"/>
			<path class="st9" d="M222.3,76c0,0,0.3,0,0.3,0.2c0,0.2,0,0.2-0.3,0.2l0,0c0,0,0,0,0-0.2l0,0C222.3,76,222.3,76,222.3,76z"/>
			<path class="st8" d="M222.3,76.3L222.3,76.3c0,0.2,0,0.2-0.3,0.2s-0.3,0-0.3-0.2c0,0,0-0.2,0.3-0.2l0,0L222.3,76.3L222.3,76.3z"
				/>
			<path class="st8" d="M222.3,76.2L222.3,76.2L222.3,76.2z"/>
			<ellipse transform="matrix(1 -7.181912e-03 7.181912e-03 1 -0.5401 1.5942)" class="st9" cx="221.7" cy="76" rx="0.3" ry="0.2"/>
			<ellipse class="st8" cx="221.7" cy="77.5" rx="0" ry="0"/>
			
				<ellipse transform="matrix(1 -7.181912e-03 7.181912e-03 1 -0.5266 1.5918)" class="st8" cx="221.4" cy="74.1" rx="0.3" ry="0.2"/>
			
				<ellipse transform="matrix(1 -7.181912e-03 7.181912e-03 1 -0.5364 1.5895)" class="st8" cx="221.1" cy="75.5" rx="0.3" ry="0.2"/>
			<ellipse class="st8" cx="220.5" cy="72.7" rx="0" ry="0"/>
			<ellipse transform="matrix(1 -7.181912e-03 7.181912e-03 1 -0.5082 1.5859)" class="st8" cx="220.6" cy="71.6" rx="0" ry="0.2"/>
			
				<ellipse transform="matrix(1 -7.181912e-03 7.181912e-03 1 -0.5463 1.5849)" class="st8" cx="220.4" cy="76.9" rx="0.3" ry="0.2"/>
			<path d="M220.4,52.6c0,0.7,0,1.2-0.6,1.9c-0.5-1-1.1-1.2-1.8-2c-0.5-0.2-0.8-1-1.6-1.2c-0.5,0-0.8-0.2-1.3-0.2
				c-1.6,0-3.4,0-4.8,0c-0.5,0-1.1,0-1.3,0.2c-1.1,0.2-1.6,1.9-2.3,2.7c-0.3,0.2-0.5,1.2-1.1,1.2c-0.5,0,0-1.2,0-1.7
				c0.5-1.2,1.3-2.2,2.3-3.2c0.5-0.2,1.1-1,1.6-1.2c0.6-0.2,1.1-0.2,1.8-0.2c1.3,0,3.1,0,4.7,0c1.3,0.2,2.9,1,4,2
				C219.7,51.6,220.2,52.2,220.4,52.6z"/>
			
				<ellipse transform="matrix(1 -7.181912e-03 7.181912e-03 1 -0.5316 1.5814)" class="st8" cx="219.9" cy="74.8" rx="0.3" ry="0.2"/>
			<ellipse transform="matrix(1 -7.181912e-03 7.181912e-03 1 -0.5205 1.5813)" class="st8" cx="219.9" cy="73.3" rx="0" ry="0.2"/>
			
				<ellipse transform="matrix(1 -7.181912e-03 7.181912e-03 1 -0.5132 1.5778)" class="st9" cx="219.4" cy="72.2" rx="0.3" ry="0.2"/>
			<ellipse transform="matrix(1 -7.181912e-03 7.181912e-03 1 -0.55 1.5791)" class="st8" cx="219.6" cy="77.4" rx="0.3" ry="0.2"/>
			<path class="st9" d="M219.7,77.9c-0.3,0-0.3,0-0.5,0C219.6,77.9,219.6,77.9,219.7,77.9z"/>
			
				<ellipse transform="matrix(1 -7.181912e-03 7.181912e-03 1 -0.5218 1.5756)" class="st9" cx="219.1" cy="73.4" rx="0.3" ry="0.2"/>
			
				<ellipse transform="matrix(1 -7.181912e-03 7.181912e-03 1 -0.5414 1.5768)" class="st8" cx="219.3" cy="76.2" rx="0.3" ry="0.2"/>
			<path class="st9" d="M218.4,75c0,0,0.3,0,0.3,0.2l0,0l0,0c0,0.2-0.3,0.2-0.5,0.2c-0.2,0-0.5,0-0.5-0.2C218,75,218.3,75,218.4,75
				C218.3,75,218.3,75,218.4,75c-0.3,0.2,0,0.2,0,0.2S218.9,75.3,218.4,75C218.9,75,218.9,75,218.4,75z"/>
			<ellipse transform="matrix(1 -7.181912e-03 7.181912e-03 1 -0.5291 1.5744)" class="st9" cx="219" cy="74.5" rx="0.3" ry="0.2"/>
			<ellipse transform="matrix(1 -7.181912e-03 7.181912e-03 1 -0.5463 1.5745)" class="st9" cx="219" cy="76.9" rx="0.3" ry="0.2"/>
			<ellipse transform="matrix(1 -7.181912e-03 7.181912e-03 1 -0.5389 1.5745)" class="st9" cx="219" cy="75.8" rx="0" ry="0.2"/>
			<path class="st8" d="M218.4,75C218.9,75,218.9,75,218.4,75c0,0.2,0,0.2,0,0.2s-0.3,0-0.3-0.2C218.3,75,218.3,75,218.4,75z"/>
			<ellipse transform="matrix(1 -7.181912e-03 7.181912e-03 1 -0.5414 1.5675)" class="st8" cx="218" cy="76.2" rx="0.3" ry="0.2"/>
			<path class="st10" d="M211.8,39.9c0.6,0,1.1,0.2,1.8,0c0,0-0.5-0.2-0.8-0.7c-0.3,0-0.5-0.2-0.8-0.2c-2.3-0.2-4.2,1-4.4,0.7
				c-0.3-0.2,2.6-1.9,2.4-2.6c-0.3-0.7-4.2,0-4.2-0.2c0-0.2,10.7-2.6,10.3-3.6c0-0.2-0.5-0.2-1.1-0.7c-0.6-0.2-0.8-0.5-0.8-0.5
				c1.8,0.5,3.4,1,5.3,1.2c1.3,0,3.1,0,3.1-0.2s-3.4-0.7-3.4-1.2c0-0.7,10-0.7,11.9-0.5c0.6,0,1.1,0.2,1.8,0.2h1.9
				c0.6,0,0.8-0.2,1.3-0.2c0.3,0,0.6,0,0.8,0.2l2.3,0.7c2.3,0.7,2.4,0.2,4.2,1c1.3,0.7,1.9,1.5,2.7,1.2c0.5-0.2,0.6-0.5,0.8-0.5
				c0.5,0,0.6,0.7,1.1,0.7s0.8-0.7,1.1-0.7s0.3,0.7,0.8,1.5c0.3,0.5,0.8,1,1.6,1c3.4,2.6,5.8,6,6.5,9.7c0.3,3.2-1,5.8,0.8,7.3
				c0,0,0.8,0.7,0.8,1"/>
			<path class="st11" d="M236.5,54.5c4,0,7.3,1.9,7.3,4.3c0,2.4-3.2,4.3-7.3,4.3c-4,0-7.3-1.9-7.3-4.3
				C229.3,56.5,232.5,54.6,236.5,54.5z"/>
			<path class="st12" d="M230.7,72.2c2.3,1,4.2,2.2,5.8,3.9c1.6,1.5,2.6,3.4,2.6,5.8"/>
			<path class="st12" d="M216.8,72.6c-3.1,2-5.5,5.1-6.5,8.4"/>
			<path class="st12" d="M206.2,64.2c0.8,0.7,1.9,1.2,3.1,1.5c0.8,0.2,1.8,0.2,2.7,0.5c1.3,0,2.6,0,4-0.2c1.1-0.2,2.4-0.7,3.4-1.5"
				/>
			<path class="st12" d="M229.1,63.7c1.6,1.5,3.4,2.2,5.8,2.6c1.9,0.2,4.4,0,6.1-0.7"/>
			<path class="st6" d="M256,63.9L256,63.9c-0.8,0.5-1.6,0.5-2.6,0.5l0,0c0-0.2,0-0.5,0-1c0,0.2,0,0.5,0,1l0,0c-0.5,0-1.1,0-1.3-0.2
				c-0.8-0.2-1.3-2-2.9-5.8c-0.5-1-0.6-1.7-0.5-2.9c-2.6-0.7,1.3-2.7,1.1-2.9c-0.3-0.2-1.3,0.5-2.6,0c-0.5-0.2-0.8-0.5-1.1-1.2
				c0-1,0.8-1.2,0.6-1.5c-0.3-0.5-1.1,0-1.6-0.5c-0.5-0.2-0.3-1.2-0.3-1.7s0-1,0.3-1.2c0-0.2,0.3-0.5,0.3-1c0.5-1.2,2.3-1.9,1.9-2.6
				c-0.3-1-8.6-0.3-6.5-1.2c-0.5,0.5,1.1-1.2,1.1-1.5c0,0-3.6,2-4,1.5c-0.5-0.2,1.1-1.9,0.8-1.9c-0.3-0.2-3.4,1.9-3.7,1.5
				c-0.3-0.3,0.6-1.2,0.5-1.5c-0.5-0.2-4,2.7-4.2,2.7c-0.3-0.2,1.6-2,1.3-2.6c-0.3-0.5-1.1,0.5-1.6,1c-3.6,2-8.4,3.2-9.4,2
				c-0.5-0.5,0.5-1.5,0-1.7c-0.8-1-4.8,3.2-7.9,2c-0.8-0.2-0.8-1.5-2.9-2.7c0,0,0,0-0.3,0c0.3-0.2,0.5-0.2,0.6-0.5l0,0
				c0.6,0,1.1,0.2,1.9,0c0,0-0.5-0.2-0.8-1c-0.3,0-0.5-0.2-0.8-0.2c-2.4-0.2-4.2,1.2-4.4,1c-0.3-0.2,2.9-1.9,2.6-2.7
				c-0.3-1-4.2,0-4.2-0.2c0-0.2,11-2.7,10.8-3.8c0-0.2-0.5-0.2-1.1-1c-0.6-0.2-0.8-0.5-0.8-0.5c1.9,0.5,3.6,1.2,5.3,1.2
				c1.3,0,3.4,0,3.4-0.2s-3.6-1-3.6-1.2c0-1,10.5-1,12.3-0.5c0.6,0,1.1,0.2,1.9,0.2h2.3c0.6,0,0.8-0.2,1.3-0.2c0.3,0,0.6,0,0.8,0.2
				l2.4,1c2.4,1,2.6,0.2,4.2,1.2c1.3,1,2.3,1.5,2.9,1.2c0.5-0.2,0.6-0.5,0.8-0.5c0.5,0,0.6,1,1.1,1s0.8-1,1.1-1s0.3,1,0.8,1.5
				c0.3,0.5,0.8,1.2,1.6,1.2c3.6,2.7,6.1,6.5,6.6,10.4c0.3,3.4-1,6.3,0.8,7.9c0,0,0.8,1,0.8,1.2l0,0v0.2c-0.3,0.2-1.1,0.2-1.1,0.5
				c0,0.2,0.8,1,0.6,1.2c-0.3,0.2-0.6,0-0.8,0.2c-0.3,0.2,0.5,1,0.5,1.2c0,0.2-0.5,0.2-0.6,0.5c-0.3,0.2-0.6,0-0.8,0.2
				c-0.5,0.2-0.3,1-0.5,1.2c-0.3,0.2-0.6,0-1.1-0.2c-0.5-0.2-0.6-0.2-0.6,0c0,0.2,0.5,1,0.3,1.2C256.5,63.3,256.4,63.5,256,63.9z"/>
			<path class="st2" d="M212.8,55c4.2,0,7.3,1.9,7.3,3.6c0,1.9-3.2,3.8-7.3,3.8c-3.7,0-7.3-1.9-7.3-3.6
				C205.5,56.7,208.8,55,212.8,55z"/>
			
				<ellipse id="eye_1_2_" transform="matrix(1 -7.181912e-03 7.181912e-03 1 -0.414 1.5265)" class="st13" cx="212.3" cy="58.4" rx="1.1" ry="1.2"/>
			<path class="st11" d="M213.1,55.1c4,0,7.3,1.9,7.3,4.3c0,2.4-3.2,4.3-7.3,4.3c-4,0-7.3-1.9-7.3-4.3
				C205.7,57.2,209.1,55.1,213.1,55.1z"/>
			
				<ellipse id="eye_2_2_" transform="matrix(1 -7.181912e-03 7.181912e-03 1 -0.417 1.6992)" class="st13" cx="236.4" cy="58.9" rx="1.1" ry="1"/>
			<path class="st7" d="M212.8,54.3c4.4,0,7.3,2.2,7.6,4.8c0.3,3.8-4,6.1-8.1,5.6c-5.6-0.7-7.3-1.9-6.9-5.6
				C205.5,56.7,208.4,54.3,212.8,54.3z M219.9,58.1c-0.6-1.5-3.1-2.7-6.9-2.7c-3.7,0-7.1,1.7-7.1,3.4c0,2,3.2,3.2,7.1,3.2
				C216.8,62,220.7,59.8,219.9,58.1z"/>
			<path class="st6" d="M199.1,71L199.1,71c0-0.2,0-0.5,0.3-0.7c-0.2,2.6,0.3,5,1.6,7c0.6,1.5,2.1,2.7,3.4,3.4
				c2.4,1.2,5.5,1.5,8.2,0.2c3.4-1.2,3.2-3.8,6.1-3.8h0.8c0.3,0,0.3,0,0.5,0c1.1,0.5,2.4,0.7,3.6,0.7c1.9,0,2.9-0.7,4.4-1
				c5.2-1,7.7,5,13.4,5c4.7-0.2,7.9-4.3,9.2-6.5c1.1-2,1.6-4.3,1.8-6.3c0-1.7,0-2,0-3.8c0-1.2,0.2-2.2,0.5-3.4h0.3
				c0.8,0,1.8-0.2,2.4-0.7c1,1.7,1.6,3.4,2.3,5.3l0,0c2.1,6.1,3.1,15.5-1.6,23.9c-4.8,8.5-16.3,18.8-31.1,17.3
				c-16.8-1.4-24.5-16.9-24.7-17.6C197.8,83.3,197.5,76.8,199.1,71z"/>
			<path class="st9" d="M231,74.1c0.8,1,0.8,1.9,0,2.7c-1.3,0.2-2.9-1.2-4.4-1.2c-1.6,0-2.6,1.2-3.6,1.5c-1.3,1-2.9,1-4,1
				c-0.3,0-0.3,0-0.5,0l0,0c-0.5,0-1.1-0.2-1.6-1c-0.8-1-0.3-1.9,0-3.1c1.3-3.1,2.4-5.8,3.6-8.9c0.6-2.6,1.6-4.8,1.9-7.7
				c0.3-1.4,1.1-6.5,2.4-2.7c0.8,1.5,1.3,3.4,1.6,5.1c0.3,1.9,0,4.1,0,6.1c0,1.9,0.8,4.1,2.3,5.8C229.4,72.4,229.9,73.4,231,74.1z
				 M224.6,75.8C224.6,75.5,224.3,75.5,224.6,75.8c-0.3-0.2-0.5,0-0.5,0S224.1,75.8,224.6,75.8L224.6,75.8
				C224.3,75.8,224.6,75.8,224.6,75.8L224.6,75.8z M223.8,73.8c0,0,0-0.2-0.3-0.2s-0.3,0-0.3,0.2c0,0,0,0.2,0.3,0.2
				C223.8,74.1,223.8,73.8,223.8,73.8L223.8,73.8z M222.2,71.7c0-0.2-0.3-0.2-0.5-0.2s-0.5,0.2-0.5,0.2c0,0.2,0.3,0.2,0.5,0.2
				C221.8,72.1,222.2,72.1,222.2,71.7L222.2,71.7z M222.2,74.8c0-0.2,0-0.2-0.3-0.2s-0.3,0-0.3,0.2c0,0.2,0,0.2,0.3,0.2l0,0
				L222.2,74.8L222.2,74.8z M221.7,76.3c0-0.2,0-0.2-0.3-0.2s-0.3,0-0.3,0.2l0,0l0,0c-0.3,0-0.3,0-0.3,0.2c0,0.2,0,0.2,0.3,0.2
				s0.3,0,0.3-0.2l0,0l0,0l0,0C221.7,76.7,221.7,76.3,221.7,76.3L221.7,76.3z M220.9,76.3C220.9,76.3,220.7,75.8,220.9,76.3
				c-0.3-0.2-0.5,0-0.5,0S220.7,76.3,220.9,76.3L220.9,76.3C220.7,76.3,220.9,76.3,220.9,76.3L220.9,76.3z M220.7,77.9L220.7,77.9
				C220.7,77.4,220.7,77.4,220.7,77.9L220.7,77.9L220.7,77.9C220.4,77.9,220.7,77.9,220.7,77.9L220.7,77.9L220.7,77.9z M220.5,73.8
				L220.5,73.8c-0.3-0.2-0.5,0-0.5,0S220.4,74.1,220.5,73.8L220.5,73.8L220.5,73.8L220.5,73.8z M220.4,75.6
				C220.4,75.3,220.4,75.3,220.4,75.6c-0.3-0.2-0.5,0-0.5,0S220.1,75.8,220.4,75.6L220.4,75.6L220.4,75.6L220.4,75.6z M219.3,72.6
				L219.3,72.6C219.3,72.2,219.3,72.2,219.3,72.6L219.3,72.6L219.3,72.6C219.3,72.2,219.3,72.6,219.3,72.6L219.3,72.6z M219.3,71.2
				c0-0.2,0-0.2,0-0.2S218.9,71,219.3,71.2c-0.3,0.2-0.3,0.2,0,0.2C219.6,71.5,219.3,71.5,219.3,71.2L219.3,71.2z M219.3,76.8
				L219.3,76.8c-0.3-0.2-0.5,0-0.5,0C218.8,77.2,219.1,77.2,219.3,76.8L219.3,76.8C219.3,77.2,219.3,77.2,219.3,76.8L219.3,76.8z
				 M219.1,74.8C219.1,74.8,218.9,74.6,219.1,74.8c-0.3-0.2-0.5,0-0.5,0C218.4,75.1,218.8,75.1,219.1,74.8L219.1,74.8
				C219.1,75.1,219.1,75.1,219.1,74.8L219.1,74.8z M218.9,73.3h-0.3c-0.3,0-0.3,0-0.3,0h0.3C218.9,73.3,218.9,73.3,218.9,73.3
				L218.9,73.3z M218.4,72.1c0,0,0-0.2-0.3-0.2l0,0l0,0c-0.3,0-0.3,0-0.3,0.2s0,0.2,0.3,0.2S218.4,72.1,218.4,72.1z M218.4,77.4
				c0,0,0-0.2-0.3-0.2l0,0l0,0c-0.3,0-0.3,0-0.3,0.2s0,0.2,0.3,0.2C218.4,77.9,218.4,77.4,218.4,77.4z M218,73.4
				C218,73.4,217.8,73.4,218,73.4c-0.3-0.2-0.5,0-0.5,0C217.3,73.8,217.3,73.8,218,73.4L218,73.4C217.8,73.8,218,73.8,218,73.4
				L218,73.4z M218,76.3C218,76.3,217.8,76.3,218,76.3c-0.3-0.2-0.5,0-0.5,0S217.3,76.7,218,76.3L218,76.3
				C217.8,76.7,218,76.3,218,76.3L218,76.3z M217.8,75.3c0-0.2,0-0.2-0.3-0.2l0,0c0,0-0.3,0-0.3,0.2l0,0l0,0c0,0.2,0.3,0.2,0.5,0.2
				L217.8,75.3L217.8,75.3L217.8,75.3z M217.8,74.6C217.8,74.6,217.3,74.6,217.8,74.6c-0.3-0.2-0.5,0-0.5,0
				C217.2,75,217.2,75,217.8,74.6L217.8,74.6C217.8,75,217.8,75,217.8,74.6L217.8,74.6z M217.8,76.8
				C217.8,76.8,217.5,76.8,217.8,76.8c-0.3-0.2-0.5,0-0.5,0C217.3,77.2,217.3,77.2,217.8,76.8L217.8,76.8
				C217.8,77.2,217.8,77.2,217.8,76.8L217.8,76.8z M217.8,75.8h-0.3c-0.3,0-0.3,0-0.3,0S217.3,75.8,217.8,75.8L217.8,75.8z
				 M216.8,76.5C216.8,76.5,216.8,76.3,216.8,76.5c-0.3-0.2-0.5,0-0.5,0S216.7,76.7,216.8,76.5L216.8,76.5
				C216.8,76.7,216.8,76.5,216.8,76.5L216.8,76.5z"/>
			<path class="st14" d="M228.3,84.4c0.6,0,4,0.2,4.4,0c-1.1,0.7-2.4,1.2-4,1.2c-4.4,0.2-9.4,0.5-13.7-0.7c0-0.7,7.3-0.3,8.4-0.3
				C225.2,84.4,226.8,84.4,228.3,84.4z"/>
		</g>
	</g>
</g>
<g id="desk">
	<g>
		<path class="st15" d="M410.7,280.2c0,2.6-2.4,4.6-5.5,4.6h-342c-3.1,0-5.5-2-5.5-4.6V173.3c0-2.6,2.4-4.6,5.5-4.6h342
			c3.1,0,5.5,2,5.5,4.6V280.2z"/>
	</g>
</g>
<g id="Layer_1_1_">
</g>
<rect x="-27" y="-428.7" class="st10" width="509.5" height="167.4"/>
<path id="thought_1" class="st16" d="M331.3-126.6c0.8-0.6,1.3-1.5,1.3-2.5c0-2-2.2-3.6-5-3.6c-0.2,0-0.4,0-0.6,0
	c-0.8-1.4-2.1-2.3-3.6-2.3c-1.9,0-3.5,1.5-4.1,3.6c-1.1,0.5-1.8,1.6-1.8,2.7c0,0.4,0.1,0.8,0.2,1.1c-1.1,0.5-1.8,1.5-1.8,2.6
	c0,1.6,1.5,2.9,3.4,2.9c0.1,0,0.3,0,0.4,0c0.5,1.7,1.6,2.9,3,2.9c1.3,0,2.4-1,2.9-2.4c0.8,0.3,1.7,0.5,2.6,0.5c2.7,0,5-1.3,5-3
	C333.5-125.1,332.6-126,331.3-126.6z"/>
<path id="thought_2" class="st16" d="M358-151.2c0.9,1.2,2.1,2.1,3.6,2.3c3.1,0.4,6-2.2,6.4-5.9c0-0.3,0.1-0.6,0.1-0.8
	c2.3-0.7,4-2.3,4.2-4.3c0.3-2.5-1.8-4.9-4.9-6.1c-0.7-1.5-2.1-2.7-4-2.9c-0.6-0.1-1.2,0-1.8,0.1c-0.6-1.5-2-2.6-3.7-2.9
	c-2.5-0.3-4.8,1.5-5.1,4c0,0.2,0,0.3,0,0.5c-2.7,0.3-4.7,1.6-4.9,3.5c-0.2,1.7,1.1,3.3,3.3,4.3c-0.6,1-1,2.1-1.1,3.4
	c-0.5,3.6,1.3,6.8,3.9,7.2C355.4-148.6,356.9-149.6,358-151.2z"/>
<g id="mouse">
	<path class="st17" d="M297.1,195l-18.1,4.2c-3.5,0.8-7-1-7.7-3.8l-3-12.8c-0.7-3,1.6-6,5.2-6.8l18.1-4.2c3.5-0.8,7,1,7.7,3.8
		l2.9,12.6C303,191,300.6,194.2,297.1,195z"/>
	<g>
		<path class="st18" d="M286.8,183.9l-0.2,2.8l-1.3,2.4l-1.5,1.6l-1.8,0.6l-2.9-0.2l-1.1-1.3l-0.4-1.8l0.2-1.8l0.3-1.5l-0.9-1.9
			c0,0-0.6-1.1,0-1.4c0.4-0.3,0.9-1.8,0.9-1.8l2.3-0.7l3.4-0.3l3,0.9l0.9,2.6L286.8,183.9z"/>
		<path class="st19" d="M280.7,188.3c0.1-1.1,0.7-1.9,1.2-1.9s0.7,0.9,0.6,2c-0.1,1.1-0.7,1.9-1.2,1.9
			C280.9,190.2,280.5,189.2,280.7,188.3z"/>
	</g>
</g>
<g id="hand">
	<path class="st0" d="M282,180.2c-0.6-0.9-0.9-2.1-1.2-3.3c-0.5-4.1,1.5-8.3,4.7-9.4c3.1-1,6.1,1.5,6.6,5.6c0.5,4.1-1.5,8.3-4.7,9.4
		c-1.1,0.4-2.1,0.3-3.1-0.1"/>
	<g>
		<path class="st0" d="M281.2,172.5c0,0-0.3,0.2-0.7,0.7c-0.4,0.4-1.1,1.3-1.6,2c-0.6,0.8-0.9,1.7-0.8,2.3c0,0.6,0,1.7-0.1,2.6
			c0,0,0,0,0.1,0.3c0.1,0.3,0.1,0.3,0.1,0.3c0,1.1,0.2,2.4,0.4,2.7c0.2,0.3,0.6,0.5,0.9,0.4c0.3-0.1,0.7-0.2,0.9-0.3
			c0.2-0.1,0.5-0.4,0.6-0.6s0.3-0.9,0.3-1.1c0-0.1-0.1-1.3-0.1-1.5c0-0.3,0.2-0.8,0.4-0.9c0.2-0.3,0.6-0.6,0.9-0.9
			c0.3-0.2,0.8-0.5,1-0.7c0.2-0.1,0.6-0.5,0.8-0.6c0.3-0.1,0.5-0.5,0.7-0.8c0.1-0.3,0.3-0.5,0.4-0.6c0.1-0.1,0.1-0.3,0.3-0.5"/>
	</g>
	<polyline class="st0" points="282.7,178.6 282.6,181.9 282.6,185 282.5,189.1 282.5,190.7 284.1,191.9 284.8,191.9 285.1,191.2 
		285.4,190 285.4,188.5 285.5,186.7 285.5,185.2 285.5,182.7 	"/>
	<polyline class="st0" points="286.4,181.4 286.1,190.5 285.9,192.6 287.5,192.9 288.1,193 288.6,191.8 289.3,180.9 	"/>
	<polyline class="st0" points="288.9,182.1 290.1,191.1 291,191.9 292,191.6 292.7,190.9 291,178.4 	"/>
	<polyline class="st0" points="291.4,178.6 292.2,180.9 293.5,183.4 294.5,182.7 294.4,181.7 292.5,174.2 	"/>
</g>
<g id="thought_3_layer" class="st20">
	<path class="st21" d="M509.3-228c6.3-15.8-1.5-33.7-17.3-40c-4.3-1.7-8.8-2.4-13.1-2.1c-1-11.6-8.4-22.2-20-26.8
		c-9.6-3.8-19.9-2.6-28.1,2.3c-2.6-1.8-5.4-3.4-8.5-4.6c-17.5-6.9-36.5-0.6-42.4,14.2c-1,2.5-1.5,5.2-1.7,7.8
		c-13.8,1.3-25.7,8.9-30.5,21.1c-5.4,13.7-0.4,29.2,11.3,39.8c-2.3,11.6,6.7,24.8,21.7,30.7c12,4.7,24.3,3.5,32-2.3
		c0.8,0.4,1.7,0.8,2.6,1.1c9.5,3.7,19.5,3.7,28.4,0.7c2.3,1.6,4.8,3,7.5,4.1c19,7.5,40.5-1.8,48-20.8c1.9-4.7,2.7-9.5,2.6-14.3
		C505-220,507.6-223.7,509.3-228z"/>
	<circle class="st22" cx="422.9" cy="-216.4" r="4.6"/>
	<circle class="st23" cx="422.9" cy="-248.2" r="14.8"/>
	<g class="st24">
		<path class="st19" d="M422.5-217.6c2.3-0.7,4.2-2.6,4.2-4.4s0.4-4.2,0.9-5.5c0.5-1.2,2.1-4.1,3.7-6.4l0.7-1.1
			c1.5-2.3,0.7-3.4-2-2.6l-3.7,1.2c-2.6,0.9-5.8,1.3-7,0.9c-1.3-0.4-2.8-0.9-3.4-1.3c-0.6-0.3-1.7-0.5-2.4-0.4s-0.5,1.1,0.4,2.2
			c0.9,1.1,1.9,2.6,2.3,3.3c0.4,0.7,0.8,3.5,0.9,6.1c0,0,0,0,0,0.8s0,0.8,0,0.8c1,1.2,1.7,3,1.6,4.1c-0.1,1.1-0.2,2.2-0.3,2.6
			C418.4-216.7,420.2-216.9,422.5-217.6z"/>
	</g>
</g>
<g id="notebook_pencils">
	<g>
		<polygon class="st25" points="97.2,185.2 99.4,184.7 105.4,212.7 103.1,213.1 		"/>
		<polygon class="st0" points="97.6,182.2 99.4,184.7 97,185.2 		"/>
		<polygon class="st19" points="103.3,214.1 105.7,213.8 105.4,212.7 103.1,213.1 		"/>
		<polygon class="st7" points="103.8,216.1 106,215.8 105.7,213.8 103.3,214.1 		"/>
	</g>
	<g>
		<polygon class="st25" points="108.8,185.1 111,184.5 117.2,212.6 114.9,212.9 		"/>
		<polygon class="st0" points="109.3,182 111,184.5 108.8,185.1 		"/>
		<polygon class="st19" points="115.1,213.9 117.3,213.6 117.2,212.6 114.7,212.9 		"/>
		<polygon class="st7" points="115.6,216 117.8,215.6 117.3,213.6 115.1,213.9 		"/>
	</g>
	<g>
		<rect x="130.2" y="173.6" class="st2" width="34.1" height="46.3"/>
		<rect x="128.1" y="175" class="st18" width="34.1" height="46.3"/>
	</g>
</g>
<g id="coffee">
	<g>
		<path class="st26" d="M359.2,190c0,2.6-2.4,4.6-5.5,4.6H345c-3.1,0-5.5-2-5.5-4.6v-10.6c0-2.6,2.4-4.6,5.5-4.6h8.7
			c3.1,0,5.5,2,5.5,4.6V190z"/>
	</g>
	<polygon class="st2" points="358.4,179.8 359.2,179.8 363.9,179.8 366,181.3 366,184.7 366,191.4 359.2,191.4 358.4,191.4 
		357.8,190 363.9,189.8 363.6,182.3 363.4,181.3 357.8,181.3 357.3,179.8 	"/>
	<ellipse class="st6" cx="349.5" cy="178.7" rx="7.4" ry="3.2"/>
	<polygon class="st27" points="349.5,193.8 348.1,193.8 348.1,189.8 348.1,187.6 349.5,187.6 	"/>
	<polygon class="st27" points="347.8,189.3 346.6,189.3 345.8,190 345.7,190.7 346.6,190.7 347.8,190 348.3,190 348.7,189.8 	"/>
	<polygon class="st27" points="350.2,190.7 351.8,190.7 352.6,191.4 352.9,192.2 351.6,192.2 350.2,191.4 349.7,191.4 349.2,191.4 	
		"/>
	<ellipse class="st14" cx="348.3" cy="187.1" rx="1.1" ry="1"/>
	<ellipse class="st14" cx="350.2" cy="184.5" rx="1.1" ry="1"/>
	<ellipse class="st14" cx="348.7" cy="184" rx="1.1" ry="1"/>
	<ellipse class="st14" cx="347.3" cy="184.7" rx="1.1" ry="1"/>
	<ellipse class="st14" cx="351" cy="185.9" rx="1.1" ry="1"/>
	<ellipse class="st14" cx="346.6" cy="186.4" rx="1.1" ry="1"/>
	<ellipse class="st14" cx="350.2" cy="187.1" rx="1.1" ry="1"/>
	<ellipse class="st25" cx="348.7" cy="185.7" rx="1.3" ry="1"/>
</g>
<g id="Layer_7">
	<g id="letter">
		<g>
			<polygon class="st28" points="392.3,206.1 378.6,233.6 360.7,226.6 374.2,199.1 			"/>
			<path d="M378.6,233.4l-17.9-6.8l13.6-27.3l17.9,6.8L378.6,233.4 M378.8,233.6l13.7-27.5l-18.2-7l-13.7,27.5L378.8,233.6
				L378.8,233.6z"/>
		</g>
		<g>
			<path class="st2" d="M374.4,207.3c0.2-0.2,0.5-0.2,0.8-0.2l6.1,2.4c0.3,0.2,0.5,0.3,0.3,0.7l-7.3,14.9c-0.2,0.2-0.5,0.2-0.8,0.2
				l-6.1-2.4c-0.3-0.2-0.5-0.3-0.3-0.7L374.4,207.3L374.4,207.3z"/>
			<path d="M374.2,224.7c-0.2,0.2-0.3,0.2-0.6,0.2l-6.1-2.4c-0.3-0.2-0.3-0.3-0.3-0.5l7.3-14.9c0.2-0.2,0.3-0.2,0.6-0.2l6.1,2.4
				c0.3,0.2,0.3,0.3,0.3,0.5L374.2,224.7 M374.4,224.9l7.3-14.9c0.2-0.2,0-0.5-0.3-0.7l-6.1-2.4c-0.3-0.2-0.8,0-0.8,0.2l-7.3,14.9
				c-0.2,0.2,0,0.5,0.3,0.7l6.1,2.4C373.9,225.2,374.2,225,374.4,224.9L374.4,224.9z"/>
		</g>
		<text transform="matrix(-0.3113 0.6285 -0.9331 -0.3596 377.8555 211.2973)" class="st29 st30">Nate Walker,</text>
		<text transform="matrix(-0.3113 0.6285 -0.9331 -0.3596 375.8114 210.1616)" class="st29 st31">Philadelphia Pa</text>
		<path class="st32" d="M375.4,230.8l1.3-2.6c0.2-0.3,0.8-0.5,1.3-0.3l1.3,0.5c0.5,0.2,0.8,0.7,0.5,1l-1.3,2.6
			c-0.2,0.3-0.8,0.5-1.3,0.3l-1.3-0.5C375.5,231.7,375.2,231.2,375.4,230.8z"/>
		<path class="st33" d="M379.6,226.2c-0.8-0.3-1.1-1-0.8-1.5c0.3-0.5,1.3-0.7,2.1-0.3c0.8,0.3,1.1,1,0.8,1.5
			C381.2,226.6,380.4,226.6,379.6,226.2z"/>
		<polygon class="st34" points="377.1,229 378.4,230.3 376.3,230.3 		"/>
		<polygon class="st34" points="378.1,231.4 376.7,229.8 375.9,231.5 		"/>
		<path class="st10" d="M380.7,228.1c-0.6-0.2-1.6,0.3-2.1,1.2"/>
		<path class="st33" d="M379.4,228.4c-0.2,0.2-0.3,0.2-0.3,0.3c-0.2,0.3,0.2,0.7,0,0.9c-0.2,0.2-0.5,0.2-0.6,0.5
			c-0.2,0.2,0.2,0.3,0,0.7c-0.2,0.2-0.3,0.2-0.6,0.5c-0.2,0.2-0.3,0.3-0.3,0.9"/>
		<path class="st33" d="M378.9,228.1c-0.2,0.2-0.3,0.2-0.5,0.5c-0.2,0.3,0,0.7-0.2,1c-0.3,0.3-0.5,0.2-0.6,0.5
			c-0.2,0.3,0.2,0.5,0,0.7c-0.2,0.2-0.3,0.2-0.6,0.5c-0.2,0.2-0.3,0.5-0.3,1"/>
		<path class="st33" d="M377.8,227.6c-0.2,0.2-0.3,0.2-0.3,0.5c-0.2,0.3,0,0.7-0.3,0.9c-0.2,0.3-0.3,0.2-0.5,0.7
			c-0.2,0.3,0,0.3-0.2,0.7c-0.2,0.2-0.3,0.3-0.5,0.7c-0.2,0.2-0.3,0.5-0.3,1"/>
		<path class="st33" d="M377.9,228.4c-0.2,0-0.3,0.2-0.3,0.3c-0.2,0.3,0.2,0.5,0,0.9c-0.2,0.2-0.5,0.2-0.5,0.3
			c-0.2,0.2,0.2,0.3,0,0.7c-0.2,0.2-0.3,0.2-0.5,0.3c-0.2,0.2-0.3,0.3-0.3,0.9"/>
		<path class="st35" d="M379.6,226.1c-0.6-0.3-1-0.9-0.6-1.2c0.3-0.3,1.1-0.5,1.8-0.2c0.6,0.3,1,0.9,0.6,1.2
			C381,226.2,380.2,226.4,379.6,226.1z"/>
		<line class="st35" x1="361.3" y1="227.1" x2="361.7" y2="227.3"/>
		<line class="st35" x1="367" y1="216.1" x2="367.6" y2="216.5"/>
		<line class="st35" x1="367" y1="216.5" x2="367.3" y2="216.7"/>
		<line class="st35" x1="366.7" y1="216.8" x2="367" y2="217"/>
		<line class="st35" x1="366.5" y1="217.2" x2="367.1" y2="217.5"/>
		<line class="st35" x1="366.3" y1="217.5" x2="366.7" y2="217.7"/>
		<line class="st35" x1="366.2" y1="217.9" x2="366.5" y2="218"/>
		<line class="st35" x1="366" y1="218.2" x2="366.3" y2="218.4"/>
		<line class="st33" x1="367.3" y1="215.8" x2="366" y2="218.2"/>
		<line class="st35" x1="366" y1="218.2" x2="366.3" y2="218.4"/>
		<line class="st35" x1="365.8" y1="218.5" x2="366.5" y2="218.9"/>
		<line class="st35" x1="365.7" y1="218.9" x2="366" y2="219.1"/>
		<line class="st35" x1="365.5" y1="219.2" x2="365.8" y2="219.4"/>
		<line class="st35" x1="365.4" y1="219.6" x2="366" y2="219.9"/>
		<line class="st35" x1="365.2" y1="219.9" x2="365.5" y2="220.1"/>
		<line class="st33" x1="365" y1="220.2" x2="365.4" y2="220.4"/>
		<line class="st33" x1="366" y1="218.2" x2="364.9" y2="220.6"/>
		<line class="st35" x1="364.9" y1="220.6" x2="365.2" y2="220.8"/>
		<line class="st35" x1="364.7" y1="221.1" x2="365.2" y2="221.3"/>
		<line class="st35" x1="364.6" y1="221.3" x2="364.9" y2="221.4"/>
		<line class="st35" x1="364.4" y1="221.6" x2="364.7" y2="221.8"/>
		<line class="st35" x1="364.2" y1="222.1" x2="364.7" y2="222.3"/>
		<line class="st35" x1="363.9" y1="222.5" x2="364.4" y2="222.5"/>
		<line class="st35" x1="363.7" y1="222.6" x2="364.1" y2="222.8"/>
		<line class="st33" x1="364.9" y1="220.6" x2="363.6" y2="223.2"/>
		<line class="st35" x1="363.6" y1="223.2" x2="363.9" y2="223.2"/>
		<line class="st35" x1="363.4" y1="223.5" x2="364.1" y2="223.7"/>
		<line class="st35" x1="363.3" y1="223.8" x2="363.6" y2="223.8"/>
		<line class="st35" x1="363.1" y1="224" x2="363.4" y2="224.2"/>
		<line class="st35" x1="362.9" y1="224.5" x2="363.6" y2="224.7"/>
		<line class="st35" x1="362.8" y1="224.9" x2="363.1" y2="224.9"/>
		<line class="st35" x1="362.6" y1="225" x2="362.9" y2="225.2"/>
		<line class="st33" x1="363.6" y1="223.2" x2="362.5" y2="225.5"/>
		<path class="st36" d="M386,206.4l0.8-1.4c0.2-0.2,0.5-0.3,0.8-0.2l3.2,1.2c0.3,0.2,0.5,0.3,0.3,0.7l-0.8,1.4
			c-0.2,0.2-0.5,0.3-0.8,0.2l-3.2-1.2C386,206.9,385.9,206.6,386,206.4z"/>
		<line class="st37" x1="390.1" y1="206.2" x2="389.4" y2="207.6"/>
		<line class="st37" x1="389.1" y1="206.1" x2="388.6" y2="206.9"/>
		<line class="st37" x1="388.6" y1="205.6" x2="388" y2="206.9"/>
		<line class="st33" x1="387.6" y1="205.4" x2="387" y2="206.6"/>
	</g>
</g>
<g id="Layer_3">
	<rect x="269.6" y="215.1" class="st38" width="3.1" height="3.6"/>
	<rect x="272.6" y="216.1" class="st39" width="52.8" height="1.2"/>
	<polygon class="st39" points="352.3,255.1 350.8,255.6 324.5,217.2 325.8,216.7 	"/>
	<path class="st40" d="M270.9,216.8c0-0.2,0.3-0.3,0.5-0.2c0.2,0,0.3,0.2,0.3,0.3s-0.3,0.3-0.5,0.2
		C271.1,217.2,270.9,217,270.9,216.8z"/>
</g>
<g id="compture">
	<g>
		<path class="st19" d="M270.4,220.1c0,2.6-2.4,4.6-5.5,4.6h-61.6c-3.1,0-5.5-2-5.5-4.6v-33.6c0-2.6,2.4-4.6,5.5-4.6H265
			c3.1,0,5.5,2,5.5,4.6V220.1L270.4,220.1z"/>
	</g>
	<path class="st41" d="M234.1,196.2l2.1,2.6l2.6,5.1v1.9l-1.8,3.8l-2.7,1l-4.7-1.7c0-0.7,0-1.5,0-2.2c2.6,0,3.2-0.2,3.2-0.5
		c0-0.5-2.1-0.9-2.4-2.2c-0.3-0.9,0.3-1.9,1.1-2.6c0.5-0.9,0.8-1.7,1.3-2.6L234.1,196.2z"/>
</g>
<path class="st1" d="M292.3,171c-4.6,1.2-8.8,0.8-10.4-1.6c-0.3-0.4-0.5-0.8-0.6-1.4c-0.4-0.5-1-1.2-1.6-2.1
	c-2.1-2.9-3.3-5.5-3.7-6.3c-0.8-1.9-1.1-3.1-1.9-6c-1.8-6.7-2-6.2-2.8-9.4c-1.5-6.1-2.1-12.4-2.4-15.4c-0.3-3-0.4-5.1-1.8-7.6
	c-0.9-1.6-2.3-3.4-2-3.7c0.3-0.3,1.6,0.9,2,0.6c0.3-0.2-0.1-1-0.4-1.6c1.6-1.5,3.2-3,4.9-4.6c0.4-0.7,0.8-1.3,1.2-2
	c11.9,35.1,16.8,48.9,18.2,51.5c0.2,0.3,0.9,1.7,1.3,3.8C292.8,167.4,292.6,169.4,292.3,171z"/>
</svg>
