<?xml version="1.0" encoding="utf-8"?>
<!-- Generator: Adobe Illustrator 21.1.0, SVG Export Plug-In . SVG Version: 6.00 Build 0)  -->
<svg version="1.1" id="Layer_1" xmlns="http://www.w3.org/2000/svg" xmlns:xlink="http://www.w3.org/1999/xlink" x="0px" y="0px"
	 viewBox="0 0 1024 375.9" style="enable-background:new 0 0 1024 375.9;" xml:space="preserve">
<style type="text/css">
	.st0{fill:none;}
	.st1{fill:#25363D;}
	.st2{font-family:'Futura-Medium';}
	.st3{font-size:85px;}
	.st4{fill:#E6E7E8;}
	.st5{fill:#446171;}
</style>
<rect x="277.3" y="57.5" class="st0" width="452.5" height="159.6"/>
<text transform="matrix(1 0 0 1 403.1851 223.5734)" class="st1 st2 st3">Work</text>
<rect x="275.3" y="56.5" class="st0" width="452.5" height="159.6"/>
<g id="cloud_1">
	<path class="st4" d="M96.4,222.3c-2.6-1.1-5.6-1.7-8.8-1.7c-10.2,0-18.5,6.4-18.5,14.2S77.4,249,87.6,249c6.3,0,11.8-2.3,15.1-6
		c2.8,2.2,6.4,3.5,10.1,3.5c5,0,9.5-2.2,12.6-5.8c2.6,4,8.2,6.8,14.5,6.8c8.9,0,16.2-5.4,16.2-12.1c0-6.6-7.3-12.1-16.2-12.1
		c-3.8,0-7.3,1-10,2.6c-1-9.2-8.3-16.3-17.2-16.3C105.2,209.6,98.7,214.9,96.4,222.3z	">
<animateTransform  accumulate="none" additive="replace" attributeName="transform" attributeType="XML" calcMode="linear" dur="6s" fill="remove" repeatCount="indefinite" restart="always" type="translate" values="10,0;-10;10,0">
			</animateTransform>
	</path>
</g>
<g id="cloud_1_1_">
	<path class="st4" d="M835.1,175.8c-4.9-1.9-10.5-3-16.5-3c-19.1,0-34.6,11.1-34.6,24.8s15.5,24.8,34.6,24.8
		c11.7,0,22-4.1,28.2-10.5c5.3,3.9,11.9,6.1,18.9,6.1c9.3,0,17.7-3.9,23.6-10.2c4.9,7,15.3,11.8,27.2,11.8
		c16.7,0,30.3-9.5,30.3-21.1s-13.6-21.1-30.3-21.1c-7.1,0-13.6,1.7-18.7,4.5c-1.9-16.1-15.5-28.5-32.1-28.5
		C851.5,153.5,839.3,162.8,835.1,175.8z	">
<animateTransform  accumulate="none" additive="replace" attributeName="transform" attributeType="XML" calcMode="linear" dur="6s" fill="remove" repeatCount="indefinite" restart="always" type="translate" values="10,0;-10;10,0">
			</animateTransform>
	</path>
</g>
<g id="cloud_1_2_">
	<path class="st4" d="M631.5,314.6c-1.8-0.7-3.8-1.2-6-1.2c-6.9,0-12.6,4.4-12.6,9.8c0,5.3,5.6,9.8,12.6,9.8c4.2,0,8-1.6,10.3-4.1
		c1.9,1.5,4.3,2.4,6.9,2.4c3.4,0,6.4-1.5,8.6-4c1.8,2.7,5.5,4.7,9.9,4.7c6,0,11-3.7,11-8.3c0-4.5-5-8.3-11-8.3c-2.6,0-5,0.7-6.8,1.8
		c-0.6-6.3-5.6-11.2-11.7-11.2C637.4,305.8,633,309.5,631.5,314.6z	">
<animateTransform  accumulate="none" additive="replace" attributeName="transform" attributeType="XML" calcMode="linear" dur="6s" fill="remove" repeatCount="indefinite" restart="always" type="translate" values="10,0;-10;10,0">
			</animateTransform>
	</path>
</g>
<polygon class="st5" points="256.1,459.5 256.1,310.4 250.6,301.2 250.6,289.1 237.7,276.6 233.9,265.4 230.5,276.2 216.2,287.9 
	216.2,301.2 212.1,308.3 212.1,530.8 256.1,532.8 "/>
<g id="liberty_building-2">
	<polygon class="st5" points="173.1,347.6 173.1,289.8 167.4,284.9 167.4,278.1 163.9,275.3 163.9,268.8 158.8,265.5 158.8,260.3 
		154.5,256.2 152.8,248.5 152.8,218.9 151.1,218.9 149.6,247.1 147.9,255.6 143.6,258.6 143.6,266 138.8,269 138.8,275.3 
		138.8,277.2 135.6,279.2 135.6,285.2 130.5,289.6 128.8,422.7 173.1,422.7 	"/>
	<polygon class="st5" points="140.5,293.1 150.2,284.1 161.1,293.1 161.1,422.7 140.5,422.7 	"/>
</g>
<g id="building_middle_i">
	<rect x="795.8" y="291.8" class="st1" width="33.3" height="194.5"/>
	<rect x="799.3" y="320.1" class="st5" width="25.7" height="165.2"/>
	<rect x="792.5" y="319.7" class="st5" width="3.8" height="166.1"/>
	<rect x="828" y="319.7" class="st5" width="3.6" height="167.1"/>
	<rect x="802.6" y="332.5" class="st1" width="19.6" height="10.1"/>
</g>
</svg>
