<?xml version="1.0" encoding="utf-8"?>
<!-- Generator: Adobe Illustrator 21.1.0, SVG Export Plug-In . SVG Version: 6.00 Build 0)  -->
<svg version="1.1" id="Layer_1" xmlns="http://www.w3.org/2000/svg" xmlns:xlink="http://www.w3.org/1999/xlink" x="0px" y="0px"
	 viewBox="0 0 100 100" style="enable-background:new 0 0 100 100;" xml:space="preserve">
<style type="text/css">
	.st0{fill:#9C0F5F;}
	.st1{fill:#C91B26;}
	.st2{fill:#F2671F;}
	.st3{fill:#60047A;}
	.st4{fill:#160A47;}
	.st5{fill:#BDD000;}
	.st6{fill:none;stroke:#231F20;stroke-linecap:round;stroke-miterlimit:10;}
</style>
<g>
	
		<animateTransform  accumulate="none" additive="replace" attributeName="transform" attributeType="XML" calcMode="linear" dur="3s" fill="remove" repeatCount="indefinite" restart="always" type="translate" values="0,20;0,0">
		</animateTransform>
</g>
<g id="Layer_2_1_">
</g>
<g id="XMLID_1_">
	<g>
		<path class="st0" d="M100,59.3V62h-1.3c0.2-0.9,0.4-1.8,0.5-2.7H100z"/>
		<path class="st1" d="M100,52v7.3h-0.8C99.7,56.9,99.9,54.5,100,52L100,52z"/>
		<path class="st1" d="M100,50.6V52h0C100,51.5,100,51.1,100,50.6z"/>
		<path class="st1" d="M100,47.1v3.5c0-1.2,0-2.3-0.1-3.5H100z"/>
		<path class="st1" d="M100,46.1v1h-0.1c0-0.3,0-0.7-0.1-1H100z"/>
		<path class="st1" d="M100,38v8.1h-0.2c-0.2-2.8-0.7-5.5-1.4-8.1H100z"/>
		<path class="st1" d="M100,50.6c0,0.5,0,0.9,0,1.4H0c0-0.5,0-0.9,0-1.4c0-1.2,0-2.3,0.1-3.5h99.7C100,48.2,100,49.4,100,50.6z"/>
		<path class="st1" d="M0,52h100c-0.1,2.5-0.3,4.9-0.7,7.3H0.8C0.3,56.9,0.1,54.5,0,52z"/>
		<path class="st1" d="M99.9,47.1H0.1c0-0.3,0-0.7,0.1-1h99.6C99.8,46.4,99.9,46.8,99.9,47.1z"/>
		<path class="st1" d="M99.8,46.1H0.2c0.2-2.8,0.7-5.5,1.4-8.1h96.8C99.1,40.6,99.6,43.3,99.8,46.1z"/>
		<path class="st0" d="M0.8,59.3h98.5c-0.2,0.9-0.3,1.8-0.5,2.7h-52h-3.9H1.3C1.1,61.1,0.9,60.2,0.8,59.3z"/>
		<path class="st0" d="M46.7,62h52c-1.6,7-4.7,13.4-8.9,18.9H82v-0.8h-0.7c0-0.4,0.1-0.9,0.1-1.3c-0.3-0.2-0.9,0.2-0.7,0.4
			c-0.6,0-1,0-1.5,0c-0.1,0-0.3,0-0.4-0.1c-0.1,0-0.1-0.1-0.1-0.2c-0.1-0.3-0.6-0.3-0.9-0.2c0.2,0.4,0.6,0.9,1.1,1.3l-0.7-0.6
			c0,0.3,0,0.4,0,0.6h-0.7v0.9H76v-1.4h-0.3c0.4-0.3,0.7-0.7,0.9-0.9c-0.6,0.7-1.8,0.7-2.8,0.7c-0.6,0-1.5-0.3-1.3,0.3H72v1.3h-1.7
			v-0.8h-0.7v-2.4H67v2.4h-0.7v0.8h-1.6v-5.4v-0.6v-1.2h-0.4l-1.1-1.2l-1.1,1.2h-0.7v1.2h-0.7v6h-1.5v-7.2H59l-1.2-4.3
			c-0.1-0.3-0.9-0.3-1,0l-1.2,4.3h-0.4v7.2h-0.7v-6.8h-0.7v-0.6V73H50v0.6h-1v0.6v6.7h-0.8V67.4h-0.7v-1.8h-0.8V62z"/>
		<path class="st2" d="M98.4,38H1.6C5.6,22.4,17,9.8,31.8,4h36.3C83,9.8,94.4,22.4,98.4,38z"/>
		<path class="st3" d="M82,80.9h7.8c-1.3,1.7-2.7,3.3-4.2,4.8v-1.9v-2.4h-2.9v2.4H82V80.9z"/>
		<path class="st4" d="M85.6,83.8v1.9c-0.9,0.9-1.9,1.8-2.8,2.7c-3.7-0.9-7.8-1.7-12.3-2.3H72v-2.4v-2.8h4v2.8h1.5v-2.8H82v2.9h0.7
			v-2.4h2.9V83.8z"/>
		<path class="st4" d="M82,80.1v0.8h-4.5V80h0.7c0-0.2,0-0.3,0-0.6l0.7,0.6c-0.5-0.4-0.9-0.9-1.1-1.3c0.3-0.1,0.8-0.1,0.9,0.2
			c0,0.1,0,0.2,0.1,0.2c0.1,0.1,0.3,0.1,0.4,0.1c0.5,0,0.9,0,1.5,0c-0.2-0.2,0.4-0.6,0.7-0.4c0,0.4-0.1,0.9-0.1,1.3H82z"/>
		<path class="st4" d="M82.8,88.4c-1.3,1.2-2.7,2.2-4.2,3.2H21.4c-1.4-1-2.7-2-4-3.1v-0.4c1.5-0.3,3-0.7,4.6-1v1.5h0.7V87
			c4.2-0.8,8.8-1.3,13.6-1.7v0.4H37v-0.4c1.3-0.1,2.7-0.2,4.1-0.2v0.6h0.7V85c2.1-0.1,4.2-0.2,6.4-0.2v1H49v-1c0.1,0,0.3,0,0.4,0
			c1.7,0,3.4,0,5.1,0.1v0.9h0.7v-0.9c1.3,0,2.7,0.1,4,0.2v0.8v0.6h1.5v-1.3c1.4,0.1,2.7,0.2,4,0.3v0.6h0.9v-0.5
			c1.6,0.2,3.2,0.3,4.7,0.5v0h0.1C74.9,86.7,79.1,87.4,82.8,88.4z"/>
		<path class="st4" d="M21.4,91.6h57.2c-2.4,1.7-5,3.2-7.7,4.4H29.1C26.4,94.8,23.8,93.3,21.4,91.6z"/>
		<rect x="76" y="80.9" class="st3" width="1.5" height="2.8"/>
		<path class="st4" d="M76,79.5v1.4h-4v-1.3h0.5c-0.2-0.6,0.7-0.3,1.3-0.3c1,0,2.2,0,2.8-0.7c-0.2,0.2-0.5,0.6-0.9,0.9H76z"/>
		<path class="st3" d="M72,83.7v2.4h-1.6c0,0-0.1,0-0.1,0v-4.2v-1H72V83.7z"/>
		<path class="st4" d="M29.1,96h41.9c-0.9,0.4-1.9,0.8-2.8,1.2H31.9C30.9,96.8,30,96.4,29.1,96z"/>
		<path class="st4" d="M70.4,86.1h-0.1v0C70.3,86.1,70.4,86.1,70.4,86.1z"/>
		<path class="st4" d="M70.3,81.9v4.2c-1.5-0.2-3.1-0.4-4.7-0.5v-3.7h0.7v-1h4V81.9z"/>
		<polygon class="st4" points="70.3,80.1 70.3,80.9 66.3,80.9 66.3,80.1 67,80.1 67,77.7 69.6,77.7 69.6,80.1 		"/>
		<path class="st2" d="M68.2,4H31.8C37.5,1.8,43.6,0.6,50,0.6S62.5,1.8,68.2,4z"/>
		<path class="st4" d="M31.9,97.2h36.2c-3.3,1.3-6.8,2.2-10.5,2.8h-8.3h-7.1C38.7,99.4,35.2,98.5,31.9,97.2z"/>
		<path class="st3" d="M66.3,80.9v1h-0.7v3.7c-0.3,0-0.6-0.1-0.9-0.1v-4.6H66.3z"/>
		<path class="st4" d="M65.6,85.6v0.5h-0.9v-0.6C65,85.5,65.3,85.5,65.6,85.6z"/>
		<path class="st4" d="M64.7,80.9v4.6c-1.3-0.1-2.6-0.2-4-0.3v-4.3H64.7z"/>
		<polygon class="st4" points="64.7,75.5 64.7,80.9 60.7,80.9 60.7,74.9 61.4,74.9 61.4,73.7 62.1,73.7 63.2,72.5 64.3,73.7 
			64.7,73.7 64.7,74.9 		"/>
		<path class="st4" d="M60.7,85.2v1.3h-1.5v-0.6v-0.8C59.7,85.1,60.2,85.1,60.7,85.2z"/>
		<path class="st3" d="M60.7,80.9v4.3c-0.5,0-1-0.1-1.5-0.1v-4.2H60.7z"/>
		<path class="st4" d="M59.2,80.9v4.2c-1.3-0.1-2.7-0.1-4-0.2v-4H59.2z"/>
		<path class="st4" d="M59.2,73.7v7.2h-4v-7.2h0.4l1.2-4.3c0.1-0.3,0.9-0.3,1,0l1.2,4.3H59.2z"/>
		<path class="st4" d="M55.2,84.9v0.9h-0.7v-0.9C54.7,84.9,55,84.9,55.2,84.9z"/>
		<path class="st3" d="M55.2,80.9v4c-0.2,0-0.5,0-0.7,0v-4H55.2z"/>
		<path class="st4" d="M54.5,80.9v4c-1.7-0.1-3.4-0.1-5.1-0.1c-0.1,0-0.3,0-0.4,0v-3.9H54.5z"/>
		<polygon class="st4" points="54.5,74.1 54.5,80.9 49,80.9 49,74.2 49,73.6 50,73.6 50,73 53.8,73 53.8,73.5 53.8,74.1 		"/>
		<path class="st4" d="M49,84.8v1h-0.8v-1C48.5,84.8,48.7,84.8,49,84.8z"/>
		<path class="st3" d="M49,80.9v3.9c-0.3,0-0.5,0-0.8,0v-3.9H49z"/>
		<path class="st4" d="M48.2,80.9v3.9c-2.2,0-4.3,0.1-6.4,0.2v-4.1H48.2z"/>
		<polygon class="st4" points="48.2,67.4 48.2,80.9 41.8,80.9 41.8,67.5 41.8,65.7 42.8,65.7 42.8,62 46.7,62 46.7,65.6 47.5,65.6 
			47.5,67.4 		"/>
		<path class="st0" d="M42.8,62v3.7h-1v1.8v13.4h-0.7v-7.3h-0.3l-1.4-2.2c-0.2-0.3-0.7-0.3-0.9,0l-1.2,2.2H37v7.3h-0.7v-0.1h-5.5
			v0.1h-2.3v-1.2h-0.2l-0.6-2.8c-0.1-0.4-0.9-0.4-1,0l-0.6,2.8H26v1.2H10.2C6,75.4,2.9,69,1.3,62H42.8z"/>
		<path class="st4" d="M41.8,85v0.6h-0.7V85C41.3,85,41.6,85,41.8,85z"/>
		<path class="st3" d="M41.8,80.9V85c-0.2,0-0.5,0-0.7,0v-4.1H41.8z"/>
		<path class="st4" d="M41.1,80.9V85c-1.4,0.1-2.8,0.2-4.1,0.2v-4.3H41.1z"/>
		<path class="st4" d="M41.1,73.6v7.3H37v-7.3h0.3l1.2-2.2c0.2-0.3,0.7-0.3,0.9,0l1.4,2.2H41.1z"/>
		<path class="st4" d="M37,85.2v0.4h-0.7v-0.4C36.5,85.3,36.8,85.3,37,85.2z"/>
		<path class="st3" d="M37,80.9v4.3c-0.2,0-0.5,0-0.7,0.1v-4.4H37z"/>
		<path class="st4" d="M36.3,80.9v4.4c-4.8,0.4-9.4,1-13.6,1.7v-1.3h1.1v-1.2h0.7v1.2H26v-4.8h0.6c0,0.3,0.4,0.6,0.8,0.6
			s0.8-0.3,0.8-0.6h0.3v4.8h2.3v-4.8H36.3z"/>
		<rect x="30.8" y="80.8" class="st4" width="5.5" height="0.1"/>
		<rect x="28.5" y="80.9" class="st3" width="2.3" height="4.8"/>
		<path class="st4" d="M28.5,79.7v1.2h-0.3c0-0.3-0.4-0.6-0.8-0.6s-0.8,0.3-0.8,0.6H26v-1.2h0.1l0.6-2.8c0.1-0.4,0.9-0.4,1,0
			l0.6,2.8H28.5z"/>
		<path class="st5" d="M28.2,80.9h-1.6c0-0.3,0.4-0.6,0.8-0.6S28.2,80.6,28.2,80.9z"/>
		<path class="st5" d="M26.6,80.9h1.6c0,0.3-0.4,0.6-0.8,0.6S26.6,81.2,26.6,80.9z"/>
		<path class="st3" d="M26,80.9v4.8h-1.5v-1.2h-0.7v1.2h-1.1V87c-0.2,0-0.5,0.1-0.7,0.1v-4.5h-0.7v-0.6h-3.2v0.6h-0.7v5.4
			c-0.1,0-0.2,0.1-0.3,0.1c-2.5-2.2-4.8-4.6-6.8-7.3H26z"/>
		<path class="st4" d="M22.7,87v1.7H22v-1.5C22.2,87.1,22.5,87.1,22.7,87z"/>
		<path class="st4" d="M22,82.7v4.5c-1.6,0.3-3.1,0.6-4.6,1v-5.4h0.7v-0.6h3.2v0.6H22z"/>
		<path class="st4" d="M17.4,88.1v0.4c-0.1-0.1-0.2-0.2-0.3-0.3C17.2,88.2,17.3,88.2,17.4,88.1z"/>
		<path class="st1" d="M0,38h1.6c-0.7,2.6-1.2,5.3-1.4,8.1H0V38z"/>
		<path class="st0" d="M1.3,62H0v-2.7h0.8C0.9,60.2,1.1,61.1,1.3,62z"/>
		<path class="st1" d="M0.8,59.3H0V52h0C0.1,54.5,0.3,56.9,0.8,59.3z"/>
		<path class="st1" d="M0,46.1h0.2c0,0.3-0.1,0.7-0.1,1H0V46.1z"/>
		<path class="st1" d="M0,47.1h0.1C0,48.2,0,49.4,0,50.6V47.1z"/>
		<path class="st1" d="M0,50.6c0,0.5,0,0.9,0,1.4h0V50.6z"/>
	</g>
	<g>
		<path class="st6" d="M0,50.6c0-1.2,0-2.3,0.1-3.5c0-0.3,0-0.7,0.1-1c0.2-2.8,0.7-5.5,1.4-8.1C5.6,22.4,17,9.8,31.8,4
			C37.5,1.8,43.6,0.6,50,0.6S62.5,1.8,68.2,4C83,9.8,94.4,22.4,98.4,38c0.7,2.6,1.2,5.3,1.4,8.1c0,0.3,0.1,0.7,0.1,1
			c0.1,1.2,0.1,2.3,0.1,3.5c0,0.5,0,0.9,0,1.4c-0.1,2.5-0.3,4.9-0.7,7.3c-0.2,0.9-0.3,1.8-0.5,2.7c-1.6,7-4.7,13.4-8.9,18.9
			c-1.3,1.7-2.7,3.3-4.2,4.8c-0.9,0.9-1.9,1.8-2.8,2.7c-1.3,1.2-2.7,2.2-4.2,3.2c-2.4,1.7-5,3.2-7.7,4.4c-0.9,0.4-1.9,0.8-2.8,1.2
			c-3.3,1.3-6.8,2.2-10.5,2.8c-2.5,0.4-5.1,0.6-7.7,0.6s-5.2-0.2-7.7-0.6c-3.6-0.6-7.1-1.5-10.5-2.8c-0.9-0.4-1.9-0.8-2.8-1.2
			c-2.7-1.2-5.2-2.7-7.7-4.4c-1.4-1-2.7-2-4-3.1c-0.1-0.1-0.2-0.2-0.3-0.3c-2.5-2.2-4.8-4.6-6.8-7.3C6,75.4,2.9,69,1.3,62
			c-0.2-0.9-0.4-1.8-0.5-2.7C0.3,56.9,0.1,54.5,0,52C0,51.5,0,51.1,0,50.6z"/>
	</g>
</g>
</svg>
