<svg id="Layer_1" data-name="Layer 1" xmlns="http://www.w3.org/2000/svg" viewBox="0 0 80 76"><title>Artboard 1</title><g id="Layer_2" data-name="Layer 2"><path d="M52.1,64.5C52,59,54.3,53.7,57.3,52.7a13.72,13.72,0,0,0,7.3-6.2,27.24,27.24,0,0,0,1.9-8.6,17.82,17.82,0,0,0-2.1-7.8,25.74,25.74,0,0,1-2.7-9c-.3-3-.7-6.1-.7-6.9s-2.1,0-4.6,1.8-4.9,3.2-5.4,3.2a5.34,5.34,0,0,1-2.5-1.4A10.92,10.92,0,0,0,43.3,16a26.91,26.91,0,0,0-6.4.2,12.12,12.12,0,0,0-4.6,2c-.9.8-3.2-.1-5.2-2s-4.3-3.4-5.2-3.4-1.7,1.4-1.7,3.2v5.8a8.3,8.3,0,0,1-1.9,4.8,11.39,11.39,0,0,0-1.9,6.2,72.31,72.31,0,0,0,1.2,10c.7,3.3,4,7.3,7.5,8.8s6,3.9,5.8,5.2-.5,3-.6,3.8S28.8,62,27.2,62s-3.9-1.4-5.2-3.2A21.77,21.77,0,0,0,17.2,54c-1.4-.9-2.5-.9-2.5,0a17.6,17.6,0,0,0,.8,4A12,12,0,0,0,19,62.6a20.3,20.3,0,0,0,6.2,3.2,13,13,0,0,1,4.4,2c.5.6.5,2,.2,3.2a21.78,21.78,0,0,0-.6,3c0,.4-1.7.4-3.7-.2a29.12,29.12,0,0,1-7.3-3.6,56.16,56.16,0,0,1-7.3-6.8,37.35,37.35,0,0,1-6-9.8A66.48,66.48,0,0,1,3,38.1V38c0-5.5,2.2-13.8,5-18.4S15.3,9.4,18.2,7.2a80.92,80.92,0,0,1,8.3-5.6C28.1.7,32.7,0,36.6,0A103.71,103.71,0,0,1,51.1,1.2c4.1.7,9.7,2.9,12.4,5s7.1,7.4,9.7,11.8S78,29,78,32.6s-.4,9.7-.8,13.4a37.47,37.47,0,0,1-4.4,12.8c-1.9,3.3-5,7.2-6.8,8.6s-4.9,3.7-6.8,5c-2,1.5-4.3,2.6-5.2,2.6s-1.7-4.5-1.9-10Z"/></g></svg>