<?xml version="1.0" encoding="utf-8"?>
<!-- Generator: Adobe Illustrator 21.1.0, SVG Export Plug-In . SVG Version: 6.00 Build 0)  -->
<svg version="1.1" id="Layer_1" xmlns="http://www.w3.org/2000/svg" xmlns:xlink="http://www.w3.org/1999/xlink" x="0px" y="0px"
	 viewBox="0 0 75 75" style="enable-background:new 0 0 75 75;" xml:space="preserve">
<style type="text/css">
	.st0{fill:#C45F3B;stroke:#FFFFFF;stroke-width:2;stroke-miterlimit:10;}
	.st1{fill:none;stroke:#CC4A2B;stroke-width:0.25;stroke-miterlimit:10;}
	.st2{fill:#FFE0BD;}
	.st3{fill:#603813;}
	.st4{fill:#E5BBAC;}
	.st5{fill:#FFFFFF;}
	.st6{fill:#E5907F;}
	.st7{fill:#EFA08B;}
	.st8{fill:none;}
	.st9{fill:none;stroke:#E5BBAC;stroke-width:0.25;stroke-miterlimit:10;}
	.st10{fill:none;stroke:#F9D5C5;stroke-width:0.25;stroke-miterlimit:10;}
	.st11{fill:#070707;}
	.st12{fill:#CC4A2B;}
</style>
<g id="Whole_body">
	<g id="Layer_2">
		<ellipse class="st0" cx="37.5" cy="33.5" rx="34.5" ry="31.5"/>
	</g>
	<g id="head">
		<path class="st1" d="M37.2,44c-0.8,0-1.4,0-2.2,0c-0.6,0-4.6-0.1-5.7,0"/>
		<path class="st2" d="M57,26.7c0.2,0.2,0.5,0.1,0.8,0.1c0.2-0.2,0-0.5,0.3-0.6c0.2-0.2,0.2,0,0.6-0.2c0.2,0,0.5-0.2,0.5-0.3
			c0-0.2-0.3-0.5-0.3-0.6c0-0.2,0.6-0.2,0.6-0.2s-0.6-0.5-0.5-0.6c0-0.2,0.8-0.2,0.8-0.3v-0.1c0.3,0.3,0.6,0.6,0.8,1
			c0.2,0.3,0.3,0.6,0.5,1c0.2,0.3,0.2,0.6,0,1c-0.2,0.6-0.6,0.6-1.1,1.4c-0.3,0.5-0.5,1-0.5,1.5c0,0.8,0,1-0.1,1.4
			c-0.3,0.5-1,0.6-1.6,0.7l0,0c-0.5-1.2-1-2.3-1.6-3.5l0,0c0.2,0,0.3-0.2,0.3-0.3c0-0.3-0.3-0.6-0.2-0.8
			C56.3,26.6,56.8,26.5,57,26.7z"/>
		<path class="st3" d="M54.3,27.9c0,0.2,0,0.3,0,0.5h-0.2C54.1,28.2,54.1,28.1,54.3,27.9z"/>
		<path class="st2" d="M54.2,28.9c-0.1,0.7,0.3,0.8,0.2,1.3v0.1c0.9,1.3-0.5,2.3-0.5,3.2c0,1.5-0.5,2.9-1.2,4.1
			c-0.8,1.5-3.5,4.3-6.6,4.3c-4,0.2-5.8-3.9-9.6-3.3c-1,0.2-1.6,0.7-3.2,0.7c-0.4,0-0.9,0-1.4-0.1c-0.2,0-0.2-0.3,0-0.3
			c0.5-0.1,1-0.2,1.4-0.5l0,0c0.8-0.3,1.4-1,2.2-1s1.7,0.8,2.8,0.6l0,0c0.6-0.3,0.4-1.2,0-1.7c-0.5-0.5-0.9-1-1.6-1.3l0,0
			c-0.9-1-1.4-2.1-1.4-3.5c0-1.2,0.1-2.5,0-3.7c-0.2-1.2-0.5-2.1-1-3.2c-1-2.3-1.4,0.8-1.6,1.7c-0.3,1.5-0.6,3-1.2,4.7
			c-0.6,1.8-1.4,3.7-2.2,5.3l0,0c-0.2,0.6-0.5,1.3,0,1.8c0.2,0.2,0.6,0.5,1,0.5h-0.2l0,0c-1.9,0.2-1.9,1.7-4.4,2.5
			c-1.9,0.7-4.1,0.5-5.8-0.1c-1.1-0.5-1.9-1.3-2.4-2.3l0,0c-1-1.5-1.6-3.2-1.1-4.7c0,0-0.5,0.6-0.2,0.5c0-1,0.3-1.8,0.8-2.9l0,0
			c0.3-0.5,0.6-1,1.1-1.5c0.2-0.2,0.3-0.3,0.5-0.5l0,0l0.3-0.1l0,0c1.4-1.2,2-3.7,2-4l0,0c0.1-0.3,0.2-0.6,0.2-1.1v-0.1
			c-0.3-0.5-0.8-0.8-0.8-1.6v-0.2l0,0c0.2-2.3,0.9-4.4,2.3-6.2c0.6-0.8,1.4-1.5,2.3-2.1c0,0,0,0,0.1,0h0.1c0,0,0,0,0.1,0
			c1.2,0.6,1.3,1.3,1.9,1.6l0,0c1.9,0.6,4.9-1.9,5.5-1.4c0.3,0.1-0.3,0.8,0,1.2c0.6,0.6,4.1,0,6.5-1.4c0,0,0,0,0.1-0.1
			c1-1.8,0.9-0.5,1.1-0.5c0.2,0.2-1.1,1.4-0.9,1.5c0.2,0.1,2.6-2.5,2.8-1.7c0.3,0.9,0.2,0.1,0.2,0.2C42.1,14,42,14.3,42,14.5
			c0,0.1,0.1,0.2,0.2,0.2c1.3-1.4,2.1-1.2,2.4-1.1c0.2,0.1-0.3,0.6-0.5,0.9c-0.1,0.1,0,0.3,0.1,0.3c0.7-0.2,2.3-1.2,2.6-1
			c0.2,0.2,0.1,0.3-0.8,1c-0.8,0.6,4.3,0.1,4.5,0.8c0,0.3,2.1-0.2,0,1.3c-0.1,0.1-0.1,0.2,0,0.3c0.2,0.1-0.1,0.1-0.6,0.2
			c-0.1,0-0.2,0.3,0,0.3c0.8,0.2-1.3,0.6-1,0.7c1.4,0.1,0.4,0.6,0.2,1c0,0.1,0,0.2,0.1,0.2c0.3,0.1,0.9,0.1,1,0.3
			c0.2,0.2,1,2.5-0.5,1c-0.2-0.2,0.5,0.5,0.8,0.6l0,0c0.8,0.3,1.6-0.2,1.7,0c0.3,0.1,1.3,0.9-0.7,1.8c-0.1,0-0.1,0.1-0.1,0.2
			c0.1,0.6,0.4,1,0.3,1.6v0.1c0.8,2.1,1.3,3.1,1.9,3.4c0,0,0,0,0.1,0s0.3,0,0.4,0.1C54.2,28.8,54.2,28.8,54.2,28.9z M50.4,26.4
			c0-0.2-0.2-0.2-0.3-0.1l0,0c-0.2,0-0.1,0.3,0,0.3l0,0C50.2,26.6,50.4,26.4,50.4,26.4L50.4,26.4L50.4,26.4L50.4,26.4z M47.2,22.5
			C47.2,22.6,47.3,22.6,47.2,22.5c0.4,0.2,0.6,0.4,0.9,0.4c0.1,0,0.2-0.2,0.1-0.3c-0.6-1-1.6-2-3.1-2.1l0,0
			c-0.6-0.1-0.9-0.1-1.4-0.1 M48.2,26.8c0-1.7-2.4-2.8-5.3-2.8s-5.2,1.4-5.2,2.9c0,1.7,2.4,2.8,5.3,2.8
			C45.8,29.6,48.2,28.3,48.2,26.8L48.2,26.8z M31.1,26.6c0-1.7-2.3-2.8-5.3-2.8s-5.2,1.4-5.2,2.9s2.3,2.8,5.3,2.8
			C28.8,29.4,31.2,28.1,31.1,26.6z"/>
		<ellipse transform="matrix(1 -7.738187e-03 7.738187e-03 1 -0.2028 0.3885)" cx="50.1" cy="26.4" rx="0.3" ry="0.2"/>
		<path d="M48.5,24.1c-0.3,0-0.8-0.1-1-0.3c-0.3-0.3-0.5-0.6-0.6-1c-1-1.7-2.9-1.8-4.6-2.1c-0.3,0-0.6-0.1-1-0.1
			c-0.3,0-0.6,0.2-1.1,0.6c-0.8,0.5-1.6,1-2.2,1.5c-0.3,0.2-0.8,0.5-1,0.6c-1.4,0.7-0.6-1-0.2-1.8c0.8-0.9,1.6-1.4,2.7-1.7
			c1.6-0.3,3.2-0.3,4.6-0.2c0.6,0.1,1.1,0.1,1.6,0.5C47.2,21,48.8,22.7,48.5,24.1z"/>
		<path class="st4" d="M42.9,23.5c3,0,5.1,1.4,5.3,3c0.3,2.4-2.7,3.9-5.6,3.6c-3.9-0.4-5-1.2-4.8-3.5C37.7,24.9,39.9,23.5,42.9,23.5
			z M47.9,26.1c0-1.3-2.2-2.1-4.9-2.1c-2.5,0-4.9,1.1-4.9,2.1c0,1.3,2.2,2.1,4.9,2.1C45.5,28.2,47.9,27.5,47.9,26.1z"/>
		<path class="st5" d="M43,24c2.9,0,4.9,1.1,4.9,2.2c0,1.2-2.2,2.2-4.9,2.3c-2.5,0-4.9-1.1-4.9-2.2C38,25.1,40.2,24.1,43,24z"/>
		<ellipse transform="matrix(1 -7.738187e-03 7.738187e-03 1 -0.2892 0.2689)" class="st6" cx="34.6" cy="37.5" rx="0.2" ry="0.2"/>
		<ellipse transform="matrix(1 -7.738187e-03 7.738187e-03 1 -0.2807 0.2634)" class="st6" cx="33.9" cy="36.4" rx="0.2" ry="0.2"/>
		<ellipse transform="matrix(1 -7.738187e-03 7.738187e-03 1 -0.2706 0.2541)" class="st6" cx="32.7" cy="35.1" rx="0.3" ry="0.2"/>
		<ellipse transform="matrix(1 -7.738187e-03 7.738187e-03 1 -0.2846 0.2557)" class="st6" cx="32.9" cy="36.9" rx="0.2" ry="0.2"/>
		<path class="st7" d="M32.7,37.7c0,0,0.2,0,0.2,0.2s0,0.2-0.2,0.2l0,0c0,0,0,0,0-0.2l0,0C32.7,37.7,32.7,37.7,32.7,37.7z"/>
		<path class="st6" d="M32.7,37.9L32.7,37.9c0,0.2,0,0.2-0.2,0.2s-0.2,0-0.2-0.2c0,0,0-0.2,0.2-0.2l0,0L32.7,37.9L32.7,37.9z"/>
		<path class="st6" d="M32.7,37.8L32.7,37.8L32.7,37.8z"/>
		<ellipse transform="matrix(1 -7.738187e-03 7.738187e-03 1 -0.2908 0.2503)" class="st7" cx="32.2" cy="37.7" rx="0.2" ry="0.2"/>
		<ellipse class="st6" cx="32.2" cy="38.7" rx="0" ry="0"/>
		<ellipse transform="matrix(1 -7.738187e-03 7.738187e-03 1 -0.2807 0.2479)" class="st6" cx="31.9" cy="36.4" rx="0.2" ry="0.2"/>
		<ellipse transform="matrix(1 -7.738187e-03 7.738187e-03 1 -0.2885 0.2472)" class="st6" cx="31.8" cy="37.4" rx="0.2" ry="0.2"/>
		<ellipse class="st6" cx="31.4" cy="35.5" rx="0" ry="0"/>
		<ellipse transform="matrix(1 -7.738187e-03 7.738187e-03 1 -0.2676 0.244)" class="st6" cx="31.4" cy="34.7" rx="0" ry="0.2"/>
		<ellipse transform="matrix(1 -7.738187e-03 7.738187e-03 1 -0.2954 0.2426)" class="st6" cx="31.2" cy="38.3" rx="0.2" ry="0.2"/>
		<path d="M31.3,22.2c0,0.5,0,0.9-0.5,1.2c-0.3-0.6-0.8-0.9-1.3-1.3c-0.3-0.1-0.6-0.6-1.1-0.8c-0.3,0-0.6-0.1-1-0.1
			c-1.1,0-2.4,0-3.5,0c-0.3,0-0.8,0-1,0.2c-0.8,0.2-1.1,1.2-1.6,1.8C21.1,23.4,21,24,20.5,24c-0.3,0,0-0.9,0-1.2
			c0.3-0.8,0.9-1.5,1.6-2.2c0.3-0.2,0.8-0.6,1.1-0.8c0.5-0.2,0.8-0.2,1.3-0.2c1,0,2.2,0,3.3,0c1,0.1,2.1,0.6,2.9,1.3
			C30.9,21.5,31.1,21.9,31.3,22.2z"/>
		<ellipse transform="matrix(1 -7.738187e-03 7.738187e-03 1 -0.2846 0.241)" class="st6" cx="31" cy="36.9" rx="0.2" ry="0.2"/>
		<ellipse transform="matrix(1 -7.738187e-03 7.738187e-03 1 -0.2769 0.241)" class="st6" cx="31" cy="35.9" rx="0" ry="0.2"/>
		<ellipse transform="matrix(1 -7.738187e-03 7.738187e-03 1 -0.2715 0.2386)" class="st7" cx="30.7" cy="35.2" rx="0.2" ry="0.2"/>
		<ellipse transform="matrix(1 -7.738187e-03 7.738187e-03 1 -0.2978 0.2387)" class="st6" cx="30.7" cy="38.6" rx="0.2" ry="0.2"/>
		<path class="st7" d="M30.9,38.9c-0.2,0-0.2,0-0.3,0C30.7,38.9,30.7,38.9,30.9,38.9z"/>
		<ellipse transform="matrix(1 -7.738187e-03 7.738187e-03 1 -0.2777 0.2363)" class="st7" cx="30.4" cy="36" rx="0.2" ry="0.2"/>
		<ellipse transform="matrix(1 -7.738187e-03 7.738187e-03 1 -0.2916 0.2364)" class="st6" cx="30.4" cy="37.8" rx="0.2" ry="0.2"/>
		<path class="st7" d="M29.9,37.1c0,0,0.2,0,0.2,0.2l0,0l0,0c0,0.2-0.2,0.2-0.3,0.2s-0.3,0-0.3-0.1C29.6,37.1,29.7,37.1,29.9,37.1
			C29.7,37.1,29.7,37.1,29.9,37.1c-0.2,0.2,0,0.2,0,0.2S30.3,37.2,29.9,37.1C30.3,37.1,30.3,37.1,29.9,37.1z"/>
		<ellipse transform="matrix(1 -7.738187e-03 7.738187e-03 1 -0.2831 0.2356)" class="st7" cx="30.3" cy="36.7" rx="0.2" ry="0.2"/>
		<ellipse transform="matrix(1 -7.738187e-03 7.738187e-03 1 -0.2955 0.2356)" class="st7" cx="30.3" cy="38.3" rx="0.2" ry="0.2"/>
		<ellipse transform="matrix(1 -7.738187e-03 7.738187e-03 1 -0.2893 0.2356)" class="st7" cx="30.3" cy="37.5" rx="0" ry="0.2"/>
		<path class="st6" d="M29.9,37.1C30.3,37.1,30.3,37.1,29.9,37.1c0,0.2,0,0.2,0,0.2s-0.2,0-0.2-0.2C29.7,37.1,29.7,37.1,29.9,37.1z"
			/>
		<ellipse transform="matrix(1 -7.738187e-03 7.738187e-03 1 -0.2916 0.2302)" class="st6" cx="29.6" cy="37.8" rx="0.2" ry="0.2"/>
		<path class="st8" d="M25.2,13.7c0.5,0,0.8,0.1,1.3,0c0,0-0.3-0.1-0.6-0.5c-0.2,0-0.3-0.1-0.6-0.1c-1.6-0.1-3,0.7-3.2,0.5
			s1.9-1.2,1.7-1.7c-0.2-0.5-3,0-3-0.1c0-0.2,7.6-1.7,7.4-2.4c0-0.2-0.3-0.1-0.8-0.5c-0.5-0.1-0.6-0.3-0.6-0.3
			c1.3,0.3,2.4,0.6,3.8,0.8c1,0,2.2,0,2.2-0.2s-2.4-0.5-2.4-0.8c0-0.5,7.1-0.5,8.6-0.4c0.5,0,0.8,0.1,1.3,0.1h1.4
			c0.5,0,0.6-0.2,1-0.2c0.2,0,0.5,0,0.6,0.1l1.6,0.5c1.6,0.5,1.8,0.1,3,0.6c1,0.5,1.4,1,1.9,0.8c0.3-0.2,0.5-0.3,0.6-0.3
			c0.3,0,0.5,0.5,0.8,0.5s0.6-0.5,0.8-0.5s0.2,0.5,0.6,1c0.2,0.3,0.6,0.6,1.1,0.6c2.4,1.7,4.2,4,4.7,6.5c0.2,2.1-0.8,3.8,0.5,4.9
			c0,0,0.6,0.5,0.6,0.6"/>
		<ellipse transform="matrix(1 -7.738187e-03 7.738187e-03 1 -0.2022 0.3328)" class="st9" cx="42.9" cy="26.3" rx="5.2" ry="2.9"/>
		<path class="st10" d="M38.7,35.2c1.6,0.6,3,1.5,4.2,2.6c1.1,1,1.8,2.3,1.8,3.8"/>
		<path class="st10" d="M28.8,35.4c-2.2,1.4-4,3.4-4.6,5.5"/>
		<path class="st10" d="M21.2,29.8c0.6,0.5,1.4,0.8,2.2,1c0.6,0.1,1.3,0.1,1.9,0.3c1,0,1.9,0,2.9-0.2c0.8-0.2,1.8-0.5,2.4-1"/>
		<path class="st10" d="M37.5,29.5c1.1,1,2.4,1.5,4.1,1.6c1.4,0.1,3.2,0,4.4-0.5"/>
		<path class="st3" d="M56.8,29.6L56.8,29.6C56.2,30,55.7,30,54.9,30l0,0c0-0.2,0-0.3,0-0.6c0,0.2,0,0.3,0,0.6l0,0
			c-0.3,0-0.8,0-1-0.1c-0.6-0.1-1-1.3-2.1-3.8c-0.3-0.6-0.5-1.2-0.3-2c-1.8-0.5,0.9-1.8,0.8-2c-0.2-0.2-1,0.3-1.9,0
			c-0.3-0.1-0.6-0.3-0.8-0.8c0-0.6,0.6-0.8,0.5-1c-0.2-0.3-0.8,0-1.1-0.3c-0.3-0.1-0.2-0.8-0.2-1.2c0-0.3,0-0.6,0.2-0.9
			c0-0.2,0.2-0.3,0.2-0.6c0.3-0.9,1.6-1.2,1.4-1.7c-0.2-0.6-6-0.3-4.6-0.8c-0.4,0.3,0.8-0.9,0.8-1c0,0-2.5,1.4-2.9,1
			c-0.3-0.1,0.8-1.2,0.6-1.2c-0.2-0.2-2.4,1.2-2.7,1s0.5-0.9,0.3-1c-0.3-0.1-2.8,1.8-3,1.8c-0.2-0.2,1.1-1.4,0.9-1.7
			c-0.2-0.3-0.8,0.3-1.1,0.6c-2.5,1.4-6,2.2-6.7,1.4c-0.3-0.3,0.3-1,0-1.2c-0.6-0.6-3.5,2.2-5.7,1.4c-0.6-0.1-0.6-1-2.1-1.8
			c0,0,0,0-0.2,0c0.2-0.2,0.3-0.2,0.5-0.3l0,0c0.5,0,0.8,0.1,1.4,0c0,0-0.3-0.1-0.6-0.6c-0.2,0-0.3-0.1-0.6-0.1
			c-1.8-0.1-3,0.8-3.2,0.7c-0.2-0.2,2.1-1.2,1.9-1.8s-3,0-3-0.1c0-0.2,7.9-1.9,7.8-2.5C28.3,9,28,9,27.5,8.5
			c-0.5-0.1-0.6-0.3-0.6-0.3C28.3,8.5,29.4,9,30.7,9c1,0,2.4,0,2.4-0.2S30.5,8.2,30.5,8c0-0.6,7.5-0.7,8.7-0.4
			c0.5,0,0.8,0.1,1.4,0.1h1.6c0.5,0,0.6-0.2,1-0.2c0.2,0,0.5,0,0.6,0.1l1.8,0.6c1.8,0.6,1.9,0.1,3,0.8c1,0.6,1.6,1,2.1,0.9
			c0.3-0.2,0.5-0.3,0.6-0.3c0.3,0,0.5,0.6,0.8,0.6s0.6-0.6,0.8-0.6s0.2,0.6,0.6,1c0.2,0.3,0.6,0.8,1.1,0.8c2.6,1.8,4.3,4.3,4.7,7
			c0.2,2.3-0.8,4.1,0.5,5.2c0,0,0.6,0.6,0.6,0.8l0,0v0.2c-0.2,0.2-0.8,0.2-0.8,0.3c0,0.2,0.6,0.6,0.5,0.8c-0.2,0.2-0.5,0-0.6,0.2
			c0,0.1,0.5,0.6,0.5,0.8s-0.3,0.2-0.5,0.3c-0.2,0.2-0.5,0-0.6,0.2c-0.3,0.2-0.2,0.6-0.3,0.8c-0.2,0.2-0.5,0-0.8-0.1s-0.5-0.1-0.5,0
			c0,0.2,0.3,0.6,0.2,0.9C57.2,29.3,57,29.3,56.8,29.6z"/>
		<path class="st5" d="M25.9,23.7c3,0,5.2,1.2,5.2,2.4c0,1.3-2.3,2.5-5.2,2.5c-2.7,0-5.2-1.2-5.2-2.4C20.7,24.9,23,23.7,25.9,23.7z"
			/>
		
			<ellipse id="eye_1" transform="matrix(1 -7.738187e-03 7.738187e-03 1 -0.2004 0.1981)" class="st11" cx="25.5" cy="26" rx="0.8" ry="0.7"/>
		<ellipse transform="matrix(1 -7.738187e-03 7.738187e-03 1 -0.2058 0.2028)" class="st9" cx="26.1" cy="26.7" rx="5.2" ry="2.9"/>
		
			<ellipse id="eye_2" transform="matrix(1 -7.738187e-03 7.738187e-03 1 -0.203 0.3312)" class="st11" cx="42.7" cy="26.4" rx="0.8" ry="0.7"/>
		<path class="st4" d="M25.9,23.3c3.1,0,5.3,1.5,5.4,3.2c0.3,2.5-2.8,4.1-5.8,3.8c-4-0.4-5.2-1.3-4.9-3.7
			C20.6,24.9,22.7,23.3,25.9,23.3z M31,25.7c-0.5-1-2.1-1.8-4.9-1.8c-2.6,0-5.1,1.2-5.1,2.3c0,1.3,2.3,2.2,5.1,2.2
			C28.7,28.4,31.5,26.9,31,25.7z"/>
		<path class="st3" d="M16,34.4L16,34.4c0-0.2,0-0.3,0.2-0.5c-0.1,1.7,0.2,3.3,1.1,4.7c0.5,1,1.4,1.8,2.4,2.3c1.8,0.8,4,1,5.8,0.1
			c2.4-0.8,2.4-2.5,4.4-2.5h0.6c0.2,0,0.2,0,0.3,0c0.8,0.3,1.8,0.5,2.5,0.5c1.4,0,2.1-0.5,3.2-0.7c3.7-0.7,5.6,3.3,9.6,3.3
			c3.3-0.2,5.7-2.9,6.6-4.3c0.8-1.4,1.1-2.9,1.2-4.1c0-1.2,0-1.4,0-2.5c0-0.8,0.1-1.5,0.3-2.3h0.2c0.6,0,1.3-0.2,1.8-0.5
			c0.7,1.2,1.1,2.3,1.6,3.5l0,0c1.5,4.1,2.1,10.3-1.1,15.9C53.3,53,45,59.8,34.4,58.8c-12-0.9-17.5-11.2-17.7-11.7
			C15.1,42.6,14.9,38.3,16,34.4z"/>
		<path class="st7" d="M38.9,36.4c0.5,0.6,0.5,1.2,0,1.9c-1,0.2-2.1-0.8-3.1-0.8c-1.1,0-1.8,0.8-2.6,1.1c-1,0.6-2.1,0.7-2.9,0.7
			c-0.2,0-0.2,0-0.3,0l0,0c-0.3,0-0.8-0.2-1.1-0.6c-0.5-0.6-0.2-1.2,0-2c1-2,1.8-3.9,2.5-5.9c0.5-1.7,1.1-3.2,1.4-5.1
			c0.2-0.9,0.8-4.4,1.8-1.9c0.5,1,1,2.3,1.2,3.4c0.2,1.2,0,2.7,0,4c0,1.2,0.5,2.7,1.6,3.9C37.7,35.4,38.1,36,38.9,36.4z M34.3,37.6
			C34.3,37.4,34.1,37.4,34.3,37.6c-0.2-0.2-0.3,0-0.3,0S34,37.6,34.3,37.6L34.3,37.6C34.1,37.6,34.3,37.6,34.3,37.6L34.3,37.6z
			 M33.7,36.3c0,0,0-0.2-0.2-0.2s-0.2,0-0.2,0.2c0,0,0,0.2,0.2,0.2C33.7,36.4,33.7,36.3,33.7,36.3L33.7,36.3z M32.6,34.9
			c0-0.2-0.2-0.2-0.3-0.2c-0.2,0-0.3,0.2-0.3,0.2c0,0.2,0.2,0.2,0.3,0.2C32.4,35.1,32.6,35.1,32.6,34.9L32.6,34.9z M32.6,36.9
			c0-0.2,0-0.2-0.2-0.2s-0.2,0-0.2,0.2s0,0.2,0.2,0.2l0,0L32.6,36.9L32.6,36.9z M32.3,38c0-0.2,0-0.2-0.2-0.2s-0.2,0-0.2,0.2l0,0
			l0,0c-0.2,0-0.2,0-0.2,0.2s0,0.2,0.2,0.2s0.2,0,0.2-0.2l0,0l0,0l0,0C32.3,38.1,32.3,38,32.3,38L32.3,38z M31.6,37.9
			C31.6,37.9,31.4,37.6,31.6,37.9c-0.2-0.2-0.3,0-0.3,0S31.4,38,31.6,37.9L31.6,37.9C31.4,38,31.6,37.9,31.6,37.9L31.6,37.9z
			 M31.5,38.9L31.5,38.9C31.5,38.6,31.5,38.6,31.5,38.9L31.5,38.9L31.5,38.9C31.3,39,31.5,38.9,31.5,38.9L31.5,38.9L31.5,38.9z
			 M31.4,36.3C31.4,36.3,31.4,36.2,31.4,36.3c-0.2-0.2-0.3,0-0.3,0S31.3,36.5,31.4,36.3L31.4,36.3L31.4,36.3L31.4,36.3z M31.3,37.4
			C31.3,37.3,31.3,37.3,31.3,37.4c-0.2-0.2-0.3,0-0.3,0S31,37.6,31.3,37.4L31.3,37.4L31.3,37.4L31.3,37.4z M30.5,35.4L30.5,35.4
			C30.5,35.2,30.5,35.2,30.5,35.4L30.5,35.4L30.5,35.4C30.5,35.2,30.5,35.4,30.5,35.4L30.5,35.4z M30.5,34.5c0-0.2,0-0.2,0-0.2
			S30.3,34.4,30.5,34.5c-0.2,0.2-0.2,0.2,0,0.2C30.7,34.8,30.5,34.8,30.5,34.5L30.5,34.5z M30.5,38.3L30.5,38.3
			c-0.2-0.2-0.3,0-0.3,0C30.2,38.5,30.3,38.5,30.5,38.3L30.5,38.3C30.5,38.5,30.5,38.5,30.5,38.3L30.5,38.3z M30.3,36.9
			C30.3,36.9,30.3,36.8,30.3,36.9c-0.2-0.2-0.3,0-0.3,0C29.9,37.1,30.1,37.1,30.3,36.9L30.3,36.9C30.3,37.1,30.3,37.1,30.3,36.9
			L30.3,36.9z M30.3,35.9h-0.2c-0.2,0-0.2,0-0.2,0h0.2C30.3,35.9,30.3,35.9,30.3,35.9L30.3,35.9z M29.9,35.1c0,0,0-0.2-0.2-0.2l0,0
			l0,0c-0.2,0-0.2,0-0.2,0.2s0,0.2,0.2,0.2S29.9,35.1,29.9,35.1z M29.9,38.6c0,0,0-0.2-0.2-0.2l0,0l0,0c-0.2,0-0.2,0-0.2,0.2
			s0,0.2,0.2,0.2C29.9,39,29.9,38.6,29.9,38.6z M29.6,36.1C29.6,36.1,29.5,36.1,29.6,36.1c-0.2-0.2-0.3,0-0.3,0
			C29.2,36.2,29.2,36.2,29.6,36.1L29.6,36.1C29.5,36.2,29.6,36.2,29.6,36.1L29.6,36.1z M29.6,38C29.6,38,29.5,37.9,29.6,38
			c-0.2-0.2-0.3,0-0.3,0S29.2,38.2,29.6,38L29.6,38C29.5,38.2,29.6,38,29.6,38L29.6,38z M29.5,37.3c0-0.2,0-0.2-0.2-0.2l0,0
			c0,0-0.2,0-0.2,0.2l0,0l0,0c0,0.2,0.2,0.2,0.3,0.2L29.5,37.3L29.5,37.3L29.5,37.3z M29.5,36.8C29.5,36.8,29.2,36.8,29.5,36.8
			c-0.2-0.2-0.3,0-0.3,0C29,37,29,37,29.5,36.8L29.5,36.8C29.5,37,29.5,37,29.5,36.8L29.5,36.8z M29.5,38.3
			C29.5,38.3,29.2,38.3,29.5,38.3c-0.2-0.2-0.3,0-0.3,0C29,38.5,29,38.5,29.5,38.3L29.5,38.3C29.5,38.5,29.5,38.5,29.5,38.3
			L29.5,38.3z M29.5,37.6h-0.2c-0.2,0-0.2,0-0.2,0S29.2,37.6,29.5,37.6L29.5,37.6z M28.8,38C28.8,38,28.8,37.9,28.8,38
			c-0.2-0.2-0.3,0-0.3,0S28.6,38.2,28.8,38L28.8,38C28.8,38.2,28.8,38,28.8,38L28.8,38z"/>
		<path class="st12" d="M36.9,43.2c0.5,0,2.9,0.1,3.2,0c-0.8,0.5-1.8,0.8-2.9,0.8c-3.2,0.2-6.7,0.4-9.9-0.4c0-0.5,5.2-0.2,6-0.2
			C34.8,43.2,35.9,43.2,36.9,43.2z"/>
	</g>

</g>
</svg>
