<?xml version="1.0" encoding="utf-8"?>
<!-- Generator: Adobe Illustrator 21.1.0, SVG Export Plug-In . SVG Version: 6.00 Build 0)  -->
<svg version="1.1" id="Layer_1" xmlns="http://www.w3.org/2000/svg" xmlns:xlink="http://www.w3.org/1999/xlink" x="0px" y="0px"
	 viewBox="0 0 634.6 698.3" style="enable-background:new 0 0 634.6 698.3;" xml:space="preserve">
<style type="text/css">
	.st0{fill:#C45F3B;}
	.st1{fill:none;stroke:#CC4A2B;stroke-width:0.25;stroke-miterlimit:10;}
	.st2{fill:#FFE0BD;}
	.st3{fill:#603813;}
	.st4{fill:#E5BBAC;}
	.st5{fill:#FFFFFF;}
	.st6{fill:#E5907F;}
	.st7{fill:#EFA08B;}
	.st8{fill:none;}
	.st9{fill:none;stroke:#E5BBAC;stroke-width:0.25;stroke-miterlimit:10;}
	.st10{fill:none;stroke:#F9D5C5;stroke-width:0.25;stroke-miterlimit:10;}
	.st11{fill:#070707;}
	.st12{fill:#CC4A2B;}
</style>
<title>Artboard 1</title>
<g id="Layer_2">
	<ellipse class="st0" cx="317.9" cy="379.7" rx="308" ry="298.5"/>
</g>
<g id="head">
	<path class="st1" d="M311.6,479.5c-6.8,0-12.3,0.1-19.1,0.1c-5.5,0-39.6-1.2-49.1,0.3"/>
	<path class="st2" d="M480.8,315.3c1.3,1.5,4.1,1.4,6.8,1.4c1.3-1.5,0-4.5,2.7-6.1c1.3-1.5,1.3,0,5.5-1.5c1.3,0,4.1-1.5,4-3.1
		c0-1.6-2.8-4.5-2.8-6.1c0-1.5,5.5-1.5,5.5-1.5s-5.5-4.5-4.1-6.1c0-1.5,6.8-1.5,6.8-3.1v-0.7c2.8,3,5.5,6,6.9,9.7
		c1.3,3,2.8,6.1,4.1,9.7c1.3,3,1.4,6.1,0.1,9.8c-1.3,6.1-5.4,6.1-9.4,12.9c-2.7,4.5-4,9.8-4,14.4c0.1,7.6,0.1,9.8-1.2,12.8
		c-2.7,4.5-8.2,6.1-13.6,6.2l0,0c-4.1-11.3-8.4-21.9-13.8-33l0,0c1.3,0,2.7-1.5,2.7-3.1c0-3-2.8-6.1-1.4-7.5
		C475.3,313.9,479.4,313.8,480.8,315.3z"/>
	<path class="st3" d="M457.7,326.8c0,1.5,0,3,0,4.5h-1.3C456.4,329.8,456.4,328.4,457.7,326.8z"/>
	<path class="st2" d="M456.9,336.1c-0.8,6.4,2.4,7.4,1.5,12.6c-0.1,0.4,0,0.9,0.3,1.3c8,12.2-4.1,21.5-4,30.4
		c0.1,14.4-3.9,27.2-10.6,39.3c-6.7,14.4-29.7,40.9-56.9,41.1c-34.1,1.7-50-37.4-82-31.1c-8.2,1.5-13.6,6.2-27.2,6.3
		c-3.7,0-7.9-0.4-11.9-1.3c-1.3-0.3-1.3-2.7,0-2.9c4.1-0.7,8.2-2.3,11.8-4.8c0,0,0.1,0,0.1-0.1c6.8-3.1,12.1-9.8,18.9-9.9
		c6.8,0,14.9,7.3,24.3,5.9c0.2,0,0.2-0.1,0.4-0.1c5.2-3.2,3.7-11.2-0.3-15.7c-4.1-4.5-8.1-9.6-13.5-12.6c-0.1-0.1-0.3-0.2-0.3-0.3
		c-8.1-9.7-12.2-20.2-12.3-32.9c-0.1-11.3,1.2-23.4-0.2-34.7c-1.4-11.3-4.2-20.3-8.4-30.1c-8.4-21.9-12.2,7.6-13.5,15.9
		c-2.6,14.4-5.3,28.7-10.5,44.5c-5.4,17.3-11.9,34.7-18.6,50.6c0,0.1-0.1,0.2-0.1,0.3c-1.4,6-3.9,12.7,0.1,17.2
		c1.3,1.5,5.5,4.5,8.2,4.5h-1.3h-0.1c-16.3,1.7-16.2,15.9-37.9,23.7c-16.3,6.2-35.4,4.8-49.8-1.1c-9.6-4.4-16.4-12.7-20.5-21.7
		c0,0,0-0.1-0.1-0.1c-8.2-14.2-13.8-30-9.8-44.4c0,0-4.4,5.3-1.3,4.5c-0.1-9.8,2.6-17.3,6.6-27.1c0-0.1,0.1-0.1,0.1-0.2
		c2.7-4.5,5.3-9.8,9.4-14.3c1.3-1.5,2.6-3,3.9-4.4c0.1-0.1,0.2-0.2,0.3-0.2l2.6-1.4l0,0c11.6-10.9,17-35.5,17.4-37.7
		c0-0.1,0.1-0.2,0.1-0.3c1.2-2.8,1.3-5.8,1.3-10.6c0-0.3-0.1-0.7-0.3-0.9c-2.8-4.3-6.6-7.3-6.7-15.4v-1.5v-0.1
		c1.3-21.8,7.9-41.5,20-58.9c5.3-7.5,12-14.2,20-20.3c0.2-0.1,0.4-0.2,0.6-0.2h0.7c0.2,0,0.3,0,0.5,0.1
		c10.7,5.9,10.8,12.5,16.1,15.5c0.1,0,0.2,0.1,0.2,0.1c16.4,5.8,42-17.7,47.5-13.2c2.7,1.4-2.7,7.6,0.1,11.3
		c5.4,5.9,35.2-0.1,55.5-13.1c0.2-0.1,0.3-0.3,0.5-0.5c8.5-16.6,7.9-4.3,9.3-4.3c1.3,1.5-9.4,12.9-8.1,14.4
		c1.3,1.4,22.1-23.6,24.1-15.9c2.4,9,1.8,1.1,1.3,2.3c-0.9,1.7-2.4,3.8-2.4,5.9c-0.1,0.9,0.8,2.2,1.3,1.6
		c10.9-12.9,18.1-11.3,20.6-10c2,1-2.4,5.7-4.4,8.7c-0.7,1.1,0.1,2.8,1.2,2.4c5.8-1.8,20-11,22.3-9.8c1.3,1.5,0.7,3-6.7,9.8
		c-6.8,6.1,36.8,1.2,38.2,7.3c0,2.9,18.1-1.9,0,12.3c-0.8,0.6-0.7,2.3,0.3,2.7c1.5,0.6-0.9,1-5,1.9c-1.2,0.3-1.3,2.6-0.1,2.9
		c7.2,2-11,5.9-8.7,6.6c11.7,0.5,3.4,5.7,1.6,9.5c-0.4,0.8-0.1,1.9,0.7,2.2c2.9,1.1,7.5,1.2,8.6,2.6c1.3,1.5,8.4,24.1-4,9.8
		c-2-2.2,4,4.4,6.8,5.9c0.1,0,0.1,0.1,0.2,0.1c6.8,2.9,13.5-1.7,14.9-0.1c2.7,1.4,11.3,8.7-5.9,17c-0.5,0.2-0.8,0.9-0.7,1.6
		c0.5,5.3,3.8,9.5,2.8,15.6c-0.1,0.3,0,0.6,0.1,0.9c6.8,19.7,10.9,29.4,16.2,32.5c0.2,0.1,0.3,0.1,0.5,0.1c0.7,0,2.4,0.2,3.7,0.8
		C456.7,334.8,457,335.4,456.9,336.1z M424.2,312.8c0-1.5-1.3-1.5-2.7-1.4c-0.1,0-0.2,0-0.3,0c-1.4,0.2-1.2,2.9,0.3,2.9h0.1
		C422.8,314.2,424.2,312.8,424.2,312.8L424.2,312.8L424.2,312.8L424.2,312.8z M396.7,275.2C396.7,276.7,397.4,276.7,396.7,275.2
		c3.2,2.3,5.5,3.7,7.7,3.5c0.9-0.1,1.4-1.5,0.8-2.4c-5.5-9.2-13.6-18.5-26.3-19.8c0,0-0.1,0-0.2,0c-5.4-1.4-8.1-1.4-12.2-1.4
		 M405.2,315.8c-0.1-15.8-20.6-27-45.1-26.8s-44.8,13.1-44.7,27.5c0.1,15.8,20.6,27,45.1,26.8C384.9,343.1,405.3,330.2,405.2,315.8
		L405.2,315.8z M259.3,313.9c-0.1-15.8-19.3-27-45.1-26.8c-25.9,0.2-44.8,13.1-44.7,27.5c0.1,14.4,19.3,27,45.1,26.8
		C239.1,341.1,259.4,328.2,259.3,313.9z"/>
	<ellipse transform="matrix(1 -6.998631e-03 6.998631e-03 1 -2.1789 2.9577)" cx="421.5" cy="312.8" rx="2.7" ry="1.5"/>
	<path d="M408.4,291c-2.7,0-6.8-1.4-8.2-3c-2.8-3-4.1-6.1-5.5-9.7c-8.3-15.8-24.7-17.1-39.7-20.1c-2.7,0-5.5-1.4-8.2-1.4
		s-5.5,1.5-9.5,6.1c-6.8,4.6-13.5,9.8-19,14.5c-2.7,1.5-6.8,4.6-8.2,6.1c-12.2,6.2-5.5-9.7-1.4-17.3c6.7-8.3,13.5-12.9,23-16
		c13.6-3.1,27.3-3.2,39.5-1.7c5.5,1.4,9.5,1.4,13.6,4.4C397.3,261.7,410.3,277.3,408.4,291z"/>
	<path class="st4" d="M360,284.5c25.9-0.2,43.6,13.2,45.1,28.4c2.2,22.3-23.5,36.9-48.1,33.8c-33.4-3.8-42.9-11.7-41-33.2
		C315.8,298.3,334.1,284.7,360,284.5z M403,309.7c-0.1-12-19.2-19.8-42.3-19.6c-21.8,0.2-42.1,10.7-42.1,20.2
		c0.1,12,19.2,19.8,42.3,19.6C382.7,329.7,403.1,322.5,403,309.7z"/>
	<path class="st5" d="M360.8,290c24.5-0.2,42.3,10.7,42.3,20.8c0.1,11-18.9,21.2-42.1,21.4c-21.8,0.2-42.3-10.7-42.3-20.8
		C318,300.5,337,290.2,360.8,290z"/>
	
		<ellipse transform="matrix(1 -6.998631e-03 6.998631e-03 1 -2.9163 2.0309)" class="st6" cx="288.7" cy="417.7" rx="1.3" ry="1.5"/>
	<ellipse transform="matrix(1 -6.998631e-03 6.998631e-03 1 -2.843 1.9872)" class="st6" cx="282.5" cy="407.2" rx="1.3" ry="1.5"/>
	<ellipse transform="matrix(1 -6.998631e-03 6.998631e-03 1 -2.7543 1.919)" class="st6" cx="272.8" cy="394.5" rx="2.7" ry="1.5"/>
	
		<ellipse transform="matrix(1 -6.998631e-03 6.998631e-03 1 -2.8754 1.9306)" class="st6" cx="274.4" cy="411.8" rx="1.3" ry="1.5"/>
	<path class="st7" d="M272.4,419.3c0,0,1.3,0,1.3,1.5s0,1.5-1.3,1.5l0,0c0,0,0,0,0-1.5l0,0C272.4,419.3,272.4,419.3,272.4,419.3z"/>
	<path class="st6" d="M272.4,421.6L272.4,421.6c0,1.5,0,1.5-1.3,1.5s-1.3,0-1.3-1.5c0,0,0-1.5,1.3-1.5l0,0L272.4,421.6L272.4,421.6z
		"/>
	<path class="st6" d="M272.4,420.1L272.4,420.1L272.4,420.1z"/>
	<ellipse transform="matrix(1 -6.998631e-03 6.998631e-03 1 -2.928 1.8881)" class="st7" cx="268.3" cy="419.3" rx="1.3" ry="1.5"/>
	<ellipse class="st6" cx="268.4" cy="429.2" rx="0" ry="0"/>
	
		<ellipse transform="matrix(1 -6.998631e-03 6.998631e-03 1 -2.8441 1.8724)" class="st6" cx="266.1" cy="407.3" rx="1.3" ry="1.5"/>
	
		<ellipse transform="matrix(1 -6.998631e-03 6.998631e-03 1 -2.9078 1.8642)" class="st6" cx="264.9" cy="416.4" rx="1.3" ry="1.5"/>
	<ellipse class="st6" cx="261.4" cy="399.1" rx="0" ry="0"/>
	<ellipse transform="matrix(1 -6.998631e-03 6.998631e-03 1 -2.7336 1.8384)" class="st6" cx="261.3" cy="391.5" rx="0" ry="1.5"/>
	
		<ellipse transform="matrix(1 -6.998631e-03 6.998631e-03 1 -2.9667 1.8309)" class="st6" cx="260.1" cy="424.8" rx="1.3" ry="1.5"/>
	<path d="M260.5,272.4c0,4.5,0.1,8.3-4,11.4c-2.8-6.1-6.9-8.2-11-12.7c-2.7-1.4-5.5-6-9.6-7.5c-2.7,0-5.5-1.4-8.2-1.4
		c-9.5,0.1-20.4,0.1-30,0.2c-2.7,0-6.8,0-8.2,1.5c-6.8,1.5-9.5,11.4-13.5,17.4c-1.3,1.5-2.7,7.6-6.7,7.6c-2.7,0-0.1-8.3-0.1-11.3
		c2.7-7.6,8.1-14.4,13.5-20.4c2.7-1.5,6.8-6.1,9.5-7.6c4.1-1.5,6.8-1.5,10.9-1.5c8.2-0.1,19.1-0.1,28.6-0.2
		c8.2,1.4,17.8,6,24.6,12.6C257,265.6,259,270.1,260.5,272.4z"/>
	<ellipse transform="matrix(1 -6.998631e-03 6.998631e-03 1 -2.8765 1.8158)" class="st6" cx="258" cy="411.9" rx="1.3" ry="1.5"/>
	<ellipse transform="matrix(1 -6.998631e-03 6.998631e-03 1 -2.8079 1.8156)" class="st6" cx="258" cy="402.1" rx="0" ry="1.5"/>
	<ellipse transform="matrix(1 -6.998631e-03 6.998631e-03 1 -2.766 1.7959)" class="st7" cx="255.2" cy="396.1" rx="1.3" ry="1.5"/>
	<ellipse transform="matrix(1 -6.998631e-03 6.998631e-03 1 -2.9871 1.798)" class="st6" cx="255.4" cy="427.7" rx="1.3" ry="1.5"/>
	<path class="st7" d="M256.8,430.8c-1.3,0-1.3,0-2.7,0C255.4,430.8,255.4,430.8,256.8,430.8z"/>
	
		<ellipse transform="matrix(1 -6.998631e-03 6.998631e-03 1 -2.8185 1.7821)" class="st7" cx="253.2" cy="403.6" rx="1.3" ry="1.5"/>
	
		<ellipse transform="matrix(1 -6.998631e-03 6.998631e-03 1 -2.9347 1.7832)" class="st6" cx="253.3" cy="420.2" rx="1.3" ry="1.5"/>
	<path class="st7" d="M248.5,413.5c0,0,1.3,0,1.3,1.5l0,0l0,0c0,1.5-1.3,1.5-2.7,1.5s-2.7,0-2.7-1.4
		C245.8,413.5,247.1,413.5,248.5,413.5C247.1,413.5,247.1,413.5,248.5,413.5c-1.3,1.5,0,1.5,0,1.5S251.9,415,248.5,413.5
		C251.9,413.5,251.9,413.5,248.5,413.5z"/>
	
		<ellipse transform="matrix(1 -6.998631e-03 6.998631e-03 1 -2.8661 1.7731)" class="st7" cx="251.9" cy="410.4" rx="1.3" ry="1.5"/>
	<ellipse transform="matrix(1 -6.998631e-03 6.998631e-03 1 -2.9669 1.7742)" class="st7" cx="252" cy="424.8" rx="1.3" ry="1.5"/>
	<ellipse transform="matrix(1 -6.998631e-03 6.998631e-03 1 -2.9193 1.774)" class="st7" cx="252" cy="418" rx="0" ry="1.5"/>
	<path class="st6" d="M248.5,413.5C251.9,413.5,251.9,413.5,248.5,413.5c0,1.5,0,1.5,0,1.5s-1.3,0-1.3-1.5
		C247.1,413.5,247.1,413.5,248.5,413.5z"/>
	
		<ellipse transform="matrix(1 -6.998631e-03 6.998631e-03 1 -2.9349 1.7307)" class="st6" cx="245.8" cy="420.2" rx="1.3" ry="1.5"/>
	<path class="st8" d="M208.1,192.1c4.1,0,6.8,1.4,10.9-0.1c0,0-2.7-1.4-5.5-4.5c-1.3,0-2.7-1.4-5.5-1.4c-13.6-1.4-25.8,6.3-27.2,4.7
		c-1.3-1.5,16.3-11.4,14.9-15.9s-25.9,0.2-25.9-1.3s65.3-16.3,63.8-22.4c0-1.5-2.7-1.4-6.8-4.5c-4.1-1.4-5.5-3-5.5-3
		c10.9,3,20.4,5.9,32.7,7.3c8.2-0.1,19.1-0.1,19.1-1.6s-20.4-4.4-20.4-7.4c0-4.5,61.2-4.9,73.5-3.6c4.1,0,6.8,1.4,10.9,1.4l12.3-0.1
		c4.1,0,5.5-1.5,8.2-1.5c1.3,0,4.1,0,5.5,1.4l13.6,4.4c13.6,4.4,15,1.4,25.9,5.9c8.2,4.5,12.3,9.7,16.4,7.4c2.7-1.5,4-3.1,5.5-3.1
		c2.7,0,4.1,4.5,6.8,4.5s5.4-4.5,6.8-4.6c1.3,0,1.4,4.5,5.5,9.7c1.3,3,5.5,6,9.6,6c20.5,15.7,35.7,37.5,40,61.6
		c1.5,20.3-6.5,36.2,4.4,46c0,0,5.5,4.5,5.5,6"/>
	
		<ellipse transform="matrix(1 -6.998631e-03 6.998631e-03 1 -2.172 2.528)" class="st9" cx="360.1" cy="311.6" rx="44.9" ry="27.2"/>
	<path class="st10" d="M324,395.6c13.6,6,26,14.2,35.6,24.6c9.6,9.7,15.2,21.8,15.3,36.1"/>
	<path class="st10" d="M238.9,397.7c-19,12.9-33.9,31.9-39.8,52.3"/>
	<path class="st10" d="M173.8,344.6c5.5,4.5,12.3,7.5,19.1,9.6c5.5,1.4,10.9,1.4,16.4,2.9c8.2-0.1,16.3-0.1,24.5-1.6
		c6.8-1.5,15-4.6,20.3-9.9"/>
	<path class="st10" d="M314.1,342.2c9.6,9.7,20.5,14.2,35.5,15.6c12.3,1.4,27.3-0.2,38.1-4.8"/>
	<path class="st3" d="M479.6,343.2L479.6,343.2c-5.5,3.1-9.5,3.1-16.3,3.2l0,0c0-1.5,0-3,0-6.1c0,1.5,0,3,0,6.1l0,0
		c-2.7,0-6.8,0-8.2-1.4c-5.5-1.4-8.3-12.7-18-36.1c-2.8-6.1-4.1-11.3-2.9-18.9c-15.7-4.4,8.1-17.4,6.7-18.9
		c-1.4-1.6-8.2,3.1-16.3,0.1c-2.7-1.4-5.5-3-6.9-7.5c0-6.1,5.4-7.6,4-9.8c-1.3-3-6.8,0-9.6-3c-2.7-1.4-1.4-7.5-1.4-11.3
		c0-3,0-6.1,1.3-8.3c0-1.5,1.3-3.1,1.3-6.1c2.7-8.3,13.5-11.4,12.2-15.9c-1.4-6.1-51.8-2.7-39.6-8c-3.4,3.1,6.7-8.3,6.7-9.8
		c0,0-21.7,12.9-24.5,9.9c-2.7-1.4,6.7-11.4,5.4-11.4c-1.3-1.5-20.3,11.5-23.1,9.9c-2.7-1.6,4-8.3,2.7-9.8
		c-2.7-1.4-24.4,17.5-25.7,17.5c-1.3-1.5,9.4-12.9,8.1-15.9s-6.8,3.1-9.5,6.1c-21.6,13.1-51.6,20.8-57.8,13.3
		c-2.8-3,2.7-9.8-0.1-11.3c-5.5-6-29.9,20.6-49,13.1c-5.5-1.4-5.5-9.7-17.9-17.2c0,0,0,0-1.3,0c1.3-1.5,2.7-1.5,4-3.1l0,0
		c4.1,0,6.8,1.4,12.3-0.1c0,0-2.7-1.4-5.5-6c-1.3,0-2.7-1.4-5.5-1.4c-15-1.4-25.8,7.7-27.2,6.3c-1.3-1.5,17.7-11.4,16.2-17.4
		c-1.4-6.1-25.9,0.2-25.9-1.3s67.3-17.8,66.6-23.9c0-1.5-2.7-1.4-6.8-6c-4.1-1.4-5.5-3-5.5-3c12.3,3,21.9,7.4,32.7,8.1
		c8.2-0.1,20.4-0.1,20.4-1.6s-21.8-5.9-21.9-8.1c0-6.1,64-6.5,74.9-3.6c4.1,0,6.8,1.4,12.3,1.4l13.6-0.1c4.1,0,5.5-1.5,8.2-1.5
		c1.3,0,4.1,0,5.5,1.4l15,6c15,6,16.3,1.4,25.9,7.4c8.3,6,13.7,9.7,17.8,8.2c2.7-1.5,4-3.1,5.5-3.1c2.7,0,4.1,6.1,6.8,6
		c2.7,0,5.4-6.1,6.8-6.1c1.3,0,1.4,6.1,5.5,9.7c1.3,3,5.5,7.5,9.6,7.5c21.9,17.1,37.1,40.4,40.7,66.1c1.5,21.9-6.5,39.3,4.4,48.9
		c0,0,5.5,6,5.5,7.5l0,0v1.5c-1.3,1.5-6.8,1.5-6.8,3.1c0,1.5,5.5,6,4.1,7.5s-4.1,0-5.5,1.5c-1.3,1.5,2.8,6.1,2.8,7.5
		c0,1.5-2.7,1.5-4,3.1c-1.3,1.5-4.1,0-5.5,1.5c-2.7,1.5-1.3,6.1-2.7,7.6s-4.1,0-6.8-1.4s-4.1-1.4-4.1,0c0,1.5,2.8,6.1,1.4,8.3
		C482.3,340.2,481,340.3,479.6,343.2z"/>
	<path class="st5" d="M214.1,286.9c25.8-0.2,44.4,11.7,44.5,22.9c0.1,12.1-19.9,23.3-44.2,23.5c-22.9,0.2-44.4-11.7-44.5-22.9
		C169.8,298.3,189.8,287,214.1,286.9z"/>
	
		<ellipse id="eye_1" transform="matrix(1 -6.998631e-03 6.998631e-03 1 -2.154 1.4823)" class="st11" cx="210.7" cy="308.5" rx="7" ry="6.7"/>
	
		<ellipse transform="matrix(1 -6.998631e-03 6.998631e-03 1 -2.2042 1.5181)" class="st9" cx="215.8" cy="315.7" rx="44.9" ry="27.2"/>
	
		<ellipse id="eye_2" transform="matrix(1 -6.998631e-03 6.998631e-03 1 -2.1777 2.514)" class="st11" cx="358.1" cy="312.4" rx="6.8" ry="6.4"/>
	<path class="st4" d="M214,283.2c26.8-0.2,45.1,13.9,46.6,30c2.2,23.6-24.4,38.9-49.7,35.7c-34.5-4-44.4-12.3-42.4-35
		C169.1,297.8,187.3,283.4,214,283.2z M257.9,306c-4.1-9.2-18.4-17.1-42.3-16.9c-22.5,0.2-43.5,11.2-43.5,21.4
		c0.1,12.6,19.9,20.9,43.8,20.8C238.3,330.9,262.7,316.8,257.9,306z"/>
	<path class="st3" d="M129.7,388.4L129.7,388.4c0-1.5,0-3,1.3-4.5c-1.2,15.8,1.5,31.7,9.8,44.4c4.1,9.7,12.4,17.2,20.5,21.8
		c15.1,7.4,34.1,9.5,49.8,1.1c20.3-7.7,20.2-23.5,38-23.7h5.5c1.3,0,1.3,0,2.7,0c6.8,3,15,4.4,21.8,4.4c12.3-0.1,17.7-4.6,27.2-6.3
		c31.3-6.3,47.9,31.3,82,31.1c28.6-1.7,48.9-27.5,56.9-41.1c6.7-12.8,9.3-27.2,10.6-39.3c-0.1-11.3-0.1-12.8-0.2-23.4
		c-0.1-7.6,1.2-14.4,2.6-21.9h1.3c5.5,0,10.9-1.5,15-4.6c5.6,11.3,9.7,21.8,13.8,33l0,0c12.5,39.1,18.4,97.9-9.8,150.9
		c-29.6,53.8-100,118.4-191.3,109.1c-103-9-149.9-106-151.3-111.3C122.1,466.2,119.8,425.4,129.7,388.4z"/>
	<path class="st7" d="M325.6,407.2c4.2,6.1,4.2,11.4,0.1,17.6c-8.3,1.6-18-7.5-26.4-7.5c-9.7,0.1-15.2,7.8-22.1,10.1
		c-8.2,6.1-17.9,6.2-24.9,6.3c-1.4,0-1.4,0-2.7,0l0,0c-2.7,0-7-1.5-9.7-6c-4.2-6.1-1.5-11.4-0.1-19.1c8.2-19.1,15-36.8,21.7-55.9
		c4-16.1,9.5-30.7,12.1-48.2c1.4-8.4,6.7-41.4,15.1-17.7c4.2,9.9,8.4,22.1,9.9,32c1.5,11.4,0.2,26,0.3,38.3
		c0.1,11.4,4.3,26,14.1,36.6C315.8,397.3,319.3,403.4,325.6,407.2z M286.2,418.2C286.2,416.6,284.8,416.6,286.2,418.2
		c-1.4-1.6-2.7,0-2.7,0S283.4,418.2,286.2,418.2L286.2,418.2C284.8,418.2,286.2,418.2,286.2,418.2L286.2,418.2z M281.2,405.9
		c0,0,0-1.6-1.4-1.6s-1.4,0-1.4,1.6c0,0,0,1.6,1.4,1.6S281.2,405.9,281.2,405.9L281.2,405.9z M271.4,393c0-1.6-1.4-1.6-2.7-1.6
		c-1.3,0-2.7,1.6-2.7,1.6c0,1.6,1.4,1.6,2.7,1.6S271.4,394.6,271.4,393L271.4,393z M271.6,412.2c0-1.6,0-1.6-1.4-1.6s-1.4,0-1.4,1.6
		s0,1.6,1.4,1.6l0,0L271.6,412.2L271.6,412.2z M268.9,422.1c0-1.6,0-1.6-1.4-1.6s-1.4,0-1.4,1.6l0,0l0,0c-1.4,0-1.4,0-1.4,1.6
		s0,1.6,1.4,1.6s1.4,0,1.4-1.6l0,0l0,0l0,0C268.9,423.6,268.9,422.1,268.9,422.1L268.9,422.1z M263.3,421.4
		C263.3,421.4,261.9,418.3,263.3,421.4c-1.4-1.6-2.7,0-2.7,0S261.9,422.1,263.3,421.4L263.3,421.4
		C261.9,422.1,263.3,421.4,263.3,421.4L263.3,421.4z M262,431.3L262,431.3C262,428.3,262,428.3,262,431.3L262,431.3L262,431.3
		C260.6,431.4,262,431.3,262,431.3L262,431.3L262,431.3z M261.8,406.1C261.8,406.1,261.8,405.3,261.8,406.1c-1.4-1.6-2.7,0-2.7,0
		S260.4,407.7,261.8,406.1L261.8,406.1L261.8,406.1L261.8,406.1z M260.5,416.8C260.5,415.3,260.5,415.3,260.5,416.8
		c-1.4-1.6-2.7,0-2.7,0S258.4,418.4,260.5,416.8L260.5,416.8L260.5,416.8L260.5,416.8z M253.5,397.7L253.5,397.7
		C253.5,396.2,253.5,396.2,253.5,397.7L253.5,397.7L253.5,397.7C253.5,396.2,253.5,397.7,253.5,397.7L253.5,397.7z M253.4,389.4
		c0-1.6,0-1.6,0-1.6S252,387.8,253.4,389.4c-1.4,1.6-1.4,1.6,0,1.6C255.5,391.6,253.4,391.7,253.4,389.4L253.4,389.4z M253.7,425.3
		L253.7,425.3c-1.4-1.6-2.7,0-2.7,0C250.9,426.8,252.3,426.8,253.7,425.3L253.7,425.3C253.7,426.8,253.7,426.8,253.7,425.3
		L253.7,425.3z M252.2,412.3C252.2,412.3,252.1,410.8,252.2,412.3c-1.4-1.6-2.7,0-2.7,0C248.7,413.8,250.8,413.8,252.2,412.3
		L252.2,412.3C252.2,413.8,252.2,413.8,252.2,412.3L252.2,412.3z M252.1,402.4h-1.4c-1.4,0-1.4,0-1.4,0h1.4
		C252.1,402.4,252.1,402.4,252.1,402.4L252.1,402.4z M248.6,394.7c0,0,0-1.6-1.4-1.6l0,0l0,0c-1.4,0-1.4,0-1.4,1.6s0,1.6,1.4,1.6
		C248.6,396.3,248.6,394.7,248.6,394.7z M248.8,428.4c0,0,0-1.6-1.4-1.6l0,0l0,0c-1.4,0-1.4,0-1.4,1.6s0,1.6,1.4,1.6
		C248.8,431.4,248.8,428.4,248.8,428.4z M245.9,403.9C245.9,403.9,245.1,403.9,245.9,403.9c-1.4-1.6-2.7,0-2.7,0
		C242.4,405.5,242.4,405.5,245.9,403.9L245.9,403.9C245.1,405.5,245.9,405.5,245.9,403.9L245.9,403.9z M246,422.2
		C246,422.2,245.3,421.5,246,422.2c-1.4-1.6-2.7,0-2.7,0S242.5,423.8,246,422.2L246,422.2C245.3,423.8,246,422.2,246,422.2
		L246,422.2z M245.2,415.4c0-1.6,0-1.6-1.4-1.6l0,0c0,0-1.4,0-1.4,1.6l0,0l0,0c0,1.6,1.4,1.6,2.7,1.6L245.2,415.4L245.2,415.4
		L245.2,415.4z M245.2,410.8C245.2,410.8,242.4,410.8,245.2,410.8c-1.4-1.6-2.7,0-2.7,0C241.1,412.4,241.1,412.4,245.2,410.8
		L245.2,410.8C245.2,412.4,245.2,412.4,245.2,410.8L245.2,410.8z M245.3,425.4C245.3,425.4,242.6,425.4,245.3,425.4
		c-1.4-1.6-2.7,0-2.7,0C241.2,426.9,241.2,426.9,245.3,425.4L245.3,425.4C245.3,426.9,245.3,426.9,245.3,425.4L245.3,425.4z
		 M245.2,418.5h-1.4c-1.4,0-1.4,0-1.4,0S242.5,418.5,245.2,418.5L245.2,418.5z M239,422.3C239,422.3,239,421.5,239,422.3
		c-1.4-1.6-2.7,0-2.7,0S237.6,423.9,239,422.3L239,422.3C239.1,423.9,239,422.3,239,422.3L239,422.3z"/>
	<path class="st12" d="M308.9,471.9c4.1,0,24.5,1.3,27.3-0.2c-6.8,4.6-15,7.7-24.5,7.7c-27.3,1.7-57.8,3.4-84.5-3.9
		c0-4.5,44.9-1.8,51.7-1.8C290.5,472,300,472,308.9,471.9z"/>
</g>
</svg>
