<svg xmlns="http://www.w3.org/2000/svg" viewBox="0 0 250.5 105"><defs><style>.cls-1{fill:#3c9956;}.cls-2{fill:#09561b;}.cls-3{fill:#3a7799;}.cls-4{fill:#dd314b;}.cls-5{fill:#474003;}.cls-6{fill:#cec124;}.cls-7{fill:#0f2272;}.cls-8{fill:#7c6a1f;}.cls-10,.cls-9{fill:none;stroke:#000;stroke-miterlimit:10;}.cls-10{stroke-width:0.5px;}</style></defs><title>Artboard 1</title><g id="Layer_2" data-name="Layer 2"><path class="cls-1" d="M122.15,106.33a12,12,0,0,0,.46-3.26C122.61,92,107.1,83,88,83s-34.62,9-34.62,20.07a12,12,0,0,0,.48,3.34"/></g><g id="Layer_3" data-name="Layer 3"><ellipse class="cls-2" cx="87.33" cy="94" rx="15.77" ry="7.34"/></g><g id="Layer_1" data-name="Layer 1"><g id="Layer_2-2" data-name="Layer 2"><g id="_Group_" data-name=" Group "><path class="cls-3" d="M57.2,1.47h46.34c-3.87.83-6.83,2.79-7.74,5.2h-.25V24.4H57.2a4.25,4.25,0,0,1-4.45-4h0V5.52a4.24,4.24,0,0,1,4.42-4Zm30.7,8.66V7.57H75.8v-.3H66.33v5.94H75.8V10.13Z"/><polygon class="cls-4" points="75.8 10.13 75.8 13.22 66.33 13.22 66.33 7.27 75.8 7.27 75.8 7.57 71.19 7.57 71.19 10.13 75.8 10.13"/><rect class="cls-5" x="102.63" y="6.67" width="11.69" height="0.53"/><path class="cls-3" d="M96.87,6.67H95.8c.91-2.41,3.87-4.37,7.74-5.2h8.71c3.88.83,6.77,2.79,7.67,5.2h-4.36V5.47H101v1.2h-.53"/><polygon class="cls-6" points="115.06 6.67 115.06 7.57 101.65 7.57 101.65 6.67 102.63 6.67 102.63 7.2 114.41 7.2 114.41 6.67 115.06 6.67"/><polygon class="cls-6" points="115.06 5.69 115.06 6.67 114.41 6.67 114.41 6 102.63 6 102.63 6.67 101.65 6.67 101.65 5.69 115.06 5.69"/><path class="cls-3" d="M97.08,11.69a5,5,0,0,1-1.61-3.47,4.47,4.47,0,0,1,.25-1.5h5.19V8.1h14.57V6.67h4.45a4.8,4.8,0,0,1,.24,1.55,4.7,4.7,0,0,1-.9,2.7"/><path class="cls-3" d="M112.25,1.47h-8.71A21.3,21.3,0,0,1,112.25,1.47Z"/><path class="cls-3" d="M119.25,11.08a4.76,4.76,0,0,0,1-2.86v12.5a4.29,4.29,0,0,1-4.45,3.69H95.55V8.22a4.93,4.93,0,0,0,1.34,3.26"/><path class="cls-3" d="M95.55,6.67h.25a4.8,4.8,0,0,0-.25,1.55Z"/><rect class="cls-4" x="71.19" y="7.57" width="4.61" height="2.56"/><path class="cls-3" d="M120.25,6.67V8.22a4.47,4.47,0,0,0-.25-1.5Z"/><polygon class="cls-7" points="115.64 6.67 115.64 8.1 100.99 8.1 100.99 6.67 101.65 6.67 101.65 7.57 115.06 7.57 115.06 6.67 115.64 6.67"/><rect class="cls-5" x="102.63" y="6" width="11.69" height="0.67"/><path class="cls-4" d="M75.8,7.88V7.57H88v2.56H75.8v-.9"/><polygon class="cls-7" points="115.64 5.39 115.64 6.67 115.06 6.67 115.06 5.69 101.65 5.69 101.65 6.67 100.99 6.67 100.99 5.39 115.64 5.39"/><path class="cls-3" d="M120.25,20.67v3.84H95.55V24.4h20.34A4.25,4.25,0,0,0,120.25,20.67Z"/><rect class="cls-8" x="81.15" y="24.44" width="12.35" height="69.56"/><polyline class="cls-9" points="93.5 24.44 93.5 94 81.15 94 81.15 24.44"/><path class="cls-9" d="M95.55,24.4H57.2a4.25,4.25,0,0,1-4.45-4h0V5.52a4.24,4.24,0,0,1,4.42-4h46.37"/><polyline class="cls-9" points="119.92 6.67 120.25 6.67 120.25 8.17 120.25 20.67 120.25 24.51 95.55 24.51 95.55 24.44 95.55 8.17 95.55 6.67 95.8 6.67"/><path class="cls-9" d="M95.55,8.22a4.47,4.47,0,0,1,.25-1.5c.91-2.41,3.87-4.37,7.74-5.2a21.3,21.3,0,0,1,8.71,0c3.87.83,6.83,2.79,7.74,5.2a4.81,4.81,0,0,1,.26,1.55"/><polyline class="cls-10" points="75.8 10.13 87.9 10.13 87.9 7.57 75.8 7.57"/><polyline class="cls-10" points="75.8 10.13 75.8 13.22 66.33 13.22 66.33 7.27 75.8 7.27 75.8 7.57"/></g></g><path class="cls-3" d="M116.11,12.83a1.5,1.5,0,1,0-1.5-1.5A1.5,1.5,0,0,0,116.11,12.83Z"/><path class="cls-3" d="M117.23,14.18a1.5,1.5,0,1,0-1.5-1.5A1.5,1.5,0,0,0,117.23,14.18Z"/><path class="cls-3" d="M116.85,10.88v.22a1.5,1.5,0,1,0,3,0v-.22a1.5,1.5,0,0,0-3,0Z"/><path class="cls-3" d="M118.57,13.5a1.5,1.5,0,1,0-1.5-1.5A1.5,1.5,0,0,0,118.57,13.5Z"/><path class="cls-3" d="M116.84,10.64a51.28,51.28,0,0,1-14.42.15c-1.91-.24-1.89,2.76,0,3a53.93,53.93,0,0,0,15.22-.26C119.54,13.23,118.73,10.34,116.84,10.64Z"/><path class="cls-3" d="M105.12,13.5a1.5,1.5,0,1,0-1.5-1.5A1.5,1.5,0,0,0,105.12,13.5Z"/><path class="cls-3" d="M106.47,14.18a1.5,1.5,0,0,0,0-3h0a1.5,1.5,0,0,0,0,3Z"/><path class="cls-3" d="M108.71,15.52a1.5,1.5,0,1,0-1.5-1.5,1.5,1.5,0,0,0,1.5,1.5Z"/><path class="cls-3" d="M113.19,17.32a1.5,1.5,0,1,0,0-3h0a1.5,1.5,0,0,0,0,3Z"/><line class="cls-9" x1="120" y1="20.52" x2="120" y2="8.48"/></g></svg>