<?xml version="1.0" encoding="utf-8"?>
<!-- Generator: Adobe Illustrator 21.1.0, SVG Export Plug-In . SVG Version: 6.00 Build 0)  -->
<svg version="1.1" id="Layer_1" xmlns="http://www.w3.org/2000/svg" xmlns:xlink="http://www.w3.org/1999/xlink" x="0px" y="0px"
	 viewBox="0 0 350 236.4" style="enable-background:new 0 0 350 236.4;" xml:space="preserve">
<style type="text/css">
	.st0{fill:#FFE0BD;}
	.st1{fill:#FFFFFF;stroke:#000000;stroke-miterlimit:10;}
	.st2{fill:none;stroke:#000000;stroke-width:0.25;stroke-miterlimit:10;}
	.st3{fill:none;stroke:#000000;stroke-width:0.75;stroke-miterlimit:10;}
	.st4{fill:#C1272D;stroke:#000000;stroke-width:0.25;stroke-miterlimit:10;}
	.st5{fill:#FFFF00;}
	.st6{fill:#0071BC;stroke:#000000;stroke-width:0.25;stroke-miterlimit:10;}
	.st7{fill:#603813;}
	.st8{fill:#446171;}
	.st9{fill:#AF082F;}
	.st10{fill:none;stroke:#FFFFFF;stroke-miterlimit:10;}
	.st11{fill:#FFFFFF;}
	.st12{fill:none;stroke:#CC4A2B;stroke-width:0.25;stroke-miterlimit:10;}
	.st13{fill:#E5BBAC;}
	.st14{fill:#EFA08B;}
	.st15{fill:#E5907F;}
	.st16{fill:none;}
	.st17{fill:none;stroke:#E5BBAC;stroke-width:0.25;stroke-miterlimit:10;}
	.st18{fill:none;stroke:#F9D5C5;stroke-width:0.25;stroke-miterlimit:10;}
	.st19{fill:#CC4A2B;}
	.st20{fill:#070707;}
</style>
<g id="arm">
	<path class="st0" d="M218,97.6l-1.5-0.6c-2.1-0.9-3.1-3.2-2.3-5.3L230.7,43c0.7-2.1,2.9-3.2,5-2.5l1.5,0.6c2.1,0.9,3.1,3.2,2.3,5.3
		L223,95.1c-0.6,2-2.8,3.2-4.8,2.6L218,97.6z"/>
	<ellipse class="st0" cx="236.2" cy="39.7" rx="8.9" ry="9.4"/>
	<path class="st1" d="M254.9,35.1l-13.1,7.3c-0.8,0.5-1.9,0.1-2.4-0.7l0,0v-0.1l-14.2-28.4c-0.5-0.9-0.2-2,0.7-2.5L239,3.4
		c0.8-0.5,1.9-0.1,2.4,0.7l0,0v0.1l14.2,28.4C256,33.5,255.7,34.5,254.9,35.1z"/>
	<ellipse class="st0" cx="235.4" cy="29.1" rx="5.3" ry="3.5"/>
	<ellipse class="st0" cx="231" cy="35.3" rx="3.6" ry="8.5"/>
	<line class="st2" x1="249.6" y1="30.9" x2="251.8" y2="35.6"/>
	<line class="st2" x1="251.8" y1="29.7" x2="254" y2="34.4"/>
	<line class="st3" x1="240.1" y1="4.4" x2="242.9" y2="9.7"/>
	<line class="st3" x1="239.3" y1="5.3" x2="241.5" y2="9.4"/>
	<line class="st3" x1="238.2" y1="5.9" x2="238.7" y2="7.1"/>
	<line class="st3" x1="239.8" y1="8.2" x2="240.4" y2="9.4"/>
	<line class="st3" x1="240.4" y1="18.2" x2="243.7" y2="25.3"/>
	<line class="st3" x1="239.8" y1="20" x2="242.1" y2="24.1"/>
	<line class="st3" x1="238.2" y1="21.2" x2="240.4" y2="25.3"/>
	<polygon class="st4" points="248.9,29.3 247.7,26.7 250.2,25.4 251.4,28 	"/>
	<path class="st5" d="M249.7,28.6c0.8,0,1.5-0.7,1.5-1.5s-0.7-1.5-1.5-1.5s-1.5,0.7-1.5,1.5S248.9,28.6,249.7,28.6z"/>
	<path class="st6" d="M251.5,35.2L251.5,35.2c1.2,0.3,2.4-0.4,2.7-1.6l0,0v-0.1l0,0c0.3-1.2-0.4-2.5-1.6-2.9l0,0
		c-1.2-0.3-2.4,0.4-2.7,1.6l0,0v0.1l0,0C249.6,33.5,250.3,34.8,251.5,35.2z"/>
	<line class="st2" x1="250.7" y1="30.3" x2="252.9" y2="35"/>
	
		<animateTransform  accumulate="none" additive="replace" attributeName="transform" attributeType="XML" calcMode="linear" dur="3s" fill="remove" id="arm" repeatCount="indefinite" restart="always" type="translate" values="0,3;-3;0,3">
		</animateTransform>
</g>
<g id="body">
	<path class="st7" d="M148,216.4c0.3,3.1,7.5,4.9,16,4c5.8-0.7,12.3-1.4,12.9-4.2c0.2-1,0.2-2,0-3c-0.3-1.1-0.7-2.1-1.3-3
		c-1.5-2.1-6.2-2.7-12.7-1.2C158,210.1,147.7,213.4,148,216.4z"/>
	<path class="st7" d="M209.8,219.2c-0.3,3.1-8,4.9-17.1,4c-6.2-0.7-13.1-1.4-13.8-4.2c-0.2-1-0.2-2,0-3c0.3-1.1,0.7-2.1,1.4-3
		c1.6-2.1,6.6-2.7,13.6-1.2C199.1,212.9,210.1,216.2,209.8,219.2z"/>
	<g id="_Group_">
		<path class="st8" d="M164.1,163.4c-3.5-3.9-5.6-9.6-5.6-15.6c0-12.3,8.8-22.3,19.8-22.3s19.8,10,19.8,22.3
			c-0.1,6.7-2.6,13-6.9,16.9v47.2H182v-42.2c-1.3,0.3-2.5,0.4-3.9,0.4c-1,0-2-0.1-3.1-0.3v39.1h-11L164.1,163.4L164.1,163.4
			L164.1,163.4z"/>
	</g>
	<path class="st9" d="M191.1,160.7l-21.1-0.6h-0.1c-4.2,0.9-9.8-0.6-11.1-3.9c-0.1-0.1-0.2-0.9-0.3-2.4c-0.2-1.2-0.4-2.8-0.5-4.9
		c-0.1-1.4-0.2-3.6-0.1-6.4c0-0.8,0-0.8,0.3-3.9c0.4-5,0.3-6.2,0.7-9c0.2-1.4,0.5-2.6,0.6-3.3c0.2-0.6,0.4-1.6,0.7-2.7
		c0.9-3.4,0.9-3.2,1.3-5c1.1-5.4,1.3-5.7,1.6-6.5c0,0,0.1-0.3,0.1-0.6c0.9-4.3,1-12,1-12c0.1-3.6,0-4.5,0.7-5.9
		c0.8-1.6,2-2.7,2.9-3.4c0.2-0.3,0.6-0.8,1.2-1.3c0.2-0.1,1.1-0.8,2.2-1c2.2-0.3,4,1.7,4.1,1.8c4.6-1.9,9.1-3.7,13.8-5.6
		c1.6-2.3,4.3-3.2,6.6-1.9c2.5,1.7,3.7,5.4,2.9,8.7c-3,12.9-2.7,22.5-1.7,29c0.6,3.3,1.1,5.9,1.7,10.9c0.8,7.1,0.8,14.4,0,21.5
		c-0.7,2.5-2.1,4.8-3.8,6.4C193.6,159.8,192.4,160.3,191.1,160.7z"/>
	<path class="st9" d="M214.2,101.2h-16.1c-5.3,0-9.4-4.1-9.4-9.2l0,0c0-5.1,4.2-9.2,9.4-9.2h16.1c5.3,0,9.4,4.1,9.4,9.2l0,0
		C223.6,97,219.4,101.2,214.2,101.2z"/>
	<path class="st10" d="M179.6,118.4h11.9c0-7.1-5.4-12.9-11.9-12.9s-11.8,5.7-11.9,12.7L179.6,118.4z"/>
	<path class="st10" d="M179.4,119.6h13.4c0-8.2-6-14.9-13.4-14.9c-7.2,0-13.3,6.6-13.4,14.7L179.4,119.6z"/>
	<line class="st10" x1="164.8" y1="121.4" x2="193.5" y2="121.8"/>
	<polygon class="st11" points="174.4,109.9 170,117.7 178.8,117.7 	"/>
	<polygon class="st11" points="179,108.9 174.6,116.7 183.4,116.7 	"/>
	<path class="st11" d="M184.9,117.6L184.9,117.6c-0.8,0-1.4-0.7-1.4-1.5l0,0v-4.7c0-0.8,0.7-1.5,1.4-1.5l0,0l0,0
		c0.8,0,1.4,0.7,1.4,1.5l0,0v4.7C186.4,116.9,185.7,117.5,184.9,117.6z"/>
	<path class="st9" d="M184.5,113.2c0.6,0,1.1-0.5,1.1-1.2s-0.5-1.2-1.1-1.2s-1.1,0.5-1.1,1.2l0,0
		C183.4,112.7,183.9,113.2,184.5,113.2z"/>
</g>
<g id="head">
	<path class="st12" d="M181.8,75.2c-1,0-1.8,0-2.8,0c-0.8,0-5.8-0.2-7.2,0"/>
	<path class="st0" d="M206.8,53.6c0.2,0.2,0.6,0.2,1,0.2c0.2-0.2,0-0.6,0.4-0.8c0.2-0.2,0.2,0,0.8-0.2c0.2,0,0.6-0.2,0.6-0.4
		s-0.4-0.6-0.4-0.8s0.8-0.2,0.8-0.2s-0.8-0.6-0.6-0.8c0-0.2,1-0.2,1-0.4v-0.1c0.4,0.4,0.8,0.8,1,1.3c0.2,0.4,0.4,0.8,0.6,1.3
		c0.2,0.4,0.2,0.8,0,1.3c-0.2,0.8-0.8,0.8-1.4,1.7c-0.4,0.6-0.6,1.3-0.6,1.9c0,1,0,1.3-0.2,1.7c-0.4,0.6-1.2,0.8-2,0.8l0,0
		c-0.6-1.5-1.2-2.9-2-4.4l0,0c0.2,0,0.4-0.2,0.4-0.4c0-0.4-0.4-0.8-0.2-1C206,53.4,206.6,53.4,206.8,53.6z"/>
	<path class="st7" d="M155.2,62.4L155.2,62.4c0-0.2,0-0.4,0.2-0.6c-0.2,2.1,0.2,4.2,1.4,5.9c0.6,1.3,1.8,2.3,3,2.9
		c2.2,1,5,1.3,7.3,0.2c3-1,3-3.1,5.6-3.1h0.8c0.2,0,0.2,0,0.4,0c1,0.4,2.2,0.6,3.2,0.6c1.8,0,2.6-0.6,4-0.8c4.6-0.8,7,4.2,12,4.2
		c4.2-0.2,7.2-3.6,8.4-5.4c1-1.7,1.4-3.6,1.6-5.2c0-1.5,0-1.7,0-3.1c0-1,0.2-1.9,0.4-2.9h0.2c0.8,0,1.6-0.2,2.2-0.6
		c0.8,1.5,1.4,2.9,2,4.4l0,0c1.8,5.2,2.6,13-1.6,20c-4.4,7.1-14.8,15.6-28.2,14.3C163,91.9,156.2,79,156,78.3
		C154,72.7,153.7,67.3,155.2,62.4z"/>
	<path class="st7" d="M203.4,55.1c0,0.2,0,0.4,0,0.6h-0.2C203.2,55.5,203.2,55.3,203.4,55.1z"/>
	<path class="st0" d="M203.3,56.2c-0.2,1-0.2,2.1-0.4,2.9c0,1.5,0,1.9,0,3.1c0,1.9-0.6,3.6-1.6,5.2c-1,1.9-4.4,5.4-8.4,5.4
		c-5,0.2-7.3-5-12-4.2c-1.2,0.2-2,0.8-4,0.8c-1,0-2.2-0.2-3.2-0.6c1,0.2,2.2,0,3.2-0.6c1-0.4,1.8-1.3,2.8-1.3s2.2,1,3.6,0.8
		c0.8-0.4,0.6-1.5,0-2.1s-1.2-1.3-2-1.7c-1.2-1.3-1.8-2.7-1.8-4.4c0-1.5,0.2-3.1,0-4.6s-0.6-2.7-1.2-4c-1.2-2.9-1.8,1-2,2.1
		c-0.4,1.9-0.8,3.8-1.6,5.9c-0.8,2.3-1.8,4.6-2.8,6.7c-0.2,0.8-0.6,1.7,0,2.3c0.2,0.2,0.8,0.6,1.2,0.6h-0.2
		c-2.4,0.2-2.4,2.1-5.6,3.1c-2.4,0.8-5.2,0.6-7.3-0.2c-1.4-0.6-2.4-1.7-3-2.9c-1.2-1.9-1.6-3.8-1.4-5.9c0,0,0,0.2-0.2,0.6
		c0-1.3,0.4-2.3,1-3.6c0.4-0.6,0.8-1.3,1.4-1.9c0.2-0.2,0.4-0.4,0.6-0.6l0.4-0.2l0,0c1.8-1.5,2.6-5,2.6-5c0.2-0.4,0.2-0.8,0.2-1.5
		c-0.4-0.6-1-1-1-2.1v-0.2c0.2-2.9,1.2-5.5,3-7.8c0.8-1,1.8-1.9,3-2.7c0,0,0,0,0.2,0c1.6,0.8,1.6,1.7,2.4,2.1c2.4,0.8,6.2-2.3,7-1.7
		c0.4,0.2-0.4,1,0,1.5c0.8,0.8,5.2,0,8.2-1.7c0.4-0.2,1.2-0.6,1.4-0.6c0.2,0.2-1.4,1.7-1.2,1.9s3.2-2.3,3.8-2.1
		c0.2,0.2-0.6,0.8-0.4,1.3c0.4,0.2,2.8-1.5,3.2-1.3s-1,1.3-0.8,1.5c0.4,0.2,3.2-1.5,3.6-1.3c0.2,0.2,0.1,0.4-1,1.3
		c-1,0.8,5.4,0.2,5.6,1c0,0.4,2.9-0.3-0.4,1.9c1.2,0.2,0,0.2-1.4,0.6c3.3,0.2-0.6,0.9-0.2,1c2,0.1,0,1,0.2,1.5
		c0.4,0.2,1.2,0.2,1.4,0.4s1.2,3.2-0.6,1.3c-0.3-0.3,0.6,0.6,1,0.8c1,0.4,2-0.2,2.2,0c0.4,0.2,1.7,1.2-1,2.3c0,0.8,0.6,1.4,0.4,2.3
		c1,2.7,1.6,4,2.4,4.4C202.6,56,203.1,56,203.3,56.2z M198.5,53.2c0-0.2-0.2-0.2-0.4-0.2s-0.4,0.2-0.4,0.2c0,0.2,0.2,0.2,0.4,0.2
		S198.5,53.2,198.5,53.2L198.5,53.2L198.5,53.2L198.5,53.2z M194.5,48.2C194.5,48.4,194.6,48.4,194.5,48.2c0.6,0.4,1,0.6,1.4,0.4
		c-0.8-1.3-2-2.7-4-2.9c-0.8-0.2-1.2-0.2-1.8-0.2 M195.7,53.6c0-2.1-3-3.6-6.6-3.6s-6.6,1.7-6.6,3.6c0,2.1,3,3.6,6.6,3.6
		C192.7,57.2,195.7,55.5,195.7,53.6L195.7,53.6z M174.3,53.2c0-2.1-2.8-3.6-6.6-3.6s-6.6,1.7-6.6,3.6s2.8,3.6,6.6,3.6
		C171.3,56.8,174.3,55.1,174.3,53.2z"/>
	<ellipse cx="198.1" cy="53.2" rx="0.4" ry="0.2"/>
	<path d="M196.2,50.3c-0.4,0-1-0.2-1.2-0.4c-0.4-0.4-0.6-0.8-0.8-1.3c-1.2-2.1-3.6-2.3-5.8-2.7c-0.4,0-0.8-0.2-1.2-0.2
		s-0.8,0.2-1.4,0.8c-1,0.6-2,1.3-2.8,1.9c-0.4,0.2-1,0.6-1.2,0.8c-1.8,0.8-0.8-1.3-0.2-2.3c1-1.1,2-1.7,3.4-2.1c2-0.4,4-0.4,5.8-0.2
		c0.8,0.2,1.4,0.2,2,0.6C194.6,46.4,195.8,48.1,196.2,50.3z"/>
	<path class="st13" d="M189.1,49.4c3.8,0,6.4,1.7,6.6,3.6c0.3,2.8-3.5,4.6-7.1,4.2c-4.9-0.5-6.3-1.5-6-4.2
		C182.6,51.1,185.3,49.4,189.1,49.4z M195.4,52.6c0-1.5-2.8-2.5-6.2-2.5c-3.2,0-6.2,1.3-6.2,2.5c0,1.5,2.8,2.5,6.2,2.5
		C192.4,55.1,195.4,54.2,195.4,52.6z"/>
	<path class="st11" d="M189.1,50.1c3.6,0,6.2,1.3,6.2,2.5c0,1.3-2.8,2.5-6.2,2.5c-3.2,0-6.2-1.3-6.2-2.5
		C182.8,51.3,185.6,50.1,189.1,50.1z"/>
	<path class="st14" d="M183.7,65.4c0.6,0.8,0.6,1.5,0,2.3c-1.2,0.2-2.6-1-3.8-1c-1.4,0-2.2,1-3.2,1.3c-1.2,0.8-2.6,0.8-3.6,0.8
		c-0.2,0-0.2,0-0.4,0l0,0c-0.4,0-1-0.2-1.4-0.8c-0.6-0.8-0.2-1.5,0-2.5c1.2-2.5,2.2-4.8,3.2-7.3c0.6-2.1,1.4-4,1.8-6.3
		c0.2-1.1,1-5.4,2.2-2.3c0.6,1.3,1.2,2.9,1.4,4.2c0.2,1.5,0,3.4,0,5c0,1.5,0.6,3.4,2,4.8C182.3,64.1,182.8,64.9,183.7,65.4z
		 M178,66.8C178,66.6,177.8,66.6,178,66.8c-0.2-0.2-0.4,0-0.4,0S177.6,66.8,178,66.8L178,66.8C177.8,66.8,178,66.8,178,66.8
		L178,66.8z M177.3,65.2c0,0,0-0.2-0.2-0.2s-0.2,0-0.2,0.2c0,0,0,0.2,0.2,0.2C177.3,65.4,177.3,65.2,177.3,65.2L177.3,65.2z
		 M175.9,63.5c0-0.2-0.2-0.2-0.4-0.2s-0.4,0.2-0.4,0.2c0,0.2,0.2,0.2,0.4,0.2S175.9,63.7,175.9,63.5L175.9,63.5z M175.9,66
		c0-0.2,0-0.2-0.2-0.2s-0.2,0-0.2,0.2s0,0.2,0.2,0.2l0,0L175.9,66L175.9,66z M175.5,67.3c0-0.2,0-0.2-0.2-0.2s-0.2,0-0.2,0.2l0,0
		l0,0c-0.2,0-0.2,0-0.2,0.2s0,0.2,0.2,0.2s0.2,0,0.2-0.2l0,0l0,0l0,0C175.5,67.5,175.5,67.3,175.5,67.3L175.5,67.3z M174.7,67.2
		C174.7,67.2,174.5,66.8,174.7,67.2c-0.2-0.2-0.4,0-0.4,0S174.5,67.3,174.7,67.2L174.7,67.2C174.5,67.3,174.7,67.2,174.7,67.2
		L174.7,67.2z M174.5,68.5L174.5,68.5C174.5,68.1,174.5,68.1,174.5,68.5L174.5,68.5L174.5,68.5C174.3,68.5,174.5,68.5,174.5,68.5
		L174.5,68.5L174.5,68.5z M174.5,65.2C174.5,65.2,174.5,65.1,174.5,65.2c-0.2-0.2-0.4,0-0.4,0S174.3,65.4,174.5,65.2L174.5,65.2
		L174.5,65.2L174.5,65.2z M174.3,66.6C174.3,66.4,174.3,66.4,174.3,66.6c-0.2-0.2-0.4,0-0.4,0S174,66.8,174.3,66.6L174.3,66.6
		L174.3,66.6L174.3,66.6z M173.3,64.1L173.3,64.1C173.3,63.9,173.3,63.9,173.3,64.1L173.3,64.1L173.3,64.1
		C173.3,63.9,173.3,64.1,173.3,64.1L173.3,64.1z M173.3,63c0-0.2,0-0.2,0-0.2S173.1,62.8,173.3,63c-0.2,0.2-0.2,0.2,0,0.2
		C173.6,63.3,173.3,63.3,173.3,63L173.3,63z M173.3,67.7L173.3,67.7c-0.2-0.2-0.4,0-0.4,0C172.9,67.9,173.1,67.9,173.3,67.7
		L173.3,67.7C173.3,67.9,173.3,67.9,173.3,67.7L173.3,67.7z M173.1,66C173.1,66,173.1,65.8,173.1,66c-0.2-0.2-0.4,0-0.4,0
		C172.6,66.2,172.9,66.2,173.1,66L173.1,66C173.1,66.2,173.1,66.2,173.1,66L173.1,66z M173.1,64.7h-0.2c-0.2,0-0.2,0-0.2,0h0.2
		C173.1,64.7,173.1,64.7,173.1,64.7L173.1,64.7z M172.6,63.7c0,0,0-0.2-0.2-0.2l0,0l0,0c-0.2,0-0.2,0-0.2,0.2s0,0.2,0.2,0.2
		S172.6,63.7,172.6,63.7z M172.6,68.1c0,0,0-0.2-0.2-0.2l0,0l0,0c-0.2,0-0.2,0-0.2,0.2s0,0.2,0.2,0.2
		C172.6,68.5,172.6,68.1,172.6,68.1z M172.2,64.9C172.2,64.9,172.1,64.9,172.2,64.9c-0.2-0.2-0.4,0-0.4,0
		C171.7,65.1,171.7,65.1,172.2,64.9L172.2,64.9C172.1,65.1,172.2,65.1,172.2,64.9L172.2,64.9z M172.2,67.3
		C172.2,67.3,172.1,67.2,172.2,67.3c-0.2-0.2-0.4,0-0.4,0S171.7,67.5,172.2,67.3L172.2,67.3C172.1,67.5,172.2,67.3,172.2,67.3
		L172.2,67.3z M172.1,66.4c0-0.2,0-0.2-0.2-0.2l0,0c0,0-0.2,0-0.2,0.2l0,0l0,0c0,0.2,0.2,0.2,0.4,0.2V66.4L172.1,66.4L172.1,66.4z
		 M172.1,65.8C172.1,65.8,171.7,65.8,172.1,65.8c-0.2-0.2-0.4,0-0.4,0C171.5,66,171.5,66,172.1,65.8L172.1,65.8
		C172.1,66,172.1,66,172.1,65.8L172.1,65.8z M172.1,67.7C172.1,67.7,171.7,67.7,172.1,67.7c-0.2-0.2-0.4,0-0.4,0
		C171.5,67.9,171.5,67.9,172.1,67.7L172.1,67.7C172.1,67.9,172.1,67.9,172.1,67.7L172.1,67.7z M172.1,66.8h-0.2c-0.2,0-0.2,0-0.2,0
		S171.7,66.8,172.1,66.8L172.1,66.8z M171.2,67.3C171.2,67.3,171.2,67.2,171.2,67.3c-0.2-0.2-0.4,0-0.4,0S171,67.5,171.2,67.3
		L171.2,67.3C171.2,67.5,171.2,67.3,171.2,67.3L171.2,67.3z"/>
	<ellipse class="st15" cx="178.5" cy="67" rx="0.2" ry="0.2"/>
	<ellipse class="st15" cx="177.6" cy="65.6" rx="0.2" ry="0.2"/>
	<ellipse class="st15" cx="176.2" cy="63.9" rx="0.4" ry="0.2"/>
	<ellipse class="st15" cx="176.4" cy="66.2" rx="0.2" ry="0.2"/>
	<path class="st14" d="M176.1,67.2c0,0,0.2,0,0.2,0.2s0,0.2-0.2,0.2l0,0c0,0,0,0,0-0.2l0,0C176.1,67.2,176.1,67.2,176.1,67.2z"/>
	<path class="st15" d="M176.1,67.5L176.1,67.5c0,0.2,0,0.2-0.2,0.2s-0.2,0-0.2-0.2c0,0,0-0.2,0.2-0.2l0,0L176.1,67.5L176.1,67.5z"/>
	<path class="st15" d="M176.1,67.3L176.1,67.3L176.1,67.3z"/>
	<ellipse class="st14" cx="175.5" cy="67.2" rx="0.2" ry="0.2"/>
	<ellipse class="st15" cx="175.5" cy="68.5" rx="0" ry="0"/>
	<ellipse class="st15" cx="175.2" cy="65.6" rx="0.2" ry="0.2"/>
	<ellipse class="st15" cx="175" cy="66.8" rx="0.2" ry="0.2"/>
	<ellipse class="st15" cx="174.5" cy="64.5" rx="0" ry="0"/>
	<ellipse class="st15" cx="174.5" cy="63.5" rx="0" ry="0.2"/>
	<ellipse class="st15" cx="174.3" cy="67.9" rx="0.2" ry="0.2"/>
	<path d="M174.5,47.7c0,0.6,0,1.1-0.6,1.5c-0.4-0.8-1-1.1-1.6-1.7c-0.4-0.2-0.8-0.8-1.4-1c-0.4,0-0.8-0.2-1.2-0.2c-1.4,0-3,0-4.4,0
		c-0.4,0-1,0-1.2,0.2c-1,0.2-1.4,1.5-2,2.3c-0.2,0.2-0.4,1-1,1c-0.4,0,0-1.1,0-1.5c0.4-1,1.2-1.9,2-2.7c0.4-0.2,1-0.8,1.4-1
		c0.6-0.2,1-0.2,1.6-0.2c1.2,0,2.8,0,4.2,0c1.2,0.2,2.6,0.8,3.6,1.7C174,46.8,174.3,47.4,174.5,47.7z"/>
	<ellipse class="st15" cx="174" cy="66.2" rx="0.2" ry="0.2"/>
	<ellipse class="st15" cx="174" cy="64.9" rx="0" ry="0.2"/>
	<ellipse class="st14" cx="173.6" cy="64.1" rx="0.2" ry="0.2"/>
	<ellipse class="st15" cx="173.6" cy="68.3" rx="0.2" ry="0.2"/>
	<path class="st14" d="M173.8,68.7c-0.2,0-0.2,0-0.4,0C173.6,68.7,173.6,68.7,173.8,68.7z"/>
	<ellipse class="st14" cx="173.3" cy="65.1" rx="0.2" ry="0.2"/>
	<ellipse class="st15" cx="173.3" cy="67.3" rx="0.2" ry="0.2"/>
	<path class="st14" d="M172.6,66.4c0,0,0.2,0,0.2,0.2l0,0l0,0c0,0.2-0.2,0.2-0.4,0.2s-0.4,0-0.4-0.2
		C172.2,66.4,172.4,66.4,172.6,66.4C172.4,66.4,172.4,66.4,172.6,66.4c-0.2,0.2,0,0.2,0,0.2S173.1,66.6,172.6,66.4
		C173.1,66.4,173.1,66.4,172.6,66.4z"/>
	<ellipse class="st14" cx="173.1" cy="66" rx="0.2" ry="0.2"/>
	<ellipse class="st14" cx="173.1" cy="67.9" rx="0.2" ry="0.2"/>
	<ellipse class="st14" cx="173.1" cy="67" rx="0" ry="0.2"/>
	<path class="st15" d="M172.6,66.4C173.1,66.4,173.1,66.4,172.6,66.4c0,0.2,0,0.2,0,0.2s-0.2,0-0.2-0.2
		C172.4,66.4,172.4,66.4,172.6,66.4z"/>
	<ellipse class="st15" cx="172.2" cy="67.3" rx="0.2" ry="0.2"/>
	<path class="st16" d="M166.9,37c0.6,0,1,0.2,1.6,0c0,0-0.4-0.2-0.8-0.6c-0.2,0-0.4-0.2-0.8-0.2c-2-0.2-3.8,0.8-4,0.6
		s2.4-1.5,2.2-2.1s-3.8,0-3.8-0.2s9.6-2.1,9.4-2.9c0-0.2-0.4-0.2-1-0.6c-0.6-0.2-0.8-0.4-0.8-0.4c1.6,0.4,3,0.8,4.8,1
		c1.2,0,2.8,0,2.8-0.2s-3-0.6-3-1c0-0.6,9-0.6,10.8-0.4c0.6,0,1,0.2,1.6,0.2h1.8c0.6,0,0.8-0.2,1.2-0.2c0.2,0,0.6,0,0.8,0.2l2,0.6
		c2,0.6,2.2,0.2,3.8,0.8c1.2,0.6,1.8,1.3,2.4,1c0.4-0.2,0.6-0.4,0.8-0.4c0.4,0,0.6,0.6,1,0.6s0.8-0.6,1-0.6s0.2,0.6,0.8,1.3
		c0.2,0.4,0.8,0.8,1.4,0.8c3,2.1,5.2,5,5.8,8.2c0.2,2.7-1,4.8,0.6,6.1c0,0,0.8,0.6,0.8,0.8"/>
	<ellipse class="st17" cx="189.1" cy="53" rx="6.6" ry="3.6"/>
	<path class="st18" d="M183.7,64.1c2,0.8,3.8,1.9,5.2,3.3c1.4,1.3,2.2,2.9,2.2,4.8"/>
	<path class="st18" d="M171.2,64.3c-2.8,1.7-5,4.2-5.9,6.9"/>
	<path class="st18" d="M161.7,57.2c0.8,0.6,1.8,1,2.8,1.3c0.8,0.2,1.6,0.2,2.4,0.4c1.2,0,2.4,0,3.6-0.2c1-0.2,2.2-0.6,3-1.3"/>
	<path class="st18" d="M182.3,57c1.4,1.3,3,1.9,5.2,2.1c1.8,0.2,4,0,5.6-0.6"/>
	<path class="st19" d="M181.4,74.2c0.6,0,3.6,0.2,4,0c-1,0.6-2.2,1-3.6,1c-4,0.2-8.5,0.4-12.4-0.6c0-0.6,6.6-0.2,7.6-0.2
		C178.7,74.2,180.1,74.2,181.4,74.2z"/>
	<path class="st7" d="M206.6,57.3L206.6,57.3c-0.8,0.4-1.4,0.4-2.4,0.4l0,0c0-0.2,0-0.4,0-0.8c0,0.2,0,0.4,0,0.8l0,0
		c-0.4,0-1,0-1.2-0.2c-0.8-0.2-1.2-1.7-2.6-4.8c-0.4-0.8-0.6-1.5-0.4-2.5c-2.3-0.6,1.2-2.3,1-2.5s-1.2,0.4-2.4,0
		c-0.4-0.2-0.8-0.4-1-1c0-0.8,0.8-1,0.6-1.3c-0.2-0.4-1,0-1.4-0.4c-0.4-0.2-0.2-1-0.2-1.5c0-0.4,0-0.8,0.2-1.1
		c0-0.2,0.2-0.4,0.2-0.8c0.4-1.1,2-1.5,1.8-2.1c-0.2-0.8-7.6-0.4-5.8-1.1c-0.5,0.4,1-1.1,1-1.3c0,0-3.2,1.7-3.6,1.3
		c-0.4-0.2,1-1.5,0.8-1.5c-0.2-0.2-3,1.5-3.4,1.3s0.6-1.1,0.4-1.3c-0.4-0.2-3.6,2.3-3.8,2.3c-0.2-0.2,1.4-1.7,1.2-2.1
		c-0.2-0.4-1,0.4-1.4,0.8c-3.2,1.7-7.6,2.7-8.5,1.7c-0.4-0.4,0.4-1.3,0-1.5c-0.8-0.8-4.4,2.7-7.2,1.7c-0.8-0.2-0.8-1.3-2.6-2.3
		c0,0,0,0-0.2,0c0.2-0.2,0.4-0.2,0.6-0.4l0,0c0.6,0,1,0.2,1.8,0c0,0-0.4-0.2-0.8-0.8c-0.2,0-0.4-0.2-0.8-0.2c-2.2-0.2-3.8,1-4,0.8
		s2.6-1.5,2.4-2.3c-0.2-0.8-3.8,0-3.8-0.2s9.9-2.3,9.8-3.1c0-0.2-0.4-0.2-1-0.8c-0.6-0.2-0.8-0.4-0.8-0.4c1.8,0.4,3.2,1,4.8,1.1
		c1.2,0,3,0,3-0.2s-3.2-0.8-3.2-1.1c0-0.8,9.4-0.8,11-0.4c0.6,0,1,0.2,1.8,0.2h2c0.6,0,0.8-0.2,1.2-0.2c0.2,0,0.6,0,0.8,0.2l2.2,0.8
		c2.2,0.8,2.4,0.2,3.8,1c1.2,0.8,2,1.3,2.6,1.1c0.4-0.2,0.6-0.4,0.8-0.4c0.4,0,0.6,0.8,1,0.8s0.8-0.8,1-0.8s0.2,0.8,0.8,1.3
		c0.2,0.4,0.8,1,1.4,1c3.2,2.3,5.4,5.4,5.9,8.8c0.2,2.9-1,5.2,0.6,6.5c0,0,0.8,0.8,0.8,1l0,0V51c-0.2,0.2-1,0.2-1,0.4s0.8,0.8,0.6,1
		s-0.6,0-0.8,0.2s0.4,0.8,0.4,1s-0.4,0.2-0.6,0.4c-0.2,0.2-0.6,0-0.8,0.2c-0.4,0.2-0.2,0.8-0.4,1s-0.6,0-1-0.2s-0.6-0.2-0.6,0
		s0.4,0.8,0.2,1.1C207,56.9,206.8,56.9,206.6,57.3z"/>
	<path class="st13" d="M167.9,49.8c3.8,0,6.4,1.7,6.6,3.6c0.3,2.8-3.5,4.6-7.1,4.2c-4.9-0.5-6.3-1.5-6-4.2
		C161.5,51.5,164.1,49.8,167.9,49.8z M174.3,53c0-1.5-2.8-2.5-6.2-2.5c-3.2,0-6.2,1.3-6.2,2.5c0,1.5,2.8,2.5,6.2,2.5
		C171.3,55.5,174.3,54.5,174.3,53z"/>
	<path class="st11" d="M167.9,50.5c3.6,0,6.2,1.3,6.2,2.5c0,1.3-2.8,2.5-6.2,2.5c-3.2,0-6.2-1.3-6.2-2.5
		C161.7,51.7,164.5,50.5,167.9,50.5z"/>
	<ellipse id="eye_1" class="st20" cx="167.4" cy="53" rx="1" ry="0.8"/>
	<ellipse class="st17" cx="167.9" cy="53.4" rx="6.6" ry="3.6"/>
	<ellipse id="eye_2" class="st20" cx="188.8" cy="52.9" rx="1" ry="0.8"/>
</g>
</svg>
