<?xml version="1.0" encoding="utf-8"?>
<!-- Generator: Adobe Illustrator 21.1.0, SVG Export Plug-In . SVG Version: 6.00 Build 0)  -->
<svg version="1.1" id="Layer_1" xmlns="http://www.w3.org/2000/svg" xmlns:xlink="http://www.w3.org/1999/xlink" x="0px" y="0px"
	 viewBox="0 0 242 242" style="enable-background:new 0 0 242 242;" xml:space="preserve">
<style type="text/css">
	.st0{fill:#FFE0BD;}
	.st1{fill:none;stroke:#BF934C;stroke-width:4;stroke-miterlimit:10;}
	.st2{fill:#B8D6E0;}
	.st3{fill:none;stroke:#000000;stroke-width:3;stroke-miterlimit:10;}
	.st4{fill:#39B54A;}
	.st5{fill:#603813;}
	.st6{fill:#132859;}
	.st7{fill:#FFFFFF;}
	.st8{fill:none;stroke:#CC4A2B;stroke-width:0.25;stroke-miterlimit:10;}
	.st9{fill:#E5BBAC;}
	.st10{fill:#EFA08B;}
	.st11{fill:#E5907F;}
	.st12{fill:none;}
	.st13{fill:none;stroke:#E5BBAC;stroke-width:0.25;stroke-miterlimit:10;}
	.st14{fill:none;stroke:#F9D5C5;stroke-width:0.25;stroke-miterlimit:10;}
	.st15{fill:#CC4A2B;}
	.st16{fill:#070707;}
</style>
<g id="arm">
	<path class="st0" d="M143.1,120.5l0.6-0.7c0.8-1.2,0.7-2.4-0.5-2.8l-30-8.7c-1.3-0.5-3.2,0.2-4.3,1.4l-0.6,0.7
		c-0.8,1.2-0.7,2.4,0.5,2.8l30,8.7C140,122.2,141.9,121.6,143.1,120.5L143.1,120.5z"/>
	<path class="st0" d="M111,106.4c-1.5-1.5-4.4-1.5-6.6,0.2c-2.2,1.6-2.5,4.3-1,5.8c1.4,1.5,4.4,1.5,6.6-0.2
		C112.1,110.3,112.5,107.9,111,106.4z"/>
	<path class="st0" d="M112.2,106.5c-0.6-1.6-2.2-3-3.5-3s-1.7,1.4-1,3.1c0.6,1.6,2.2,3,3.5,3C112.4,109.6,112.7,108.2,112.2,106.5z"
		/>
	<line class="st1" x1="73.3" y1="42.1" x2="111.2" y2="121.9"/>
	<polygon class="st2" points="26.4,61.6 110.5,27.6 104.3,2.9 20.3,36.9 	"/>
	<path class="st3" d="M35.8,36.6c1.4,3.6,2.5,7.2,3.5,11c2.8-1.2,5.6-2.2,8.3-3.4"/>
	<path class="st3" d="M71.2,37c-1.7-3.8-3.1-7.8-4.3-11.9c-0.1-0.2-0.1-0.5,0-0.5c3.9,3.1,7.7,5.9,11.6,9"/>
	<path class="st3" d="M74.3,21.4c1.5,4.3,3.2,8.7,4.9,13"/>
	<path class="st3" d="M85.9,13.9c2.2,5,4,10,5.8,15"/>
	<path class="st3" d="M94.2,12.2c-1.3,2.8-2.6,5.5-3.9,8.3c0.8,0,1.3,0.5,2.1,1c3.1,1.4,6.2,2.5,9.3,3.8"/>
	<path class="st3" d="M52.6,30.6c1.9,3.7,3.5,7.7,4.8,11.8"/>
	<path class="st0" d="M103.5,109.8c-1.3,0.5-2.2,1.2-2.2,1.7s1.2,0.5,2.3,0.2c1.3-0.5,2.2-1.2,2.2-1.7
		C105.7,109.3,104.8,109.3,103.5,109.8z"/>
	<path class="st0" d="M100.8,106.7c-0.8,0.5-1.5,1.4-1.3,2c0.1,0.5,1.2,0.5,2.1-0.2c0.8-0.5,1.5-1.4,1.3-2
		C102.8,106.2,101.7,106.4,100.8,106.7z"/>
	<path class="st0" d="M102.4,108.2c-1.4,0.5-2.3,1.4-2.3,2c0.1,0.5,1.2,0.7,2.5,0.2c1.4-0.5,2.3-1.4,2.3-2
		C104.9,107.9,103.7,107.7,102.4,108.2z"/>
	<path class="st0" d="M104.3,111.7c-1.4,0-2.6,0.4-3,1c-0.3,0.5,0.6,1,2.1,1c1.4,0,2.6-0.4,3-1C106.6,112.1,105.7,111.7,104.3,111.7
		z"/>
	<path class="st0" d="M106.1,103.8c-1.5,0.5-2.6,1.4-2.6,2.1c0.1,0.6,1.5,0.7,3.1,0.4c1.5-0.5,2.6-1.4,2.6-2.1
		C109.2,103.5,107.7,103.4,106.1,103.8z"/>
	
		<animateTransform  accumulate="none" additive="replace" attributeName="transform" attributeType="XML" calcMode="linear" dur="3s" fill="remove" repeatCount="indefinite" restart="always" type="translate" values="3,0;0;3,0">
		</animateTransform>
</g>
<g>
	<ellipse class="st0" cx="176" cy="128.3" rx="3.6" ry="14.9"/>
	<ellipse class="st4" cx="173.3" cy="118.5" rx="6.5" ry="9.1"/>
	<g>
		<path class="st5" d="M145.9,202.9c0.1,2.3,4,3.5,8.6,3.1c3.1-0.6,6.6-1,6.9-3.1c0.1-0.7,0.1-1.4,0-2.3c-0.1-0.7-0.3-1.6-0.7-2.3
			c-0.8-1.6-3.4-1.9-6.9-0.7C151.3,198.1,145.8,200.7,145.9,202.9z"/>
		<path class="st5" d="M181.8,204.8c-0.1,2.3-4.4,3.5-9.6,3.1c-3.5-0.6-7.4-1-7.8-3.1c-0.1-0.7-0.1-1.4,0-2.3
			c0.1-0.7,0.4-1.6,0.8-2.3c0.8-1.6,3.7-1.9,7.6-0.7C175.8,200.4,182,202.7,181.8,204.8z"/>
		<g id="_Group_">
			<path class="st6" d="M153.5,164.3c-2.4-2.8-3.9-7-3.9-11.2c0-9.1,6-16.3,13.5-16.3c7.4,0,13.5,7.4,13.5,16.3
				c0,5.1-1.7,9.5-4.6,12.4v34.8h-6.1v-31c-0.8,0.2-1.7,0.2-2.5,0.2c-0.7,0-1.4,0-2.1-0.2V198h-7.6v-33.6L153.5,164.3L153.5,164.3z"
				/>
		</g>
	</g>
	<path class="st4" d="M173.5,157.4c-4.4-0.6-9-1-13.3-1.7c-4.2-2.2-7-1.9-8.8-1.3c-1,0.3-2.2,1-2.8,0.5c-0.7-0.6-0.5-2.4,0-4
		c0.1-1.7,0.4-3.6,0.5-5.2c0-0.5,0.1-1.3,0.4-2.4c0.5-3.3,0.5-4,0.7-6.1c0.1-1.3,0.4-2.2,0.5-3c0.1-1.3,0.4-1.9,0.5-2.8
		c0.1-0.9,0.1-1.4,0.4-2.1c0.4-1.9,0.6-3,0.5-3.6c0,0-0.1-0.3,0-0.6c0-0.1,0.1-0.3,0.1-0.3c0.5-3,0-5.4-0.4-7.6
		c-0.4-1.4-0.5-3-0.5-4.3c0-0.3-0.1-0.9,0.4-1.5c0.5-0.8,1.5-1.3,2.4-1c0.7,0,1.6-0.1,2.4-0.1c2,0,3.7,0.3,5.2,0.6
		c1.1-0.6,3-1.5,5.5-1.9c1.1-0.1,2,0,2.8,0.1c0.5-0.1,1.1-0.3,2-0.1c0.7,0,1.6,0.1,2.2,0.8c0.5,0.5,0.4,0.6,0.9,3.1
		c0.4,1,0.5,1.9,0.5,2.1c1.1,5.4,2.4,10.6,3.1,16c0.1,0.9,0.1,1.7,0.1,1.7c0.1,1.7,0.4,3.4,0.5,5.4c0.1,2.4,0.4,7.5,0.5,14
		c0.7,2.4-0.1,4.6-1.8,5.4C175.4,158.4,173.7,157.6,173.5,157.4z"/>
</g>
<g>
	<g>
		<path class="st7" d="M153.8,121.7c0.1,0.9,0,2.1-0.4,2.9c-0.4,0.9-0.6,2-1.2,2.7c0,0.3-0.4,0.5-0.4,0.8c0.1,0.5,0.7,0.8,0.9,1.4
			c0.1,0.3,0.5,0.5,0.7,0.5c0.9-0.3,0.7-0.7,1.7-0.9c2.2-0.8,5.2-0.8,7.7-0.8c2.4-0.1,5.8,0.5,8.1-0.3c2.8-1.3,2.7-7,2-9.1
			c0-0.1-0.1-0.3-0.5-0.5c-2.4-0.5-5.2-0.1-7.9,0c-1.2,0-1.5,0-2.2,0.1c-0.4,0-0.5,0.5-0.7,0.7c-2.4,0.8-5.8-1.7-7.9,0.7
			c-0.1,0.1-0.1,0.3-0.1,0.5c0.1,0.3,0.1,0.5,0.4,0.7c0.4,0.5,1.5,0.5,1-0.3c-1-2.5,4.6,0.3,4.6,0.3c1.2,0.3,1.2-0.1,2.2-0.5
			c0.4-0.1,0.6-0.8,0.6-0.8c1.2-0.5,3.6-0.5,4.8-0.5s3.6-0.5,4.2,1.3c0.1,0.3,0,3.3-0.1,3.5c-2.4,5.5-12.1,0.9-16.6,3.4
			c-1.6,0.7-1.5,2.2-1.5,0c-0.1-2.1,1.2-4,1.2-6.3C154.9,121.1,153.8,121.1,153.8,121.7L153.8,121.7z"/>
	</g>
</g>
<g>
	<g>
		<path class="st7" d="M156.8,122.6c-0.4,1.3,0.4,2.4,1.7,2.1c0.7-0.1,0.5-1.3-0.4-0.9c-0.4-0.1-0.5-0.5-0.4-0.7
			C158.1,122.1,156.9,121.9,156.8,122.6L156.8,122.6z"/>
	</g>
</g>
<g>
	<g>
		<path class="st7" d="M164.5,122.5c0-0.5,0-0.8,0.1-1.4c-0.4,0.1-0.6,0.1-0.9,0.3c0.5,0.5,0.9,0.7,1.5,1.3c0.4,0.1,0.7,0.3,0.9-0.1
			c0.1-0.5,0.4-0.8,0.5-1.4c-0.4,0.1-0.6,0.1-0.9,0.3c0.4,0.1,0.5,0.5,0.6,0.7c0.1,0.7,1.2,0.5,1-0.3c-0.1-0.5-0.6-1.3-1.2-1.4
			c-0.4-0.1-0.7,0-0.9,0.3c0,0.5-0.1,0.7-0.4,0.9c0.4,0,0.6-0.1,0.9-0.1c-0.5-0.5-0.9-0.7-1.5-1.3c-0.4-0.3-0.7-0.1-0.9,0.3
			c-0.1,0.5-0.4,0.9-0.1,1.7C163.5,123.3,164.8,123.3,164.5,122.5L164.5,122.5z"/>
	</g>
</g>
<g>
	<g>
		<path class="st7" d="M167.7,123.7c0.4,0,0.5,0,0.7,0c0.7,0.1,1-0.8,0.4-0.9c-0.4-0.1-0.6-0.1-1-0.1
			C167.1,122.6,167.1,123.8,167.7,123.7L167.7,123.7z"/>
	</g>
</g>
<g>
	<g>
		<path class="st7" d="M159.7,127.1c0-0.3,0-0.5-0.1-0.7c0-0.3,0-0.5-0.4-0.3c-0.5,0.3-0.4,0.8,0.1,0.9c0.4,0.1,0.5,0.3,0.6,0.5
			c0.5,0.5,1.5,0,0.9-0.5c-0.4-0.5-0.7-0.7-1.5-0.8C159.7,126.4,159.7,126.7,159.7,127.1c0.5-0.3,0.9-0.5,0.9-1.3
			c0-0.5-0.5-0.8-0.9-0.9s-1,0.1-1.2,0.5c-0.4,0.5,0,1.3,0,1.8S159.7,127.9,159.7,127.1L159.7,127.1z"/>
	</g>
</g>
<g>
	<g>
		<path class="st7" d="M161.8,125.5c-0.7,0-1.5,0.5-1,1.4c0.1,0.5,1,0.9,1.7,0.8C164,127.1,163.2,124.7,161.8,125.5
			c-0.7,0.1-0.5,1.4,0.1,0.9h-0.1C162.5,126.4,162.5,125.5,161.8,125.5L161.8,125.5z"/>
	</g>
</g>
<g>
	<g>
		<path class="st7" d="M167,125c-0.9-0.5-2.2-0.1-2.2,0.9c0,0.9,1.6,1.4,2.2,0.8c0.6-0.5,0-1.4-0.6-0.8c-0.1,0.1-0.4,0.1-0.5,0
			s0.4,0,0.4,0C167.1,126.4,167.6,125.5,167,125L167,125z"/>
	</g>
</g>
<g>
	<g>
		<path class="st7" d="M167.7,126.2c0.4,0.1,0.5,0.3,0.5,0.5c0.4,0.5,1.5,0.3,1-0.3c-0.4-0.5-0.6-0.8-1-1.3S167.1,125.8,167.7,126.2
			L167.7,126.2z"/>
	</g>
</g>
<path class="st4" d="M153.6,121.4l-10.2,2.7c-3.2,0.8-6.6-0.9-7.6-4.2l0,0c-0.9-3.2,0.9-6.4,4.3-7.3l10.2-2.7
	c3.2-0.8,6.6,0.9,7.6,4.2l0,0C158.7,117.1,156.9,120.5,153.6,121.4z"/>
<g>
	<g>
		<path class="st7" d="M164.4,128.7c-0.5,0.1-0.6,0.5-0.4,0.9c0.5,0.5,0.9,0.3,1.6,0.1c0.4,0,0.6,0.1,0.9,0.1c0.4,0,0.7-0.1,1.2-0.1
			c1.2,0,2.5,0,4-0.1c0.7,0,0.7-1.3,0-1.3c-1.6,0.1-3,0-4.4,0.1c-0.4,0-0.4,0.1-0.6,0.1c-0.1,0-0.4-0.1-0.5-0.1s-0.5,0-0.6,0
			c-0.5,0.1-0.1,0.1-0.4,0.5c-0.1,0.1-0.1,0.3-0.4,0.5h0.1C165.6,129.3,165,128.4,164.4,128.7L164.4,128.7z"/>
	</g>
</g>
<g>
	<g>
		<path class="st7" d="M160.5,122c0,0.5,0,0.8,0,1.4c0,0.7,1.2,0.7,1.2,0c0-0.5,0-0.8,0-1.4C161.8,121.3,160.5,121.3,160.5,122
			L160.5,122z"/>
	</g>
</g>
<g>
	<g>
		<path class="st7" d="M169.1,122.1c0.6,0.1,1,0.1,1.7,0.1s0.7-1.3,0-1.3c-0.5,0-0.9,0-1.5-0.1C168.7,121.1,168.5,122,169.1,122.1
			L169.1,122.1z"/>
	</g>
</g>
<g>
	<g>
		<path class="st7" d="M168.7,121.9c0.1,0.8,0.5,2.5,1.8,2c0.6-0.3,0.4-1.4-0.4-0.9c-0.1,0-0.5-0.9-0.5-1.3
			C169.6,121.1,168.6,121.3,168.7,121.9L168.7,121.9z"/>
	</g>
</g>
<g>
	<g>
		<path class="st7" d="M168.6,124.6c0.1,0.5,0.4,0.7,0.1,1.3c0,0.7,1,0.7,1.2,0c0-0.5,0-1.3-0.4-1.8
			C169.3,123.5,168.3,124.1,168.6,124.6L168.6,124.6z"/>
	</g>
</g>
<g>
	<g>
		<path class="st7" d="M169.9,125.5c0.1-0.3,0.5-0.5,0.7-0.5c0.6-0.5,0-1.4-0.6-0.8c-0.4,0.3-0.6,0.5-0.9,0.7
			C168.6,125.3,169.5,126,169.9,125.5L169.9,125.5z"/>
	</g>
</g>
<g id="head">
	<path class="st8" d="M164,96.9c-0.7,0-1.5,0-2.2,0c-0.6,0-4.4-0.1-5.5,0"/>
	<path class="st0" d="M182.9,80.2c0.1,0.1,0.5,0.1,0.7,0.1c0.1-0.1,0-0.5,0.4-0.5c0.1-0.1,0.1,0,0.6-0.1c0.1,0,0.5-0.1,0.5-0.3
		c0-0.1-0.4-0.5-0.4-0.5c0-0.1,0.6-0.1,0.6-0.1s-0.6-0.5-0.5-0.5c0-0.1,0.7-0.1,0.7-0.3v-0.1c0.4,0.3,0.6,0.5,0.7,0.9
		c0.1,0.3,0.4,0.5,0.5,0.9c0.1,0.3,0.1,0.5,0,0.9c-0.1,0.5-0.6,0.5-1,1.4c-0.4,0.5-0.5,0.9-0.5,1.4c0,0.7,0,0.9-0.1,1.4
		c-0.4,0.5-0.9,0.5-1.6,0.5l0,0c-0.5-1.3-0.9-2.2-1.6-3.4l0,0c0.1,0,0.4-0.1,0.4-0.3c0-0.3-0.4-0.5-0.1-0.7
		C182.3,80,182.8,80,182.9,80.2z"/>
	<path class="st5" d="M143.7,87L143.7,87c0-0.1,0-0.3,0.1-0.5c-0.1,1.7,0.1,3.3,1,4.6c0.5,0.9,1.5,1.8,2.2,2.2
		c1.7,0.7,3.8,0.9,5.7,0.1c2.2-0.7,2.2-2.4,4.2-2.4h0.6c0.1,0,0.1,0,0.4,0c0.7,0.3,1.7,0.5,2.4,0.5c1.5,0,2-0.5,3-0.5
		c3.6-0.5,5.2,3.3,9.1,3.3c3.1-0.1,5.5-2.7,6.4-4.2c0.7-1.4,1-2.7,1.2-4c0-1.3,0-1.4,0-2.4c0-0.7,0.1-1.4,0.4-2.2h0.1
		c0.6,0,1.2-0.1,1.7-0.5c0.6,1.3,1,2.2,1.6,3.4l0,0c1.5,4,2,10-1.2,15.7c-3.4,5.4-11.1,12-21.4,11.1c-11.5-0.9-16.8-11-16.9-11.6
		C142.9,95,142.6,90.8,143.7,87z"/>
	<path class="st5" d="M180.4,81.3c0,0.1,0,0.3,0,0.5h-0.1C180.3,81.6,180.3,81.4,180.4,81.3z"/>
	<path class="st0" d="M180.3,82.3c-0.1,0.7-0.1,1.7-0.4,2.2c0,1.3,0,1.4,0,2.4c0,1.4-0.5,2.7-1.2,4c-0.7,1.4-3.4,4.2-6.4,4.2
		c-3.8,0.1-5.7-3.9-9.1-3.3c-0.9,0.1-1.6,0.5-3,0.5c-0.7,0-1.7-0.1-2.4-0.5c0.7,0.1,1.7,0,2.4-0.5c0.7-0.3,1.5-0.9,2.2-0.9
		s1.7,0.7,2.7,0.5c0.6-0.3,0.5-1.3,0-1.7c-0.5-0.5-0.9-0.9-1.6-1.4c-0.9-0.9-1.5-2.1-1.5-3.4s0.1-2.4,0-3.5
		c-0.1-1.2-0.5-2.1-0.9-3.1c-0.9-2.2-1.5,0.7-1.6,1.7c-0.4,1.4-0.6,2.9-1.2,4.6c-0.6,1.8-1.5,3.5-2.2,5.2c-0.1,0.5-0.5,1.4,0,1.8
		c0.1,0.1,0.6,0.5,0.9,0.5h0.1c-1.8,0.1-1.8,1.7-4.2,2.4c-1.8,0.5-4,0.5-5.7-0.1c-1-0.5-1.8-1.4-2.2-2.2c-0.9-1.4-1.2-2.9-1-4.6
		c0,0,0,0.1-0.1,0.5c0-0.9,0.4-1.8,0.7-2.7c0.4-0.5,0.6-0.9,1-1.4c0.1-0.1,0.4-0.3,0.5-0.5l0.4-0.1l0,0c1.5-1.3,2-3.9,2-3.9
		c0.1-0.3,0.1-0.5,0.1-1.3c-0.4-0.5-0.7-0.7-0.7-1.7l0,0c0.1-2.2,0.9-4.3,2.2-6.1c0.6-0.7,1.5-1.4,2.2-2.1c0,0,0,0,0.1,0
		c1.2,0.5,1.2,1.4,1.8,1.7c1.8,0.5,4.7-1.8,5.2-1.4c0.4,0.1-0.4,0.7,0,1.3c0.6,0.5,4,0,6.3-1.4c0.4-0.1,0.9-0.5,1-0.5
		c0.1,0.1-1,1.4-0.9,1.4c0.1,0.1,2.4-1.8,2.8-1.7c0.1,0.1-0.5,0.5-0.4,0.9c0.4,0.1,2.2-1.3,2.4-0.9c0.4,0.1-0.7,0.9-0.6,1.3
		c0.4,0.1,2.4-1.3,2.7-0.9c0.1,0.1,0.1,0.3-0.7,0.9c-0.7,0.7,4.1,0.1,4.2,0.7c0,0.3,2.2-0.3-0.4,1.4c0.9,0.1,0,0.1-1,0.5
		c2.5,0.1-0.5,0.7-0.1,0.7c1.6,0.1,0,0.7,0.1,1.3c0.4,0.1,0.9,0.1,1,0.3c0.1,0.2,1,2.5-0.5,0.9c-0.1-0.3,0.5,0.5,0.7,0.5
		c0.7,0.3,1.6-0.1,1.7,0c0.4,0.1,1.2,0.9-0.7,1.8c0,0.5,0.5,1.2,0.4,1.8c0.7,2.1,1.2,3.1,1.8,3.4C179.8,81.9,180.1,81.9,180.3,82.3z
		 M176.6,79.7c0-0.1-0.1-0.1-0.4-0.1s-0.4,0.1-0.4,0.1c0,0.1,0.1,0.1,0.4,0.1S176.6,79.7,176.6,79.7L176.6,79.7L176.6,79.7
		L176.6,79.7z M173.5,75.9C173.5,76.1,173.7,76.1,173.5,75.9c0.5,0.3,0.7,0.5,1,0.3c-0.6-0.9-1.6-2.1-3-2.2c-0.5,0-0.9,0-1.5,0
		 M174.5,80.2c0-1.7-2.2-2.7-5-2.7c-2.7,0-5,1.4-5,2.7c0,1.7,2.2,2.7,5,2.7C172.3,83,174.5,81.6,174.5,80.2L174.5,80.2z M158.2,79.7
		c0-1.7-2.2-2.7-5-2.7s-5,1.4-5,2.7c0,1.4,2.2,2.7,5,2.7C155.9,82.6,158.2,81.3,158.2,79.7z"/>
	<ellipse cx="176.4" cy="79.7" rx="0.4" ry="0.1"/>
	<path d="M175,77.7c-0.4,0-0.7-0.1-0.9-0.3c-0.4-0.3-0.5-0.5-0.6-0.9c-0.9-1.7-2.7-1.8-4.4-2.1c-0.4,0-0.6-0.1-0.9-0.1
		s-0.6,0.1-1,0.5c-0.7,0.5-1.6,0.9-2.2,1.4c-0.4,0.1-0.7,0.5-0.9,0.5c-1.5,0.5-0.6-0.9-0.1-1.8c0.7-0.8,1.6-1.4,2.5-1.7
		c1.6-0.3,3-0.3,4.4-0.1c0.6,0.1,1,0.1,1.6,0.5C173.7,74.5,174.7,75.9,175,77.7z"/>
	<path class="st9" d="M169.5,76.8c2.8,0,4.8,1.4,5,2.7c0.4,2.2-2.7,3.4-5.3,3.3c-3.7-0.5-4.8-1.2-4.7-3.3
		C164.5,78.3,166.6,76.8,169.5,76.8z M174.3,79.3c0-1.3-2.2-2-4.7-2c-2.4,0-4.7,0.9-4.7,2c0,1.3,2.2,2,4.7,2
		C171.9,81.3,174.3,80.6,174.3,79.3z"/>
	<path class="st7" d="M169.5,77.6c2.7,0,4.7,0.9,4.7,2c0,0.9-2.2,2-4.7,2c-2.4,0-4.7-0.9-4.7-2C164.8,78.4,167,77.6,169.5,77.6z"/>
	<path class="st10" d="M165.4,89.2c0.5,0.5,0.5,1.3,0,1.8c-0.9,0.1-2-0.7-2.8-0.7c-1,0-1.7,0.7-2.4,0.9c-0.9,0.5-2,0.5-2.7,0.5
		c-0.1,0-0.1,0-0.4,0l0,0c-0.4,0-0.7-0.1-1-0.5c-0.5-0.5-0.1-1.3,0-2c0.9-2,1.7-3.8,2.4-5.5c0.5-1.7,1-3.1,1.5-4.8
		c0.1-0.8,0.7-4.2,1.7-1.8c0.5,0.9,0.9,2.2,1,3.3c0.1,1.3,0,2.6,0,3.9s0.5,2.6,1.6,3.8C164.3,88.3,164.8,89,165.4,89.2z M161.1,90.3
		C161.1,90.2,160.9,90.2,161.1,90.3c-0.1-0.1-0.4,0-0.4,0S160.8,90.3,161.1,90.3L161.1,90.3C160.9,90.3,161.1,90.3,161.1,90.3
		L161.1,90.3z M160.5,89.2C160.5,89.2,160.5,89.1,160.5,89.2c-0.2-0.1-0.2-0.1-0.2,0C160.3,89.2,160.3,89.2,160.5,89.2L160.5,89.2
		L160.5,89.2z M159.5,87.8c0-0.1-0.1-0.1-0.4-0.1s-0.4,0.1-0.4,0.1c0,0.1,0.1,0.1,0.4,0.1S159.5,87.9,159.5,87.8L159.5,87.8z
		 M159.5,89.8C159.5,89.7,159.5,89.7,159.5,89.8c-0.2-0.1-0.2-0.1-0.2,0S159.3,89.9,159.5,89.8L159.5,89.8L159.5,89.8L159.5,89.8z
		 M159.1,90.8C159.1,90.7,159.1,90.7,159.1,90.8c-0.2-0.1-0.2-0.1-0.2,0l0,0l0,0c-0.1,0-0.1,0-0.1,0.1s0,0.1,0.1,0.1
		S159,91,159.1,90.8L159.1,90.8L159.1,90.8L159.1,90.8C159.1,90.9,159.1,90.8,159.1,90.8L159.1,90.8z M158.5,90.5
		C158.5,90.5,158.4,90.3,158.5,90.5c-0.1-0.1-0.4,0-0.4,0S158.4,90.8,158.5,90.5L158.5,90.5C158.4,90.8,158.5,90.5,158.5,90.5
		L158.5,90.5z M158.4,91.7L158.4,91.7C158.4,91.5,158.4,91.5,158.4,91.7L158.4,91.7L158.4,91.7C158.2,91.7,158.4,91.7,158.4,91.7
		L158.4,91.7L158.4,91.7z M158.4,89.2C158.4,89.2,158.4,89.1,158.4,89.2c-0.1-0.1-0.4,0-0.4,0S158.2,89.2,158.4,89.2L158.4,89.2
		L158.4,89.2L158.4,89.2z M158.2,90.2C158.2,90.1,158.2,90.1,158.2,90.2c-0.1-0.1-0.4,0-0.4,0S158.1,90.3,158.2,90.2L158.2,90.2
		L158.2,90.2L158.2,90.2z M157.5,88.3L157.5,88.3C157.5,88.2,157.5,88.2,157.5,88.3L157.5,88.3L157.5,88.3
		C157.5,88.2,157.5,88.3,157.5,88.3L157.5,88.3z M157.5,87.3L157.5,87.3C157.5,87.3,157.2,87.3,157.5,87.3
		C157.4,87.4,157.4,87.4,157.5,87.3C157.9,87.7,157.5,87.7,157.5,87.3L157.5,87.3z M157.5,91.1L157.5,91.1c-0.1-0.1-0.4,0-0.4,0
		C157,91.2,157.2,91.2,157.5,91.1L157.5,91.1C157.5,91.2,157.5,91.2,157.5,91.1L157.5,91.1z M157.2,89.8
		C157.2,89.8,157.2,89.6,157.2,89.8c-0.1-0.1-0.4,0-0.4,0C156.9,89.9,157,89.9,157.2,89.8L157.2,89.8
		C157.2,89.9,157.2,89.9,157.2,89.8L157.2,89.8z M157.2,88.8L157.2,88.8c-0.2,0-0.2,0-0.2,0H157.2L157.2,88.8L157.2,88.8z
		 M156.9,87.9C156.9,87.9,156.9,87.8,156.9,87.9L156.9,87.9L156.9,87.9c-0.2-0.1-0.2-0.1-0.2,0S156.8,88,156.9,87.9
		C156.9,88.2,156.9,87.9,156.9,87.9z M156.9,91.5C156.9,91.5,156.9,91.4,156.9,91.5L156.9,91.5L156.9,91.5c-0.2-0.1-0.2-0.1-0.2,0
		S156.8,91.6,156.9,91.5C156.9,91.7,156.9,91.5,156.9,91.5z M156.7,89C156.7,89,156.5,89,156.7,89c-0.1-0.1-0.4,0-0.4,0
		C156.3,89.1,156.3,89.1,156.7,89L156.7,89C156.5,89.1,156.7,89.1,156.7,89L156.7,89z M156.7,90.8C156.7,90.8,156.5,90.5,156.7,90.8
		c-0.1-0.1-0.4,0-0.4,0S156.3,90.9,156.7,90.8L156.7,90.8C156.5,90.9,156.7,90.8,156.7,90.8L156.7,90.8z M156.5,90.1
		C156.5,90,156.5,90,156.5,90.1L156.5,90.1c-0.1-0.1-0.2-0.1-0.2,0l0,0l0,0c0,0.1,0.1,0.1,0.4,0.1C156.5,90.2,156.5,90.1,156.5,90.1
		L156.5,90.1L156.5,90.1z M156.5,89.6C156.5,89.6,156.3,89.6,156.5,89.6c-0.1-0.1-0.4,0-0.4,0C156.1,89.8,156.1,89.8,156.5,89.6
		L156.5,89.6C156.5,89.8,156.5,89.8,156.5,89.6L156.5,89.6z M156.5,91.1C156.5,91.1,156.3,91.1,156.5,91.1c-0.1-0.1-0.4,0-0.4,0
		C156.1,91.2,156.1,91.2,156.5,91.1L156.5,91.1C156.5,91.2,156.5,91.2,156.5,91.1L156.5,91.1z M156.5,90.3L156.5,90.3
		c-0.2,0-0.2,0-0.2,0S156.3,90.3,156.5,90.3L156.5,90.3z M155.9,90.8C155.9,90.8,155.9,90.5,155.9,90.8c-0.1-0.1-0.4,0-0.4,0
		S155.8,90.9,155.9,90.8L155.9,90.8C155.9,90.9,155.9,90.8,155.9,90.8L155.9,90.8z"/>
	<ellipse class="st11" cx="161.3" cy="90.4" rx="0.1" ry="0.1"/>
	<ellipse class="st11" cx="160.8" cy="89.5" rx="0.1" ry="0.1"/>
	<ellipse class="st11" cx="159.7" cy="88.2" rx="0.4" ry="0.1"/>
	<ellipse class="st11" cx="159.9" cy="89.9" rx="0.1" ry="0.1"/>
	<path class="st10" d="M159.7,90.5L159.7,90.5c0.1,0.2,0.1,0.2,0,0.2l0,0C159.7,90.7,159.7,90.7,159.7,90.5L159.7,90.5L159.7,90.5z"
		/>
	<path class="st11" d="M159.7,90.9L159.7,90.9C159.7,91,159.7,91,159.7,90.9c-0.2,0.1-0.2,0.1-0.2,0
		C159.5,90.9,159.5,90.8,159.7,90.9L159.7,90.9L159.7,90.9L159.7,90.9z"/>
	<path class="st11" d="M159.7,90.8L159.7,90.8L159.7,90.8z"/>
	<ellipse class="st10" cx="159.1" cy="90.5" rx="0.1" ry="0.1"/>
	<ellipse class="st11" cx="159.1" cy="91.7" rx="0" ry="0"/>
	<ellipse class="st11" cx="159" cy="89.5" rx="0.1" ry="0.1"/>
	<ellipse class="st11" cx="158.7" cy="90.3" rx="0.1" ry="0.1"/>
	<ellipse class="st11" cx="158.4" cy="88.5" rx="0" ry="0"/>
	<ellipse class="st11" cx="158.4" cy="87.8" rx="0" ry="0.1"/>
	<ellipse class="st11" cx="158.2" cy="91.2" rx="0.1" ry="0.1"/>
	<path d="M158.4,75.7c0,0.5,0,0.8-0.5,1.3c-0.4-0.5-0.7-0.8-1.2-1.4c-0.4-0.1-0.6-0.5-1-0.7c-0.4,0-0.6-0.1-0.9-0.1
		c-1,0-2.2,0-3.4,0c-0.4,0-0.7,0-0.9,0.1c-0.7,0.1-1,1.3-1.6,1.8c-0.1,0.1-0.4,0.7-0.7,0.7c-0.4,0,0-0.8,0-1.3
		c0.4-0.7,0.9-1.4,1.6-2.1c0.4-0.1,0.7-0.5,1-0.7c0.5-0.1,0.7-0.1,1.2-0.1c0.9,0,2.2,0,3.1,0c0.9,0.1,2,0.5,2.7,1.4
		C158.1,74.7,158.2,75.3,158.4,75.7z"/>
	<ellipse class="st11" cx="158.1" cy="89.9" rx="0.1" ry="0.1"/>
	<ellipse class="st11" cx="158.1" cy="89" rx="0" ry="0.1"/>
	<ellipse class="st10" cx="157.9" cy="88.3" rx="0.1" ry="0.1"/>
	<ellipse class="st11" cx="157.9" cy="91.6" rx="0.1" ry="0.1"/>
	<path class="st10" d="M158,91.8c-0.1,0-0.1,0-0.4,0C157.9,91.8,157.9,91.8,158,91.8z"/>
	<ellipse class="st10" cx="157.5" cy="89.1" rx="0.1" ry="0.1"/>
	<ellipse class="st11" cx="157.5" cy="90.8" rx="0.1" ry="0.1"/>
	<path class="st10" d="M156.9,90.1C156.9,90.1,157,90.1,156.9,90.1L156.9,90.1L156.9,90.1c0.1,0.2,0,0.2-0.3,0.2
		c-0.1,0-0.4,0-0.4-0.1C156.7,90.1,156.8,90.1,156.9,90.1C156.8,90.1,156.8,90.1,156.9,90.1C156.8,90.2,156.9,90.2,156.9,90.1
		C156.9,90.2,157.2,90.2,156.9,90.1C157.2,90.1,157.2,90.1,156.9,90.1z"/>
	<ellipse class="st10" cx="157.2" cy="89.8" rx="0.1" ry="0.1"/>
	<ellipse class="st10" cx="157.2" cy="91.2" rx="0.1" ry="0.1"/>
	<ellipse class="st10" cx="157.2" cy="90.4" rx="0" ry="0.1"/>
	<path class="st11" d="M156.9,90.1C157.2,90.1,157.2,90.1,156.9,90.1C156.9,90.2,156.9,90.2,156.9,90.1
		C156.9,90.2,156.8,90.2,156.9,90.1C156.8,90.1,156.8,90.1,156.9,90.1z"/>
	<ellipse class="st11" cx="156.7" cy="90.8" rx="0.1" ry="0.1"/>
	<path class="st12" d="M152.6,67.3c0.5,0,0.7,0.1,1.2,0c0,0-0.4-0.1-0.6-0.5c-0.1,0-0.4-0.1-0.6-0.1c-1.6-0.1-2.8,0.5-3,0.5
		c-0.1-0.1,1.8-1.3,1.7-1.7c-0.1-0.5-2.8,0-2.8-0.1s7.3-1.7,7-2.2c0-0.1-0.4-0.1-0.7-0.5c-0.5-0.1-0.6-0.3-0.6-0.3
		c1.2,0.3,2.2,0.5,3.7,0.7c0.9,0,2.2,0,2.2-0.1s-2.2-0.5-2.2-0.7c0-0.5,6.8-0.5,8.2-0.3c0.5,0,0.7,0.1,1.2,0.1h1.5
		c0.5,0,0.6-0.1,0.9-0.1c0.1,0,0.5,0,0.6,0.1l1.6,0.5c1.6,0.5,1.7,0.1,2.8,0.5c0.9,0.5,1.5,0.9,1.8,0.7c0.4-0.1,0.5-0.3,0.6-0.3
		c0.4,0,0.5,0.5,0.7,0.5c0.4,0,0.6-0.5,0.7-0.5c0.1,0,0.1,0.5,0.6,0.9c0.1,0.3,0.6,0.5,1,0.5c2.2,1.7,4,3.9,4.4,6.4
		c0.1,2.1-0.7,3.8,0.5,4.7l0.6,0.5"/>
	<ellipse class="st13" cx="169.5" cy="79.7" rx="5" ry="2.7"/>
	<path class="st14" d="M165.4,88.3c1.6,0.5,2.8,1.4,4,2.5c1,0.9,1.7,2.2,1.7,3.8"/>
	<path class="st14" d="M155.9,88.3c-2.2,1.4-3.8,3.3-4.6,5.2"/>
	<path class="st14" d="M148.6,83c0.6,0.5,1.5,0.7,2.2,0.9c0.6,0.1,1.2,0.1,1.8,0.3c0.9,0,1.8,0,2.7-0.1c0.7-0.1,1.7-0.5,2.2-0.9"/>
	<path class="st14" d="M164.3,82.8c1,0.9,2.2,1.4,4,1.7c1.5,0.1,3,0,4.2-0.5"/>
	<path class="st15" d="M163.7,96.2c0.5,0,2.7,0.1,3,0c-0.7,0.5-1.7,0.7-2.7,0.7c-3,0.1-6.5,0.3-9.4-0.5c0-0.5,5-0.1,5.8-0.1
		C161.5,96.2,162.7,96.2,163.7,96.2z"/>
	<path class="st5" d="M182.8,83L182.8,83c-0.6,0.3-1,0.3-1.8,0.3l0,0c0-0.1,0-0.3,0-0.5c0,0.1,0,0.3,0,0.5l0,0c-0.4,0-0.7,0-0.9-0.1
		c-0.6-0.1-0.9-1.4-2-3.8c-0.4-0.5-0.5-1.3-0.4-2c-1.7-0.5,0.9-1.8,0.7-2c-0.1-0.1-0.9,0.3-1.8,0c-0.4-0.1-0.6-0.3-0.7-0.7
		c0-0.5,0.6-0.7,0.5-0.9c-0.1-0.3-0.7,0-1-0.3c-0.4-0.1-0.1-0.7-0.1-1.3c0-0.3,0-0.5,0.1-0.8c0-0.1,0.1-0.3,0.1-0.5
		c0.4-0.8,1.6-1.3,1.5-1.7c-0.1-0.5-5.8-0.3-4.4-0.8c-0.4,0.3,0.7-0.8,0.7-0.9c0,0-2.4,1.4-2.7,0.9c-0.4-0.1,0.7-1.3,0.6-1.3
		c-0.1-0.1-2.2,1.3-2.5,0.9c-0.4-0.1,0.5-0.8,0.4-0.9c-0.4-0.1-2.7,1.8-2.8,1.8c-0.1-0.1,1-1.4,0.9-1.7c-0.1-0.3-0.7,0.3-1,0.5
		c-2.4,1.4-5.8,2.1-6.5,1.4c-0.4-0.3,0.4-0.9,0-1.3c-0.6-0.5-3.4,2.1-5.5,1.4c-0.6-0.1-0.6-0.9-2-1.8c0,0,0,0-0.1,0
		c0.1-0.1,0.4-0.1,0.5-0.3l0,0c0.5,0,0.7,0.1,1.5,0c0,0-0.4-0.1-0.6-0.5c-0.1,0-0.4-0.1-0.6-0.1c-1.7-0.1-2.8,0.7-3,0.5
		c-0.1-0.1,2-1.3,1.8-1.8c-0.1-0.5-2.8,0-2.8-0.1s7.7-1.8,7.4-2.4c0-0.1-0.4-0.1-0.7-0.5c-0.5-0.1-0.6-0.3-0.6-0.3
		c1.5,0.3,2.4,0.7,3.7,0.8c0.9,0,2.2,0,2.2-0.1s-2.4-0.5-2.4-0.8c0-0.5,7-0.5,8.4-0.3c0.5,0,0.7,0.1,1.5,0.1h1.6
		c0.5,0,0.6-0.1,0.9-0.1c0.1,0,0.5,0,0.6,0.1l1.7,0.5c1.7,0.5,1.8,0.1,2.8,0.7c0.9,0.5,1.6,0.9,2,0.8s0.5-0.3,0.6-0.3
		c0.4,0,0.5,0.5,0.7,0.5s0.6-0.5,0.7-0.5c0.1,0,0.1,0.5,0.6,0.9c0.1,0.3,0.6,0.7,1,0.7c2.4,1.8,4.1,4.2,4.6,6.8
		c0.1,2.2-0.7,4,0.5,5.1c0,0,0.6,0.5,0.6,0.7l0,0v0.1c-0.1,0.1-0.7,0.1-0.7,0.3s0.6,0.5,0.5,0.7c-0.1,0.1-0.5,0-0.6,0.1
		s0.4,0.5,0.4,0.7c0,0.1-0.4,0.1-0.5,0.3c-0.1,0.1-0.5,0-0.6,0.1c-0.4,0.1-0.1,0.5-0.4,0.7c-0.1,0.1-0.5,0-0.7-0.1
		c-0.4-0.1-0.5-0.1-0.5,0s0.4,0.5,0.1,0.8C183.1,82.6,182.9,82.6,182.8,83z"/>
	<path class="st9" d="M153.4,77.1c2.8,0,4.8,1.4,5,2.7c0.4,2.2-2.7,3.4-5.3,3.3c-3.7-0.5-4.8-1.2-4.7-3.3
		C148.4,78.5,150.5,77.1,153.4,77.1z M158.2,79.7c0-1.3-2.2-2-4.7-2c-2.4,0-4.7,0.9-4.7,2c0,1.3,2.2,2,4.7,2
		C155.9,81.6,158.2,80.9,158.2,79.7z"/>
	<path class="st7" d="M153.4,77.8c2.7,0,4.7,0.9,4.7,2c0,0.9-2.2,2-4.7,2c-2.4,0-4.7-0.9-4.7-2C148.7,78.7,150.9,77.8,153.4,77.8z"
		/>
	<ellipse id="eye_1" class="st16" cx="150.1" cy="79.7" rx="0.7" ry="0.5">
	
		<animateTransform  accumulate="none" additive="replace" attributeName="transform" attributeType="XML" calcMode="linear" dur="3s" fill="remove" repeatCount="indefinite" restart="always" type="translate" values="3,0;0;3,0">
		</animateTransform>
	</ellipse>
	<ellipse class="st13" cx="153.4" cy="80" rx="5" ry="2.7"/>
	<ellipse id="eye_2" class="st16" cx="166.5" cy="79.7" rx="0.7" ry="0.5">
	
		<animateTransform  accumulate="none" additive="replace" attributeName="transform" attributeType="XML" calcMode="linear" dur="3s" fill="remove" repeatCount="indefinite" restart="always" type="translate" values="3,0;0;3,0">
		</animateTransform>
	</ellipse>
</g>
</svg>
