<?xml version="1.0" encoding="utf-8"?>
<!-- Generator: Adobe Illustrator 21.1.0, SVG Export Plug-In . SVG Version: 6.00 Build 0)  -->
<svg version="1.1" xmlns="http://www.w3.org/2000/svg" xmlns:xlink="http://www.w3.org/1999/xlink" x="0px" y="0px"
	 viewBox="0 0 1024 768" style="enable-background:new 0 0 1024 768;" xml:space="preserve">
<style type="text/css">
	.st0{fill:#FFFF00;stroke:#000000;stroke-miterlimit:10;}
	.st1{fill:#FF6700;stroke:#000000;stroke-miterlimit:10;}
	.st2{fill:#754C24;stroke:#42210B;stroke-miterlimit:10;}
	.st3{fill:#FFFFFF;stroke:#000000;stroke-miterlimit:10;}
	.st4{fill:#FFEADF;}
	.st5{fill:#603813;}
	.st6{fill:#E5BBAC;}
	.st7{fill:#FFFFFF;}
	.st8{fill:#070707;}
	.st9{fill:#CC4A2B;}
	.st10{fill:#EFA08B;}
	.st11{fill:#E5907F;}
	.st12{fill:none;stroke:#FFEADF;stroke-miterlimit:10;}
	.st13{fill:none;stroke:#42210B;stroke-miterlimit:10;}
	.st14{fill:none;stroke:#E5BBAC;stroke-miterlimit:10;}
	.st15{fill:none;stroke:#000000;stroke-miterlimit:10;}
	.st16{fill:none;stroke:#CC4A2B;stroke-miterlimit:10;}
	.st17{fill:none;stroke:#F9D5C5;stroke-miterlimit:10;}
	.st18{fill:none;stroke:#F9D5C5;stroke-width:3;stroke-miterlimit:10;}
</style>
<g id="Layer_2">
	<ellipse class="st0" cx="484.8" cy="375.2" rx="99.2" ry="102.2"/>
	<ellipse class="st1" cx="484.9" cy="375.2" rx="94.3" ry="98.4"/>
	<ellipse class="st0" cx="484.9" cy="375.1" rx="91.2" ry="94.7"/>
	<ellipse class="st1" cx="484.6" cy="375.4" rx="87.4" ry="91.9"/>
</g>
<g id="Layer_1">
	<path class="st2" d="M155.5,477.5"/>
	<path class="st3" d="M92.5,388.5"/>
	<g id="XMLID_2_">
		<g>
			<path class="st4" d="M541.1,346.5c0.1,0.8,0.3,1.9,0,3.2c-0.5,2-1.7,1.9-2.7,4.2c-0.7,1.5-0.9,2.9-1,4.6
				c-0.3,2.7,0.2,3.3-0.3,4.2c-0.7,1.3-2.5,1.8-4.2,1.9c-0.3-1.3-0.7-2.5-1.1-3.7c-0.1-3.3-0.4-7-1-10.9c0.7,0.3,1.5,0.7,1.9,0.3
				c0.6-0.4,0.1-1.4,0.9-1.9c0.4-0.3,0.6-0.1,1.4-0.4c0.5-0.2,1.2-0.5,1.3-1c0.2-0.8-0.9-1.5-0.7-2.1c0.2-0.6,1.4-0.3,1.6-0.8
				c0.2-0.6-1.4-1.3-1.2-2c0.2-0.6,1.7-0.3,2.1-1c0.1-0.1,0.1-0.3,0.1-0.5c0.9,1,1.6,2.1,1.9,2.9
				C540.8,344.9,541.1,346.5,541.1,346.5z"/>
			<path class="st5" d="M538.1,340.5c0,0.2,0,0.3-0.1,0.5c-0.4,0.7-2,0.4-2.1,1c-0.2,0.6,1.4,1.4,1.2,2c-0.2,0.5-1.3,0.3-1.6,0.8
				c-0.3,0.6,0.9,1.3,0.7,2.1c-0.1,0.5-0.8,0.8-1.3,1c-0.8,0.3-1,0.1-1.4,0.4c-0.7,0.5-0.3,1.5-0.9,1.9c-0.5,0.4-1.2,0-1.9-0.3
				c-0.5-3.5-1.3-7.2-2.3-10.9c1.2-1.2,2.5-1.9,3.9-1.9C534.5,337,536.6,338.8,538.1,340.5C538.1,340.5,538.1,340.5,538.1,340.5z"/>
			<path class="st5" d="M536.6,338.1c0.2,0.3,1.4,1.5,1.5,2.4c-1.5-1.8-3.6-3.5-5.8-3.4c-1.4,0-2.7,0.7-3.9,1.9
				c-2.8-9.9-7.9-20.1-16.9-28.2c-3.6-3.3-14.8-12.9-31.1-12.8c-9.1,0.1-18.5,3.3-25.9,9c-0.4-0.2-0.9-0.4-1.4-0.5
				c-3.8-0.8-7.3,2.1-7.6,1.8c-0.3-0.5,5-3.9,4.5-5.3c-0.6-1.4-7.1,0-7.2-0.4c-0.1-0.7,18.8-5.1,18.5-7c0-0.3-0.7-0.7-1.9-1.5
				c-0.9-0.6-1.6-0.9-1.5-0.9c0.1-0.2,4.1,1.9,9.3,2.5c2.5,0.3,5.4,0.2,5.5-0.4c0.1-0.7-5.9-1.5-5.8-2.5c0.1-1.6,17.5-1.6,20.6-1.1
				c0.3,0.1,1.5,0.3,3.1,0.4c0.3,0,0.4,0,1.7,0c1.8,0,1.8,0,2.1,0c1.3-0.1,1.5-0.4,2.4-0.4c0.7,0,1.2,0.2,1.7,0.4
				c2.4,0.8,3.6,1.2,4.1,1.4c4.2,1.7,4.5,0.6,7.2,2.1c2.3,1.3,3.5,2.9,4.8,2.5c0.8-0.3,1-1.1,1.7-1.1c1,0.1,1.2,1.7,2.1,1.8
				c0.9,0.1,1.4-1.5,2.1-1.4c0.6,0.1,0.6,1.4,1.4,2.8c0.8,1.4,2.1,2,2.6,2.4c2.6,1.5,10.2,10.2,11.1,20.2
				C536.1,329.4,533.7,334.9,536.6,338.1z"/>
			<path class="st5" d="M532.8,364.5c3.5,13.1,5.2,32.2-3,50c-8.3,17.8-28.9,38.9-54.6,36.1c-29.6-3.2-42.5-35.5-43.3-37.5
				c-6.6-17.2-3.5-33.8-2.2-39c0,0.1,0,0.2,0,0.3c-0.7,8.6,15.3,76.3,50.8,76.3c27.7,0,48.1-44.5,50.8-76.3c0.2-1.7,0.5-5.3,0.5-9.9
				C532.1,364.5,532.4,364.5,532.8,364.5z"/>
			<path class="st5" d="M532.8,364.5c-0.4,0-0.7,0-1-0.1c0-1.1,0-2.4-0.1-3.6C532.1,362,532.4,363.2,532.8,364.5z"/>
			<path class="st5" d="M531.7,360.8c0,1.3,0.1,2.5,0.1,3.6c-0.1,0-0.2,0-0.3,0c-3.5-0.7-6.1-4.9-7.1-9.4c1.8,0,3.6-0.6,4.6-1.4
				C529.8,355.5,530.8,358,531.7,360.8z"/>
			<path class="st5" d="M531.5,364.4c0.1,0,0.2,0,0.3,0c0,4.7-0.3,8.2-0.5,9.9c-2.8,31.9-23.1,76.3-50.8,76.3
				c-35.6,0-51.5-67.8-50.8-76.3c0-0.1,0-0.2,0-0.3c0,0,0,0,0,0c0.3-1.1,0.5-1.6,0.5-1.6c0.1,0-1,7.3,2.7,14.7
				c1.1,2.1,2.7,5.3,6.2,7.4c4.4,2.6,10.1,2.6,14.4,0.7c6.1-2.7,6.2-7.7,11-8.1c0.5,0,1,0,1.5,0.1c0.3,0.1,0.6,0.2,0.9,0.2
				c1.8,0.6,3.2,1.8,6.6,1.8c3.6,0,5-1.5,7.6-2.1c8.8-2.1,13.4,10.5,23,10.2c7.8-0.3,13.9-9,16.1-13.7c2.6-5.4,3-11.5,3.1-13.3
				c0.2-3.4-0.2-4.1,0-8.1c0.1-2.2,0.3-4.9,0.6-7.4c0.2,0,0.3,0,0.5,0l0,0C525.3,359.5,528,363.7,531.5,364.4z M493.4,403.9
				c-0.8,0.8-6.4,0.2-7.7,0.2c-2.8,0.1-5.6,0.1-8.4,0.2c-1.9,0-14.7-0.7-14.8,0.7c7.3,2.4,16.5,2,24.1,1.4
				C489,406.2,491.7,405.7,493.4,403.9z"/>
			<path class="st4" d="M530.7,349.9c0.6,3.9,0.8,7.6,1,10.9c-0.9-2.8-1.9-5.3-2.7-7.2c0.5-0.4,0.8-0.8,0.9-1.2
				c0.3-1.1-0.9-2.3-0.4-2.7C529.6,349.5,530.2,349.7,530.7,349.9z"/>
			<path class="st5" d="M529.4,349.7c-0.4,0.4,0.7,1.6,0.4,2.7c-0.1,0.4-0.4,0.8-0.9,1.2c-1.5-3.2-2.7-5-3.3-4.9
				c-0.6,0-1.1,2.1-1.6,4.8c-0.1-0.7-0.2-1.5-0.2-2.2c0-4.4,1.8-9.5,4.5-12.2c1.1,3.7,1.8,7.4,2.3,10.9
				C530.2,349.7,529.6,349.5,529.4,349.7z"/>
			<path class="st5" d="M525.6,348.6c0.6,0,1.9,1.8,3.3,4.9c-1,0.8-2.8,1.4-4.6,1.4l0,0c-0.1-0.5-0.2-1-0.3-1.5c0,0,0,0,0,0
				C524.5,350.7,525,348.7,525.6,348.6z"/>
			<path class="st5" d="M524.1,353.5c0.1,0.5,0.2,1,0.3,1.5c-0.2,0-0.3,0-0.5,0C523.9,354.4,524,353.9,524.1,353.5z"/>
			<path class="st5" d="M524.1,353.5C524.1,353.5,524.1,353.5,524.1,353.5c-0.1,0.5-0.1,1-0.2,1.5c-0.9-0.1-1.8-0.3-2.5-0.7
				c-1.5-0.9-2.6-4.2-4.6-10.9c-0.9-3.1-1.2-4.2-0.9-5.6c0.5-3,2.6-4.9,2-5.6c-0.6-0.7-2.4,0.9-4.5,0c-0.7-0.3-1.7-1.1-1.8-2.1
				c-0.1-1.3,1.4-2.1,1.1-2.8c-0.3-0.7-1.9-0.1-2.9-1.1c-0.7-0.7-0.6-1.8-0.5-3.4c0-0.9,0.2-1.7,0.4-2.6c0.2-0.8,0.3-1.5,0.4-1.8
				c0.8-2.8,3.5-3.8,3.3-4.7c-0.4-1.8-10.1-0.5-10.6-2.5c-0.3-1.1,2.2-2.6,2.1-2.8c-0.3-0.4-6.2,3.9-6.9,3.2c-0.5-0.6,2-3.4,1.5-3.9
				c-0.6-0.7-5.6,3.6-6.4,2.9c-0.5-0.5,1.1-2.5,0.7-2.8c-0.7-0.6-6.7,5.4-7.2,4.9c-0.4-0.3,2.9-4.1,2.4-4.6c-0.3-0.3-2,0.9-2.7,1.4
				c-6,4.1-14.3,6.2-15.7,4.3c-0.7-1,1-2.9,0.3-3.6c-1.4-1.5-8.6,6.3-13.4,4.2c-1.6-0.7-1.7-3-4.8-4.9c-0.1-0.1-0.3-0.2-0.4-0.2
				c0.4-0.3,0.7-0.7,1.1-1c1.4,0.1,3,0.3,3.1,0.1c0-0.2-0.6-0.8-1.7-1.3c7.3-5.7,16.7-8.9,25.9-9c16.2-0.2,27.5,9.5,31.1,12.8
				c9,8.1,14,18.3,16.9,28.2c-2.7,2.7-4.5,7.8-4.5,12.2C523.9,352,524,352.7,524.1,353.5z"/>
			<path class="st4" d="M523.9,354.9c-0.3,2.5-0.6,5.2-0.6,7.4c-0.2,3.9,0.2,4.7,0,8.1c-0.1,1.8-0.5,8-3.1,13.3
				c-2.2,4.7-8.3,13.4-16.1,13.7c-9.6,0.4-14.2-12.3-23-10.2c-2.5,0.6-3.9,2.1-7.6,2.1c-3.3,0-4.8-1.2-6.6-1.8
				c2.3,0.4,4.7,0,6.6-1.3c1.8-1.2,3.5-3.2,5.6-3c2.4,0.1,4.4,2.8,6.7,2c1.4-1.2,1.1-3.6,0.1-5.1c-1-1.5-2.6-2.6-3.9-4
				c-2.6-2.9-3.4-6.9-3.5-10.8c-0.1-3.9,0.4-7.8-0.1-11.6c-0.4-3.4-1.5-6.8-2.6-10c-2.5-7.4-3.5,2.7-3.9,5.2
				c-0.7,4.8-1.7,9.6-3,14.3c-1.6,5.7-3.5,11.2-5.4,16.8c-0.6,1.8-1.2,4-0.1,5.6c0.6,0.8,1.5,1.3,2.4,1.6c0.1,0,0.1,0,0.2,0
				c-0.4-0.1-0.9-0.1-1.5-0.1c-4.8,0.4-4.9,5.3-11,8.1c-4.4,1.9-10,1.9-14.4-0.7c-3.5-2.1-5.1-5.2-6.2-7.4
				c-3.8-7.4-2.7-14.7-2.7-14.7c0,0-0.2,0.6-0.5,1.6c0.4-4.8,2.2-8.6,2.2-8.6c0.9-1.9,1.9-3.5,2.8-4.7c0.5-0.6,0.9-1.1,1.2-1.5
				c0.3-0.3,0.5-0.6,0.7-0.7c0.1-0.1,0.1-0.1,0.1-0.1c3.6-3.8,5.2-12.6,5.2-12.6c0.3-1.9,0.5-2.8,0.3-3.5c-0.4-2-1.7-3.1-1.7-5.6
				c0,0,0-0.3,0-0.8c0.1-2.9,0.9-12.2,5.8-19.9c1.6-2.5,3.6-4.8,5.8-6.9c0.1,0.1,0.3,0.1,0.4,0.2c3.1,1.9,3.2,4.2,4.8,4.9
				c4.8,2.1,12-5.7,13.4-4.2c0.7,0.7-1,2.6-0.3,3.6c1.4,1.9,9.8-0.2,15.7-4.3c0.7-0.5,2.4-1.7,2.7-1.4c0.5,0.5-2.8,4.2-2.4,4.6
				c0.5,0.4,6.5-5.5,7.2-4.9c0.4,0.3-1.2,2.3-0.7,2.8c0.8,0.8,5.7-3.5,6.4-2.9c0.5,0.5-2.1,3.3-1.5,3.9c0.7,0.8,6.6-3.5,6.9-3.2
				c0.2,0.2-2.3,1.7-2.1,2.8c0.5,2,10.3,0.7,10.6,2.5c0.2,1-2.5,2-3.3,4.7c-0.1,0.3-0.3,1-0.4,1.8c-0.2,0.9-0.3,1.7-0.4,2.6
				c-0.1,1.6-0.1,2.7,0.5,3.4c1,1,2.6,0.4,2.9,1.1c0.3,0.7-1.2,1.5-1.1,2.8c0.1,1,1.1,1.8,1.8,2.1c2,0.9,3.9-0.7,4.5,0
				c0.6,0.7-1.5,2.6-2,5.6c-0.2,1.4,0,2.5,0.9,5.6c2.1,6.7,3.1,10,4.6,10.9C522.1,354.7,523,354.9,523.9,354.9z M514.6,347.2
				c0-0.4-0.3-0.7-0.7-0.7c-0.4,0-0.7,0.3-0.7,0.7s0.3,0.7,0.7,0.7C514.3,347.9,514.6,347.6,514.6,347.2z M507.1,335.5
				c0.7,0.6,1.6,1,2.4,0.7c-1.6-3.3-4-6.5-7.5-7.5c-1.3-0.4-2.7-0.4-4.1-0.4c-3.7,0-7.5,0-10.9,1.3c-2.1,0.8-4.1,2.2-5.4,4
				c-1.1,1.5-2.5,5.3,1,3.8c0.8-0.4,1.5-1,2.1-1.6c1.5-1.4,3-2.6,4.7-3.8c0.7-0.5,1.5-1,2.3-1.3c0.8-0.3,1.7-0.3,2.6-0.3
				c3.9,0,8.3,0.2,11,3C505.9,334.2,506.5,334.9,507.1,335.5z M509.1,348.3c0-5-5.8-9.1-12.9-9.1s-12.9,4.1-12.9,9.1
				c0,5,5.8,9.1,12.9,9.1S509.1,353.3,509.1,348.3z M466.2,337.1c1-0.7,1.4-2,1.2-3.1c-0.1-1.2-0.8-2.2-1.6-3.1
				c-1.8-2-4.3-3.1-6.9-3.7c-2.6-0.5-5.2-0.4-7.9-0.2c-1.1,0.1-2.1,0.2-3.1,0.5c-1.1,0.4-2,1.1-2.8,1.8c-1.8,1.6-3.3,3.6-4.1,5.8
				c-0.2,0.6-1.1,3.1,0,3.1c0.8,0,1.5-1.7,1.8-2.3c1-1.7,1.9-3.7,3.9-4.5c0.8-0.3,1.7-0.4,2.6-0.5c2.8-0.2,5.7-0.2,8.6,0.1
				c0.9,0.1,1.8,0.2,2.6,0.5c1,0.4,1.9,1.2,2.7,2C464.3,334.6,465.5,335.7,466.2,337.1z M467.6,347.1c0-4.9-5.7-8.9-12.7-8.9
				c-7,0-12.7,4-12.7,8.9s5.7,8.9,12.7,8.9C461.9,356,467.6,352,467.6,347.1z"/>
			<ellipse cx="513.9" cy="347.2" rx="0.7" ry="0.7"/>
			<path d="M509.6,336.2c-0.8,0.2-1.8-0.1-2.4-0.7c-0.7-0.6-1.2-1.3-1.8-2c-2.8-2.8-7.1-3-11-3c-0.9,0-1.8,0-2.6,0.3
				c-0.8,0.3-1.6,0.8-2.3,1.3c-1.6,1.2-3.2,2.4-4.7,3.8c-0.7,0.6-1.3,1.2-2.1,1.6c-3.5,1.5-2-2.3-1-3.8c1.3-1.9,3.3-3.2,5.4-4
				c3.5-1.3,7.2-1.3,10.9-1.3c1.4,0,2.8,0,4.1,0.4C505.5,329.7,507.9,333,509.6,336.2z"/>
			<path class="st6" d="M496.3,339.2c7.1,0,12.9,4.1,12.9,9.1c0,5-5.8,9.1-12.9,9.1s-12.9-4.1-12.9-9.1
				C483.4,343.3,489.1,339.2,496.3,339.2z M508.4,347.6c0-3.5-5.4-6.3-12-6.3c-6.6,0-12,2.8-12,6.3c0,3.5,5.4,6.3,12,6.3
				C503.1,353.9,508.4,351.1,508.4,347.6z"/>
			<path class="st7" d="M496.4,341.3c6.6,0,12,2.8,12,6.3c0,3.5-5.4,6.3-12,6.3c-6.6,0-12-2.8-12-6.3
				C484.4,344.1,489.8,341.3,496.4,341.3z M497.8,347.6c0-1.2-0.9-2.1-2.1-2.1s-2.1,0.9-2.1,2.1c0,1.2,0.9,2.1,2.1,2.1
				S497.8,348.7,497.8,347.6z"/>
			<ellipse class="st8" cx="495.7" cy="347.6" rx="2.1" ry="2.1"/>
			<path class="st9" d="M485.7,404.2c1.3,0,6.9,0.6,7.7-0.2c-1.7,1.8-4.4,2.2-6.8,2.4c-7.5,0.7-16.8,1-24.1-1.4
				c0.1-1.3,12.9-0.6,14.8-0.7C480.1,404.3,482.9,404.3,485.7,404.2z"/>
			<path class="st10" d="M485.8,380c1,1.5,1.3,3.9-0.1,5.1c-2.3,0.7-4.3-1.9-6.7-2c-2.2-0.1-3.8,1.8-5.6,3c-1.9,1.3-4.4,1.7-6.6,1.3
				c-0.3-0.1-0.6-0.2-0.9-0.2c-0.1,0-0.1,0-0.2,0c-0.9-0.3-1.8-0.8-2.4-1.6c-1.1-1.6-0.5-3.8,0.1-5.6c1.9-5.6,3.9-11.1,5.4-16.8
				c1.3-4.7,2.3-9.5,3-14.3c0.4-2.5,1.5-12.6,3.9-5.2c1.1,3.3,2.2,6.6,2.6,10c0.4,3.8-0.1,7.7,0.1,11.6c0.1,3.9,0.9,7.9,3.5,10.8
				C483.2,377.4,484.8,378.5,485.8,380z M476.2,383c0-0.2-0.2-0.4-0.3-0.4c-0.2,0-0.3,0.2-0.3,0.4s0.2,0.4,0.3,0.4
				C476,383.3,476.2,383.1,476.2,383z M474.8,379.5c0-0.2-0.2-0.4-0.5-0.4c-0.3,0-0.5,0.2-0.5,0.4s0.2,0.4,0.5,0.4
				C474.6,379.8,474.8,379.6,474.8,379.5z M472.4,375.2c0-0.4-0.3-0.7-0.7-0.7s-0.7,0.3-0.7,0.7s0.3,0.7,0.7,0.7
				S472.4,375.6,472.4,375.2z M472.4,381c0-0.3-0.2-0.5-0.5-0.5c-0.3,0-0.5,0.2-0.5,0.5s0.2,0.5,0.5,0.5
				C472.2,381.6,472.4,381.3,472.4,381z M471.7,384.2c0-0.3-0.2-0.5-0.3-0.5c-0.2,0-0.3,0.2-0.3,0.5c0,0.1,0,0.2,0,0.2
				c-0.1,0-0.1,0-0.2,0c-0.3,0-0.5,0.2-0.5,0.5c0,0.3,0.2,0.5,0.5,0.5c0.3,0,0.5-0.2,0.5-0.5c0-0.1,0-0.1,0-0.2c0,0,0,0,0,0
				C471.5,384.7,471.7,384.5,471.7,384.2z M470.3,383.7c0-0.2-0.2-0.4-0.3-0.4s-0.3,0.2-0.3,0.4s0.2,0.4,0.3,0.4
				S470.3,383.8,470.3,383.7z M470,386.6c0-0.1-0.1-0.2-0.2-0.2s-0.2,0.1-0.2,0.2c0,0.1,0.1,0.2,0.2,0.2S470,386.7,470,386.6z
				 M470,379.5c0-0.2-0.2-0.4-0.3-0.4c-0.2,0-0.3,0.2-0.3,0.4s0.2,0.4,0.3,0.4C469.8,379.8,470,379.6,470,379.5z M469.6,382.6
				c0-0.2-0.2-0.4-0.3-0.4c-0.2,0-0.3,0.2-0.3,0.4s0.2,0.4,0.3,0.4C469.5,383,469.6,382.8,469.6,382.6z M468.3,376.8
				c0-0.1-0.1-0.2-0.2-0.2c-0.1,0-0.2,0.1-0.2,0.2s0.1,0.2,0.2,0.2C468.2,377,468.3,376.9,468.3,376.8z M467.9,374.4
				c0-0.3-0.1-0.5-0.2-0.5s-0.2,0.2-0.2,0.5s0.1,0.5,0.2,0.5S467.9,374.7,467.9,374.4z M467.9,385.4c0-0.2-0.2-0.4-0.3-0.4
				c-0.2,0-0.3,0.2-0.3,0.4s0.2,0.4,0.3,0.4C467.8,385.8,467.9,385.6,467.9,385.4z M467.6,381.2c0-0.2-0.2-0.4-0.3-0.4
				s-0.3,0.2-0.3,0.4s0.2,0.4,0.3,0.4S467.6,381.4,467.6,381.2z M467.6,377.9c0-0.1-0.2-0.2-0.5-0.2c-0.3,0-0.5,0.1-0.5,0.2
				s0.2,0.2,0.5,0.2C467.3,378.1,467.6,378,467.6,377.9z M466.9,375.8c0-0.3-0.2-0.5-0.5-0.5c-0.3,0-0.5,0.2-0.5,0.5
				c0,0.3,0.2,0.5,0.5,0.5C466.7,376.3,466.9,376.1,466.9,375.8z M466.9,386.3c0-0.3-0.2-0.5-0.5-0.5c-0.3,0-0.5,0.2-0.5,0.5
				s0.2,0.5,0.5,0.5C466.7,386.8,466.9,386.6,466.9,386.3z M465.9,378.8c0-0.2-0.2-0.4-0.3-0.4c-0.2,0-0.3,0.2-0.3,0.4
				s0.2,0.4,0.3,0.4C465.7,379.1,465.9,378.9,465.9,378.8z M465.9,384.4c0-0.2-0.2-0.4-0.3-0.4c-0.2,0-0.3,0.2-0.3,0.4
				s0.2,0.4,0.3,0.4C465.7,384.7,465.9,384.5,465.9,384.4z M465.5,382.1c0-0.3-0.3-0.5-0.6-0.5c0,0,0,0-0.1,0c0,0,0,0-0.1,0
				c-0.3,0-0.6,0.2-0.6,0.5c0,0.3,0.3,0.5,0.7,0.5C465.2,382.6,465.5,382.4,465.5,382.1z M465.5,380.9c0-0.2-0.2-0.4-0.3-0.4
				s-0.3,0.2-0.3,0.4s0.2,0.4,0.3,0.4S465.5,381,465.5,380.9z M465.5,385.4c0-0.2-0.2-0.4-0.3-0.4s-0.3,0.2-0.3,0.4s0.2,0.4,0.3,0.4
				S465.5,385.6,465.5,385.4z M465.5,383.1c0-0.1-0.2-0.2-0.5-0.2c-0.3,0-0.5,0.1-0.5,0.2s0.2,0.2,0.5,0.2
				C465.3,383.3,465.5,383.2,465.5,383.1z M464.5,384.4c0-0.2-0.2-0.4-0.3-0.4c-0.2,0-0.3,0.2-0.3,0.4s0.2,0.4,0.3,0.4
				C464.3,384.7,464.5,384.5,464.5,384.4z"/>
			<ellipse class="st11" cx="475.8" cy="383" rx="0.3" ry="0.4"/>
			<ellipse class="st11" cx="474.3" cy="379.5" rx="0.5" ry="0.4"/>
			<ellipse class="st11" cx="471.7" cy="375.2" rx="0.7" ry="0.7"/>
			<ellipse class="st11" cx="471.9" cy="381" rx="0.5" ry="0.5"/>
			<path class="st10" d="M471.4,383.7c0.2,0,0.3,0.2,0.3,0.5c0,0.3-0.2,0.5-0.3,0.5c0,0,0,0,0,0c0-0.1-0.1-0.2-0.3-0.3
				c0-0.1,0-0.1,0-0.2C471,383.9,471.2,383.7,471.4,383.7z"/>
			<path class="st11" d="M471.3,384.7c0,0.1,0,0.1,0,0.2c0,0.3-0.2,0.5-0.5,0.5c-0.3,0-0.5-0.2-0.5-0.5c0-0.3,0.2-0.5,0.5-0.5
				c0.1,0,0.1,0,0.2,0C471.1,384.6,471.2,384.7,471.3,384.7z"/>
			<path class="st11" d="M471,384.4c0.1,0.1,0.2,0.2,0.3,0.3C471.2,384.7,471.1,384.6,471,384.4z"/>
			<ellipse class="st10" cx="470" cy="383.7" rx="0.3" ry="0.4"/>
			<ellipse class="st11" cx="469.8" cy="386.6" rx="0.2" ry="0.2"/>
			<ellipse class="st11" cx="469.6" cy="379.5" rx="0.3" ry="0.4"/>
			<ellipse class="st11" cx="469.3" cy="382.6" rx="0.3" ry="0.4"/>
			<ellipse class="st11" cx="468.1" cy="376.8" rx="0.2" ry="0.2"/>
			<ellipse class="st11" cx="467.8" cy="374.4" rx="0.2" ry="0.5"/>
			<ellipse class="st11" cx="467.6" cy="385.4" rx="0.3" ry="0.4"/>
			<path d="M467.4,334c0.1,1.2-0.3,2.5-1.2,3.1c-0.7-1.4-1.9-2.5-3-3.6c-0.8-0.8-1.7-1.6-2.7-2c-0.8-0.4-1.7-0.5-2.6-0.5
				c-2.8-0.2-5.7-0.3-8.6-0.1c-0.9,0.1-1.8,0.1-2.6,0.5c-1.9,0.8-2.9,2.8-3.9,4.5c-0.3,0.5-1,2.3-1.8,2.3c-1-0.1-0.2-2.6,0-3.1
				c0.8-2.2,2.3-4.2,4.1-5.8c0.8-0.8,1.8-1.4,2.8-1.8c1-0.4,2.1-0.5,3.1-0.5c2.6-0.2,5.3-0.3,7.9,0.2c2.6,0.5,5.1,1.7,6.9,3.7
				C466.7,331.7,467.3,332.8,467.4,334z"/>
			<ellipse class="st11" cx="467.2" cy="381.2" rx="0.3" ry="0.4"/>
			<ellipse class="st11" cx="467.1" cy="377.9" rx="0.5" ry="0.2"/>
			<ellipse class="st10" cx="466.4" cy="375.8" rx="0.5" ry="0.5"/>
			<ellipse class="st11" cx="466.4" cy="386.3" rx="0.5" ry="0.5"/>
			<path class="st10" d="M466.8,387.4c-0.3-0.1-0.6-0.1-0.9-0.2C466.3,387.3,466.6,387.3,466.8,387.4z"/>
			<ellipse class="st10" cx="465.5" cy="378.8" rx="0.3" ry="0.4"/>
			<ellipse class="st11" cx="465.5" cy="384.4" rx="0.3" ry="0.4"/>
			<path class="st10" d="M464.9,381.6c0.3,0,0.6,0.2,0.6,0.5c0,0.3-0.3,0.5-0.7,0.5c-0.4,0-0.7-0.2-0.7-0.5c0-0.3,0.3-0.5,0.6-0.5
				c-0.2,0-0.3,0.2-0.3,0.3c0,0.2,0.2,0.4,0.3,0.4c0.2,0,0.3-0.2,0.3-0.4C465.2,381.7,465.1,381.6,464.9,381.6z"/>
			<ellipse class="st10" cx="465.2" cy="380.9" rx="0.3" ry="0.4"/>
			<ellipse class="st10" cx="465.2" cy="385.4" rx="0.3" ry="0.4"/>
			<ellipse class="st10" cx="465" cy="383.1" rx="0.5" ry="0.2"/>
			<path class="st11" d="M464.9,381.6c0.2,0,0.3,0.2,0.3,0.3c0,0.2-0.2,0.4-0.3,0.4c-0.2,0-0.3-0.2-0.3-0.4c0-0.2,0.1-0.3,0.3-0.3
				C464.8,381.6,464.8,381.6,464.9,381.6C464.9,381.6,464.9,381.6,464.9,381.6z"/>
			<ellipse class="st11" cx="464.1" cy="384.4" rx="0.3" ry="0.4"/>
			<path class="st6" d="M454.9,338.1c7,0,12.7,4,12.7,8.9s-5.7,8.9-12.7,8.9c-7,0-12.7-4-12.7-8.9S447.9,338.1,454.9,338.1z
				 M466.9,347.1c0-3-5.3-5.4-11.8-5.4c-6.5,0-11.8,2.4-11.8,5.4s5.3,5.4,11.8,5.4C461.6,352.5,466.9,350.1,466.9,347.1z"/>
			<path class="st7" d="M455,341.6c6.5,0,11.8,2.4,11.8,5.4s-5.3,5.4-11.8,5.4c-6.5,0-11.8-2.4-11.8-5.4S448.5,341.6,455,341.6z
				 M456.9,346.9c0-1.2-0.9-2.1-2.1-2.1c-1.1,0-2.1,0.9-2.1,2.1c0,1.2,0.9,2.1,2.1,2.1C456,349,456.9,348,456.9,346.9z"/>
			<ellipse class="st8" cx="454.9" cy="346.9" rx="2.1" ry="2.1"/>
			<path class="st4" d="M454.6,307.1c1,0.5,1.7,1,1.7,1.3c0,0.2-1.7,0-3.1-0.1C453.6,307.8,454.1,307.4,454.6,307.1z"/>
			<path class="st5" d="M453.2,308.2c-0.4,0.3-0.7,0.6-1.1,1c-0.5-0.3-1.1-0.6-1-0.8C451.2,308.1,452.1,308.1,453.2,308.2z"/>
		</g>
		<g>
			<path class="st12" d="M453.2,308.2c0.5-0.4,0.9-0.8,1.4-1.1"/>
			<path class="st12" d="M429.7,374.1c0.4-4.8,2.2-8.6,2.2-8.6c0.9-1.9,1.9-3.5,2.8-4.7c0.5-0.6,0.9-1.1,1.2-1.5
				c0.3-0.3,0.5-0.6,0.7-0.7c0.1-0.1,0.1-0.1,0.1-0.1c3.6-3.8,5.2-12.6,5.2-12.6c0.3-1.9,0.5-2.8,0.3-3.5c-0.4-2-1.7-3.1-1.7-5.6
				c0,0,0-0.3,0-0.8c0.1-2.9,0.9-12.2,5.8-19.9c1.6-2.5,3.6-4.8,5.8-6.9"/>
			<path class="st12" d="M538.1,340.5c0.9,1,1.6,2.1,1.9,2.9c0.8,1.6,1,3.2,1,3.2c0.1,0.8,0.3,1.9,0,3.2c-0.5,2-1.7,1.9-2.7,4.2
				c-0.7,1.5-0.9,2.9-1,4.6c-0.3,2.7,0.2,3.3-0.3,4.2c-0.7,1.3-2.5,1.8-4.2,1.9"/>
			<path class="st13" d="M523.9,354.9c-0.9-0.1-1.8-0.3-2.5-0.7c-1.5-0.9-2.6-4.2-4.6-10.9c-0.9-3.1-1.2-4.2-0.9-5.6
				c0.5-3,2.6-4.9,2-5.6c-0.6-0.7-2.4,0.9-4.5,0c-0.7-0.3-1.7-1.1-1.8-2.1c-0.1-1.3,1.4-2.1,1.1-2.8c-0.3-0.7-1.9-0.1-2.9-1.1
				c-0.7-0.7-0.6-1.8-0.5-3.4c0-0.9,0.2-1.7,0.4-2.6c0.2-0.8,0.3-1.5,0.4-1.8c0.8-2.8,3.5-3.8,3.3-4.7c-0.4-1.8-10.1-0.5-10.6-2.5
				c-0.3-1.1,2.2-2.6,2.1-2.8c-0.3-0.4-6.2,3.9-6.9,3.2c-0.5-0.6,2-3.4,1.5-3.9c-0.6-0.7-5.6,3.6-6.4,2.9c-0.5-0.5,1.1-2.5,0.7-2.8
				c-0.7-0.6-6.7,5.4-7.2,4.9c-0.4-0.3,2.9-4.1,2.4-4.6c-0.3-0.3-2,0.9-2.7,1.4c-6,4.1-14.3,6.2-15.7,4.3c-0.7-1,1-2.9,0.3-3.6
				c-1.4-1.5-8.6,6.3-13.4,4.2c-1.6-0.7-1.7-3-4.8-4.9c-0.1-0.1-0.3-0.2-0.4-0.2c-0.5-0.3-1.1-0.6-1-0.8c0.1-0.3,1-0.2,2.1-0.1
				c1.4,0.1,3,0.3,3.1,0.1c0-0.2-0.6-0.8-1.7-1.3c-0.4-0.2-0.9-0.4-1.4-0.5c-3.8-0.8-7.3,2.1-7.6,1.8c-0.3-0.5,5-3.9,4.5-5.3
				c-0.6-1.4-7.1,0-7.2-0.4c-0.1-0.7,18.8-5.1,18.5-7c0-0.3-0.7-0.7-1.9-1.5c-0.9-0.6-1.6-0.9-1.5-0.9c0.1-0.2,4.1,1.9,9.3,2.5
				c2.5,0.3,5.4,0.2,5.5-0.4c0.1-0.7-5.9-1.5-5.8-2.5c0.1-1.6,17.5-1.6,20.6-1.1c0.3,0.1,1.5,0.3,3.1,0.4c0.3,0,0.4,0,1.7,0
				c1.8,0,1.8,0,2.1,0c1.3-0.1,1.5-0.4,2.4-0.4c0.7,0,1.2,0.2,1.7,0.4c2.4,0.8,3.6,1.2,4.1,1.4c4.2,1.7,4.5,0.6,7.2,2.1
				c2.3,1.3,3.5,2.9,4.8,2.5c0.8-0.3,1-1.1,1.7-1.1c1,0.1,1.2,1.7,2.1,1.8c0.9,0.1,1.4-1.5,2.1-1.4c0.6,0.1,0.6,1.4,1.4,2.8
				c0.8,1.4,2.1,2,2.6,2.4c2.6,1.5,10.2,10.2,11.1,20.2c0.6,6.5-1.8,12,1,15.2c0.2,0.3,1.4,1.5,1.5,2.4c0,0,0,0,0,0
				c0,0.2,0,0.3-0.1,0.5c-0.4,0.7-2,0.4-2.1,1c-0.2,0.6,1.4,1.4,1.2,2c-0.2,0.5-1.3,0.3-1.6,0.8c-0.3,0.6,0.9,1.3,0.7,2.1
				c-0.1,0.5-0.8,0.8-1.3,1c-0.8,0.3-1,0.1-1.4,0.4c-0.7,0.5-0.3,1.5-0.9,1.9c-0.5,0.4-1.2,0-1.9-0.3c-0.6-0.3-1.1-0.5-1.3-0.2
				c-0.4,0.4,0.7,1.6,0.4,2.7c-0.1,0.4-0.4,0.8-0.9,1.2"/>
			<ellipse class="st14" cx="454.9" cy="347.1" rx="12.7" ry="8.9"/>
			<ellipse class="st14" cx="496.3" cy="348.3" rx="12.9" ry="9.1"/>
			<ellipse class="st15" cx="454.9" cy="346.9" rx="2.1" ry="2.1"/>
			<ellipse class="st15" cx="495.7" cy="347.6" rx="2.1" ry="2.1"/>
			<path class="st15" d="M446.7,331.4c0.8-0.3,1.7-0.4,2.6-0.5c2.8-0.2,5.7-0.2,8.6,0.1c0.9,0.1,1.8,0.2,2.6,0.5
				c1,0.4,1.9,1.2,2.7,2c1.2,1.1,2.3,2.2,3,3.6c1-0.7,1.4-2,1.2-3.1c-0.1-1.2-0.8-2.2-1.6-3.1c-1.8-2-4.3-3.1-6.9-3.7
				c-2.6-0.5-5.2-0.4-7.9-0.2c-1.1,0.1-2.1,0.2-3.1,0.5c-1.1,0.4-2,1.1-2.8,1.8c-1.8,1.6-3.3,3.6-4.1,5.8c-0.2,0.6-1.1,3.1,0,3.1
				c0.8,0,1.5-1.7,1.8-2.3C443.8,334.2,444.8,332.2,446.7,331.4z"/>
			<path class="st15" d="M487,329.6c3.5-1.3,7.2-1.3,10.9-1.3c1.4,0,2.8,0,4.1,0.4c3.5,1,5.8,4.2,7.5,7.5c-0.8,0.2-1.8-0.1-2.4-0.7
				c-0.7-0.6-1.2-1.3-1.8-2c-2.8-2.8-7.1-3-11-3c-0.9,0-1.8,0-2.6,0.3c-0.8,0.3-1.6,0.8-2.3,1.3c-1.6,1.2-3.2,2.4-4.7,3.8
				c-0.7,0.6-1.3,1.2-2.1,1.6c-3.5,1.5-2-2.3-1-3.8C482.9,331.8,484.9,330.4,487,329.6z"/>
			<path class="st16" d="M486.6,406.4c2.5-0.2,5.1-0.6,6.8-2.4c-0.8,0.8-6.4,0.2-7.7,0.2c-2.8,0.1-5.6,0.1-8.4,0.2
				c-1.9,0-14.7-0.7-14.8,0.7C469.8,407.4,479,407,486.6,406.4z"/>
			<ellipse class="st17" cx="513.9" cy="347.2" rx="0.7" ry="0.7"/>
			<path class="st18" d="M485.8,375.8c3.7,2.2,7.1,4.9,9.7,8.3c2.6,3.4,4.4,7.6,4.6,11.9"/>
			<path class="st18" d="M462.2,376.2c-5.5,4.3-9.6,10.4-11.6,17.2"/>
			<path class="st18" d="M443.3,354.1c1.6,1.4,3.4,2.5,5.4,3.1c1.6,0.5,3.2,0.8,4.9,0.9c2.3,0.2,4.7,0.1,6.9-0.4
				c2.2-0.5,4.4-1.6,6.1-3.3"/>
			<path class="st18" d="M483.2,353.8c2.6,2.7,6.1,4.5,9.7,5.2c3.7,0.7,7.5,0.1,10.9-1.5"/>
		</g>
	</g>
</g>
</svg>
