<?xml version="1.0" encoding="utf-8"?>
<!-- Generator: Adobe Illustrator 21.1.0, SVG Export Plug-In . SVG Version: 6.00 Build 0)  -->
<svg version="1.1" id="Layer_1" xmlns="http://www.w3.org/2000/svg" xmlns:xlink="http://www.w3.org/1999/xlink" x="0px" y="0px"
	 viewBox="0 0 350 236.4" style="enable-background:new 0 0 350 236.4;" xml:space="preserve">
<style type="text/css">
	.st0{fill:#FFE0BD;}
	.st1{fill:#FFFFFF;stroke:#000000;stroke-miterlimit:10;}
	.st2{fill:none;stroke:#000000;stroke-width:0.25;stroke-miterlimit:10;}
	.st3{fill:none;stroke:#000000;stroke-width:0.75;stroke-miterlimit:10;}
	.st4{fill:#C1272D;stroke:#000000;stroke-width:0.25;stroke-miterlimit:10;}
	.st5{fill:#FFFF00;}
	.st6{fill:#0071BC;stroke:#000000;stroke-width:0.25;stroke-miterlimit:10;}
	.st7{fill:#603813;}
	.st8{fill:#446171;}
	.st9{fill:#AF082F;}
	.st10{fill:none;stroke:#FFFFFF;stroke-miterlimit:10;}
	.st11{fill:#FFFFFF;}
	.st12{fill:none;stroke:#CC4A2B;stroke-width:0.25;stroke-miterlimit:10;}
	.st13{fill:#E5BBAC;}
	.st14{fill:#EFA08B;}
	.st15{fill:#E5907F;}
	.st16{fill:none;}
	.st17{fill:none;stroke:#E5BBAC;stroke-width:0.25;stroke-miterlimit:10;}
	.st18{fill:none;stroke:#F9D5C5;stroke-width:0.25;stroke-miterlimit:10;}
	.st19{fill:#CC4A2B;}
	.st20{fill:#070707;}
</style>
<g id="arm">
	<path class="st0" d="M218,97.6l-1.5-0.6c-2.1-0.9-3.1-3.2-2.3-5.3L230.7,43c0.7-2.1,2.9-3.2,5-2.5l1.5,0.6c2.1,0.9,3.1,3.2,2.3,5.3
		L223,95.1c-0.6,2-2.8,3.2-4.8,2.6L218,97.6z"/>
	<ellipse class="st0" cx="236.2" cy="39.7" rx="8.9" ry="9.4"/>
	<path class="st1" d="M254.9,35.1l-13.1,7.3c-0.8,0.5-1.9,0.1-2.4-0.7l0,0v-0.1l-14.2-28.4c-0.5-0.9-0.2-2,0.7-2.5L239,3.4
		c0.8-0.5,1.9-0.1,2.4,0.7l0,0v0.1l14.2,28.4C256,33.5,255.7,34.5,254.9,35.1z"/>
	<ellipse class="st0" cx="235.4" cy="29.1" rx="5.3" ry="3.5"/>
	<ellipse class="st0" cx="231" cy="35.3" rx="3.6" ry="8.5"/>
	<line class="st2" x1="249.6" y1="30.9" x2="251.8" y2="35.6"/>
	<line class="st2" x1="251.8" y1="29.7" x2="254" y2="34.4"/>
	<line class="st3" x1="240.1" y1="4.4" x2="242.9" y2="9.7"/>
	<line class="st3" x1="239.3" y1="5.3" x2="241.5" y2="9.4"/>
	<line class="st3" x1="238.2" y1="5.9" x2="238.7" y2="7.1"/>
	<line class="st3" x1="239.8" y1="8.2" x2="240.4" y2="9.4"/>
	<line class="st3" x1="240.4" y1="18.2" x2="243.7" y2="25.3"/>
	<line class="st3" x1="239.8" y1="20" x2="242.1" y2="24.1"/>
	<line class="st3" x1="238.2" y1="21.2" x2="240.4" y2="25.3"/>
	<polygon class="st4" points="248.9,29.3 247.7,26.7 250.2,25.4 251.4,28 	"/>
	<path class="st5" d="M249.7,28.6c0.8,0,1.5-0.7,1.5-1.5s-0.7-1.5-1.5-1.5s-1.5,0.7-1.5,1.5S248.9,28.6,249.7,28.6z"/>
	<path class="st6" d="M251.5,35.2L251.5,35.2c1.2,0.3,2.4-0.4,2.7-1.6l0,0v-0.1l0,0c0.3-1.2-0.4-2.5-1.6-2.9l0,0
		c-1.2-0.3-2.4,0.4-2.7,1.6l0,0v0.1l0,0C249.6,33.5,250.3,34.8,251.5,35.2z"/>
	<line class="st2" x1="250.7" y1="30.3" x2="252.9" y2="35"/>
	
		<animateTransform  accumulate="none" additive="replace" attributeName="transform" attributeType="XML" calcMode="linear" dur="3s" fill="remove" id="arm" repeatCount="indefinite" restart="always" type="translate" values="0,3;-3;0,3">
		</animateTransform>
</g>
<g id="body">
	<g id="right_hand">
		<path class="st0" d="M148.8,149.8c0.2-1.3,0.6-2.1,1.3-3c2-2.6,5-2.3,6.9,1c1.8,3.3,1.7,8.2-0.3,10.8s-5,2.3-6.9-1
			c-0.6-1.1-1-2.5-1.1-3.7"/>
		<g>
			<path class="st0" d="M152.7,145.1c0,0-0.3-0.2-0.7-0.6c-0.3-0.4-1.1-0.7-1.7-0.9c-0.6-0.1-1.2-0.2-1.5,0.1
				c-0.3,0.3-0.9,0.7-1.4,1.3c0,0,0,0-0.1,0.3c-0.1,0.3-0.1,0.3-0.1,0.3c-0.6,0.6-1.2,1.2-1.3,1.7c0,0.5,0,1,0.1,1.2
				s0.4,0.7,0.5,0.9c0.2,0.2,0.3,0.4,0.6,0.6c0.3,0.2,0.6-0.1,0.7-0.1c0.1,0,0.7-0.9,0.8-0.9c0.2,0,0.5-0.1,0.7-0.1
				c0.3,0.2,0.6,0.4,0.9,0.8c0.3,0.2,0.6,0.6,0.8,0.8c0.2,0.2,0.4,0.4,0.7,0.8c0.2,0.2,0.6,0.4,0.7,0.4c0.1,0,0.4,0.2,0.5,0.1
				c0.1,0,0.2,0,0.4,0.2"/>
		</g>
		<polyline class="st0" points="149.3,148.4 147.5,150.8 145.9,153.1 143.8,156 143.1,157.1 143.1,159.8 143.5,160.4 144,160.3 
			144.8,159.9 145.6,158.8 146.6,157.3 147.4,156.2 148.6,154.5 		"/>
		<polyline class="st0" points="149,155.1 144.6,160.9 143.7,162.3 144.2,164.2 144.4,164.9 145.3,164.7 150.6,158 		"/>
		<polyline class="st0" points="150.6,158.9 146.3,164.7 146.2,166.5 146.8,167.3 147.4,167.7 153.4,159.6 		"/>
		<polyline class="st0" points="153.5,160.3 152.6,162.5 151.8,165.3 152.6,166.1 153.1,165.5 156.2,159.3 		"/>
	</g>
	
		<ellipse transform="matrix(0.2406 -0.9706 0.9706 0.2406 5.6003 248.5051)" class="st0" cx="161.6" cy="120.7" rx="29.3" ry="6.7"/>
	<path class="st7" d="M146.5,216.3c0.3,3.1,7.6,5,16.3,4c5.9-0.7,12.5-1.4,13.2-4.2c0.2-1,0.2-2,0-3c-0.3-1.1-0.7-2.1-1.3-3
		c-1.5-2.1-6.3-2.7-12.9-1.2C156.7,210,146.2,213.3,146.5,216.3z"/>
	<path class="st7" d="M209.5,219.2c-0.3,3.1-8.2,5-17.4,4c-6.3-0.7-13.4-1.4-14.1-4.2c-0.2-1-0.2-2,0-3c0.3-1.1,0.7-2.1,1.4-3
		c1.6-2.1,6.7-2.7,13.9-1.2C198.6,212.8,209.8,216.1,209.5,219.2z"/>
	<g id="_Group_">
		<path class="st8" d="M162.9,162.7c-3.6-3.9-5.7-9.7-5.7-15.8c0-12.4,9-22.5,20.2-22.5c11.2,0,20.2,10.1,20.2,22.5
			c-0.1,6.8-2.7,13.1-7,17.1v47.7h-9.4v-42.7c-1.3,0.3-2.5,0.4-4,0.4c-1,0-2-0.1-3.2-0.3v39.5h-11.2L162.9,162.7L162.9,162.7
			L162.9,162.7z"/>
	</g>
	<path class="st9" d="M190.5,160l-21.5-0.6h-0.1c-4.3,0.9-10-0.6-11.3-3.9c-0.1-0.1-0.2-0.9-0.3-2.4c-0.2-1.2-0.4-2.8-0.5-5
		c-0.1-1.4-0.2-3.6-0.1-6.5c0-0.8,0-0.8,0.3-3.9c0.4-5.1,0.3-6.3,0.7-9.1c0.2-1.4,0.5-2.6,0.6-3.3c0.2-0.6,0.4-1.6,0.7-2.7
		c0.9-3.4,0.9-3.2,1.3-5.1c1.1-5.5,1.3-5.8,1.6-6.6c0,0,0.1-0.3,0.1-0.6c0.9-4.3,1-12.1,1-12.1c0.1-3.6,0-4.5,0.7-6
		c0.8-1.6,2-2.7,3-3.4c0.2-0.3,0.6-0.8,1.2-1.3c0.2-0.1,1.1-0.8,2.2-1c2.2-0.3,4.1,1.7,4.2,1.8c4.7-1.9,9.3-3.7,14.1-5.7
		c1.6-2.3,4.4-3.2,6.7-1.9c2.5,1.7,3.8,5.5,3,8.8c-3.1,13-2.8,22.7-1.7,29.3c0.6,3.3,1.1,6,1.7,11c0.8,7.2,0.8,14.6,0,21.7
		c-0.7,2.5-2.1,4.9-3.9,6.5C193,159.1,191.8,159.6,190.5,160z"/>
	<path class="st9" d="M214,99.8h-16.4c-5.4,0-9.6-4.1-9.6-9.3l0,0c0-5.2,4.3-9.3,9.6-9.3H214c5.4,0,9.6,4.1,9.6,9.3l0,0
		C223.6,95.6,219.3,99.8,214,99.8z"/>
	<path class="st10" d="M178.7,117.2h12.1c0-7.2-5.5-13-12.1-13s-12,5.8-12.1,12.8L178.7,117.2z"/>
	<path class="st10" d="M178.5,118.4h13.7c0-8.3-6.1-15.1-13.7-15.1c-7.3,0-13.6,6.7-13.7,14.9L178.5,118.4z"/>
	<line class="st10" x1="163.7" y1="120.3" x2="192.9" y2="120.7"/>
	<polygon class="st11" points="173.4,108.6 169,116.5 177.9,116.5 	"/>
	<polygon class="st11" points="178.1,107.6 173.7,115.5 182.6,115.5 	"/>
	<path class="st11" d="M184.1,116.4L184.1,116.4c-0.8,0-1.4-0.7-1.4-1.5l0,0v-4.8c0-0.8,0.7-1.5,1.4-1.5l0,0l0,0
		c0.8,0,1.4,0.7,1.4,1.5l0,0v4.8C185.7,115.7,185,116.3,184.1,116.4z"/>
	<path class="st9" d="M183.7,112c0.6,0,1.1-0.5,1.1-1.2c0-0.7-0.5-1.2-1.1-1.2c-0.6,0-1.1,0.5-1.1,1.2l0,0
		C182.6,111.5,183.1,112,183.7,112z"/>
	<path class="st9" d="M162.4,109.2l-4-1.8c-1.3-0.6-0.7-4.8,1.4-9.5l0,0c2.1-4.7,4.8-8,6.1-7.4l4,1.8c1.3,0.6,0.7,4.8-1.4,9.5l0,0
		C166.5,106.4,163.7,109.8,162.4,109.2z"/>
</g>
<g id="head">
	<path class="st12" d="M181,73.6c-1,0-1.8,0-2.9,0c-0.8,0-5.9-0.2-7.3,0"/>
	<path class="st0" d="M206.5,51.7c0.2,0.2,0.6,0.2,1,0.2c0.2-0.2,0-0.6,0.4-0.8c0.2-0.2,0.2,0,0.8-0.2c0.2,0,0.6-0.2,0.6-0.4
		s-0.4-0.6-0.4-0.8s0.8-0.2,0.8-0.2s-0.8-0.6-0.6-0.8c0-0.2,1-0.2,1-0.4v-0.1c0.4,0.4,0.8,0.8,1,1.3c0.2,0.4,0.4,0.8,0.6,1.3
		c0.2,0.4,0.2,0.8,0,1.3c-0.2,0.8-0.8,0.8-1.4,1.7c-0.4,0.6-0.6,1.3-0.6,1.9c0,1,0,1.3-0.2,1.7c-0.4,0.6-1.2,0.8-2,0.8l0,0
		c-0.6-1.5-1.2-2.9-2-4.4l0,0c0.2,0,0.4-0.2,0.4-0.4c0-0.4-0.4-0.8-0.2-1C205.7,51.5,206.3,51.5,206.5,51.7z"/>
	<path class="st7" d="M153.9,60.6L153.9,60.6c0-0.2,0-0.4,0.2-0.6c-0.2,2.1,0.2,4.2,1.4,6c0.6,1.3,1.8,2.3,3.1,2.9
		c2.2,1,5.1,1.3,7.4,0.2c3.1-1,3.1-3.1,5.7-3.1h0.8c0.2,0,0.2,0,0.4,0c1,0.4,2.2,0.6,3.3,0.6c1.8,0,2.7-0.6,4.1-0.8
		c4.7-0.8,7.1,4.2,12.2,4.2c4.3-0.2,7.3-3.6,8.6-5.5c1-1.7,1.4-3.6,1.6-5.3c0-1.5,0-1.7,0-3.1c0-1,0.2-1.9,0.4-2.9h0.2
		c0.8,0,1.6-0.2,2.2-0.6c0.8,1.5,1.4,2.9,2,4.4l0,0c1.8,5.3,2.7,13.1-1.6,20.2c-4.5,7.2-15.1,15.8-28.7,14.5
		c-15.4-1.3-22.3-14.4-22.5-15.1C152.7,71,152.3,65.6,153.9,60.6z"/>
	<path class="st7" d="M203,53.2c0,0.2,0,0.4,0,0.6h-0.2C202.8,53.6,202.8,53.4,203,53.2z"/>
	<path class="st0" d="M202.9,54.3c-0.2,1-0.2,2.1-0.4,2.9c0,1.5,0,1.9,0,3.1c0,1.9-0.6,3.6-1.6,5.3c-1,1.9-4.5,5.5-8.6,5.5
		c-5.1,0.2-7.4-5.1-12.2-4.2c-1.2,0.2-2,0.8-4.1,0.8c-1,0-2.2-0.2-3.3-0.6c1,0.2,2.2,0,3.3-0.6c1-0.4,1.8-1.3,2.9-1.3s2.2,1,3.7,0.8
		c0.8-0.4,0.6-1.5,0-2.1c-0.6-0.6-1.2-1.3-2-1.7c-1.2-1.3-1.8-2.7-1.8-4.4c0-1.5,0.2-3.1,0-4.7s-0.6-2.7-1.2-4c-1.2-2.9-1.8,1-2,2.1
		c-0.4,1.9-0.8,3.8-1.6,6c-0.8,2.3-1.8,4.7-2.9,6.8c-0.2,0.8-0.6,1.7,0,2.3c0.2,0.2,0.8,0.6,1.2,0.6h-0.2c-2.4,0.2-2.4,2.1-5.7,3.1
		c-2.4,0.8-5.3,0.6-7.4-0.2c-1.4-0.6-2.4-1.7-3.1-2.9c-1.2-1.9-1.6-3.8-1.4-6c0,0,0,0.2-0.2,0.6c0-1.3,0.4-2.3,1-3.6
		c0.4-0.6,0.8-1.3,1.4-1.9c0.2-0.2,0.4-0.4,0.6-0.6l0.4-0.2l0,0c1.8-1.5,2.7-5.1,2.7-5.1c0.2-0.4,0.2-0.8,0.2-1.5
		c-0.4-0.6-1-1-1-2.1v-0.2c0.2-2.9,1.2-5.6,3.1-7.9c0.8-1,1.8-1.9,3.1-2.7c0,0,0,0,0.2,0c1.6,0.8,1.6,1.7,2.4,2.1
		c2.4,0.8,6.3-2.3,7.1-1.7c0.4,0.2-0.4,1,0,1.5c0.8,0.8,5.3,0,8.4-1.7c0.4-0.2,1.2-0.6,1.4-0.6c0.2,0.2-1.4,1.7-1.2,1.9
		s3.3-2.3,3.9-2.1c0.2,0.2-0.6,0.8-0.4,1.3c0.4,0.2,2.9-1.5,3.3-1.3s-1,1.3-0.8,1.5c0.4,0.2,3.3-1.5,3.7-1.3c0.2,0.2,0.1,0.4-1,1.3
		c-1,0.8,5.5,0.2,5.7,1c0,0.4,3-0.3-0.4,1.9c1.2,0.2,0,0.2-1.4,0.6c3.4,0.2-0.6,0.9-0.2,1c2,0.1,0,1,0.2,1.5
		c0.4,0.2,1.2,0.2,1.4,0.4s1.2,3.2-0.6,1.3c-0.3-0.3,0.6,0.6,1,0.8c1,0.4,2-0.2,2.2,0c0.4,0.2,1.7,1.2-1,2.3c0,0.8,0.6,1.4,0.4,2.3
		c1,2.7,1.6,4,2.4,4.4C202.2,54.1,202.7,54.1,202.9,54.3z M198,51.3c0-0.2-0.2-0.2-0.4-0.2s-0.4,0.2-0.4,0.2c0,0.2,0.2,0.2,0.4,0.2
		S198,51.3,198,51.3L198,51.3L198,51.3L198,51.3z M193.9,46.3C193.9,46.5,194,46.5,193.9,46.3c0.6,0.4,1,0.6,1.4,0.4
		c-0.8-1.3-2-2.7-4.1-2.9c-0.8-0.2-1.2-0.2-1.8-0.2 M195.2,51.7c0-2.1-3.1-3.6-6.7-3.6s-6.7,1.7-6.7,3.6c0,2.1,3.1,3.6,6.7,3.6
		C192.1,55.4,195.2,53.6,195.2,51.7L195.2,51.7z M173.3,51.3c0-2.1-2.9-3.6-6.7-3.6s-6.7,1.7-6.7,3.6s2.9,3.6,6.7,3.6
		C170.3,55,173.3,53.2,173.3,51.3z"/>
	<ellipse cx="197.6" cy="51.3" rx="0.4" ry="0.2"/>
	<path d="M195.7,48.4c-0.4,0-1-0.2-1.2-0.4c-0.4-0.4-0.6-0.8-0.8-1.3c-1.2-2.1-3.7-2.3-5.9-2.7c-0.4,0-0.8-0.2-1.2-0.2
		c-0.4,0-0.8,0.2-1.4,0.8c-1,0.6-2,1.3-2.9,1.9c-0.4,0.2-1,0.6-1.2,0.8c-1.8,0.8-0.8-1.3-0.2-2.3c1-1.1,2-1.7,3.5-2.1
		c2-0.4,4.1-0.4,5.9-0.2c0.8,0.2,1.4,0.2,2,0.6C194,44.4,195.3,46.2,195.7,48.4z"/>
	<path class="st13" d="M188.4,47.5c3.9,0,6.5,1.7,6.7,3.6c0.3,2.8-3.6,4.7-7.2,4.2c-5-0.5-6.4-1.5-6.1-4.2
		C181.8,49.2,184.6,47.5,188.4,47.5z M194.9,50.7c0-1.5-2.9-2.5-6.3-2.5c-3.3,0-6.3,1.3-6.3,2.5c0,1.5,2.9,2.5,6.3,2.5
		C191.8,53.2,194.9,52.3,194.9,50.7z"/>
	<path class="st11" d="M188.4,48.2c3.7,0,6.3,1.3,6.3,2.5c0,1.3-2.9,2.5-6.3,2.5c-3.3,0-6.3-1.3-6.3-2.5
		C182,49.4,184.9,48.2,188.4,48.2z"/>
	<path class="st14" d="M182.9,63.6c0.6,0.8,0.6,1.5,0,2.3c-1.2,0.2-2.7-1-3.9-1c-1.4,0-2.2,1-3.3,1.3c-1.2,0.8-2.7,0.8-3.7,0.8
		c-0.2,0-0.2,0-0.4,0l0,0c-0.4,0-1-0.2-1.4-0.8c-0.6-0.8-0.2-1.5,0-2.5c1.2-2.5,2.2-4.9,3.3-7.4c0.6-2.1,1.4-4,1.8-6.4
		c0.2-1.1,1-5.5,2.2-2.3c0.6,1.3,1.2,2.9,1.4,4.2c0.2,1.5,0,3.4,0,5.1c0,1.5,0.6,3.4,2,4.9C181.5,62.3,182,63.1,182.9,63.6z
		 M177.1,65.1C177.1,64.9,176.9,64.9,177.1,65.1c-0.2-0.2-0.4,0-0.4,0S176.7,65.1,177.1,65.1L177.1,65.1
		C176.9,65.1,177.1,65.1,177.1,65.1L177.1,65.1z M176.4,63.4c0,0,0-0.2-0.2-0.2s-0.2,0-0.2,0.2c0,0,0,0.2,0.2,0.2
		C176.4,63.6,176.4,63.4,176.4,63.4L176.4,63.4z M175,61.7c0-0.2-0.2-0.2-0.4-0.2c-0.2,0-0.4,0.2-0.4,0.2c0,0.2,0.2,0.2,0.4,0.2
		C174.8,61.9,175,61.9,175,61.7L175,61.7z M175,64.3c0-0.2,0-0.2-0.2-0.2s-0.2,0-0.2,0.2c0,0.2,0,0.2,0.2,0.2l0,0L175,64.3L175,64.3
		z M174.6,65.6c0-0.2,0-0.2-0.2-0.2c-0.2,0-0.2,0-0.2,0.2l0,0l0,0c-0.2,0-0.2,0-0.2,0.2c0,0.2,0,0.2,0.2,0.2s0.2,0,0.2-0.2l0,0l0,0
		l0,0C174.6,65.8,174.6,65.6,174.6,65.6L174.6,65.6z M173.8,65.5C173.8,65.5,173.5,65.1,173.8,65.5c-0.2-0.2-0.4,0-0.4,0
		S173.5,65.6,173.8,65.5L173.8,65.5C173.5,65.6,173.8,65.5,173.8,65.5L173.8,65.5z M173.5,66.8L173.5,66.8
		C173.5,66.4,173.5,66.4,173.5,66.8L173.5,66.8L173.5,66.8C173.3,66.8,173.5,66.8,173.5,66.8L173.5,66.8L173.5,66.8z M173.5,63.4
		C173.5,63.4,173.5,63.3,173.5,63.4c-0.2-0.2-0.4,0-0.4,0S173.3,63.6,173.5,63.4L173.5,63.4L173.5,63.4L173.5,63.4z M173.3,64.9
		C173.3,64.7,173.3,64.7,173.3,64.9c-0.2-0.2-0.4,0-0.4,0S173,65.1,173.3,64.9L173.3,64.9L173.3,64.9L173.3,64.9z M172.3,62.3
		L172.3,62.3C172.3,62.1,172.3,62.1,172.3,62.3L172.3,62.3L172.3,62.3C172.3,62.1,172.3,62.3,172.3,62.3L172.3,62.3z M172.3,61.2
		c0-0.2,0-0.2,0-0.2S172.1,61,172.3,61.2c-0.2,0.2-0.2,0.2,0,0.2C172.6,61.5,172.3,61.5,172.3,61.2L172.3,61.2z M172.3,66L172.3,66
		c-0.2-0.2-0.4,0-0.4,0C171.9,66.2,172.1,66.2,172.3,66L172.3,66C172.3,66.2,172.3,66.2,172.3,66L172.3,66z M172.1,64.3
		C172.1,64.3,172.1,64.1,172.1,64.3c-0.2-0.2-0.4,0-0.4,0C171.6,64.5,171.9,64.5,172.1,64.3L172.1,64.3
		C172.1,64.5,172.1,64.5,172.1,64.3L172.1,64.3z M172.1,62.9h-0.2c-0.2,0-0.2,0-0.2,0h0.2C172.1,62.9,172.1,62.9,172.1,62.9
		L172.1,62.9z M171.6,61.9c0,0,0-0.2-0.2-0.2l0,0l0,0c-0.2,0-0.2,0-0.2,0.2s0,0.2,0.2,0.2C171.6,62.1,171.6,61.9,171.6,61.9z
		 M171.6,66.4c0,0,0-0.2-0.2-0.2l0,0l0,0c-0.2,0-0.2,0-0.2,0.2c0,0.2,0,0.2,0.2,0.2C171.6,66.8,171.6,66.4,171.6,66.4z M171.2,63.1
		C171.2,63.1,171.1,63.1,171.2,63.1c-0.2-0.2-0.4,0-0.4,0C170.7,63.3,170.7,63.3,171.2,63.1L171.2,63.1
		C171.1,63.3,171.2,63.3,171.2,63.1L171.2,63.1z M171.2,65.6C171.2,65.6,171.1,65.5,171.2,65.6c-0.2-0.2-0.4,0-0.4,0
		S170.7,65.8,171.2,65.6L171.2,65.6C171.1,65.8,171.2,65.6,171.2,65.6L171.2,65.6z M171.1,64.7c0-0.2,0-0.2-0.2-0.2l0,0
		c0,0-0.2,0-0.2,0.2l0,0l0,0c0,0.2,0.2,0.2,0.4,0.2V64.7L171.1,64.7L171.1,64.7z M171.1,64.1C171.1,64.1,170.7,64.1,171.1,64.1
		c-0.2-0.2-0.4,0-0.4,0C170.5,64.3,170.5,64.3,171.1,64.1L171.1,64.1C171.1,64.3,171.1,64.3,171.1,64.1L171.1,64.1z M171.1,66
		C171.1,66,170.7,66,171.1,66c-0.2-0.2-0.4,0-0.4,0C170.5,66.2,170.5,66.2,171.1,66L171.1,66C171.1,66.2,171.1,66.2,171.1,66
		L171.1,66z M171.1,65.1h-0.2c-0.2,0-0.2,0-0.2,0S170.7,65.1,171.1,65.1L171.1,65.1z M170.2,65.6C170.2,65.6,170.2,65.5,170.2,65.6
		c-0.2-0.2-0.4,0-0.4,0S170,65.8,170.2,65.6L170.2,65.6C170.2,65.8,170.2,65.6,170.2,65.6L170.2,65.6z"/>
	<ellipse class="st15" cx="177.6" cy="65.3" rx="0.2" ry="0.2"/>
	<ellipse class="st15" cx="176.7" cy="63.9" rx="0.2" ry="0.2"/>
	<ellipse class="st15" cx="175.3" cy="62.1" rx="0.4" ry="0.2"/>
	<ellipse class="st15" cx="175.5" cy="64.5" rx="0.2" ry="0.2"/>
	<path class="st14" d="M175.2,65.5c0,0,0.2,0,0.2,0.2c0,0.2,0,0.2-0.2,0.2l0,0c0,0,0,0,0-0.2l0,0C175.2,65.5,175.2,65.5,175.2,65.5z
		"/>
	<path class="st15" d="M175.2,65.8L175.2,65.8c0,0.2,0,0.2-0.2,0.2s-0.2,0-0.2-0.2c0,0,0-0.2,0.2-0.2l0,0L175.2,65.8L175.2,65.8z"/>
	<path class="st15" d="M175.2,65.6L175.2,65.6L175.2,65.6z"/>
	<ellipse class="st14" cx="174.6" cy="65.5" rx="0.2" ry="0.2"/>
	<ellipse class="st15" cx="174.6" cy="66.8" rx="0" ry="0"/>
	<ellipse class="st15" cx="174.3" cy="63.9" rx="0.2" ry="0.2"/>
	<ellipse class="st15" cx="174.1" cy="65.1" rx="0.2" ry="0.2"/>
	<ellipse class="st15" cx="173.5" cy="62.7" rx="0" ry="0"/>
	<ellipse class="st15" cx="173.5" cy="61.7" rx="0" ry="0.2"/>
	<ellipse class="st15" cx="173.3" cy="66.2" rx="0.2" ry="0.2"/>
	<path d="M173.5,45.8c0,0.6,0,1.1-0.6,1.5c-0.4-0.8-1-1.1-1.6-1.7c-0.4-0.2-0.8-0.8-1.4-1c-0.4,0-0.8-0.2-1.2-0.2
		c-1.4,0-3.1,0-4.5,0c-0.4,0-1,0-1.2,0.2c-1,0.2-1.4,1.5-2,2.3c-0.2,0.2-0.4,1-1,1c-0.4,0,0-1.1,0-1.5c0.4-1,1.2-1.9,2-2.7
		c0.4-0.2,1-0.8,1.4-1c0.6-0.2,1-0.2,1.6-0.2c1.2,0,2.9,0,4.3,0c1.2,0.2,2.7,0.8,3.7,1.7C173,44.8,173.3,45.4,173.5,45.8z"/>
	<ellipse class="st15" cx="173" cy="64.5" rx="0.2" ry="0.2"/>
	<ellipse class="st15" cx="173" cy="63.1" rx="0" ry="0.2"/>
	<ellipse class="st14" cx="172.6" cy="62.3" rx="0.2" ry="0.2"/>
	<ellipse class="st15" cx="172.6" cy="66.6" rx="0.2" ry="0.2"/>
	<path class="st14" d="M172.8,67c-0.2,0-0.2,0-0.4,0C172.6,67,172.6,67,172.8,67z"/>
	<ellipse class="st14" cx="172.3" cy="63.3" rx="0.2" ry="0.2"/>
	<ellipse class="st15" cx="172.3" cy="65.6" rx="0.2" ry="0.2"/>
	<path class="st14" d="M171.6,64.7c0,0,0.2,0,0.2,0.2l0,0l0,0c0,0.2-0.2,0.2-0.4,0.2c-0.2,0-0.4,0-0.4-0.2
		C171.2,64.7,171.4,64.7,171.6,64.7C171.4,64.7,171.4,64.7,171.6,64.7c-0.2,0.2,0,0.2,0,0.2S172.1,64.9,171.6,64.7
		C172.1,64.7,172.1,64.7,171.6,64.7z"/>
	<ellipse class="st14" cx="172.1" cy="64.3" rx="0.2" ry="0.2"/>
	<ellipse class="st14" cx="172.1" cy="66.2" rx="0.2" ry="0.2"/>
	<ellipse class="st14" cx="172.1" cy="65.3" rx="0" ry="0.2"/>
	<path class="st15" d="M171.6,64.7C172.1,64.7,172.1,64.7,171.6,64.7c0,0.2,0,0.2,0,0.2s-0.2,0-0.2-0.2
		C171.4,64.7,171.4,64.7,171.6,64.7z"/>
	<ellipse class="st15" cx="171.2" cy="65.6" rx="0.2" ry="0.2"/>
	<path class="st16" d="M165.8,34.9c0.6,0,1,0.2,1.6,0c0,0-0.4-0.2-0.8-0.6c-0.2,0-0.4-0.2-0.8-0.2c-2-0.2-3.9,0.8-4.1,0.6
		s2.4-1.5,2.2-2.1s-3.9,0-3.9-0.2s9.8-2.1,9.6-2.9c0-0.2-0.4-0.2-1-0.6c-0.6-0.2-0.8-0.4-0.8-0.4c1.6,0.4,3.1,0.8,4.9,1
		c1.2,0,2.9,0,2.9-0.2s-3.1-0.6-3.1-1c0-0.6,9.2-0.6,11-0.4c0.6,0,1,0.2,1.6,0.2h1.8c0.6,0,0.8-0.2,1.2-0.2c0.2,0,0.6,0,0.8,0.2
		l2,0.6c2,0.6,2.2,0.2,3.9,0.8c1.2,0.6,1.8,1.3,2.4,1c0.4-0.2,0.6-0.4,0.8-0.4c0.4,0,0.6,0.6,1,0.6s0.8-0.6,1-0.6s0.2,0.6,0.8,1.3
		c0.2,0.4,0.8,0.8,1.4,0.8c3.1,2.1,5.3,5.1,5.9,8.3c0.2,2.7-1,4.9,0.6,6.2c0,0,0.8,0.6,0.8,0.8"/>
	<ellipse class="st17" cx="188.4" cy="51.1" rx="6.7" ry="3.6"/>
	<path class="st18" d="M182.9,62.3c2,0.8,3.9,1.9,5.3,3.3c1.4,1.3,2.2,2.9,2.2,4.9"/>
	<path class="st18" d="M170.2,62.5c-2.9,1.7-5.1,4.2-6,7"/>
	<path class="st18" d="M160.5,55.4c0.8,0.6,1.8,1,2.9,1.3c0.8,0.2,1.6,0.2,2.4,0.4c1.2,0,2.4,0,3.7-0.2c1-0.2,2.2-0.6,3.1-1.3"/>
	<path class="st18" d="M181.5,55.2c1.4,1.3,3.1,1.9,5.3,2.1c1.8,0.2,4.1,0,5.7-0.6"/>
	<path class="st19" d="M180.6,72.5c0.6,0,3.7,0.2,4.1,0c-1,0.6-2.2,1-3.7,1c-4.1,0.2-8.7,0.4-12.6-0.6c0-0.6,6.7-0.2,7.7-0.2
		C177.8,72.5,179.3,72.5,180.6,72.5z"/>
	<path class="st7" d="M206.3,55.5L206.3,55.5c-0.8,0.4-1.4,0.4-2.4,0.4l0,0c0-0.2,0-0.4,0-0.8c0,0.2,0,0.4,0,0.8l0,0
		c-0.4,0-1,0-1.2-0.2c-0.8-0.2-1.2-1.7-2.7-4.9c-0.4-0.8-0.6-1.5-0.4-2.5c-2.3-0.6,1.2-2.3,1-2.5s-1.2,0.4-2.4,0
		c-0.4-0.2-0.8-0.4-1-1c0-0.8,0.8-1,0.6-1.3c-0.2-0.4-1,0-1.4-0.4c-0.4-0.2-0.2-1-0.2-1.5c0-0.4,0-0.8,0.2-1.1
		c0-0.2,0.2-0.4,0.2-0.8c0.4-1.1,2-1.5,1.8-2.1c-0.2-0.8-7.7-0.4-5.9-1.1c-0.5,0.4,1-1.1,1-1.3c0,0-3.3,1.7-3.7,1.3
		c-0.4-0.2,1-1.5,0.8-1.5c-0.2-0.2-3.1,1.5-3.5,1.3s0.6-1.1,0.4-1.3c-0.4-0.2-3.7,2.3-3.9,2.3c-0.2-0.2,1.4-1.7,1.2-2.1
		c-0.2-0.4-1,0.4-1.4,0.8c-3.3,1.7-7.7,2.7-8.7,1.7c-0.4-0.4,0.4-1.3,0-1.5c-0.8-0.8-4.5,2.7-7.3,1.7c-0.8-0.2-0.8-1.3-2.7-2.3
		c0,0,0,0-0.2,0c0.2-0.2,0.4-0.2,0.6-0.4l0,0c0.6,0,1,0.2,1.8,0c0,0-0.4-0.2-0.8-0.8c-0.2,0-0.4-0.2-0.8-0.2c-2.2-0.2-3.9,1-4.1,0.8
		s2.7-1.5,2.4-2.3c-0.2-0.8-3.9,0-3.9-0.2s10.1-2.3,10-3.1c0-0.2-0.4-0.2-1-0.8c-0.6-0.2-0.8-0.4-0.8-0.4c1.8,0.4,3.3,1,4.9,1.1
		c1.2,0,3.1,0,3.1-0.2s-3.3-0.8-3.3-1.1c0-0.8,9.6-0.8,11.2-0.4c0.6,0,1,0.2,1.8,0.2h2c0.6,0,0.8-0.2,1.2-0.2c0.2,0,0.6,0,0.8,0.2
		l2.2,0.8c2.2,0.8,2.4,0.2,3.9,1c1.2,0.8,2,1.3,2.7,1.1c0.4-0.2,0.6-0.4,0.8-0.4c0.4,0,0.6,0.8,1,0.8s0.8-0.8,1-0.8s0.2,0.8,0.8,1.3
		c0.2,0.4,0.8,1,1.4,1c3.3,2.3,5.5,5.5,6,8.9c0.2,2.9-1,5.3,0.6,6.6c0,0,0.8,0.8,0.8,1l0,0v0.2c-0.2,0.2-1,0.2-1,0.4s0.8,0.8,0.6,1
		s-0.6,0-0.8,0.2c-0.2,0.2,0.4,0.8,0.4,1s-0.4,0.2-0.6,0.4c-0.2,0.2-0.6,0-0.8,0.2c-0.4,0.2-0.2,0.8-0.4,1s-0.6,0-1-0.2
		s-0.6-0.2-0.6,0s0.4,0.8,0.2,1.1C206.7,55.1,206.5,55.1,206.3,55.5z"/>
	<path class="st13" d="M166.8,47.9c3.9,0,6.5,1.7,6.7,3.6c0.3,2.8-3.6,4.7-7.2,4.2c-5-0.5-6.4-1.5-6.1-4.2
		C160.3,49.6,162.9,47.9,166.8,47.9z M173.3,51.1c0-1.5-2.9-2.5-6.3-2.5c-3.3,0-6.3,1.3-6.3,2.5c0,1.5,2.9,2.5,6.3,2.5
		C170.3,53.6,173.3,52.6,173.3,51.1z"/>
	<path class="st11" d="M166.8,48.6c3.7,0,6.3,1.3,6.3,2.5c0,1.3-2.9,2.5-6.3,2.5c-3.3,0-6.3-1.3-6.3-2.5
		C160.5,49.8,163.4,48.6,166.8,48.6z"/>
	<ellipse id="eye_1" class="st20" cx="166.3" cy="51.1" rx="1" ry="0.8"/>
	<ellipse class="st17" cx="166.8" cy="51.5" rx="6.7" ry="3.6"/>
	<ellipse id="eye_2" class="st20" cx="188.1" cy="51" rx="1" ry="0.8"/>
</g>
</svg>
