<?xml version="1.0" encoding="utf-8"?>
<!-- Generator: Adobe Illustrator 21.1.0, SVG Export Plug-In . SVG Version: 6.00 Build 0)  -->
<svg version="1.1" id="Layer_1" xmlns="http://www.w3.org/2000/svg" xmlns:xlink="http://www.w3.org/1999/xlink" x="0px" y="0px"
	 viewBox="0 0 350 236.4" style="enable-background:new 0 0 350 236.4;" xml:space="preserve">
<style type="text/css">
	.st0{fill:#F2D1BB;}
	.st1{fill:#FFFFFF;stroke:#000000;stroke-miterlimit:10;}
	.st2{fill:none;stroke:#000000;stroke-width:0.25;stroke-miterlimit:10;}
	.st3{fill:none;stroke:#000000;stroke-width:0.75;stroke-miterlimit:10;}
	.st4{fill:#C1272D;stroke:#000000;stroke-width:0.25;stroke-miterlimit:10;}
	.st5{fill:#FFFF00;}
	.st6{fill:#0071BC;stroke:#000000;stroke-width:0.25;stroke-miterlimit:10;}
	.st7{fill:#7C660A;}
	.st8{fill:#678E29;}
	.st9{fill:#C1272D;stroke:#C1272D;stroke-miterlimit:10;}
	.st10{fill:none;stroke:#FFFFFF;stroke-miterlimit:10;}
	.st11{fill:none;stroke:#FFFFFF;stroke-width:2;stroke-miterlimit:10;}
	.st12{fill:#FFFFFF;}
	.st13{fill:#FFFFFF;stroke:#C1272D;stroke-miterlimit:10;}
	.st14{fill:#C1272D;}
	.st15{fill:#603813;}
	.st16{fill:#D6BAA7;}
	.st17{fill:#070707;}
	.st18{fill:#CC4A2B;}
	.st19{fill:#EFA08B;}
	.st20{fill:#E5907F;}
	.st21{fill:#FFEADF;}
	.st22{fill:none;}
	.st23{fill:none;stroke:#D3B9A7;stroke-miterlimit:10;}
</style>
<g id="arm">
	<path class="st0" d="M218,97.6l-1.5-0.6c-2.1-0.9-3.1-3.2-2.3-5.3L230.7,43c0.7-2.1,2.9-3.2,5-2.5l1.5,0.6c2.1,0.9,3.1,3.2,2.3,5.3
		L223,95.1c-0.6,2-2.8,3.2-4.8,2.6L218,97.6z"/>
	<ellipse class="st0" cx="236.2" cy="39.7" rx="8.9" ry="9.4"/>
	<path class="st1" d="M254.9,35.1l-13.1,7.3c-0.8,0.5-1.9,0.1-2.4-0.7l0,0v-0.1l-14.2-28.4c-0.5-0.9-0.2-2,0.7-2.5L239,3.4
		c0.8-0.5,1.9-0.1,2.4,0.7l0,0v0.1l14.2,28.4C256,33.5,255.7,34.5,254.9,35.1z"/>
	<ellipse class="st0" cx="235.4" cy="29.1" rx="5.3" ry="3.5"/>
	<ellipse class="st0" cx="231" cy="35.3" rx="3.6" ry="8.5"/>
	<line class="st2" x1="249.6" y1="30.9" x2="251.8" y2="35.6"/>
	<line class="st2" x1="251.8" y1="29.7" x2="254" y2="34.4"/>
	<line class="st3" x1="240.1" y1="4.4" x2="242.9" y2="9.7"/>
	<line class="st3" x1="239.3" y1="5.3" x2="241.5" y2="9.4"/>
	<line class="st3" x1="238.2" y1="5.9" x2="238.7" y2="7.1"/>
	<line class="st3" x1="239.8" y1="8.2" x2="240.4" y2="9.4"/>
	<line class="st3" x1="240.4" y1="18.2" x2="243.7" y2="25.3"/>
	<line class="st3" x1="239.8" y1="20" x2="242.1" y2="24.1"/>
	<line class="st3" x1="238.2" y1="21.2" x2="240.4" y2="25.3"/>
	<polygon class="st4" points="248.9,29.3 247.7,26.7 250.2,25.4 251.4,28 	"/>
	<path class="st5" d="M249.7,28.6c0.8,0,1.5-0.7,1.5-1.5s-0.7-1.5-1.5-1.5s-1.5,0.7-1.5,1.5S248.9,28.6,249.7,28.6z"/>
	<path class="st6" d="M251.5,35.2L251.5,35.2c1.2,0.3,2.4-0.4,2.7-1.6l0,0v-0.1l0,0c0.3-1.2-0.4-2.5-1.6-2.9l0,0
		c-1.2-0.3-2.4,0.4-2.7,1.6l0,0v0.1l0,0C249.6,33.5,250.3,34.8,251.5,35.2z"/>
	<line class="st2" x1="250.7" y1="30.3" x2="252.9" y2="35"/>
	<animateTransform  id="arm"  accumulate="none" additive="replace" attributeName="transform" attributeType="XML" calcMode="linear" dur="3s" fill="remove" repeatCount="indefinite" restart="always" type="translate" values="0,2;-2;0,2"/>
</g>
<g id="body">
	<path class="st7" d="M176.3,220.3c0.3,1,0.2,2.1-0.2,3c-1.8,3.9-9.3,3.8-13.3,3.7c-4.4-0.1-16.7-0.8-17-4.2
		c-0.3-2.9,8.3-6.8,16-7.3C166.6,215.3,175,216.2,176.3,220.3z"/>
	<path class="st7" d="M210.9,226.6c-0.3,3.1-8,4.9-17.1,4c-6.2-0.7-13.1-1.4-13.8-4.2c-0.2-1-0.2-2,0-3c0.3-1.1,0.7-2.1,1.4-3
		c1.6-2.1,6.6-2.7,13.6-1.2C200.2,220.3,211.2,223.6,210.9,226.6z"/>
	<g id="_Group_">
		<path class="st8" d="M161.2,172.4c-3.9-3.9-6.2-9.6-6.2-15.6c0-12.3,9.8-22.3,22-22.3s22,10,22,22.3c-0.1,6.7-2.9,13-7.7,16.9
			v47.2h-10.1v-42.2c-1.5,0.3-2.8,0.4-4.3,0.4c-1.1,0-2.2-0.1-3.4-0.3v39.1h-12.4L161.2,172.4L161.2,172.4L161.2,172.4z"/>
	</g>
	<path class="st9" d="M193.4,166.8l-24.3-0.6c-0.5,0.1-8.6,1.8-12.9-4.2c-1.6-2.4-2.6-5.3-2.9-8.3c-0.4-2.1-0.4-4.5,0-6.6
		c0.4-1.4,0.8-2.7,1.1-4.1c1.1-4.2,1.8-6.6,1.9-9.6c0-1.2,0.1-2.4,0.4-3.6c0.4-1,0.8-2,1.1-2.9c0.7-1.7,1.1-3.5,1.5-5.4
		c1.5-6.8,1.6-6,1.9-7.7c0.8-4.8,0.1-9-0.4-12.6c-0.5-2.3-0.7-4.8-0.6-7.2c0.2-1.6,0.5-3.2,0.9-4.8c1.6-0.7,3.3-1.1,5-1.2
		c3.1-0.1,6.1,0.7,8.9,2.4c5.3-2,10.5-4,15.9-6c1.8-2.5,4.9-3.4,7.6-2c2.9,1.8,4.3,5.8,3.3,9.4c-3.5,13.9-3.1,24.2-2,31.3
		c0.7,3.6,1.3,6.4,2,11.8c0.9,7.7,0.9,15.5,0,23.2c-0.8,2.7-2.4,5.2-4.4,6.9C196.3,165.9,194.9,166.4,193.4,166.8z"/>
	<path class="st9" d="M215.7,99.2h-13.5c-4.4,0-7.9-3.5-7.9-7.9l0,0c0-4.4,3.5-7.9,7.9-7.9h13.5c4.4,0,7.9,3.5,7.9,7.9l0,0
		C223.6,95.6,220.1,99.2,215.7,99.2z"/>
	<path class="st10" d="M179.5,117.1h15.8c0-9.2-7.1-16.8-15.8-16.8s-15.7,7.4-15.8,16.5L179.5,117.1z"/>
	<path class="st10" d="M179.2,118.6H197c0-10.6-8-19.4-17.8-19.4c-9.6,0-17.6,8.6-17.8,19.1L179.2,118.6z"/>
	<line class="st11" x1="161.5" y1="121.7" x2="197" y2="122.3"/>
	<polygon class="st12" points="172.5,106 166.7,116.1 178.4,116.1 	"/>
	<polygon class="st12" points="178.6,104.7 172.8,114.8 184.5,114.8 	"/>
	<path class="st12" d="M186.5,116L186.5,116c-1,0-1.9-0.9-1.9-1.9l0,0V108c0-1,0.9-1.9,1.9-1.9l0,0l0,0c1,0,1.9,0.9,1.9,1.9l0,0v6.1
		C188.4,115.1,187.6,115.9,186.5,116z"/>
	<ellipse class="st13" cx="186.3" cy="107.9" rx="1.8" ry="3.1"/>
	<path class="st14" d="M186,109c0.8,0,1.5-0.7,1.5-1.5s-0.7-1.5-1.5-1.5s-1.5,0.7-1.5,1.5l0,0C184.5,108.3,185.2,109,186,109z"/>
</g>
<g id="head">
	<path class="st0" d="M203.1,37.6c0.3,0.2,0.7,0.3,1.1,0.2c0.3-0.2,0.1-0.7,0.5-1c0.2-0.2,0.3,0,0.8-0.2c0.3-0.1,0.7-0.3,0.7-0.5
		c0.1-0.4-0.5-0.8-0.4-1.1s0.8-0.2,0.9-0.4s-0.8-0.7-0.7-1s1-0.2,1.2-0.5v-0.2c0.4,0.5,0.8,1,1.1,1.5s0.5,1.1,0.6,1.7
		c0.2,0.6,0.2,1.1,0,1.7c-0.3,1.1-0.9,1-1.5,2.2c-0.4,0.8-0.6,1.6-0.6,2.4c-0.1,1.4,0.1,1.7-0.2,2.2c-0.5,0.7-1.4,1.1-2.3,1l0,0
		c-0.6-2-1.3-3.9-2.1-5.7l0,0c0.2-0.1,0.4-0.4,0.5-0.6c0.1-0.6-0.5-1.2-0.2-1.4C202.5,37.4,202.8,37.5,203.1,37.6z"/>
	<path class="st15" d="M147.5,50.3L147.5,50.3c0-0.3,0.1-0.6,0.3-0.9c-0.2,2.7,0.3,5.3,1.5,7.7c0.7,1.6,1.9,2.9,3.4,3.8
		c2.4,1.3,5.3,1.5,7.9,0.4c3.4-1.4,3.4-4,6-4.2h0.8c0.2,0,0.3,0.1,0.5,0.1c1.1,0.5,2.4,0.8,3.6,0.9c2,0,2.8-0.8,4.2-1.1
		c4.8-1.1,7.4,5.5,12.7,5.3c4.3-0.2,7.7-4.7,8.9-7.1c1-2.2,1.5-4.5,1.7-6.9c0.1-1.8-0.1-2.2,0-4.2c0-1.3,0.2-2.5,0.4-3.8h0.3
		c0.9,0,1.8-0.2,2.5-0.7c0.8,1.8,1.5,3.7,2.1,5.7l0,0c1.9,6.8,2.9,16.8-1.7,26.1s-15.8,20.3-30,18.8c-16.3-1.7-23.4-18.5-23.8-19.6
		C146.3,64.1,145.8,57,147.5,50.3z M182.6,65.9c-0.4,0.4-3.5,0.1-4.2,0.1c-1.5,0-3.1,0.1-4.6,0.1c-1,0-8.1-0.3-8.1,0.3
		c4,1.3,9.1,1.1,13.2,0.7C180.3,67.1,181.6,66.7,182.6,65.9z"/>
	<path class="st15" d="M199.5,39.5c0,0.3,0.1,0.5,0.1,0.8h-0.3C199.4,40,199.4,39.8,199.5,39.5z"/>
	<path class="st0" d="M199.4,40.3c-0.2,1.3-0.3,2.7-0.4,3.8c-0.1,2,0.1,2.4,0,4.2c-0.1,2.4-0.7,4.7-1.7,6.9c-1.2,2.5-4.6,7-8.9,7.1
		c-5.3,0.2-7.8-6.4-12.7-5.3c-1.4,0.3-2.2,1.1-4.2,1.1c-1.2-0.1-2.5-0.4-3.6-0.9c1.2,0.2,2.5,0,3.6-0.7c1-0.6,1.9-1.7,3.1-1.6
		c1.2,0.1,2.4,1.4,3.7,1.1c0.8-0.6,0.6-1.9,0-2.7c-0.6-0.7-1.4-1.5-2.1-2.1c-1.3-1.6-1.9-3.6-1.9-5.6c-0.1-2,0.2-4.1,0-6.1
		c-0.3-1.8-0.7-3.5-1.4-5.2c-1.3-3.8-2,1.4-2.2,2.7c-0.4,2.5-0.9,5-1.7,7.5c-0.9,3-2,5.9-3,8.8c-0.3,1-0.7,2.1,0,2.9
		c0.3,0.4,0.8,0.7,1.3,0.8h-0.7c-2.6,0.2-2.7,2.8-6,4.2c-2.6,1.1-5.5,0.9-7.9-0.4c-1.5-0.9-2.7-2.2-3.4-3.8c-1.3-2.4-1.8-5-1.5-7.7
		c0,0-0.1,0.3-0.3,0.8c0.1-1.6,0.5-3.1,1.2-4.5c0.4-0.9,0.9-1.7,1.5-2.4c0.3-0.3,0.5-0.6,0.7-0.8l0.4-0.4h0.1c2-2,2.8-6.6,2.8-6.6
		c0.2-0.6,0.3-1.2,0.2-1.8c-0.2-1-0.9-1.6-0.9-2.9v-0.4c0.2-3.7,1.3-7.3,3.2-10.4c0.9-1.3,2-2.5,3.2-3.6c0.1,0,0.1,0.1,0.2,0.1
		c1.7,1,1.8,2.2,2.6,2.6c2.6,1.1,6.6-3,7.4-2.2c0.4,0.4-0.5,1.4-0.1,1.9c0.8,1,5.4-0.1,8.7-2.2c0.4-0.3,1.3-0.9,1.5-0.7
		s-1.5,2.2-1.3,2.4s3.6-2.9,4-2.6c0.2,0.2-0.6,1.2-0.4,1.5c0.4,0.4,3.1-1.8,3.5-1.5s-1.1,1.7-0.9,2c0.4,0.4,3.6-1.8,3.8-1.7
		s-1.3,0.9-1.1,1.5c0.3,1,5.7,0.3,5.9,1.3c0.1,0.5-1.4,1-1.8,2.5c0,0.3-0.1,0.6-0.2,0.9c-0.1,0.5-0.2,0.9-0.2,1.4
		c0,0.8-0.1,1.4,0.3,1.8s1.4,0.2,1.6,0.6s-0.7,0.8-0.6,1.5c0,0.5,0.6,0.9,1,1.1c1.1,0.5,2.1-0.4,2.5,0s-0.8,1.4-1.1,2.9
		c-0.1,1,0.1,2,0.5,2.9c1.1,3.5,1.7,5.2,2.6,5.7C198.7,40.1,199.1,40.2,199.4,40.3z M194.3,36.2c0-0.2-0.2-0.4-0.4-0.4
		s-0.4,0.2-0.4,0.4s0.2,0.4,0.4,0.4C194.1,36.6,194.3,36.4,194.3,36.2L194.3,36.2L194.3,36.2L194.3,36.2z M190.2,30.1
		c0.4,0.3,0.8,0.5,1.3,0.4c-0.9-1.7-2.2-3.4-4.1-3.9c-0.8-0.2-1.5-0.2-2.3-0.2c-2-0.1-4.1,0.1-6,0.7c-1.2,0.4-2.2,1.1-3,2.1
		c-0.6,0.8-1.4,2.8,0.5,2c0.4-0.2,0.8-0.5,1.2-0.8c0.8-0.7,1.7-1.4,2.6-2c0.4-0.3,0.8-0.5,1.3-0.7c0.5-0.1,0.9-0.1,1.4-0.1
		c2.2,0,4.6,0.1,6.1,1.6C189.5,29.4,189.8,29.8,190.2,30.1L190.2,30.1z M191.3,36.8c0-2.6-3.2-4.7-7.1-4.7s-7.1,2.1-7.1,4.7
		s3.2,4.7,7.1,4.7S191.3,39.4,191.3,36.8L191.3,36.8z M167.6,31c0.5-0.4,0.8-1,0.7-1.6s-0.4-1.2-0.9-1.6c-1.1-1-2.4-1.6-3.8-1.9
		c-1.4-0.2-2.9-0.3-4.3-0.1c-0.6,0-1.2,0.1-1.7,0.3c-0.6,0.2-1.1,0.6-1.6,1c-1,0.8-1.8,1.8-2.3,3c-0.1,0.3-0.6,1.6,0,1.6
		c0.4,0,0.8-0.9,1-1.2c0.4-1,1.2-1.8,2.1-2.4c0.5-0.1,0.9-0.2,1.4-0.3c1.6-0.1,3.1-0.1,4.7,0c0.5,0,1,0.1,1.4,0.3
		c0.6,0.2,1.1,0.6,1.5,1C166.6,29.5,167.2,30.2,167.6,31L167.6,31z M168.4,36.2c0-2.6-3.1-4.7-7-4.7s-7,2.1-7,4.7s3.1,4.7,7,4.7
		S168.4,38.6,168.4,36.2z"/>
	<circle cx="193.9" cy="36.2" r="0.4"/>
	<path d="M191.5,30.5c-0.5,0.1-1-0.1-1.3-0.4c-0.4-0.3-0.7-0.6-1-1c-1.5-1.5-3.9-1.6-6.1-1.6c-0.5,0-0.9,0-1.4,0.1s-0.9,0.4-1.3,0.7
		c-0.9,0.6-1.8,1.3-2.6,2c-0.4,0.3-0.8,0.6-1.2,0.8c-1.9,0.8-1.1-1.2-0.5-2c0.8-1,1.8-1.7,3-2.1c1.9-0.6,4-0.8,6-0.7
		c0.8,0,1.5,0,2.3,0.2C189.3,27.2,190.7,28.7,191.5,30.5z"/>
	<path class="st16" d="M184.2,32c3.9,0,7.1,2.1,7.1,4.7s-3.2,4.7-7.1,4.7s-7.1-2.1-7.1-4.7S180.2,32,184.2,32z M190.9,36.4
		c0-1.8-3-3.3-6.6-3.3s-6.6,1.5-6.6,3.3s3,3.3,6.6,3.3S190.9,38.2,190.9,36.4z"/>
	<path class="st12" d="M184.3,33.4c3.7,0,6.6,1.4,6.6,3.1s-3,3.1-6.6,3.1s-6.6-1.4-6.6-3.1S180.6,33.4,184.3,33.4z"/>
	<circle class="st17" cx="183.9" cy="36.4" r="1.1"/>
	<path class="st18" d="M178.3,66c0.7,0,3.8,0.3,4.2-0.1c-1.1,0.9-2.4,1.3-3.8,1.3c-4.2,0.3-9.2,0.5-13.2-0.7
		c0.1-0.7,7.1-0.3,8.1-0.3C175.2,66,176.8,66,178.3,66z"/>
	<path class="st19" d="M178.4,53.4c0.7,0.8,0.7,1.9,0,2.7c-1.2,0.4-2.4-1-3.7-1.1s-2.1,1-3.1,1.6c-1.1,0.7-2.4,0.9-3.6,0.7
		c-0.2,0-0.3-0.1-0.5-0.1h-0.1c-0.5-0.1-0.9-0.4-1.3-0.8c-0.6-0.8-0.3-2,0-2.9c1-2.9,2.1-5.8,3-8.8c0.7-2.5,1.3-5,1.7-7.5
		c0.2-1.3,0.8-6.6,2.2-2.7c0.7,1.7,1.1,3.4,1.4,5.2c0.2,2,0,4,0,6.1c-0.1,2,0.6,4,1.9,5.6C177.1,51.9,177.8,52.6,178.4,53.4z
		 M173.1,54.9c0-0.1-0.1-0.2-0.2-0.2s-0.2,0.1-0.2,0.2s0.1,0.2,0.2,0.2l0,0C173,55.1,173.1,55,173.1,54.9L173.1,54.9z M172.3,53.1
		c0-0.1-0.1-0.2-0.3-0.2s-0.3,0.1-0.3,0.2s0.1,0.2,0.3,0.2S172.3,53.2,172.3,53.1L172.3,53.1z M171,50.9c0-0.2-0.2-0.4-0.4-0.4
		s-0.4,0.2-0.4,0.4s0.2,0.4,0.4,0.4C170.9,51.3,171,51.1,171,50.9L171,50.9z M171,53.9c0-0.2-0.1-0.3-0.3-0.3s-0.3,0.1-0.3,0.3
		s0.1,0.3,0.3,0.3l0,0C170.9,54.2,171,54,171,53.9L171,53.9z M170.6,55.5c0-0.2-0.1-0.3-0.2-0.3s-0.2,0.1-0.2,0.3v0.1h-0.1
		c-0.2,0-0.3,0.1-0.3,0.3s0.1,0.3,0.3,0.3s0.3-0.1,0.3-0.3l0,0v-0.1l0,0C170.6,55.8,170.6,55.6,170.6,55.5L170.6,55.5z M169.9,55.3
		c0-0.1-0.1-0.2-0.2-0.2s-0.2,0.1-0.2,0.2s0.1,0.2,0.2,0.2l0,0C169.8,55.5,169.9,55.4,169.9,55.3L169.9,55.3z M169.7,56.8
		L169.7,56.8c-0.1-0.1-0.1-0.1-0.2,0l0,0l0,0C169.5,56.9,169.6,56.9,169.7,56.8C169.6,56.9,169.7,56.9,169.7,56.8L169.7,56.8z
		 M169.7,53.1c0-0.1-0.1-0.2-0.2-0.2s-0.2,0.1-0.2,0.2s0.1,0.2,0.2,0.2l0,0C169.6,53.2,169.7,53.2,169.7,53.1L169.7,53.1z
		 M169.5,54.7c0-0.1-0.1-0.2-0.2-0.2s-0.2,0.1-0.2,0.2s0.1,0.2,0.2,0.2l0,0C169.4,54.8,169.5,54.8,169.5,54.7L169.5,54.7z
		 M168.7,51.7L168.7,51.7c-0.1-0.1-0.1-0.1-0.2,0l0,0l0,0C168.6,51.6,168.6,51.7,168.7,51.7L168.7,51.7z M168.6,50.4
		c0-0.2,0-0.3-0.1-0.3s-0.1,0.1-0.1,0.3s0,0.3,0.1,0.3S168.6,50.6,168.6,50.4L168.6,50.4z M168.6,56.2c0-0.1-0.1-0.2-0.2-0.2
		s-0.2,0.1-0.2,0.2s0.1,0.2,0.2,0.2l0,0C168.5,56.4,168.6,56.3,168.6,56.2L168.6,56.2z M168.4,54c0-0.1-0.1-0.2-0.2-0.2
		S168,53.9,168,54s0.1,0.2,0.2,0.2l0,0C168.3,54.2,168.4,54.1,168.4,54L168.4,54z M168.4,52.2c-0.1-0.1-0.2-0.1-0.3-0.1
		c-0.2,0-0.3,0-0.3,0.1c0.1,0.1,0.2,0.1,0.3,0.1C168.3,52.3,168.4,52.3,168.4,52.2L168.4,52.2z M168,51.1c0-0.1-0.1-0.3-0.2-0.3l0,0
		h-0.1c-0.2,0-0.3,0.1-0.3,0.3s0.1,0.3,0.3,0.3S168,51.2,168,51.1z M168,56.6c0-0.1-0.1-0.3-0.2-0.3l0,0h-0.1
		c-0.2,0-0.3,0.1-0.3,0.3s0.1,0.3,0.3,0.3S168,56.7,168,56.6z M167.4,52.7c0-0.1-0.1-0.2-0.2-0.2s-0.2,0.1-0.2,0.2s0.1,0.2,0.2,0.2
		l0,0C167.3,52.8,167.4,52.8,167.4,52.7L167.4,52.7z M167.4,55.6c0-0.1-0.1-0.2-0.2-0.2s-0.2,0.1-0.2,0.2s0.1,0.2,0.2,0.2l0,0
		C167.3,55.8,167.4,55.7,167.4,55.6L167.4,55.6z M167.2,54.4c0-0.2-0.1-0.3-0.3-0.3l0,0c-0.1,0-0.3,0.1-0.3,0.2l0,0c0,0,0,0,0,0.1
		c0,0.2,0.2,0.3,0.4,0.3S167.2,54.6,167.2,54.4L167.2,54.4L167.2,54.4z M167.2,53.8c0-0.1-0.1-0.2-0.2-0.2s-0.2,0.1-0.2,0.2
		s0.1,0.2,0.2,0.2l0,0C167.2,54,167.2,53.9,167.2,53.8L167.2,53.8z M167.2,56.2c0-0.1-0.1-0.2-0.2-0.2s-0.2,0.1-0.2,0.2
		s0.1,0.2,0.2,0.2l0,0C167.2,56.4,167.2,56.3,167.2,56.2L167.2,56.2z M167.2,55c-0.1-0.1-0.2-0.1-0.3-0.1c-0.2,0-0.3,0-0.3,0.1
		C166.8,55.1,167.1,55.1,167.2,55L167.2,55z M166.7,55.6c0-0.1-0.1-0.2-0.2-0.2s-0.2,0.1-0.2,0.2s0.1,0.2,0.2,0.2l0,0
		C166.6,55.8,166.7,55.7,166.7,55.6L166.7,55.6z"/>
	<circle class="st20" cx="172.9" cy="54.9" r="0.2"/>
	<ellipse class="st20" cx="172.1" cy="53.1" rx="0.3" ry="0.2"/>
	<circle class="st20" cx="170.6" cy="50.9" r="0.4"/>
	<circle class="st20" cx="170.7" cy="53.9" r="0.3"/>
	<path class="st19" d="M170.4,55.3c0.1,0,0.2,0.1,0.2,0.3s-0.1,0.3-0.2,0.3l0,0c0-0.1-0.1-0.1-0.1-0.2v-0.1
		C170.3,55.4,170.3,55.3,170.4,55.3z"/>
	<path class="st20" d="M170.4,55.8L170.4,55.8c0,0.3-0.1,0.4-0.3,0.4s-0.3-0.1-0.3-0.3c0-0.1,0.1-0.3,0.2-0.3l0,0h0.2L170.4,55.8z"
		/>
	<path class="st20" d="M170.3,55.6c0.1,0,0.1,0.1,0.1,0.2C170.4,55.7,170.3,55.7,170.3,55.6z"/>
	<circle class="st19" cx="169.7" cy="55.3" r="0.2"/>
	<circle class="st20" cx="169.6" cy="56.8" r="0.1"/>
	<circle class="st20" cx="169.5" cy="53.1" r="0.2"/>
	<circle class="st20" cx="169.3" cy="54.7" r="0.2"/>
	<circle class="st20" cx="168.7" cy="51.7" r="0.1"/>
	<ellipse class="st20" cx="168.5" cy="50.4" rx="0.1" ry="0.3"/>
	<circle class="st20" cx="168.4" cy="56.2" r="0.2"/>
	<path d="M168.3,29.3c0.1,0.6-0.1,1.3-0.7,1.6c-0.5-0.7-1-1.4-1.7-1.9c-0.4-0.4-0.9-0.8-1.5-1c-0.5-0.1-0.9-0.2-1.4-0.3
		c-1.6-0.1-3.1-0.1-4.7,0c-0.5,0-1,0.1-1.4,0.3c-1.1,0.4-1.6,1.5-2.1,2.4c-0.2,0.3-0.5,1.2-1,1.2s-0.1-1.3,0-1.6
		c0.5-1.2,1.3-2.2,2.3-3c0.5-0.4,1-0.8,1.6-1s1.1-0.3,1.7-0.3c1.4-0.1,2.9-0.1,4.3,0.1s2.7,0.9,3.8,1.9
		C167.9,28.1,168.2,28.7,168.3,29.3z"/>
	<circle class="st20" cx="168.2" cy="54" r="0.2"/>
	<ellipse class="st20" cx="168.1" cy="52.2" rx="0.3" ry="0.1"/>
	<circle class="st19" cx="167.7" cy="51.1" r="0.3"/>
	<circle class="st20" cx="167.7" cy="56.6" r="0.3"/>
	<path class="st19" d="M168,57.2c-0.2,0-0.3-0.1-0.5-0.1C167.7,57.1,167.8,57.2,168,57.2z"/>
	<circle class="st19" cx="167.2" cy="52.7" r="0.2"/>
	<circle class="st20" cx="167.2" cy="55.6" r="0.2"/>
	<path class="st19" d="M166.9,54.2c0.1,0,0.3,0.1,0.3,0.2l0,0c0,0,0,0,0,0.1c0,0.2-0.2,0.3-0.4,0.3s-0.4-0.1-0.4-0.3
		C166.5,54.3,166.7,54.1,166.9,54.2c-0.2,0-0.2,0.1-0.2,0.2c0,0.1,0.1,0.2,0.2,0.2s0.2-0.1,0.2-0.2C167,54.3,167,54.2,166.9,54.2z"
		/>
	<circle class="st19" cx="167" cy="53.8" r="0.2"/>
	<circle class="st19" cx="167" cy="56.2" r="0.2"/>
	<ellipse class="st19" cx="167" cy="55" rx="0.3" ry="0.1"/>
	<path class="st20" d="M166.9,54.2c0.1,0,0.1,0.1,0.1,0.2c0,0.1-0.1,0.2-0.2,0.2s-0.2-0.1-0.2-0.2C166.7,54.2,166.7,54.2,166.9,54.2
		z"/>
	<circle class="st20" cx="166.5" cy="55.6" r="0.2"/>
	<path class="st16" d="M161.4,31.5c3.9,0,7,2.1,7,4.7s-3.1,4.7-7,4.7s-7-2.1-7-4.7S157.5,31.5,161.4,31.5z M168,36.2
		c0-1.6-2.9-2.8-6.5-2.8s-6.5,1.3-6.5,2.8s2.9,2.8,6.5,2.8S168,37.6,168,36.2z"/>
	<path class="st12" d="M161.5,33.3c3.6,0,6.5,1.3,6.5,2.8s-2.9,2.8-6.5,2.8s-6.5-1.3-6.5-2.8S157.9,33.3,161.5,33.3z"/>
	<circle class="st17" cx="161.4" cy="36.1" r="1.1"/>
	<path class="st21" d="M161.2,15.3c0.4,0.1,0.7,0.3,0.9,0.7c-0.6,0.1-1.1,0-1.7-0.1C160.7,15.7,161,15.5,161.2,15.3z"/>
	<path class="st15" d="M160.4,15.9c-0.2,0.2-0.4,0.3-0.6,0.5c-0.3-0.2-0.6-0.3-0.5-0.4C159.7,15.8,160.1,15.8,160.4,15.9z"/>
	<path class="st22" d="M160.4,15.9c0.3-0.2,0.5-0.4,0.8-0.6"/>
	<path class="st22" d="M147.5,50.3c0.1-1.6,0.5-3.1,1.2-4.5c0.4-0.9,0.9-1.7,1.5-2.4c0.3-0.3,0.5-0.6,0.7-0.8l0.4-0.4h0.1
		c2-2,2.8-6.6,2.8-6.6c0.2-0.6,0.3-1.2,0.2-1.8c-0.2-1-0.9-1.6-0.9-2.9v-0.4c0.2-3.7,1.3-7.3,3.2-10.4c0.9-1.3,2-2.5,3.2-3.6"/>
	<path class="st22" d="M207.2,32.6c0.4,0.5,0.8,1,1.1,1.5s0.5,1.1,0.6,1.7c0.2,0.6,0.2,1.1,0,1.7c-0.3,1.1-0.9,1-1.5,2.2
		c-0.4,0.8-0.6,1.6-0.6,2.4c-0.1,1.4,0.1,1.7-0.2,2.2c-0.5,0.7-1.4,1.1-2.3,1"/>
	<path class="st22" d="M160.4,15.9c0.6,0.1,1.1,0.2,1.7,0.1c0-0.1-0.4-0.4-0.9-0.7c-0.2-0.1-0.5-0.2-0.8-0.2c-2.1-0.4-4,1.1-4.2,0.9
		c-0.2-0.2,2.7-2,2.5-2.7s-3.9,0-4-0.2s10.4-2.7,10.2-3.7c0-0.2-0.4-0.4-1-0.8s-0.9-0.5-0.8-0.5c1.7,0.6,3.4,1,5.1,1.3
		c1.4,0.1,3,0.1,3-0.2s-3.3-0.8-3.2-1.3c0.1-0.8,9.6-0.8,11.4-0.6c0.6,0.1,1.1,0.2,1.7,0.2h2c0.7,0,0.8-0.2,1.3-0.2
		c0.3,0,0.6,0.1,0.9,0.2l2.3,0.7c2.3,0.9,2.5,0.3,4,1.1c1.3,0.7,1.9,1.5,2.6,1.3c0.4-0.2,0.6-0.6,0.9-0.6c0.5,0.1,0.6,0.9,1.1,0.9
		s0.8-0.8,1.1-0.7s0.3,0.8,0.8,1.5c0.3,0.6,0.9,1,1.5,1.2c3.3,2.6,5.5,6.4,6.1,10.6c0.3,3.4-1,6.3,0.6,8c0.1,0.1,0.8,0.8,0.8,1.2"/>
	<path class="st22" d="M199.4,40.3c-0.5,0-1-0.1-1.4-0.4c-0.9-0.4-1.4-2.2-2.6-5.7c-0.4-0.9-0.6-1.9-0.5-2.9
		c0.3-1.6,1.4-2.6,1.1-2.9s-1.3,0.5-2.5,0c-0.5-0.2-0.8-0.6-1-1.1c-0.1-0.7,0.8-1.1,0.6-1.5s-1.1,0-1.6-0.6c-0.4-0.4-0.3-1-0.3-1.8
		c0-0.5,0.1-0.9,0.2-1.4c0.1-0.3,0.2-0.6,0.2-0.9c0.4-1.4,2-2,1.8-2.5c-0.2-0.9-5.6-0.2-5.9-1.3c-0.1-0.6,1.2-1.4,1.1-1.5
		s-3.4,2.1-3.8,1.7s1.1-1.8,0.9-2s-3.1,1.9-3.5,1.5s0.6-1.3,0.4-1.5c-0.4-0.3-3.7,2.8-4,2.6s1.6-2.1,1.3-2.4
		c-0.3-0.3-1.1,0.5-1.5,0.7c-3.3,2.1-7.9,3.2-8.7,2.2c-0.4-0.5,0.5-1.5,0.1-1.9c-0.8-0.8-4.7,3.3-7.4,2.2c-0.9-0.4-0.9-1.6-2.6-2.6
		c-0.1,0-0.1-0.1-0.2-0.1c-0.3-0.2-0.6-0.3-0.5-0.4c0.4-0.1,0.7-0.1,1.1-0.1"/>
	<path class="st22" d="M207.2,32.6v0.2c-0.2,0.4-1.1,0.2-1.2,0.5s0.8,0.7,0.7,1s-0.7,0.1-0.9,0.4c-0.2,0.3,0.5,0.7,0.4,1.1
		c-0.1,0.4-0.4,0.4-0.7,0.5s-0.6,0.1-0.8,0.2c-0.4,0.3-0.2,0.8-0.5,1s-0.7,0-1.1-0.2s-0.6-0.3-0.7-0.1s0.4,0.8,0.2,1.4
		c-0.1,0.2-0.3,0.5-0.5,0.6"/>
	<ellipse class="st22" cx="161.4" cy="36.2" rx="7" ry="4.7"/>
	<ellipse class="st22" cx="184.2" cy="36.8" rx="7.1" ry="4.7"/>
	<path class="st22" d="M156.9,29.2c0.5-0.1,0.9-0.2,1.4-0.3c1.6-0.1,3.1-0.1,4.7,0c0.5,0,1,0.1,1.4,0.3c0.6,0.2,1.1,0.6,1.5,1.1
		c0.7,0.5,1.2,1.3,1.7,2.1c0.5-0.4,0.8-1.1,0.7-1.7s-0.4-1.3-0.9-1.7c-1.1-1.1-2.4-1.7-3.8-2.1c-1.4-0.2-2.9-0.3-4.3-0.1
		c-0.6,0-1.2,0.1-1.7,0.3c-0.6,0.2-1.1,0.6-1.6,1.1c-1,0.9-1.8,1.9-2.3,3.2c-0.1,0.3-0.6,1.7,0,1.7c0.4,0,0.8-1,1-1.3
		C155.3,30.8,155.8,29.6,156.9,29.2z"/>
	<path class="st22" d="M179.1,27.2c1.9-0.7,4-0.9,6-0.8c0.8,0,1.5,0,2.3,0.2c1.9,0.6,3.2,2.6,4.1,4.5c-0.5,0.1-1-0.1-1.3-0.5
		c-0.4-0.3-0.7-0.7-1-1.2c-1.5-1.7-3.9-1.9-6.1-1.9c-0.5,0-0.9,0-1.4,0.1s-0.9,0.5-1.3,0.8c-0.9,0.7-1.8,1.5-2.6,2.3
		c-0.4,0.3-0.8,0.7-1.2,0.9c-1.9,0.9-1.1-1.4-0.5-2.3C176.9,28.4,178,27.6,179.1,27.2z"/>
	<path class="st22" d="M178.8,67.1c1.4,0,2.7-0.4,3.8-1.3c-0.4,0.4-3.5,0.1-4.2,0.1c-1.5,0-3.1,0.1-4.6,0.1c-1,0-8.1-0.3-8.1,0.3
		C169.6,67.6,174.7,67.5,178.8,67.1z"/>
	<circle class="st22" cx="193.9" cy="36.2" r="0.4"/>
	<path class="st23" d="M178.4,51.2c2.1,1.1,3.9,2.5,5.4,4.3c1.5,1.7,2.4,3.9,2.5,6.2"/>
	<path class="st23" d="M165.4,51.4c-3,2.2-5.3,5.4-6.4,9"/>
	<path class="st22" d="M155,39.8c0.9,0.7,1.9,1.3,3,1.7c0.9,0.3,1.8,0.4,2.7,0.5c1.3,0.1,2.6,0.1,3.8-0.2s2.4-0.8,3.3-1.7"/>
	<path class="st22" d="M177,40.6c1.5,1.5,3.4,2.4,5.4,2.7s4.1,0.1,6-0.8"/>
	<path class="st15" d="M202.3,42.4L202.3,42.4c-0.8,0.6-1.7,0.8-2.6,0.8l0,0c-0.1-0.3-0.1-0.6-0.1-0.9c0,0.3-0.1,0.6-0.1,0.9l0,0
		c-0.5,0-1-0.1-1.5-0.4c-0.9-0.4-1.5-2.4-2.7-6.3c-0.4-1-0.6-2.1-0.5-3.2c0.3-1.8,1.5-2.9,1.1-3.2c-0.3-0.3-1.3,0.6-2.6,0
		c-0.5-0.2-0.8-0.7-1-1.2c-0.1-0.8,0.8-1.2,0.6-1.7c-0.2-0.4-1.1,0-1.7-0.7c-0.4-0.4-0.3-1.1-0.3-2c0-0.6,0.1-1,0.2-1.5
		c0.1-0.3,0.2-0.7,0.2-1c0.4-1.5,2.1-2.2,1.9-2.8c-0.2-1-5.8-0.2-6.1-1.4c-0.1-0.7,1.2-1.5,1.1-1.7c-0.1-0.1-3.5,2.3-3.9,1.9
		c-0.4-0.4,1.1-2,0.9-2.2c-0.2-0.2-3.2,2.1-3.6,1.7c-0.4-0.4,0.6-1.4,0.4-1.7c-0.4-0.3-3.8,3.1-4.1,2.9c-0.3-0.2,1.7-2.3,1.3-2.6
		c-0.3-0.3-1.1,0.6-1.6,0.8c-3.4,2.3-8.2,3.5-9,2.4c-0.4-0.6,0.5-1.7,0.1-2.1c-0.8-0.9-4.9,3.6-7.7,2.4c-0.9-0.4-0.9-1.8-2.7-2.9
		c-0.1,0-0.1-0.1-0.2-0.1c0.2-0.2,0.4-0.3,0.6-0.6l0,0c0.6,0.1,1.1,0.2,1.8,0.1c0-0.1-0.4-0.4-0.9-0.8c-0.2-0.1-0.5-0.2-0.8-0.2
		c-2.2-0.4-4.1,1.2-4.4,1c-0.2-0.2,2.8-2.2,2.6-3s-4,0-4.1-0.2c-0.1-0.2,10.8-3,10.6-4.1c0-0.2-0.4-0.4-1-0.9
		c-0.6-0.4-0.9-0.6-0.8-0.6c1.8,0.7,3.5,1.1,5.3,1.4c1.5,0.1,3.1,0.1,3.1-0.2s-3.4-0.9-3.3-1.4c0.1-0.9,9.9-0.9,11.8-0.7
		c0.6,0.1,1.1,0.2,1.8,0.2h2.1c0.7,0,0.8-0.2,1.3-0.2c0.3,0,0.6,0.1,0.9,0.2l2.4,0.8c2.4,1,2.6,0.3,4.1,1.2c1.3,0.8,2,1.7,2.7,1.4
		c0.4-0.2,0.6-0.7,0.9-0.7c0.5,0.1,0.6,1,1.1,1c0.5,0,0.8-0.9,1.1-0.8c0.3,0.1,0.3,0.9,0.8,1.7c0.3,0.7,0.9,1.1,1.6,1.3
		c3.4,2.9,5.7,7,6.3,11.7c0.3,3.7-1,6.9,0.6,8.8c0.1,0.1,0.8,0.9,0.8,1.3l0,0v0.2c-0.2,0.4-1.1,0.2-1.2,0.6
		c-0.1,0.3,0.8,0.8,0.7,1.1c-0.1,0.3-0.7,0.1-0.9,0.4s0.5,0.8,0.4,1.2c-0.1,0.4-0.4,0.4-0.7,0.6c-0.3,0.1-0.6,0.1-0.8,0.2
		c-0.4,0.3-0.2,0.9-0.5,1.1c-0.3,0.2-0.7,0-1.1-0.2c-0.4-0.2-0.6-0.3-0.7-0.1c-0.1,0.2,0.4,0.9,0.2,1.5
		C202.7,42.1,202.5,42.3,202.3,42.4z"/>
</g>
</svg>
