<?xml version="1.0" encoding="utf-8"?>
<!-- Generator: Adobe Illustrator 21.1.0, SVG Export Plug-In . SVG Version: 6.00 Build 0)  -->
<svg version="1.1" id="Layer_1" xmlns="http://www.w3.org/2000/svg" xmlns:xlink="http://www.w3.org/1999/xlink" x="0px" y="0px"
	 viewBox="0 0 242 208" style="enable-background:new 0 0 242 208;" xml:space="preserve">
<style type="text/css">
	.st0{fill:#FFE0BD;}
	.st1{fill:none;stroke:#BF934C;stroke-width:4;stroke-miterlimit:10;}
	.st2{fill:#B8D6E0;}
	.st3{fill:none;stroke:#000000;stroke-width:3;stroke-miterlimit:10;}
	.st4{fill:#39B54A;}
	.st5{fill:#603813;}
	.st6{fill:#132859;}
	.st7{fill:#FFFFFF;}
	.st8{fill:none;stroke:#CC4A2B;stroke-width:0.25;stroke-miterlimit:10;}
	.st9{fill:#E5BBAC;}
	.st10{fill:#EFA08B;}
	.st11{fill:#E5907F;}
	.st12{fill:none;}
	.st13{fill:none;stroke:#E5BBAC;stroke-width:0.25;stroke-miterlimit:10;}
	.st14{fill:none;stroke:#F9D5C5;stroke-width:0.25;stroke-miterlimit:10;}
	.st15{fill:#CC4A2B;}
	.st16{fill:#070707;}
</style>
<g id="arm">
	<path class="st0" d="M131.1,120.5l0.6-0.7c0.8-1.2,0.7-2.4-0.5-2.8l-30-8.7c-1.3-0.5-3.2,0.2-4.3,1.4l-0.6,0.7
		c-0.8,1.2-0.7,2.4,0.5,2.8l30,8.7C128,122.2,129.9,121.6,131.1,120.5L131.1,120.5z"/>
	<path class="st0" d="M99,106.4c-1.5-1.5-4.4-1.5-6.6,0.2c-2.2,1.6-2.5,4.3-1,5.8c1.4,1.5,4.4,1.5,6.6-0.2
		C100.1,110.3,100.5,107.9,99,106.4z"/>
	<path class="st0" d="M100.2,106.5c-0.6-1.6-2.2-3-3.5-3s-1.7,1.4-1,3.1c0.6,1.6,2.2,3,3.5,3C100.4,109.6,100.7,108.2,100.2,106.5z"
		/>
	<line class="st1" x1="61.3" y1="42.1" x2="99.2" y2="121.9"/>
	<polygon class="st2" points="14.4,61.6 98.5,27.6 92.3,2.9 8.3,36.9 	"/>
	<path class="st3" d="M23.8,36.6c1.4,3.6,2.5,7.2,3.5,11c2.8-1.2,5.6-2.2,8.3-3.4"/>
	<path class="st3" d="M59.2,37c-1.7-3.8-3.1-7.8-4.3-11.9c-0.1-0.2-0.1-0.5,0-0.5c3.9,3.1,7.7,5.9,11.6,9"/>
	<path class="st3" d="M62.3,21.4c1.5,4.3,3.2,8.7,4.9,13"/>
	<path class="st3" d="M73.9,13.9c2.2,5,4,10,5.8,15"/>
	<path class="st3" d="M82.2,12.2c-1.3,2.8-2.6,5.5-3.9,8.3c0.8,0,1.3,0.5,2.1,1c3.1,1.4,6.2,2.5,9.3,3.8"/>
	<path class="st3" d="M40.6,30.6c1.9,3.7,3.5,7.7,4.8,11.8"/>
	<path class="st0" d="M91.5,109.8c-1.3,0.5-2.2,1.2-2.2,1.7s1.2,0.5,2.3,0.2c1.3-0.5,2.2-1.2,2.2-1.7
		C93.7,109.3,92.8,109.3,91.5,109.8z"/>
	<path class="st0" d="M88.8,106.7c-0.8,0.5-1.5,1.4-1.3,2c0.1,0.5,1.2,0.5,2.1-0.2c0.8-0.5,1.5-1.4,1.3-2
		C90.8,106.2,89.7,106.4,88.8,106.7z"/>
	<path class="st0" d="M90.4,108.2c-1.4,0.5-2.3,1.4-2.3,2c0.1,0.5,1.2,0.7,2.5,0.2c1.4-0.5,2.3-1.4,2.3-2
		C92.9,107.9,91.7,107.7,90.4,108.2z"/>
	<path class="st0" d="M92.3,111.7c-1.4,0-2.6,0.4-3,1c-0.3,0.5,0.6,1,2.1,1c1.4,0,2.6-0.4,3-1C94.6,112.1,93.7,111.7,92.3,111.7z"/>
	<path class="st0" d="M94.1,103.8c-1.5,0.5-2.6,1.4-2.6,2.1c0.1,0.6,1.5,0.7,3.1,0.4c1.5-0.5,2.6-1.4,2.6-2.1
		C97.2,103.5,95.7,103.4,94.1,103.8z"/>
	
		<animateTransform  accumulate="none" additive="replace" attributeName="transform" attributeType="XML" calcMode="linear" dur="3s" fill="remove" repeatCount="indefinite" restart="always" type="translate" values="2,0;0;2,0">
		</animateTransform>
</g>
<g id="body">
	<g id="right_hand">
		<path class="st0" d="M165.5,161c-0.5-0.4-0.8-0.9-1.1-1.6c-0.9-2.1-0.5-4.6,1-5.6c1.5-0.9,3.5,0,4.4,2.1s0.5,4.6-1,5.6
			c-0.5,0.3-1.1,0.4-1.6,0.3"/>
		<g>
			<path class="st0" d="M163.9,157c0,0-0.1,0.2-0.3,0.5c-0.2,0.2-0.4,0.8-0.5,1.3s-0.2,1-0.1,1.3s0.2,0.9,0.4,1.4c0,0,0,0,0.1,0.1
				s0.1,0.1,0.1,0.1c0.2,0.6,0.4,1.2,0.6,1.4c0.2,0.1,0.4,0.2,0.5,0.1c0.1-0.1,0.3-0.2,0.4-0.3c0.1-0.1,0.2-0.2,0.3-0.4s0-0.5,0-0.6
				s-0.3-0.7-0.3-0.8c0-0.2,0-0.4,0-0.6c0.1-0.2,0.2-0.4,0.4-0.6c0.1-0.2,0.3-0.4,0.4-0.5c0.1-0.1,0.2-0.3,0.4-0.4
				c0.1-0.1,0.2-0.4,0.2-0.5s0.1-0.3,0.1-0.4c0-0.1,0-0.2,0.1-0.3"/>
		</g>
		<polyline class="st0" points="165,160.4 165.8,162.3 166.6,164 167.6,166.3 168,167.1 169.1,167.5 169.4,167.3 169.4,166.9 
			169.3,166.1 168.9,165.3 168.4,164.2 168,163.3 167.4,162 		"/>
		<polyline class="st0" points="167.7,161.8 169.7,166.5 170.2,167.5 171,167.4 171.3,167.3 171.3,166.6 169,161 		"/>
		<polyline class="st0" points="169.4,161.1 171.4,165.7 172.1,166.1 172.5,165.8 172.7,165.3 169.9,158.9 		"/>
		<polyline class="st0" points="170.2,158.9 171,160.1 172.1,161.2 172.5,160.7 172.3,160.2 170,156.5 		"/>
	</g>
	<ellipse class="st0" cx="166.2" cy="139.5" rx="2.7" ry="20.4"/>
	<ellipse class="st4" cx="161.3" cy="118.5" rx="6.5" ry="9.1"/>
	<g>
		<path class="st5" d="M133.9,202.9c0.1,2.3,4,3.5,8.6,3.1c3.1-0.6,6.6-1,6.9-3.1c0.1-0.7,0.1-1.4,0-2.3c-0.1-0.7-0.3-1.6-0.7-2.3
			c-0.8-1.6-3.4-1.9-6.9-0.7C139.3,198.1,133.8,200.7,133.9,202.9z"/>
		<path class="st5" d="M169.8,204.8c-0.1,2.3-4.4,3.5-9.6,3.1c-3.5-0.6-7.4-1-7.8-3.1c-0.1-0.7-0.1-1.4,0-2.3
			c0.1-0.7,0.4-1.6,0.8-2.3c0.8-1.6,3.7-1.9,7.6-0.7C163.8,200.4,170,202.7,169.8,204.8z"/>
		<g id="_Group_">
			<path class="st6" d="M141.5,164.3c-2.4-2.8-3.9-7-3.9-11.2c0-9.1,6-16.3,13.5-16.3c7.4,0,13.5,7.4,13.5,16.3
				c0,5.1-1.7,9.5-4.6,12.4v34.8h-6.1v-31c-0.8,0.2-1.7,0.2-2.5,0.2c-0.7,0-1.4,0-2.1-0.2V198h-7.6v-33.6L141.5,164.3L141.5,164.3z"
				/>
		</g>
	</g>
	<path class="st4" d="M161.5,157.4c-4.4-0.6-9-1-13.3-1.7c-4.2-2.2-7-1.9-8.8-1.3c-1,0.3-2.2,1-2.8,0.5c-0.7-0.6-0.5-2.4,0-4
		c0.1-1.7,0.4-3.6,0.5-5.2c0-0.5,0.1-1.3,0.4-2.4c0.5-3.3,0.5-4,0.7-6.1c0.1-1.3,0.4-2.2,0.5-3c0.1-1.3,0.4-1.9,0.5-2.8
		c0.1-0.9,0.1-1.4,0.4-2.1c0.4-1.9,0.6-3,0.5-3.6c0,0-0.1-0.3,0-0.6c0-0.1,0.1-0.3,0.1-0.3c0.5-3,0-5.4-0.4-7.6
		c-0.4-1.4-0.5-3-0.5-4.3c0-0.3-0.1-0.9,0.4-1.5c0.5-0.8,1.5-1.3,2.4-1c0.7,0,1.6-0.1,2.4-0.1c2,0,3.7,0.3,5.2,0.6
		c1.1-0.6,3-1.5,5.5-1.9c1.1-0.1,2,0,2.8,0.1c0.5-0.1,1.1-0.3,2-0.1c0.7,0,1.6,0.1,2.2,0.8c0.5,0.5,0.4,0.6,0.9,3.1
		c0.4,1,0.5,1.9,0.5,2.1c1.1,5.4,2.4,10.6,3.1,16c0.1,0.9,0.1,1.7,0.1,1.7c0.1,1.7,0.4,3.4,0.5,5.4c0.1,2.4,0.4,7.5,0.5,14
		c0.7,2.4-0.1,4.6-1.8,5.4C163.4,158.4,161.7,157.6,161.5,157.4z"/>
	<g>
		<g>
			<path class="st7" d="M141.8,121.7c0.1,0.9,0,2.1-0.4,2.9c-0.4,0.9-0.6,2-1.2,2.7c0,0.3-0.4,0.5-0.4,0.8c0.1,0.5,0.7,0.8,0.9,1.4
				c0.1,0.3,0.5,0.5,0.7,0.5c0.9-0.3,0.7-0.7,1.7-0.9c2.2-0.8,5.2-0.8,7.7-0.8c2.4-0.1,5.8,0.5,8.1-0.3c2.8-1.3,2.7-7,2-9.1
				c0-0.1-0.1-0.3-0.5-0.5c-2.4-0.5-5.2-0.1-7.9,0c-1.2,0-1.5,0-2.2,0.1c-0.4,0-0.5,0.5-0.7,0.7c-2.4,0.8-5.8-1.7-7.9,0.7
				c-0.1,0.1-0.1,0.3-0.1,0.5c0.1,0.3,0.1,0.5,0.4,0.7c0.4,0.5,1.5,0.5,1-0.3c-1-2.5,4.6,0.3,4.6,0.3c1.2,0.3,1.2-0.1,2.2-0.5
				c0.4-0.1,0.6-0.8,0.6-0.8c1.2-0.5,3.6-0.5,4.8-0.5s3.6-0.5,4.2,1.3c0.1,0.3,0,3.3-0.1,3.5c-2.4,5.5-12.1,0.9-16.6,3.4
				c-1.6,0.7-1.5,2.2-1.5,0c-0.1-2.1,1.2-4,1.2-6.3C142.9,121.1,141.8,121.1,141.8,121.7L141.8,121.7z"/>
		</g>
	</g>
	<g>
		<g>
			<path class="st7" d="M144.8,122.6c-0.4,1.3,0.4,2.4,1.7,2.1c0.7-0.1,0.5-1.3-0.4-0.9c-0.4-0.1-0.5-0.5-0.4-0.7
				C146.1,122.1,144.9,121.9,144.8,122.6L144.8,122.6z"/>
		</g>
	</g>
	<g>
		<g>
			<path class="st7" d="M152.5,122.5c0-0.5,0-0.8,0.1-1.4c-0.4,0.1-0.6,0.1-0.9,0.3c0.5,0.5,0.9,0.7,1.5,1.3
				c0.4,0.1,0.7,0.3,0.9-0.1c0.1-0.5,0.4-0.8,0.5-1.4c-0.4,0.1-0.6,0.1-0.9,0.3c0.4,0.1,0.5,0.5,0.6,0.7c0.1,0.7,1.2,0.5,1-0.3
				c-0.1-0.5-0.6-1.3-1.2-1.4c-0.4-0.1-0.7,0-0.9,0.3c0,0.5-0.1,0.7-0.4,0.9c0.4,0,0.6-0.1,0.9-0.1c-0.5-0.5-0.9-0.7-1.5-1.3
				c-0.4-0.3-0.7-0.1-0.9,0.3c-0.1,0.5-0.4,0.9-0.1,1.7C151.5,123.3,152.8,123.3,152.5,122.5L152.5,122.5z"/>
		</g>
	</g>
	<g>
		<g>
			<path class="st7" d="M155.7,123.7c0.4,0,0.5,0,0.7,0c0.7,0.1,1-0.8,0.4-0.9c-0.4-0.1-0.6-0.1-1-0.1
				C155.1,122.6,155.1,123.8,155.7,123.7L155.7,123.7z"/>
		</g>
	</g>
	<g>
		<g>
			<path class="st7" d="M147.7,127.1c0-0.3,0-0.5-0.1-0.7c0-0.3,0-0.5-0.4-0.3c-0.5,0.3-0.4,0.8,0.1,0.9c0.4,0.1,0.5,0.3,0.6,0.5
				c0.5,0.5,1.5,0,0.9-0.5c-0.4-0.5-0.7-0.7-1.5-0.8C147.7,126.4,147.7,126.7,147.7,127.1c0.5-0.3,0.9-0.5,0.9-1.3
				c0-0.5-0.5-0.8-0.9-0.9s-1,0.1-1.2,0.5c-0.4,0.5,0,1.3,0,1.8S147.7,127.9,147.7,127.1L147.7,127.1z"/>
		</g>
	</g>
	<g>
		<g>
			<path class="st7" d="M149.8,125.5c-0.7,0-1.5,0.5-1,1.4c0.1,0.5,1,0.9,1.7,0.8C152,127.1,151.2,124.7,149.8,125.5
				c-0.7,0.1-0.5,1.4,0.1,0.9h-0.1C150.5,126.4,150.5,125.5,149.8,125.5L149.8,125.5z"/>
		</g>
	</g>
	<g>
		<g>
			<path class="st7" d="M155,125c-0.9-0.5-2.2-0.1-2.2,0.9c0,0.9,1.6,1.4,2.2,0.8c0.6-0.5,0-1.4-0.6-0.8c-0.1,0.1-0.4,0.1-0.5,0
				s0.4,0,0.4,0C155.1,126.4,155.6,125.5,155,125L155,125z"/>
		</g>
	</g>
	<g>
		<g>
			<path class="st7" d="M155.7,126.2c0.4,0.1,0.5,0.3,0.5,0.5c0.4,0.5,1.5,0.3,1-0.3c-0.4-0.5-0.6-0.8-1-1.3
				S155.1,125.8,155.7,126.2L155.7,126.2z"/>
		</g>
	</g>
	<path class="st4" d="M141.6,121.4l-10.2,2.7c-3.2,0.8-6.6-0.9-7.6-4.2l0,0c-0.9-3.2,0.9-6.4,4.3-7.3l10.2-2.7
		c3.2-0.8,6.6,0.9,7.6,4.2l0,0C146.7,117.1,144.9,120.5,141.6,121.4z"/>
	<g>
		<g>
			<path class="st7" d="M152.4,128.7c-0.5,0.1-0.6,0.5-0.4,0.9c0.5,0.5,0.9,0.3,1.6,0.1c0.4,0,0.6,0.1,0.9,0.1
				c0.4,0,0.7-0.1,1.2-0.1c1.2,0,2.5,0,4-0.1c0.7,0,0.7-1.3,0-1.3c-1.6,0.1-3,0-4.4,0.1c-0.4,0-0.4,0.1-0.6,0.1
				c-0.1,0-0.4-0.1-0.5-0.1s-0.5,0-0.6,0c-0.5,0.1-0.1,0.1-0.4,0.5c-0.1,0.1-0.1,0.3-0.4,0.5h0.1C153.6,129.3,153,128.4,152.4,128.7
				L152.4,128.7z"/>
		</g>
	</g>
	<g>
		<g>
			<path class="st7" d="M148.5,122c0,0.5,0,0.8,0,1.4c0,0.7,1.2,0.7,1.2,0c0-0.5,0-0.8,0-1.4C149.8,121.3,148.5,121.3,148.5,122
				L148.5,122z"/>
		</g>
	</g>
	<g>
		<g>
			<path class="st7" d="M157.1,122.1c0.6,0.1,1,0.1,1.7,0.1s0.7-1.3,0-1.3c-0.5,0-0.9,0-1.5-0.1C156.7,121.1,156.5,122,157.1,122.1
				L157.1,122.1z"/>
		</g>
	</g>
	<g>
		<g>
			<path class="st7" d="M156.7,121.9c0.1,0.8,0.5,2.5,1.8,2c0.6-0.3,0.4-1.4-0.4-0.9c-0.1,0-0.5-0.9-0.5-1.3
				C157.6,121.1,156.6,121.3,156.7,121.9L156.7,121.9z"/>
		</g>
	</g>
	<g>
		<g>
			<path class="st7" d="M156.6,124.6c0.1,0.5,0.4,0.7,0.1,1.3c0,0.7,1,0.7,1.2,0c0-0.5,0-1.3-0.4-1.8
				C157.3,123.5,156.3,124.1,156.6,124.6L156.6,124.6z"/>
		</g>
	</g>
	<g>
		<g>
			<path class="st7" d="M157.9,125.5c0.1-0.3,0.5-0.5,0.7-0.5c0.6-0.5,0-1.4-0.6-0.8c-0.4,0.3-0.6,0.5-0.9,0.7
				C156.6,125.3,157.5,126,157.9,125.5L157.9,125.5z"/>
		</g>
	</g>
</g>
<g id="head">
	<path class="st8" d="M152,96.9c-0.7,0-1.5,0-2.2,0c-0.6,0-4.4-0.1-5.5,0"/>
	<path class="st0" d="M170.9,80.2c0.1,0.1,0.5,0.1,0.7,0.1c0.1-0.1,0-0.5,0.4-0.5c0.1-0.1,0.1,0,0.6-0.1c0.1,0,0.5-0.1,0.5-0.3
		c0-0.1-0.4-0.5-0.4-0.5c0-0.1,0.6-0.1,0.6-0.1s-0.6-0.5-0.5-0.5c0-0.1,0.7-0.1,0.7-0.3v-0.1c0.4,0.3,0.6,0.5,0.7,0.9
		c0.1,0.3,0.4,0.5,0.5,0.9c0.1,0.3,0.1,0.5,0,0.9c-0.1,0.5-0.6,0.5-1,1.4c-0.4,0.5-0.5,0.9-0.5,1.4c0,0.7,0,0.9-0.1,1.4
		c-0.4,0.5-0.9,0.5-1.6,0.5l0,0c-0.5-1.3-0.9-2.2-1.6-3.4l0,0c0.1,0,0.4-0.1,0.4-0.3c0-0.3-0.4-0.5-0.1-0.7
		C170.3,80,170.8,80,170.9,80.2z"/>
	<path class="st5" d="M131.7,87L131.7,87c0-0.1,0-0.3,0.1-0.5c-0.1,1.7,0.1,3.3,1,4.6c0.5,0.9,1.5,1.8,2.2,2.2
		c1.7,0.7,3.8,0.9,5.7,0.1c2.2-0.7,2.2-2.4,4.2-2.4h0.6c0.1,0,0.1,0,0.4,0c0.7,0.3,1.7,0.5,2.4,0.5c1.5,0,2-0.5,3-0.5
		c3.6-0.5,5.2,3.3,9.1,3.3c3.1-0.1,5.5-2.7,6.4-4.2c0.7-1.4,1-2.7,1.2-4c0-1.3,0-1.4,0-2.4c0-0.7,0.1-1.4,0.4-2.2h0.1
		c0.6,0,1.2-0.1,1.7-0.5c0.6,1.3,1,2.2,1.6,3.4l0,0c1.5,4,2,10-1.2,15.7c-3.4,5.4-11.1,12-21.4,11.1c-11.5-0.9-16.8-11-16.9-11.6
		C130.9,95,130.6,90.8,131.7,87z"/>
	<path class="st5" d="M168.4,81.3c0,0.1,0,0.3,0,0.5h-0.1C168.3,81.6,168.3,81.4,168.4,81.3z"/>
	<path class="st0" d="M168.3,82.3c-0.1,0.7-0.1,1.7-0.4,2.2c0,1.3,0,1.4,0,2.4c0,1.4-0.5,2.7-1.2,4c-0.7,1.4-3.4,4.2-6.4,4.2
		c-3.8,0.1-5.7-3.9-9.1-3.3c-0.9,0.1-1.6,0.5-3,0.5c-0.7,0-1.7-0.1-2.4-0.5c0.7,0.1,1.7,0,2.4-0.5c0.7-0.3,1.5-0.9,2.2-0.9
		s1.7,0.7,2.7,0.5c0.6-0.3,0.5-1.3,0-1.7c-0.5-0.5-0.9-0.9-1.6-1.4c-0.9-0.9-1.5-2.1-1.5-3.4s0.1-2.4,0-3.5
		c-0.1-1.2-0.5-2.1-0.9-3.1c-0.9-2.2-1.5,0.7-1.6,1.7c-0.4,1.4-0.6,2.9-1.2,4.6c-0.6,1.8-1.5,3.5-2.2,5.2c-0.1,0.5-0.5,1.4,0,1.8
		c0.1,0.1,0.6,0.5,0.9,0.5h0.1c-1.8,0.1-1.8,1.7-4.2,2.4c-1.8,0.5-4,0.5-5.7-0.1c-1-0.5-1.8-1.4-2.2-2.2c-0.9-1.4-1.2-2.9-1-4.6
		c0,0,0,0.1-0.1,0.5c0-0.9,0.4-1.8,0.7-2.7c0.4-0.5,0.6-0.9,1-1.4c0.1-0.1,0.4-0.3,0.5-0.5l0.4-0.1l0,0c1.5-1.3,2-3.9,2-3.9
		c0.1-0.3,0.1-0.5,0.1-1.3c-0.4-0.5-0.7-0.7-0.7-1.7l0,0c0.1-2.2,0.9-4.3,2.2-6.1c0.6-0.7,1.5-1.4,2.2-2.1c0,0,0,0,0.1,0
		c1.2,0.5,1.2,1.4,1.8,1.7c1.8,0.5,4.7-1.8,5.2-1.4c0.4,0.1-0.4,0.7,0,1.3c0.6,0.5,4,0,6.3-1.4c0.4-0.1,0.9-0.5,1-0.5
		c0.1,0.1-1,1.4-0.9,1.4c0.1,0.1,2.4-1.8,2.8-1.7c0.1,0.1-0.5,0.5-0.4,0.9c0.4,0.1,2.2-1.3,2.4-0.9c0.4,0.1-0.7,0.9-0.6,1.3
		c0.4,0.1,2.4-1.3,2.7-0.9c0.1,0.1,0.1,0.3-0.7,0.9c-0.7,0.7,4.1,0.1,4.2,0.7c0,0.3,2.2-0.3-0.4,1.4c0.9,0.1,0,0.1-1,0.5
		c2.5,0.1-0.5,0.7-0.1,0.7c1.6,0.1,0,0.7,0.1,1.3c0.4,0.1,0.9,0.1,1,0.3c0.1,0.2,1,2.5-0.5,0.9c-0.1-0.3,0.5,0.5,0.7,0.5
		c0.7,0.3,1.6-0.1,1.7,0c0.4,0.1,1.2,0.9-0.7,1.8c0,0.5,0.5,1.2,0.4,1.8c0.7,2.1,1.2,3.1,1.8,3.4C167.8,81.9,168.1,81.9,168.3,82.3z
		 M164.6,79.7c0-0.1-0.1-0.1-0.4-0.1s-0.4,0.1-0.4,0.1c0,0.1,0.1,0.1,0.4,0.1S164.6,79.7,164.6,79.7L164.6,79.7L164.6,79.7
		L164.6,79.7z M161.5,75.9C161.5,76.1,161.7,76.1,161.5,75.9c0.5,0.3,0.7,0.5,1,0.3c-0.6-0.9-1.6-2.1-3-2.2c-0.5,0-0.9,0-1.5,0
		 M162.5,80.2c0-1.7-2.2-2.7-5-2.7c-2.7,0-5,1.4-5,2.7c0,1.7,2.2,2.7,5,2.7C160.3,83,162.5,81.6,162.5,80.2L162.5,80.2z M146.2,79.7
		c0-1.7-2.2-2.7-5-2.7s-5,1.4-5,2.7c0,1.4,2.2,2.7,5,2.7C143.9,82.6,146.2,81.3,146.2,79.7z"/>
	<ellipse cx="164.4" cy="79.7" rx="0.4" ry="0.1"/>
	<path d="M163,77.7c-0.4,0-0.7-0.1-0.9-0.3c-0.4-0.3-0.5-0.5-0.6-0.9c-0.9-1.7-2.7-1.8-4.4-2.1c-0.4,0-0.6-0.1-0.9-0.1
		s-0.6,0.1-1,0.5c-0.7,0.5-1.6,0.9-2.2,1.4c-0.4,0.1-0.7,0.5-0.9,0.5c-1.5,0.5-0.6-0.9-0.1-1.8c0.7-0.8,1.6-1.4,2.5-1.7
		c1.6-0.3,3-0.3,4.4-0.1c0.6,0.1,1,0.1,1.6,0.5C161.7,74.5,162.7,75.9,163,77.7z"/>
	<path class="st9" d="M157.5,76.8c2.8,0,4.8,1.4,5,2.7c0.4,2.2-2.7,3.4-5.3,3.3c-3.7-0.5-4.8-1.2-4.7-3.3
		C152.5,78.3,154.6,76.8,157.5,76.8z M162.3,79.3c0-1.3-2.2-2-4.7-2c-2.4,0-4.7,0.9-4.7,2c0,1.3,2.2,2,4.7,2
		C159.9,81.3,162.3,80.6,162.3,79.3z"/>
	<path class="st7" d="M157.5,77.6c2.7,0,4.7,0.9,4.7,2c0,0.9-2.2,2-4.7,2c-2.4,0-4.7-0.9-4.7-2C152.8,78.4,155,77.6,157.5,77.6z"/>
	<path class="st10" d="M153.4,89.2c0.5,0.5,0.5,1.3,0,1.8c-0.9,0.1-2-0.7-2.8-0.7c-1,0-1.7,0.7-2.4,0.9c-0.9,0.5-2,0.5-2.7,0.5
		c-0.1,0-0.1,0-0.4,0l0,0c-0.4,0-0.7-0.1-1-0.5c-0.5-0.5-0.1-1.3,0-2c0.9-2,1.7-3.8,2.4-5.5c0.5-1.7,1-3.1,1.5-4.8
		c0.1-0.8,0.7-4.2,1.7-1.8c0.5,0.9,0.9,2.2,1,3.3c0.1,1.3,0,2.6,0,3.9s0.5,2.6,1.6,3.8C152.3,88.3,152.8,89,153.4,89.2z M149.1,90.3
		C149.1,90.2,148.9,90.2,149.1,90.3c-0.1-0.1-0.4,0-0.4,0S148.8,90.3,149.1,90.3L149.1,90.3C148.9,90.3,149.1,90.3,149.1,90.3
		L149.1,90.3z M148.5,89.2C148.5,89.2,148.5,89.1,148.5,89.2c-0.2-0.1-0.2-0.1-0.2,0C148.3,89.2,148.3,89.2,148.5,89.2L148.5,89.2
		L148.5,89.2z M147.5,87.8c0-0.1-0.1-0.1-0.4-0.1s-0.4,0.1-0.4,0.1c0,0.1,0.1,0.1,0.4,0.1S147.5,87.9,147.5,87.8L147.5,87.8z
		 M147.5,89.8C147.5,89.7,147.5,89.7,147.5,89.8c-0.2-0.1-0.2-0.1-0.2,0S147.3,89.9,147.5,89.8L147.5,89.8L147.5,89.8L147.5,89.8z
		 M147.1,90.8C147.1,90.7,147.1,90.7,147.1,90.8c-0.2-0.1-0.2-0.1-0.2,0l0,0l0,0c-0.1,0-0.1,0-0.1,0.1s0,0.1,0.1,0.1
		S147,91,147.1,90.8L147.1,90.8L147.1,90.8L147.1,90.8C147.1,90.9,147.1,90.8,147.1,90.8L147.1,90.8z M146.5,90.5
		C146.5,90.5,146.4,90.3,146.5,90.5c-0.1-0.1-0.4,0-0.4,0S146.4,90.8,146.5,90.5L146.5,90.5C146.4,90.8,146.5,90.5,146.5,90.5
		L146.5,90.5z M146.4,91.7L146.4,91.7C146.4,91.5,146.4,91.5,146.4,91.7L146.4,91.7L146.4,91.7C146.2,91.7,146.4,91.7,146.4,91.7
		L146.4,91.7L146.4,91.7z M146.4,89.2C146.4,89.2,146.4,89.1,146.4,89.2c-0.1-0.1-0.4,0-0.4,0S146.2,89.2,146.4,89.2L146.4,89.2
		L146.4,89.2L146.4,89.2z M146.2,90.2C146.2,90.1,146.2,90.1,146.2,90.2c-0.1-0.1-0.4,0-0.4,0S146.1,90.3,146.2,90.2L146.2,90.2
		L146.2,90.2L146.2,90.2z M145.5,88.3L145.5,88.3C145.5,88.2,145.5,88.2,145.5,88.3L145.5,88.3L145.5,88.3
		C145.5,88.2,145.5,88.3,145.5,88.3L145.5,88.3z M145.5,87.3L145.5,87.3C145.5,87.3,145.2,87.3,145.5,87.3
		C145.4,87.4,145.4,87.4,145.5,87.3C145.9,87.7,145.5,87.7,145.5,87.3L145.5,87.3z M145.5,91.1L145.5,91.1c-0.1-0.1-0.4,0-0.4,0
		C145,91.2,145.2,91.2,145.5,91.1L145.5,91.1C145.5,91.2,145.5,91.2,145.5,91.1L145.5,91.1z M145.2,89.8
		C145.2,89.8,145.2,89.6,145.2,89.8c-0.1-0.1-0.4,0-0.4,0C144.9,89.9,145,89.9,145.2,89.8L145.2,89.8
		C145.2,89.9,145.2,89.9,145.2,89.8L145.2,89.8z M145.2,88.8L145.2,88.8c-0.2,0-0.2,0-0.2,0H145.2L145.2,88.8L145.2,88.8z
		 M144.9,87.9C144.9,87.9,144.9,87.8,144.9,87.9L144.9,87.9L144.9,87.9c-0.2-0.1-0.2-0.1-0.2,0S144.8,88,144.9,87.9
		C144.9,88.2,144.9,87.9,144.9,87.9z M144.9,91.5C144.9,91.5,144.9,91.4,144.9,91.5L144.9,91.5L144.9,91.5c-0.2-0.1-0.2-0.1-0.2,0
		S144.8,91.6,144.9,91.5C144.9,91.7,144.9,91.5,144.9,91.5z M144.7,89C144.7,89,144.5,89,144.7,89c-0.1-0.1-0.4,0-0.4,0
		C144.3,89.1,144.3,89.1,144.7,89L144.7,89C144.5,89.1,144.7,89.1,144.7,89L144.7,89z M144.7,90.8C144.7,90.8,144.5,90.5,144.7,90.8
		c-0.1-0.1-0.4,0-0.4,0S144.3,90.9,144.7,90.8L144.7,90.8C144.5,90.9,144.7,90.8,144.7,90.8L144.7,90.8z M144.5,90.1
		C144.5,90,144.5,90,144.5,90.1L144.5,90.1c-0.1-0.1-0.2-0.1-0.2,0l0,0l0,0c0,0.1,0.1,0.1,0.4,0.1C144.5,90.2,144.5,90.1,144.5,90.1
		L144.5,90.1L144.5,90.1z M144.5,89.6C144.5,89.6,144.3,89.6,144.5,89.6c-0.1-0.1-0.4,0-0.4,0C144.1,89.8,144.1,89.8,144.5,89.6
		L144.5,89.6C144.5,89.8,144.5,89.8,144.5,89.6L144.5,89.6z M144.5,91.1C144.5,91.1,144.3,91.1,144.5,91.1c-0.1-0.1-0.4,0-0.4,0
		C144.1,91.2,144.1,91.2,144.5,91.1L144.5,91.1C144.5,91.2,144.5,91.2,144.5,91.1L144.5,91.1z M144.5,90.3L144.5,90.3
		c-0.2,0-0.2,0-0.2,0S144.3,90.3,144.5,90.3L144.5,90.3z M143.9,90.8C143.9,90.8,143.9,90.5,143.9,90.8c-0.1-0.1-0.4,0-0.4,0
		S143.8,90.9,143.9,90.8L143.9,90.8C143.9,90.9,143.9,90.8,143.9,90.8L143.9,90.8z"/>
	<ellipse class="st11" cx="149.3" cy="90.4" rx="0.1" ry="0.1"/>
	<ellipse class="st11" cx="148.8" cy="89.5" rx="0.1" ry="0.1"/>
	<ellipse class="st11" cx="147.7" cy="88.2" rx="0.4" ry="0.1"/>
	<ellipse class="st11" cx="147.9" cy="89.9" rx="0.1" ry="0.1"/>
	<path class="st10" d="M147.7,90.5L147.7,90.5c0.1,0.2,0.1,0.2,0,0.2l0,0C147.7,90.7,147.7,90.7,147.7,90.5L147.7,90.5L147.7,90.5z"
		/>
	<path class="st11" d="M147.7,90.9L147.7,90.9C147.7,91,147.7,91,147.7,90.9c-0.2,0.1-0.2,0.1-0.2,0
		C147.5,90.9,147.5,90.8,147.7,90.9L147.7,90.9L147.7,90.9L147.7,90.9z"/>
	<path class="st11" d="M147.7,90.8L147.7,90.8L147.7,90.8z"/>
	<ellipse class="st10" cx="147.1" cy="90.5" rx="0.1" ry="0.1"/>
	<ellipse class="st11" cx="147.1" cy="91.7" rx="0" ry="0"/>
	<ellipse class="st11" cx="147" cy="89.5" rx="0.1" ry="0.1"/>
	<ellipse class="st11" cx="146.7" cy="90.3" rx="0.1" ry="0.1"/>
	<ellipse class="st11" cx="146.4" cy="88.5" rx="0" ry="0"/>
	<ellipse class="st11" cx="146.4" cy="87.8" rx="0" ry="0.1"/>
	<ellipse class="st11" cx="146.2" cy="91.2" rx="0.1" ry="0.1"/>
	<path d="M146.4,75.7c0,0.5,0,0.8-0.5,1.3c-0.4-0.5-0.7-0.8-1.2-1.4c-0.4-0.1-0.6-0.5-1-0.7c-0.4,0-0.6-0.1-0.9-0.1
		c-1,0-2.2,0-3.4,0c-0.4,0-0.7,0-0.9,0.1c-0.7,0.1-1,1.3-1.6,1.8c-0.1,0.1-0.4,0.7-0.7,0.7c-0.4,0,0-0.8,0-1.3
		c0.4-0.7,0.9-1.4,1.6-2.1c0.4-0.1,0.7-0.5,1-0.7c0.5-0.1,0.7-0.1,1.2-0.1c0.9,0,2.2,0,3.1,0c0.9,0.1,2,0.5,2.7,1.4
		C146.1,74.7,146.2,75.3,146.4,75.7z"/>
	<ellipse class="st11" cx="146.1" cy="89.9" rx="0.1" ry="0.1"/>
	<ellipse class="st11" cx="146.1" cy="89" rx="0" ry="0.1"/>
	<ellipse class="st10" cx="145.9" cy="88.3" rx="0.1" ry="0.1"/>
	<ellipse class="st11" cx="145.9" cy="91.6" rx="0.1" ry="0.1"/>
	<path class="st10" d="M146,91.8c-0.1,0-0.1,0-0.4,0C145.9,91.8,145.9,91.8,146,91.8z"/>
	<ellipse class="st10" cx="145.5" cy="89.1" rx="0.1" ry="0.1"/>
	<ellipse class="st11" cx="145.5" cy="90.8" rx="0.1" ry="0.1"/>
	<path class="st10" d="M144.9,90.1C144.9,90.1,145,90.1,144.9,90.1L144.9,90.1L144.9,90.1c0.1,0.2,0,0.2-0.3,0.2
		c-0.1,0-0.4,0-0.4-0.1C144.7,90.1,144.8,90.1,144.9,90.1C144.8,90.1,144.8,90.1,144.9,90.1C144.8,90.2,144.9,90.2,144.9,90.1
		C144.9,90.2,145.2,90.2,144.9,90.1C145.2,90.1,145.2,90.1,144.9,90.1z"/>
	<ellipse class="st10" cx="145.2" cy="89.8" rx="0.1" ry="0.1"/>
	<ellipse class="st10" cx="145.2" cy="91.2" rx="0.1" ry="0.1"/>
	<ellipse class="st10" cx="145.2" cy="90.4" rx="0" ry="0.1"/>
	<path class="st11" d="M144.9,90.1C145.2,90.1,145.2,90.1,144.9,90.1C144.9,90.2,144.9,90.2,144.9,90.1
		C144.9,90.2,144.8,90.2,144.9,90.1C144.8,90.1,144.8,90.1,144.9,90.1z"/>
	<ellipse class="st11" cx="144.7" cy="90.8" rx="0.1" ry="0.1"/>
	<path class="st12" d="M140.6,67.3c0.5,0,0.7,0.1,1.2,0c0,0-0.4-0.1-0.6-0.5c-0.1,0-0.4-0.1-0.6-0.1c-1.6-0.1-2.8,0.5-3,0.5
		c-0.1-0.1,1.8-1.3,1.7-1.7c-0.1-0.5-2.8,0-2.8-0.1s7.3-1.7,7-2.2c0-0.1-0.4-0.1-0.7-0.5c-0.5-0.1-0.6-0.3-0.6-0.3
		c1.2,0.3,2.2,0.5,3.7,0.7c0.9,0,2.2,0,2.2-0.1s-2.2-0.5-2.2-0.7c0-0.5,6.8-0.5,8.2-0.3c0.5,0,0.7,0.1,1.2,0.1h1.5
		c0.5,0,0.6-0.1,0.9-0.1c0.1,0,0.5,0,0.6,0.1l1.6,0.5c1.6,0.5,1.7,0.1,2.8,0.5c0.9,0.5,1.5,0.9,1.8,0.7c0.4-0.1,0.5-0.3,0.6-0.3
		c0.4,0,0.5,0.5,0.7,0.5c0.4,0,0.6-0.5,0.7-0.5c0.1,0,0.1,0.5,0.6,0.9c0.1,0.3,0.6,0.5,1,0.5c2.2,1.7,4,3.9,4.4,6.4
		c0.1,2.1-0.7,3.8,0.5,4.7l0.6,0.5"/>
	<ellipse class="st13" cx="157.5" cy="79.7" rx="5" ry="2.7"/>
	<path class="st14" d="M153.4,88.3c1.6,0.5,2.8,1.4,4,2.5c1,0.9,1.7,2.2,1.7,3.8"/>
	<path class="st14" d="M143.9,88.3c-2.2,1.4-3.8,3.3-4.6,5.2"/>
	<path class="st14" d="M136.6,83c0.6,0.5,1.5,0.7,2.2,0.9c0.6,0.1,1.2,0.1,1.8,0.3c0.9,0,1.8,0,2.7-0.1c0.7-0.1,1.7-0.5,2.2-0.9"/>
	<path class="st14" d="M152.3,82.8c1,0.9,2.2,1.4,4,1.7c1.5,0.1,3,0,4.2-0.5"/>
	<path class="st15" d="M151.7,96.2c0.5,0,2.7,0.1,3,0c-0.7,0.5-1.7,0.7-2.7,0.7c-3,0.1-6.5,0.3-9.4-0.5c0-0.5,5-0.1,5.8-0.1
		C149.5,96.2,150.7,96.2,151.7,96.2z"/>
	<path class="st5" d="M170.8,83L170.8,83c-0.6,0.3-1,0.3-1.8,0.3l0,0c0-0.1,0-0.3,0-0.5c0,0.1,0,0.3,0,0.5l0,0c-0.4,0-0.7,0-0.9-0.1
		c-0.6-0.1-0.9-1.4-2-3.8c-0.4-0.5-0.5-1.3-0.4-2c-1.7-0.5,0.9-1.8,0.7-2c-0.1-0.1-0.9,0.3-1.8,0c-0.4-0.1-0.6-0.3-0.7-0.7
		c0-0.5,0.6-0.7,0.5-0.9c-0.1-0.3-0.7,0-1-0.3c-0.4-0.1-0.1-0.7-0.1-1.3c0-0.3,0-0.5,0.1-0.8c0-0.1,0.1-0.3,0.1-0.5
		c0.4-0.8,1.6-1.3,1.5-1.7c-0.1-0.5-5.8-0.3-4.4-0.8c-0.4,0.3,0.7-0.8,0.7-0.9c0,0-2.4,1.4-2.7,0.9c-0.4-0.1,0.7-1.3,0.6-1.3
		c-0.1-0.1-2.2,1.3-2.5,0.9c-0.4-0.1,0.5-0.8,0.4-0.9c-0.4-0.1-2.7,1.8-2.8,1.8c-0.1-0.1,1-1.4,0.9-1.7c-0.1-0.3-0.7,0.3-1,0.5
		c-2.4,1.4-5.8,2.1-6.5,1.4c-0.4-0.3,0.4-0.9,0-1.3c-0.6-0.5-3.4,2.1-5.5,1.4c-0.6-0.1-0.6-0.9-2-1.8c0,0,0,0-0.1,0
		c0.1-0.1,0.4-0.1,0.5-0.3l0,0c0.5,0,0.7,0.1,1.5,0c0,0-0.4-0.1-0.6-0.5c-0.1,0-0.4-0.1-0.6-0.1c-1.7-0.1-2.8,0.7-3,0.5
		c-0.1-0.1,2-1.3,1.8-1.8c-0.1-0.5-2.8,0-2.8-0.1s7.7-1.8,7.4-2.4c0-0.1-0.4-0.1-0.7-0.5c-0.5-0.1-0.6-0.3-0.6-0.3
		c1.5,0.3,2.4,0.7,3.7,0.8c0.9,0,2.2,0,2.2-0.1s-2.4-0.5-2.4-0.8c0-0.5,7-0.5,8.4-0.3c0.5,0,0.7,0.1,1.5,0.1h1.6
		c0.5,0,0.6-0.1,0.9-0.1c0.1,0,0.5,0,0.6,0.1l1.7,0.5c1.7,0.5,1.8,0.1,2.8,0.7c0.9,0.5,1.6,0.9,2,0.8s0.5-0.3,0.6-0.3
		c0.4,0,0.5,0.5,0.7,0.5s0.6-0.5,0.7-0.5c0.1,0,0.1,0.5,0.6,0.9c0.1,0.3,0.6,0.7,1,0.7c2.4,1.8,4.1,4.2,4.6,6.8
		c0.1,2.2-0.7,4,0.5,5.1c0,0,0.6,0.5,0.6,0.7l0,0v0.1c-0.1,0.1-0.7,0.1-0.7,0.3s0.6,0.5,0.5,0.7c-0.1,0.1-0.5,0-0.6,0.1
		s0.4,0.5,0.4,0.7c0,0.1-0.4,0.1-0.5,0.3c-0.1,0.1-0.5,0-0.6,0.1c-0.4,0.1-0.1,0.5-0.4,0.7c-0.1,0.1-0.5,0-0.7-0.1
		c-0.4-0.1-0.5-0.1-0.5,0s0.4,0.5,0.1,0.8C171.1,82.6,170.9,82.6,170.8,83z"/>
	<path class="st9" d="M141.4,77.1c2.8,0,4.8,1.4,5,2.7c0.4,2.2-2.7,3.4-5.3,3.3c-3.7-0.5-4.8-1.2-4.7-3.3
		C136.4,78.5,138.5,77.1,141.4,77.1z M146.2,79.7c0-1.3-2.2-2-4.7-2c-2.4,0-4.7,0.9-4.7,2c0,1.3,2.2,2,4.7,2
		C143.9,81.6,146.2,80.9,146.2,79.7z"/>
	<path class="st7" d="M141.4,77.8c2.7,0,4.7,0.9,4.7,2c0,0.9-2.2,2-4.7,2c-2.4,0-4.7-0.9-4.7-2C136.7,78.7,138.9,77.8,141.4,77.8z"
		/>
	<ellipse id="eye_1" class="st16" cx="138.1" cy="79.7" rx="0.7" ry="0.5">
	
		<animateTransform  accumulate="none" additive="replace" attributeName="transform" attributeType="XML" calcMode="linear" dur="3s" fill="remove" repeatCount="indefinite" restart="always" type="translate" values="2,0;0;2,0">
		</animateTransform>
	</ellipse>
	<ellipse class="st13" cx="141.4" cy="80" rx="5" ry="2.7"/>
	<ellipse id="eye_2" class="st16" cx="154.5" cy="79.7" rx="0.7" ry="0.5">
	
		<animateTransform  accumulate="none" additive="replace" attributeName="transform" attributeType="XML" calcMode="linear" dur="3s" fill="remove" repeatCount="indefinite" restart="always" type="translate" values="2,0;0;2,0">
		</animateTransform>
	</ellipse>
</g>
</svg>
