<?xml version="1.0" encoding="utf-8"?>
<!-- Generator: Adobe Illustrator 21.1.0, SVG Export Plug-In . SVG Version: 6.00 Build 0)  -->
<svg version="1.1" id="Layer_1" xmlns="http://www.w3.org/2000/svg" xmlns:xlink="http://www.w3.org/1999/xlink" x="0px" y="0px"
	 viewBox="0 0 630.5 611.3" style="enable-background:new 0 0 630.5 611.3;" xml:space="preserve">
<style type="text/css">
	.st0{fill:#FFE0BD;}
	.st1{fill:#603813;}
	.st2{fill:#E5BBAC;}
	.st3{fill:#FFFFFF;}
	.st4{fill:#070707;}
	.st5{fill:#CC4A2B;}
	.st6{fill:#EFA08B;}
	.st7{fill:#E5907F;}
	.st8{fill:#FFEADF;}
	.st9{fill:none;stroke:#FFEADF;stroke-miterlimit:10;}
	.st10{fill:none;stroke:#42210B;stroke-miterlimit:10;}
	.st11{fill:none;stroke:#E5BBAC;stroke-miterlimit:10;}
	.st12{fill:none;stroke:#000000;stroke-miterlimit:10;}
	.st13{fill:none;stroke:#CC4A2B;stroke-miterlimit:10;}
	.st14{fill:none;stroke:#F9D5C5;stroke-miterlimit:10;}
	.st15{fill:none;stroke:#F9D5C5;stroke-width:3;stroke-miterlimit:10;}
</style>
<title>Asset 1</title>
<path class="st0" d="M483.5,220.4c2.6,1,5.4,2.2,7.2,1c2.1-1.4,0.5-4.6,3.2-6.4c1.5-1,2.3-0.3,5.3-1.4c2-0.8,4.5-1.6,4.9-3.3
	c0.8-2.7-3.5-4.9-2.6-7s5.2-1.1,5.8-2.8c0.7-2-5.1-4.4-4.5-6.5s6.5-1,7.9-3.3c0.3-0.5,0.4-1,0.3-1.5c2.8,2.9,5.2,6.1,7.2,9.5
	c1.8,3.3,3.1,6.8,3.8,10.4c0.8,3.4,0.8,7,0,10.5c-1.8,6.7-6.2,6.4-10.2,14c-2.7,4.9-3.2,9.6-3.8,15.1c-1,9,0.8,10.8-1.3,14
	c-2.8,4.1-9.5,6.1-15.6,6.2l0,0c-3.6-12.5-8.4-24.7-14.2-36.3l0,0c1.5-0.9,2.7-2.3,3.3-3.9c1-3.6-3.2-7.6-1.6-9
	C479.4,218.8,481.4,219.5,483.5,220.4z"/>
<path class="st1" d="M476.9,232.5L476.9,232.5c-3.9,2.7-10.5,4.6-17.1,4.6l0,0c-0.4-1.6-0.8-3.3-1-4.9c-0.3,1.6-0.5,3.2-0.8,4.9l0,0
	c-3.3-0.2-6.5-0.9-9.4-2.3c-5.8-2.8-9.6-13.9-17.3-36c-3.5-10.2-4.3-13.9-3.5-18.5c1.8-10.1,9.6-16.3,7.3-18.7
	c-2.1-2.3-9.1,3.1-16.6,0c-2.7-1.1-6.4-3.7-6.7-7c-0.4-4.3,5.3-6.8,4.2-9.3s-7.2-0.3-10.8-3.7c-2.5-2.4-2.3-6.1-2-11.4
	c0.2-2.9,0.7-5.8,1.4-8.6c0.6-2.7,1.2-5,1.5-5.9c3-9.2,13.2-12.5,12.4-15.7c-1.4-5.9-37.8-1.5-39.7-8.1c-1-3.5,8.2-8.6,7.6-9.3
	c-1-1.2-23,13.1-25.6,10.5c-1.9-1.9,7.6-11.3,5.8-13c-2.3-2.2-20.9,12-23.7,9.5c-1.7-1.6,4-8.2,2.6-9.3
	c-2.6-2.1-25.1,17.8-26.9,16.3c-1.3-1.1,10.7-13.4,9-15.1c-1.1-1.1-7.5,3-10.2,4.7c-22.2,13.5-53.2,20.5-58.6,14.3
	c-2.8-3.2,3.6-9.6,1-11.9c-5.3-4.8-32,20.9-49.9,14c-6-2.3-6.4-9.9-17.9-16.3c-0.5-0.3-0.9-0.5-1.4-0.7c1.3-1.1,2.7-2.2,4-3.2
	c2-1.6,0,0,0,0c5.3,0.4,11.3,1.1,11.4,0.5c0.2-0.8-2.4-2.8-6.2-4.3c-1.7-0.7-3.5-1.2-5.3-1.5c-14.3-2.6-27.2,7.1-28.1,5.8
	C165.3,80.8,185,69.6,183,65c-2.1-4.8-26.6,0.1-26.9-1.2c-0.5-2.2,70.1-16.9,69.1-23.2c-0.2-1.1-2.5-2.4-7-5.1
	c-3.5-2-5.8-2.9-5.7-3.1c0.2-0.5,15.4,6.4,34.5,8.1c9.3,0.8,20.2,0.6,20.5-1.2c0.4-2.4-22-5.1-21.8-8.1c0.4-5.2,65.2-5.4,76.8-3.5
	c3.8,0.7,7.6,1,11.5,1.1c1.3,0,1.4,0,6.4,0c6.8,0,6.6,0.1,7.7,0c4.7-0.4,5.4-1.2,9-1.2c2.2,0.1,4.3,0.5,6.4,1.2
	c9,2.6,13.5,4,15.4,4.6c15.6,5.8,16.9,2,26.9,7c8.7,4.3,12.9,9.8,17.9,8.1c3-1,3.8-3.7,6.4-3.5c3.7,0.4,4.3,5.6,7.7,5.8
	s5.1-5.1,7.7-4.7c2.3,0.4,2.1,4.8,5.1,9.3c3.2,4.8,7.9,6.8,9.9,7.8c9.5,5.1,38,33.8,41.3,67.2c2.1,21.5-6.8,40,3.8,50.6
	c0.9,0.9,5.2,5,5.6,7.9l0,0c0.1,0.5,0,1.1-0.3,1.5c-1.4,2.4-7.3,1.3-7.9,3.3s5.2,4.5,4.5,6.5c-0.6,1.6-4.9,0.9-5.8,2.8
	s3.4,4.2,2.6,7c-0.5,1.7-2.9,2.5-4.9,3.3c-3,1.1-3.8,0.4-5.3,1.4c-2.7,1.8-1.1,5-3.2,6.4c-1.8,1.2-4.6,0-7.2-1
	c-2.1-0.9-4.1-1.6-5-0.8c-1.6,1.4,2.6,5.4,1.6,9C479.5,230.2,478.4,231.6,476.9,232.5z"/>
<path class="st1" d="M107,300.6L107,300.6c0.4-1.9,1.1-3.7,1.8-5.4c0.3,0-3.7,24.3,10.2,48.8c4.1,7.1,10.1,17.5,23,24.4
	c16.3,8.8,37.5,8.7,53.7,2.3c22.7-9,23.1-25.5,40.9-26.7c1.8-0.1,3.7-0.1,5.5,0.2c1.1,0.3,2.2,0.6,3.3,0.7c6.7,1.9,12,6,24.5,6
	c13.6,0,18.7-4.9,28.1-7c32.7-7.1,49.9,34.9,85.7,33.7c29-1,51.8-29.8,60.1-45.3c9.5-17.8,11.1-38.3,11.5-44.2
	c0.8-11.3-0.6-13.7,0-26.7c0.3-7.2,1.2-16.2,2.4-24.4l0,0c0.6,0,1.2,0.1,1.8,0.1l0,0c6.6,0.1,13.3-1.9,17.1-4.6
	c5.8,11.6,10.6,23.8,14.2,36.3l0,0c12.9,43.3,19.5,107-11.3,165.9C449,493.7,372.3,563.7,276.4,554.4
	C166.3,543.7,118.1,436.7,115.2,430C90.7,372.9,102.1,317.8,107,300.6z M344.4,399.7c-3,2.8-24,0.7-28.7,0.8
	c-10.4,0.2-20.8,0.4-31.1,0.5c-7,0.1-54.6-2.2-55.1,2.2c27.1,8,61.5,6.7,89.6,4.5C328.2,407.1,338,405.7,344.4,399.7L344.4,399.7z"
	/>
<path class="st1" d="M458.7,232.1c0.2,1.6,0.6,3.3,1,4.9c-0.6,0-1.2,0-1.8-0.1C458.2,235.4,458.4,233.7,458.7,232.1z"/>
<path class="st0" d="M457.9,237c-1.2,8.1-2.1,17.2-2.4,24.4c-0.6,13,0.8,15.4,0,26.7c-0.4,5.9-2,26.4-11.5,44.2
	c-8.4,15.6-31.1,44.4-60.1,45.3c-35.8,1.2-53-40.8-85.7-33.7c-9.4,2-14.6,7-28.1,7c-12.4,0-17.8-4.1-24.5-6
	c8.5,1.5,17.2-0.1,24.6-4.3c6.8-4,12.9-10.5,21-10.1c8.8,0.4,16.4,9.2,24.8,6.7c5.2-4,4.2-11.9,0.3-17s-9.8-8.6-14.4-13.2
	c-9.5-9.5-12.5-23-12.9-35.9s1.4-25.8-0.2-38.5c-1.4-11.4-5.5-22.4-9.6-33.3c-9.1-24.4-13.2,8.9-14.6,17.2
	c-2.7,16.1-6.4,32-11.2,47.6c-5.8,18.9-13.2,37.3-20.2,55.9c-2.3,6.1-4.5,13.4-0.3,18.7c2.1,2.6,5.4,4.2,8.8,5.2l0.6,0.2
	c-1.8-0.3-3.6-0.3-5.5-0.2c-17.9,1.2-18.2,17.8-40.9,26.7c-16.2,6.4-37.4,6.5-53.7-2.3c-12.9-6.9-19-17.3-23-24.4
	c-14-24.5-9.9-48.8-10.2-48.8c-0.8,1.8-1.4,3.6-1.8,5.4c1.1-10,3.9-19.6,8.2-28.7c2.9-5.5,6.4-10.7,10.4-15.5c1.8-2.1,3.3-3.7,4.6-5
	c1.1-1.1,2-2,2.5-2.4c0.2-0.2,0.4-0.3,0.4-0.3c13.6-12.6,19.2-41.8,19.2-41.8c1.2-6.2,1.8-9.3,1.3-11.6c-1.4-6.5-6.3-10.2-6.4-18.6
	c0,0,0-1.1,0.1-2.6c0.5-9.6,3.2-40.5,21.6-66c6.2-8.5,13.5-16.2,21.6-22.8c0.5,0.2,0.9,0.5,1.4,0.7c11.6,6.3,11.9,13.9,17.9,16.3
	c17.9,7,44.6-18.8,49.9-14c2.6,2.4-3.8,8.7-1,11.9c5.4,6.3,36.4-0.7,58.6-14.3c2.8-1.7,9.1-5.7,10.2-4.7c1.8,1.7-10.3,14-9,15.1
	c1.7,1.5,24.3-18.4,26.9-16.3c1.4,1.2-4.3,7.7-2.6,9.3c2.8,2.6,21.3-11.7,23.7-9.5c1.8,1.7-7.6,11.1-5.8,13
	c2.6,2.6,24.6-11.7,25.6-10.5c0.6,0.7-8.7,5.8-7.6,9.3c1.9,6.6,38.3,2.2,39.7,8.1c0.7,3.2-9.5,6.6-12.4,15.7c-0.3,0.9-1,3.3-1.5,5.9
	c-0.7,2.8-1.2,5.7-1.4,8.6c-0.3,5.3-0.5,9,2,11.4c3.6,3.4,9.6,1.2,10.8,3.7s-4.6,4.9-4.2,9.3c0.3,3.3,4,5.9,6.7,7
	c7.5,3.1,14.5-2.3,16.6,0c2.3,2.4-5.6,8.6-7.3,18.7c-0.8,4.6,0,8.3,3.5,18.5c7.7,22.1,11.5,33.2,17.3,36
	C451.4,236.1,454.6,236.9,457.9,237z M423.5,211.4c0.1-1.4-0.9-2.7-2.3-2.8s-2.7,0.9-2.8,2.3c-0.1,1.4,0.9,2.7,2.3,2.8
	c0.1,0,0.2,0,0.2,0C422.3,213.8,423.5,212.8,423.5,211.4L423.5,211.4z M395.6,172.4c2.5,1.9,5.9,3.2,9,2.4
	c-6.1-10.8-15-21.5-27.9-24.8c-5-1.3-10.2-1.3-15.4-1.4c-13.7-0.1-27.8-0.1-40.7,4.2c-7.9,2.7-15.2,7.2-20.2,13.4
	c-4.1,5-9.4,17.8,3.5,12.7c3-1.2,5.5-3.3,8-5.3c5.5-4.5,11.3-8.7,17.4-12.5c2.7-1.8,5.6-3.2,8.7-4.2c3.2-0.7,6.5-1,9.8-0.9
	c14.6,0,30.8,0.5,41.2,9.9C391.2,168.1,393.1,170.6,395.6,172.4L395.6,172.4L395.6,172.4z M403.1,214.9c0-16.7-21.5-30.2-48-30.2
	s-48,13.5-48,30.2s21.5,30.2,48,30.2S403.1,231.6,403.1,214.9L403.1,214.9z M243.2,177.8c3.4-2.3,5.2-6.4,4.6-10.4
	c-0.5-3.9-2.9-7.4-5.8-10.4c-6.6-6.6-16-10.4-25.6-12.1s-19.5-1.4-29.3-0.8c-3.9,0.1-7.8,0.7-11.6,1.7c-3.8,1.4-7.4,3.5-10.5,6.1
	c-6.6,5.3-12.2,11.8-15.3,19.2c-0.8,1.9-3.9,10.2-0.2,10.4c2.9,0.1,5.4-5.7,6.5-7.5c3.6-5.8,7.2-12.4,14.4-15.1
	c3.1-1,6.4-1.6,9.7-1.6c10.6-0.6,21.3-0.6,31.9,0.2c3.3,0.1,6.6,0.7,9.8,1.8c3.8,1.4,7,4,10,6.6
	C236.2,169.4,240.5,173.1,243.2,177.8z M248.3,210.8c0-16.4-21.2-29.6-47.3-29.6s-47.3,13.3-47.3,29.6s21.2,29.6,47.3,29.6
	S248.3,227.2,248.3,210.8L248.3,210.8z"/>
<ellipse cx="421" cy="211.4" rx="2.6" ry="2.3"/>
<path d="M404.6,174.9c-3.1,0.8-6.5-0.5-9-2.4s-4.4-4.4-6.7-6.5c-10.3-9.4-26.6-9.9-41.2-9.9c-3.3-0.1-6.6,0.2-9.8,0.9
	c-3.1,1-6,2.4-8.6,4.2c-6,3.8-11.8,8-17.4,12.5c-2.5,2-4.9,4.1-8,5.3c-12.9,5-7.6-7.7-3.5-12.7c5-6.2,12.4-10.8,20.2-13.4
	c12.9-4.4,26.9-4.3,40.7-4.2c5.2,0,10.4,0.1,15.4,1.4C389.7,153.3,398.5,164,404.6,174.9z"/>
<path class="st2" d="M355.1,184.7c26.5,0,48,13.5,48,30.2s-21.5,30.2-48,30.2s-48-13.5-48-30.2S328.6,184.7,355.1,184.7z
	 M400.5,212.6c0-11.6-20-20.9-44.8-20.9S311,201,311,212.6s20,20.9,44.8,20.9S400.5,224.1,400.5,212.6L400.5,212.6z"/>
<path class="st3" d="M355.7,191.7c24.7,0,44.8,9.4,44.8,20.9s-20,20.9-44.8,20.9s-44.7-9.4-44.7-20.9S331,191.7,355.7,191.7z
	 M360.9,212.6c0-3.9-3.4-7-7.7-7s-7.7,3.1-7.7,7s3.4,7,7.7,7S360.9,216.4,360.9,212.6z"/>
<ellipse class="st4" cx="353.2" cy="212.6" rx="7.7" ry="7"/>
<path class="st5" d="M315.7,400.5c4.7-0.1,25.7,2,28.7-0.8c-6.4,6-16.2,7.4-25.4,8.1c-28.1,2.2-62.4,3.4-89.6-4.5
	c0.5-4.4,48.1-2.1,55.1-2.2C294.9,400.9,305.3,400.8,315.7,400.5z"/>
<path class="st6" d="M316.3,320.3c3.9,5.1,4.9,13-0.3,17c-8.4,2.5-16-6.3-24.8-6.7c-8.1-0.4-14.2,6.1-21,10.1
	c-7.5,4.2-16.2,5.8-24.6,4.3c-1.1-0.3-2.2-0.6-3.3-0.7l-0.6-0.2c-3.4-1-6.7-2.6-8.8-5.2c-4.2-5.3-2-12.6,0.3-18.7
	c7.1-18.5,14.4-37,20.2-55.9c4.8-15.6,8.6-31.5,11.3-47.6c1.4-8.4,5.5-41.7,14.6-17.2c4.1,10.9,8.2,21.9,9.6,33.3
	c1.6,12.8-0.2,25.7,0.2,38.5s3.4,26.3,12.9,35.9C306.5,311.7,312.5,315.2,316.3,320.3z M280.3,330c0.1-0.7-0.4-1.3-1.2-1.4
	c-0.7-0.1-1.3,0.4-1.4,1.2c-0.1,0.7,0.4,1.3,1.2,1.4c0,0,0.1,0,0.1,0C279.7,331.2,280.2,330.7,280.3,330z M275.1,318.4
	c0-0.6-0.9-1.2-1.9-1.2s-1.9,0.5-1.9,1.2s0.9,1.2,1.9,1.2S275.1,319,275.1,318.4L275.1,318.4z M266.1,304.4c0.1-1.4-0.9-2.7-2.3-2.8
	c-1.4-0.1-2.7,0.9-2.8,2.3c-0.1,1.4,0.9,2.7,2.3,2.8c0.1,0,0.2,0,0.2,0C264.9,306.8,266.1,305.8,266.1,304.4L266.1,304.4z
	 M266.1,323.5c0.1-1.1-0.7-2-1.7-2.1c-1.1-0.1-2,0.7-2.1,1.7c-0.1,1.1,0.7,2,1.7,2.1c0.1,0,0.1,0,0.2,0
	C265.2,325.4,266.1,324.6,266.1,323.5L266.1,323.5z M263.6,334c0-1-0.6-1.7-1.3-1.7s-1.3,0.8-1.3,1.7c0,0.2,0,0.5,0.1,0.7
	c-0.2-0.1-0.5-0.2-0.8-0.1c-1,0.1-1.7,1-1.6,1.9c0.1,1,1,1.7,1.9,1.6c0.9-0.1,1.6-0.8,1.6-1.7c0-0.2,0-0.4-0.1-0.6h0.1
	C263,335.8,263.6,335.1,263.6,334L263.6,334z M258.5,332.3c0.1-0.7-0.4-1.3-1.2-1.4c-0.7-0.1-1.3,0.4-1.4,1.2s0.4,1.3,1.2,1.4
	c0,0,0.1,0,0.1,0C257.8,333.5,258.4,333,258.5,332.3L258.5,332.3z M257.2,342.1c0-0.4-0.2-0.7-0.6-0.7s-0.7,0.2-0.7,0.6
	s0.2,0.7,0.6,0.7c0,0,0,0,0.1,0C256.9,342.8,257.2,342.5,257.2,342.1L257.2,342.1z M257.2,318.3c0.1-0.7-0.4-1.3-1.2-1.4
	c-0.7-0.1-1.3,0.4-1.4,1.2s0.4,1.3,1.2,1.4c0,0,0.1,0,0.1,0C256.6,319.5,257.2,319.1,257.2,318.3L257.2,318.3z M255.9,328.8
	c0.1-0.7-0.4-1.3-1.2-1.4c-0.7-0.1-1.3,0.4-1.4,1.2s0.4,1.3,1.2,1.4c0,0,0.1,0,0.1,0C255.3,330,255.9,329.5,255.9,328.8L255.9,328.8
	z M250.8,309.6c0-0.4-0.2-0.7-0.6-0.7c-0.4,0-0.7,0.2-0.7,0.6s0.2,0.7,0.6,0.7c0,0,0,0,0.1,0C250.5,310.2,250.8,310,250.8,309.6
	L250.8,309.6z M249.5,301.5c0-1-0.3-1.7-0.6-1.7s-0.6,0.8-0.6,1.7s0.3,1.7,0.6,1.7S249.6,302.5,249.5,301.5L249.5,301.5z
	 M249.5,338.1c0.1-0.7-0.4-1.3-1.2-1.4c-0.7-0.1-1.3,0.4-1.4,1.2s0.4,1.3,1.2,1.4c0,0,0.1,0,0.1,0
	C248.9,339.3,249.5,338.8,249.5,338.1L249.5,338.1z M248.2,324.1c0.1-0.7-0.4-1.3-1.2-1.4c-0.7-0.1-1.3,0.4-1.4,1.2s0.4,1.3,1.2,1.4
	c0,0,0.1,0,0.1,0c0.6,0.1,1.2-0.4,1.3-1L248.2,324.1z M248.2,313.1c0-0.3-0.9-0.6-1.9-0.6s-1.9,0.3-1.9,0.6s0.9,0.6,1.9,0.6
	S248.3,313.5,248.2,313.1L248.2,313.1z M245.7,306.1c0.1-1.1-0.7-2-1.7-2.1c-1.1-0.1-2,0.7-2.1,1.7c-0.1,1.1,0.7,2,1.7,2.1
	c0.1,0,0.1,0,0.2,0C244.7,307.9,245.6,307.2,245.7,306.1L245.7,306.1z M245.7,341c0.1-1.1-0.7-2-1.7-2.1c-1.1-0.1-2,0.7-2.1,1.7
	c-0.1,1.1,0.7,2,1.7,2.1c0.1,0,0.1,0,0.2,0C244.7,342.8,245.6,342,245.7,341L245.7,341z M241.8,316c0.1-0.7-0.4-1.3-1.2-1.4
	c-0.7-0.1-1.3,0.4-1.4,1.2s0.4,1.3,1.2,1.4c0,0,0.1,0,0.1,0c0.7,0.1,1.2-0.4,1.3-1L241.8,316z M241.8,334.6c0.1-0.7-0.4-1.3-1.2-1.4
	c-0.7-0.1-1.3,0.4-1.4,1.2s0.4,1.3,1.2,1.4c0,0,0.1,0,0.1,0c0.7,0.1,1.2-0.4,1.3-1L241.8,334.6z M240.5,327c0-0.9-1-1.6-2.3-1.7
	c-0.2,0-0.3,0-0.5,0c-1.3,0.1-2.3,0.8-2.3,1.7s1.1,1.7,2.6,1.7s2.6-0.7,2.6-1.6L240.5,327z M240.5,322.9c0.1-0.7-0.4-1.3-1.2-1.4
	c-0.7-0.1-1.3,0.4-1.4,1.2s0.4,1.3,1.2,1.4c0,0,0.1,0,0.1,0C239.9,324.2,240.5,323.7,240.5,322.9L240.5,322.9z M240.5,338
	c0.1-0.7-0.4-1.3-1.2-1.4c-0.7-0.1-1.3,0.4-1.4,1.2s0.4,1.3,1.2,1.4c0,0,0.1,0,0.1,0c0.7,0.1,1.2-0.4,1.3-1L240.5,338z M240.5,330.5
	c0-0.3-0.9-0.6-1.9-0.6s-1.9,0.3-1.9,0.6s0.9,0.6,1.9,0.6s2-0.1,2-0.5L240.5,330.5z M236.7,334.5c0.1-0.7-0.4-1.3-1.2-1.4
	c-0.7-0.1-1.3,0.4-1.4,1.2s0.4,1.3,1.2,1.4c0,0,0.1,0,0.1,0c0.7,0.1,1.2-0.4,1.3-1L236.7,334.5z"/>
<ellipse class="st7" cx="279" cy="330" rx="1.3" ry="1.2"/>
<ellipse class="st7" cx="273.2" cy="318.4" rx="1.9" ry="1.2"/>
<ellipse class="st7" cx="263.6" cy="304.4" rx="2.6" ry="2.3"/>
<ellipse class="st7" cx="264.3" cy="323.6" rx="1.9" ry="1.7"/>
<path class="st6" d="M262.4,332.3c0.7,0,1.3,0.8,1.3,1.7s-0.6,1.7-1.3,1.7h-0.1c-0.2-0.5-0.5-0.8-1-1c-0.1-0.2-0.1-0.5-0.1-0.7
	C261.1,333.1,261.6,332.3,262.4,332.3z"/>
<path class="st7" d="M262.2,335.8c0.1,0.2,0.1,0.4,0.1,0.6c0.1,1.1-0.7,2-1.7,2.1c-1.1,0.1-2-0.7-2.1-1.7c-0.1-1.1,0.7-2,1.7-2.1
	c0.1,0,0.1,0,0.2,0c0.3,0,0.5,0,0.8,0.1C261.3,335.3,261.7,335.7,262.2,335.8z"/>
<path class="st7" d="M261.2,334.8c0.5,0.2,0.8,0.5,1,1C261.7,335.7,261.3,335.3,261.2,334.8z"/>
<ellipse class="st6" cx="257.2" cy="332.3" rx="1.3" ry="1.2"/>
<ellipse class="st7" cx="256.6" cy="342.2" rx="0.6" ry="0.6"/>
<ellipse class="st7" cx="255.9" cy="318.4" rx="1.3" ry="1.2"/>
<ellipse class="st7" cx="254.7" cy="328.9" rx="1.3" ry="1.2"/>
<ellipse class="st7" cx="250.2" cy="309.7" rx="0.6" ry="0.6"/>
<ellipse class="st7" cx="248.9" cy="301.5" rx="0.6" ry="1.7"/>
<ellipse class="st7" cx="248.3" cy="338.2" rx="1.3" ry="1.2"/>
<path d="M247.8,167.4c0.6,4.1-1.2,8.2-4.6,10.4c-2.7-4.7-7-8.4-11.3-12c-3-2.6-6.2-5.1-10-6.6c-3.2-1-6.5-1.6-9.8-1.8
	c-10.6-0.8-21.3-0.9-31.9-0.2c-3.3,0.1-6.6,0.6-9.7,1.6c-7.2,2.7-10.8,9.3-14.4,15.1c-1.1,1.8-3.6,7.6-6.5,7.5
	c-3.8-0.2-0.6-8.5,0.2-10.4c3.2-7.5,8.7-14,15.3-19.2c3.1-2.6,6.7-4.7,10.5-6.1c3.8-1.1,7.7-1.7,11.6-1.7c9.8-0.6,19.6-0.9,29.3,0.8
	s19,5.6,25.6,12.1C244.9,159.9,247.2,163.5,247.8,167.4z"/>
<ellipse class="st7" cx="247" cy="324.2" rx="1.3" ry="1.2"/>
<ellipse class="st7" cx="246.4" cy="313.2" rx="1.9" ry="0.6"/>
<ellipse class="st6" cx="243.8" cy="306.2" rx="1.9" ry="1.7"/>
<ellipse class="st7" cx="243.8" cy="341.1" rx="1.9" ry="1.7"/>
<path class="st6" d="M245.6,344.9c-1.1-0.2-2.2-0.4-3.3-0.7C243.3,344.3,244.5,344.6,245.6,344.9z"/>
<ellipse class="st6" cx="240.6" cy="316.1" rx="1.3" ry="1.2"/>
<ellipse class="st7" cx="240.6" cy="334.7" rx="1.3" ry="1.2"/>
<path class="st6" d="M238.3,325.4c1.3,0.1,2.3,0.8,2.3,1.7s-1.1,1.7-2.6,1.7s-2.6-0.8-2.6-1.7s1-1.6,2.3-1.7c-0.6,0.1-1,0.6-1,1.1
	c0.1,0.7,0.7,1.2,1.4,1.1c0.6-0.1,1-0.5,1.1-1.1C239.3,325.9,238.9,325.5,238.3,325.4z"/>
<ellipse class="st6" cx="239.3" cy="323" rx="1.3" ry="1.2"/>
<ellipse class="st6" cx="239.3" cy="338.2" rx="1.3" ry="1.2"/>
<ellipse class="st6" cx="238.7" cy="330.6" rx="1.9" ry="0.6"/>
<path class="st7" d="M238.3,325.4c0.6,0.1,1,0.6,1,1.1c-0.1,0.7-0.7,1.2-1.4,1.1c-0.6-0.1-1-0.5-1.1-1.1c0-0.6,0.4-1,1-1.1
	C237.9,325.4,238.1,325.4,238.3,325.4L238.3,325.4z"/>
<ellipse class="st7" cx="235.5" cy="334.7" rx="1.3" ry="1.2"/>
<path class="st2" d="M200.9,181.2c26.1,0,47.3,13.3,47.3,29.6s-21.2,29.6-47.3,29.6s-47.3-13.3-47.3-29.6S174.8,181.2,200.9,181.2z
	 M245.7,210.9c0-10-19.8-18-44.1-18s-44.1,8.1-44.1,18s19.8,18,44.1,18S245.7,220.8,245.7,210.9L245.7,210.9z"/>
<path class="st3" d="M201.6,192.8c24.4,0,44.1,8.1,44.1,18s-19.8,18-44.1,18s-44.1-8.1-44.1-18S177.2,192.8,201.6,192.8z
	 M208.6,210.3c0-3.9-3.4-7-7.7-7s-7.7,3.1-7.7,7s3.4,7,7.7,7S208.6,214.1,208.6,210.3L208.6,210.3z"/>
<ellipse class="st4" cx="200.9" cy="210.3" rx="7.7" ry="7"/>
<path class="st8" d="M199.9,78.1c3.8,1.5,6.4,3.5,6.2,4.3c-0.1,0.7-6.2-0.1-11.4-0.5C196.3,80.6,198.1,79.3,199.9,78.1z"/>
<path class="st1" d="M194.6,81.9c-1.4,1.1-2.7,2.1-4,3.2c-2-1.1-3.9-2.1-3.7-2.7C187.1,81.5,190.6,81.6,194.6,81.9z"/>
<path class="st9" d="M194.6,81.9c1.7-1.3,3.5-2.6,5.2-3.8"/>
<path class="st9" d="M107,300.6c1.1-10,3.9-19.6,8.2-28.7c2.9-5.5,6.4-10.7,10.4-15.5c1.8-2.1,3.4-3.7,4.6-5c1.1-1.1,2-2,2.5-2.4
	c0.2-0.2,0.4-0.3,0.4-0.3c13.6-12.6,19.2-41.8,19.2-41.8c1.2-6.2,1.8-9.3,1.3-11.6c-1.4-6.5-6.3-10.2-6.4-18.6c0,0,0-1.1,0.1-2.6
	c0.5-9.6,3.2-40.5,21.6-66c6.2-8.5,13.5-16.2,21.6-22.8"/>
<path class="st9" d="M511,189.2c2.8,2.9,5.2,6.1,7.2,9.5c1.8,3.3,3.1,6.8,3.8,10.5c0.8,3.4,0.8,7,0,10.5c-1.8,6.7-6.2,6.4-10.2,14
	c-2.7,4.9-3.2,9.6-3.8,15.1c-1,9,0.8,10.9-1.3,14c-2.8,4.1-9.5,6.1-15.6,6.2"/>
<path class="st9" d="M491.1,268.8L491.1,268.8"/>
<path class="st10" d="M194.6,81.9c5.3,0.4,11.3,1.1,11.4,0.5c0.2-0.8-2.4-2.8-6.2-4.3c-1.7-0.7-3.5-1.2-5.3-1.5
	c-14.3-2.6-27.2,7.1-28.1,5.8C165.3,80.8,185,69.6,183,65c-2.1-4.8-26.6,0.1-26.9-1.2c-0.5-2.2,70.1-16.9,69.1-23.2
	c-0.2-1.1-2.5-2.4-7-5.1c-3.5-2-5.8-2.9-5.7-3.1c0.2-0.5,15.4,6.4,34.5,8.1c9.3,0.8,20.2,0.6,20.5-1.2c0.4-2.4-22-5.1-21.8-8.1
	c0.4-5.2,65.2-5.4,76.8-3.5c3.8,0.7,7.6,1,11.5,1.1c1.3,0,1.4,0,6.4,0c6.8,0,6.6,0.1,7.7,0c4.7-0.4,5.4-1.2,9-1.2
	c2.2,0.1,4.3,0.5,6.4,1.2c9,2.6,13.5,4,15.4,4.6c15.6,5.8,16.9,2,26.9,7c8.7,4.3,12.9,9.8,17.9,8.1c3-1,3.8-3.7,6.4-3.5
	c3.7,0.4,4.3,5.6,7.7,5.8s5.1-5.1,7.7-4.7c2.3,0.4,2.1,4.8,5.1,9.3c3.2,4.8,7.9,6.8,9.9,7.8c9.5,5.1,38,33.8,41.3,67.2
	c2.1,21.5-6.8,40,3.8,50.6c0.9,0.9,5.2,5,5.6,7.9"/>
<path class="st10" d="M457.9,237c-3.3-0.2-6.5-0.9-9.4-2.3c-5.8-2.8-9.6-13.9-17.3-36c-3.5-10.2-4.3-13.9-3.5-18.5
	c1.8-10.1,9.6-16.3,7.3-18.7c-2.1-2.3-9.1,3.1-16.6,0c-2.7-1.1-6.4-3.7-6.7-7c-0.4-4.3,5.3-6.8,4.2-9.3s-7.2-0.3-10.8-3.7
	c-2.5-2.4-2.3-6.1-2-11.4c0.2-2.9,0.7-5.8,1.4-8.6c0.6-2.7,1.2-5,1.5-5.9c3-9.2,13.2-12.5,12.4-15.7c-1.4-5.9-37.8-1.5-39.7-8.1
	c-1-3.5,8.2-8.6,7.6-9.3c-1-1.2-23,13.1-25.6,10.5c-1.9-1.9,7.6-11.3,5.8-13c-2.3-2.2-20.9,12-23.7,9.5c-1.7-1.6,4-8.2,2.6-9.3
	c-2.6-2.1-25.1,17.8-26.9,16.3c-1.3-1.1,10.7-13.4,9-15.1c-1.1-1.1-7.5,3-10.2,4.7c-22.2,13.5-53.2,20.5-58.6,14.3
	c-2.8-3.2,3.6-9.6,1-11.9c-5.3-4.8-32,20.9-49.9,14c-6-2.3-6.4-9.9-17.9-16.3c-0.5-0.3-0.9-0.5-1.4-0.7c-2-1.1-3.9-2.1-3.7-2.7
	c0.3-0.9,3.8-0.8,7.7-0.5"/>
<path class="st10" d="M511,189.2c0.1,0.5,0,1.1-0.3,1.5c-1.4,2.4-7.3,1.3-7.9,3.3s5.2,4.5,4.5,6.5c-0.6,1.6-4.9,0.9-5.8,2.8
	s3.4,4.2,2.6,7c-0.5,1.7-2.9,2.5-4.9,3.3c-3,1.1-3.8,0.4-5.3,1.4c-2.7,1.8-1.1,5-3.2,6.4c-1.8,1.2-4.6,0-7.2-1
	c-2.1-0.9-4.1-1.6-5-0.8c-1.6,1.4,2.6,5.4,1.6,9c-0.6,1.6-1.8,3-3.3,3.9"/>
<ellipse class="st11" cx="200.9" cy="210.9" rx="47.3" ry="29.6"/>
<ellipse class="st11" cx="355.1" cy="214.9" rx="48" ry="30.2"/>
<ellipse class="st12" cx="200.9" cy="210.3" rx="7.7" ry="7"/>
<ellipse class="st12" cx="353.2" cy="212.6" rx="7.7" ry="7"/>
<path class="st12" d="M170.5,158.9c3.1-1,6.4-1.6,9.7-1.6c10.6-0.6,21.3-0.6,31.9,0.2c3.3,0.1,6.6,0.7,9.8,1.8c3.8,1.4,7,4,10,6.6
	c4.3,3.6,8.6,7.2,11.3,12c3.4-2.3,5.2-6.4,4.6-10.4c-0.5-3.9-2.9-7.4-5.8-10.4c-6.6-6.6-16-10.4-25.6-12.1s-19.5-1.4-29.3-0.8
	c-3.9,0.1-7.8,0.7-11.6,1.7c-3.8,1.4-7.4,3.4-10.5,6.1c-6.6,5.3-12.2,11.8-15.3,19.2c-0.8,1.9-3.9,10.2-0.2,10.4
	c2.9,0.1,5.4-5.7,6.5-7.5C159.7,168.2,163.3,161.7,170.5,158.9z"/>
<path class="st12" d="M320.7,152.9c12.9-4.4,26.9-4.3,40.7-4.2c5.2,0,10.4,0.1,15.4,1.4c12.9,3.3,21.8,14,27.9,24.8
	c-3.1,0.8-6.5-0.5-9-2.4s-4.4-4.4-6.7-6.5c-10.3-9.4-26.6-9.9-41.2-9.9c-3.3-0.1-6.6,0.2-9.8,0.9c-3.1,1-6,2.4-8.6,4.2
	c-6,3.8-11.8,8-17.4,12.5c-2.5,2-4.9,4.1-8,5.3c-12.9,5-7.6-7.7-3.5-12.7C305.5,160.2,312.8,155.6,320.7,152.9z"/>
<path class="st13" d="M319,407.8c9.1-0.7,19-2.1,25.4-8.1c-3,2.8-24,0.7-28.7,0.8c-10.4,0.2-20.8,0.4-31.1,0.5
	c-7,0.1-54.6-2.2-55.1,2.2C256.6,411.2,291,410,319,407.8z"/>
<ellipse class="st14" cx="421" cy="211.4" rx="2.6" ry="2.3"/>
<path class="st15" d="M157.8,234.4c6,4.8,12.9,8.3,20.3,10.4c6,1.6,12.1,2.6,18.2,2.9c8.6,0.7,17.2,0.3,25.7-1.4
	c8.4-1.8,16.4-5.4,22.6-10.9"/>
<path class="st15" d="M306.6,233.1c10.2,9.1,22.8,15.2,36.3,17.3c13.7,2.2,27.8,0.5,40.6-4.9"/>
</svg>
