<?xml version="1.0" encoding="utf-8"?>
<!-- Generator: Adobe Illustrator 21.1.0, SVG Export Plug-In . SVG Version: 6.00 Build 0)  -->
<svg version="1.1" xmlns="http://www.w3.org/2000/svg" xmlns:xlink="http://www.w3.org/1999/xlink" x="0px" y="0px"
	 viewBox="0 0 1024 768" style="enable-background:new 0 0 1024 768;" xml:space="preserve">
<style type="text/css">
	.st0{fill:#FFFF00;stroke:#000000;stroke-miterlimit:10;}
	.st1{fill:#FF6700;stroke:#000000;stroke-miterlimit:10;}
	.st2{fill:#754C24;stroke:#42210B;stroke-miterlimit:10;}
	.st3{fill:#FFFFFF;stroke:#000000;stroke-miterlimit:10;}
	.st4{fill:#FFEADF;}
	.st5{fill:#603813;}
	.st6{fill:#E5BBAC;}
	.st7{fill:#FFFFFF;}
	.st8{fill:#070707;}
	.st9{fill:#CC4A2B;}
	.st10{fill:#EFA08B;}
	.st11{fill:#E5907F;}
	.st12{fill:none;stroke:#FFEADF;stroke-miterlimit:10;}
	.st13{fill:none;stroke:#42210B;stroke-miterlimit:10;}
	.st14{fill:none;stroke:#E5BBAC;stroke-miterlimit:10;}
	.st15{fill:none;stroke:#000000;stroke-miterlimit:10;}
	.st16{fill:none;stroke:#CC4A2B;stroke-miterlimit:10;}
	.st17{fill:none;stroke:#F9D5C5;stroke-miterlimit:10;}
	.st18{fill:none;stroke:#F9D5C5;stroke-width:3;stroke-miterlimit:10;}
</style>
<g id="Layer_2">
	<ellipse class="st0" cx="538.5" cy="416.5" rx="289" ry="292"/>
	<ellipse class="st1" cx="539" cy="416.5" rx="274.5" ry="281"/>
	<ellipse class="st0" cx="539" cy="416" rx="265.5" ry="270.5"/>
	<ellipse class="st1" cx="538" cy="417" rx="254.5" ry="262.5"/>
</g>
<g id="Layer_1">
	<g id="XMLID_1_">
		<g>
			<path class="st4" d="M702.5,334.5c0.4,2.2,0.9,5.5,0,9c-1.4,5.7-4.8,5.5-8,12c-2.1,4.2-2.5,8.2-3,13c-0.8,7.8,0.6,9.3-1,12
				c-2.2,3.6-7.4,5.3-12.2,5.3c-1-3.7-2.1-7.3-3.2-10.6c-0.3-9.4-1.1-19.9-2.8-31c2,0.9,4.2,1.9,5.6,0.8c1.6-1.2,0.4-4,2.5-5.5
				c1.2-0.9,1.8-0.2,4.1-1.2c1.6-0.6,3.5-1.4,3.9-2.8c0.6-2.4-2.7-4.2-2-6c0.7-1.6,4.1-1,4.5-2.4c0.5-1.7-4-3.8-3.5-5.6
				c0.5-1.7,5-0.8,6.2-2.8c0.2-0.4,0.3-0.8,0.2-1.3c2.6,3,4.5,6,5.6,8.1C701.8,329.9,702.5,334.5,702.5,334.5z"/>
			<path class="st5" d="M693.9,317.4c0,0.5,0,0.9-0.2,1.3c-1.1,2-5.7,1.1-6.2,2.8c-0.5,1.8,4.1,3.9,3.5,5.6
				c-0.5,1.4-3.8,0.8-4.5,2.4c-0.7,1.8,2.6,3.6,2,6c-0.4,1.4-2.3,2.2-3.9,2.8c-2.4,1-3,0.3-4.1,1.2c-2.1,1.6-0.9,4.3-2.5,5.5
				c-1.4,1-3.6,0-5.6-0.8c-1.5-10-3.7-20.5-6.8-31.2c3.4-3.4,7.3-5.5,11.4-5.5C683.4,307.4,689.5,312.3,693.9,317.4
				C693.9,317.3,693.9,317.4,693.9,317.4z"/>
			<path class="st5" d="M689.5,310.5c0.7,0.7,4.1,4.3,4.4,6.8c-4.4-5.1-10.5-9.9-16.9-9.8c-4.1,0.1-8,2.1-11.4,5.5
				c-8.2-28.3-23-57.4-49.1-80.5c-10.5-9.3-43.2-37-90.5-36.5c-26.6,0.3-54,9.4-75.4,25.8c-1.2-0.5-2.7-1-4.1-1.3
				c-11.2-2.3-21.2,6.1-22,5c-0.9-1.3,14.5-11,13-15c-1.6-4.1-20.8,0.1-21-1c-0.4-1.9,54.8-14.5,54-20c-0.1-0.9-1.9-2.1-5.5-4.4
				c-2.7-1.7-4.6-2.5-4.5-2.6c0.2-0.4,12,5.5,27,7c7.2,0.7,15.8,0.5,16-1c0.3-2-17.2-4.4-17-7c0.3-4.5,51-4.6,60-3
				c1,0.2,4.4,0.9,9,1c1,0,1.1,0,5,0c5.3,0,5.1,0.1,6,0c3.7-0.3,4.2-1.1,7-1c2,0.1,3.5,0.5,5,1c7,2.3,10.6,3.4,12,4
				c12.2,5,13.2,1.7,21,6c6.8,3.7,10.1,8.4,14,7c2.3-0.8,3-3.2,5-3c2.9,0.3,3.4,4.8,6,5c2.7,0.2,4-4.4,6-4c1.8,0.3,1.7,4.1,4,8
				c2.5,4.1,6.2,5.8,7.7,6.7c7.4,4.4,29.7,29.1,32.3,57.8C688.2,285.5,681.2,301.4,689.5,310.5z"/>
			<path class="st5" d="M678.3,385.8c10.1,37.3,15.2,92-8.8,142.7c-24.1,50.8-84.1,111-159,103c-86.1-9.2-123.8-101.2-126-107
				c-19.2-49.1-10.3-96.5-6.4-111.3c0,0.3-0.1,0.5-0.1,0.8c-2,24.5,44.4,218,148,218c80.8,0,140-127,148-218
				c0.4-4.9,1.3-15,1.3-28.4C676.3,385.8,677.3,385.8,678.3,385.8z"/>
			<path class="st5" d="M678.3,385.8c-1,0-2,0-3-0.2c0-3.3,0-6.8-0.2-10.4C676.2,378.6,677.3,382.1,678.3,385.8z"/>
			<path class="st5" d="M675.2,375.2c0.1,3.6,0.2,7.1,0.2,10.4c-0.3,0-0.6-0.1-0.8-0.1c-10.2-2-17.8-14.1-20.7-26.9
				c5.2,0,10.4-1.6,13.4-4C669.8,360.1,672.5,367.1,675.2,375.2z"/>
			<path class="st5" d="M674.5,385.5c0.3,0,0.5,0.1,0.8,0.1c0,13.3-0.9,23.4-1.3,28.4c-8,91-67.2,218-148,218
				c-103.6,0-150-193.5-148-218c0-0.3,0-0.5,0.1-0.8c0,0,0,0,0,0c0.8-3,1.4-4.7,1.4-4.7c0.2,0-2.9,20.9,8,42c3.2,6.1,7.9,15,18,21
				c12.8,7.6,29.3,7.5,42,2c17.7-7.7,18-22,32-23c1.6-0.1,3,0,4.3,0.2c0.9,0.3,1.7,0.5,2.6,0.6c5.2,1.7,9.4,5.2,19.1,5.2
				c10.6,0,14.6-4.2,22-6c25.5-6.1,39,30,67,29c22.7-0.8,40.5-25.6,47-39c7.5-15.3,8.7-32.9,9-38c0.7-9.7-0.4-11.8,0-23
				c0.2-6.2,0.9-14,1.9-21c0.5,0,0.9,0.1,1.4,0l0,0C656.7,371.4,664.3,383.5,674.5,385.5z M563.7,498.5c-2.3,2.4-18.8,0.6-22.5,0.7
				c-8.1,0.2-16.2,0.3-24.3,0.4c-5.5,0.1-42.7-1.9-43.1,1.9c21.2,6.9,48.1,5.8,70,3.9C551,504.8,558.7,503.6,563.7,498.5z"/>
			<path class="st4" d="M672.4,344.2c1.7,11.1,2.5,21.6,2.8,31c-2.6-8.1-5.4-15.1-8-20.6c1.3-1,2.2-2.2,2.6-3.4
				c0.8-3.1-2.5-6.5-1.2-7.7C669.2,342.8,670.7,343.5,672.4,344.2z"/>
			<path class="st5" d="M668.5,343.5c-1.3,1.2,2,4.6,1.2,7.7c-0.3,1.2-1.2,2.3-2.6,3.4c-4.2-9-8-14.2-9.7-14.1
				c-1.7,0.1-3.3,6-4.5,13.8c-0.3-2.1-0.5-4.2-0.5-6.3c-0.1-12.7,5.3-27.2,13.1-35c3.1,10.6,5.3,21.2,6.8,31.2
				C670.7,343.5,669.2,342.8,668.5,343.5z"/>
			<path class="st5" d="M657.5,340.5c1.7-0.1,5.4,5.1,9.7,14.1c-3,2.3-8.2,4-13.4,4l0,0c-0.3-1.4-0.6-2.9-0.8-4.3c0,0,0,0,0,0
				C654.2,346.5,655.8,340.6,657.5,340.5z"/>
			<path class="st5" d="M653,354.3c0.2,1.4,0.5,2.9,0.8,4.3c-0.5,0-0.9,0-1.4,0C652.5,357.1,652.8,355.6,653,354.3z"/>
			<path class="st5" d="M653,354.3C653,354.3,653,354.3,653,354.3c-0.2,1.4-0.4,2.8-0.6,4.2c-2.6-0.2-5.1-0.8-7.4-2
				c-4.5-2.4-7.5-12-13.5-31c-2.8-8.8-3.4-11.9-2.7-15.9c1.4-8.7,7.5-14,5.7-16.1c-1.7-2-7.1,2.7-13,0c-2.1-1-5-3.2-5.2-6
				c-0.3-3.7,4.1-5.9,3.2-8c-0.9-2.1-5.6-0.3-8.4-3.2c-1.9-2.1-1.8-5.3-1.6-9.8c0.1-2.6,0.6-4.9,1.1-7.4c0.5-2.3,1-4.3,1.2-5.1
				c2.3-7.9,10.3-10.8,9.7-13.5c-1.1-5.1-29.5-1.3-31-7c-0.8-3,6.4-7.4,6-8c-0.7-1-17.9,11.3-20,9c-1.5-1.6,5.9-9.7,4.5-11.2
				c-1.8-1.9-16.3,10.4-18.5,8.2c-1.3-1.4,3.1-7,2-8c-2-1.8-19.7,15.3-21,14c-1-1,8.4-11.6,7-13c-0.9-0.9-5.8,2.5-8,4
				c-17.3,11.6-41.6,17.7-45.8,12.3c-2.1-2.8,2.8-8.2,0.8-10.3c-4.1-4.2-25,18-39,12c-4.7-2-5-8.5-14-14c-0.4-0.2-0.7-0.4-1.1-0.6
				c1-0.9,2.1-1.9,3.2-2.8c4.1,0.3,8.8,1,8.9,0.4c0.1-0.7-1.9-2.4-4.9-3.7c21.3-16.4,48.7-25.6,75.4-25.8
				c47.3-0.5,80,27.2,90.5,36.5c26.1,23.1,40.9,52.3,49.1,80.5c-7.8,7.7-13.2,22.3-13.1,35C652.5,350,652.7,352.1,653,354.3z"/>
			<path class="st4" d="M652.4,358.5c-1,7-1.6,14.8-1.9,21c-0.4,11.2,0.7,13.3,0,23c-0.3,5.1-1.5,22.7-9,38
				c-6.5,13.4-24.3,38.2-47,39c-28,1-41.5-35.1-67-29c-7.4,1.8-11.4,6-22,6c-9.7,0-13.9-3.5-19.1-5.2c6.6,1.2,13.6-0.1,19.2-3.7
				c5.3-3.4,10.1-9,16.4-8.7c6.9,0.4,12.8,7.9,19.4,5.8c4.1-3.4,3.3-10.2,0.3-14.6c-3-4.4-7.7-7.4-11.3-11.4
				c-7.4-8.2-9.8-19.8-10.1-30.8c-0.3-11.1,1.1-22.2-0.2-33.1c-1.1-9.8-4.3-19.3-7.5-28.7c-7.1-21-10.3,7.6-11.4,14.8
				c-2.1,13.8-5,27.5-8.8,41c-4.5,16.2-10.3,32.1-15.8,48.1c-1.8,5.3-3.5,11.6-0.2,16.1c1.6,2.3,4.2,3.6,6.9,4.5
				c0.2,0,0.3,0.1,0.5,0.1c-1.3-0.2-2.7-0.3-4.3-0.2c-14,1-14.3,15.3-32,23c-12.7,5.5-29.2,5.6-42-2c-10.1-6-14.8-14.9-18-21
				c-10.9-21.1-7.8-42-8-42c-0.1,0-0.6,1.6-1.4,4.7c1.3-13.6,6.4-24.7,6.4-24.7c2.6-5.5,5.6-10,8.1-13.3c1.4-1.8,2.6-3.2,3.6-4.3
				c0.9-0.9,1.6-1.7,1.9-2.1c0.2-0.1,0.3-0.3,0.3-0.3c10.6-10.9,15-36,15-36c0.9-5.3,1.4-8,1-10c-1.1-5.6-4.9-8.8-5-16
				c0,0,0-1,0.1-2.2c0.4-8.2,2.5-34.9,16.9-56.8c4.8-7.2,10.5-13.8,16.9-19.6c0.4,0.2,0.7,0.4,1.1,0.6c9,5.5,9.3,12,14,14
				c14,6,34.9-16.2,39-12c2,2.1-2.9,7.5-0.8,10.3c4.2,5.4,28.4-0.6,45.8-12.3c2.2-1.5,7.1-4.9,8-4c1.4,1.4-8,12-7,13
				c1.3,1.3,19-15.8,21-14c1.1,1-3.3,6.6-2,8c2.2,2.2,16.7-10.1,18.5-8.2c1.4,1.4-6,9.5-4.5,11.2c2,2.3,19.2-10,20-9
				c0.5,0.6-6.8,5-6,8c1.5,5.7,29.9,1.9,31,7c0.6,2.8-7.4,5.6-9.7,13.5c-0.2,0.8-0.7,2.8-1.2,5.1c-0.5,2.5-1,4.8-1.1,7.4
				c-0.2,4.5-0.3,7.7,1.6,9.8c2.8,2.9,7.5,1.1,8.4,3.2c0.9,2.1-3.6,4.2-3.2,8c0.2,2.8,3.1,5.1,5.2,6c5.9,2.7,11.3-2,13,0
				c1.8,2.1-4.3,7.4-5.7,16.1c-0.6,4,0,7.1,2.7,15.9c6,19,9,28.6,13.5,31C647.2,357.7,649.8,358.3,652.4,358.5z M625.5,336.5
				c0-1.1-0.9-2-2-2s-2,0.9-2,2s0.9,2,2,2S625.5,337.6,625.5,336.5z M603.7,303c2,1.6,4.6,2.8,7.1,2c-4.8-9.3-11.7-18.5-21.8-21.3
				c-3.9-1.1-8-1.1-12-1.2c-10.7-0.1-21.7-0.1-31.8,3.6c-6.1,2.3-11.9,6.2-15.8,11.6c-3.2,4.3-7.3,15.3,2.8,11
				c2.4-1,4.3-2.9,6.2-4.6c4.3-3.9,8.8-7.5,13.6-10.8c2.1-1.5,4.3-2.9,6.8-3.6c2.5-0.7,5.1-0.8,7.6-0.8c11.4,0,24.1,0.4,32.2,8.5
				C600.2,299.2,601.7,301.3,603.7,303z M609.5,339.5c0-14.4-16.8-26-37.5-26s-37.5,11.6-37.5,26s16.8,26,37.5,26
				S609.5,353.9,609.5,339.5z M484.5,307.6c2.8-1.9,4-5.6,3.6-9c-0.4-3.4-2.3-6.4-4.5-8.9c-5.1-5.7-12.5-9-20-10.4
				c-7.5-1.5-15.2-1.2-22.9-0.7c-3.1,0.2-6.2,0.4-9.1,1.5c-3.1,1.1-5.8,3.1-8.2,5.2c-5.2,4.5-9.5,10.1-12,16.6
				c-0.6,1.6-3.1,8.8-0.1,8.9c2.3,0.1,4.2-4.9,5.1-6.5c2.8-5,5.7-10.6,11.3-13c2.4-1,5-1.2,7.6-1.4c8.3-0.6,16.6-0.5,24.9,0.2
				c2.6,0.2,5.2,0.5,7.6,1.5c3,1.2,5.4,3.5,7.8,5.7C479,300.4,482.4,303.5,484.5,307.6z M488.5,336c0-14.1-16.6-25.5-37-25.5
				s-37,11.4-37,25.5s16.6,25.5,37,25.5S488.5,350.1,488.5,336z"/>
			<circle cx="623.5" cy="336.5" r="2"/>
			<path d="M610.7,305c-2.5,0.7-5.1-0.4-7.1-2c-2-1.6-3.5-3.8-5.2-5.6c-8.1-8.1-20.8-8.5-32.2-8.5c-2.6,0-5.2,0-7.6,0.8
				c-2.5,0.7-4.6,2.2-6.8,3.6c-4.7,3.3-9.3,6.9-13.6,10.8c-1.9,1.7-3.8,3.6-6.2,4.6c-10.1,4.3-6-6.6-2.8-11
				c3.9-5.3,9.7-9.3,15.8-11.6c10.1-3.7,21.1-3.7,31.8-3.6c4,0,8.1,0.1,12,1.2C599,286.5,606,295.7,610.7,305z"/>
			<path class="st6" d="M572,313.5c20.7,0,37.5,11.6,37.5,26s-16.8,26-37.5,26s-37.5-11.6-37.5-26S551.3,313.5,572,313.5z
				 M607.5,337.5c0-9.9-15.7-18-35-18s-35,8.1-35,18s15.7,18,35,18S607.5,347.4,607.5,337.5z"/>
			<path class="st7" d="M572.5,319.5c19.3,0,35,8.1,35,18s-15.7,18-35,18s-35-8.1-35-18S553.2,319.5,572.5,319.5z M576.5,337.5
				c0-3.3-2.7-6-6-6s-6,2.7-6,6s2.7,6,6,6S576.5,340.8,576.5,337.5z"/>
			<circle class="st8" cx="570.5" cy="337.5" r="6"/>
			<path class="st9" d="M541.2,499.2c3.7-0.1,20.1,1.7,22.5-0.7c-5,5.1-12.7,6.3-19.8,6.9c-22,1.9-48.8,2.9-70-3.9
				c0.4-3.8,37.6-1.8,43.1-1.9C525,499.5,533.1,499.4,541.2,499.2z"/>
			<path class="st10" d="M541.7,430.1c3,4.4,3.8,11.2-0.3,14.6c-6.6,2.1-12.5-5.4-19.4-5.8c-6.3-0.3-11.1,5.2-16.4,8.7
				c-5.6,3.6-12.7,4.9-19.2,3.7c-0.8-0.3-1.7-0.5-2.6-0.6c-0.2,0-0.3-0.1-0.5-0.1c-2.7-0.9-5.3-2.2-6.9-4.5
				c-3.3-4.5-1.6-10.8,0.2-16.1c5.5-15.9,11.3-31.8,15.8-48.1c3.8-13.5,6.7-27.1,8.8-41c1.1-7.2,4.3-35.9,11.4-14.8
				c3.2,9.4,6.4,18.8,7.5,28.7c1.2,11-0.2,22.1,0.2,33.1c0.3,11,2.7,22.7,10.1,30.8C534,422.7,538.7,425.7,541.7,430.1z
				 M513.5,438.5c0-0.5-0.5-1-1-1s-1,0.5-1,1s0.5,1,1,1S513.5,439,513.5,438.5z M509.5,428.5c0-0.5-0.7-1-1.5-1s-1.5,0.5-1.5,1
				s0.7,1,1.5,1S509.5,429,509.5,428.5z M502.5,416.5c0-1.1-0.9-2-2-2s-2,0.9-2,2s0.9,2,2,2S502.5,417.6,502.5,416.5z M502.5,433
				c0-0.8-0.7-1.5-1.5-1.5s-1.5,0.7-1.5,1.5s0.7,1.5,1.5,1.5S502.5,433.8,502.5,433z M500.5,442c0-0.8-0.5-1.5-1-1.5s-1,0.7-1,1.5
				c0,0.2,0,0.4,0.1,0.6c-0.2-0.1-0.4-0.1-0.6-0.1c-0.8,0-1.5,0.7-1.5,1.5s0.7,1.5,1.5,1.5s1.5-0.7,1.5-1.5c0-0.2,0-0.4-0.1-0.5
				c0,0,0.1,0,0.1,0C500,443.5,500.5,442.8,500.5,442z M496.5,440.5c0-0.5-0.5-1-1-1s-1,0.5-1,1s0.5,1,1,1S496.5,441,496.5,440.5z
				 M495.5,449c0-0.3-0.2-0.5-0.5-0.5s-0.5,0.2-0.5,0.5s0.2,0.5,0.5,0.5S495.5,449.3,495.5,449z M495.5,428.5c0-0.5-0.5-1-1-1
				s-1,0.5-1,1s0.5,1,1,1S495.5,429,495.5,428.5z M494.5,437.5c0-0.5-0.5-1-1-1s-1,0.5-1,1s0.5,1,1,1S494.5,438,494.5,437.5z
				 M490.5,421c0-0.3-0.2-0.5-0.5-0.5s-0.5,0.2-0.5,0.5s0.2,0.5,0.5,0.5S490.5,421.3,490.5,421z M489.5,414c0-0.8-0.2-1.5-0.5-1.5
				s-0.5,0.7-0.5,1.5s0.2,1.5,0.5,1.5S489.5,414.8,489.5,414z M489.5,445.5c0-0.5-0.5-1-1-1s-1,0.5-1,1s0.5,1,1,1
				S489.5,446,489.5,445.5z M488.5,433.5c0-0.5-0.5-1-1-1s-1,0.5-1,1s0.5,1,1,1S488.5,434,488.5,433.5z M488.5,424
				c0-0.3-0.7-0.5-1.5-0.5s-1.5,0.2-1.5,0.5s0.7,0.5,1.5,0.5S488.5,424.3,488.5,424z M486.5,418c0-0.8-0.7-1.5-1.5-1.5
				s-1.5,0.7-1.5,1.5s0.7,1.5,1.5,1.5S486.5,418.8,486.5,418z M486.5,448c0-0.8-0.7-1.5-1.5-1.5s-1.5,0.7-1.5,1.5s0.7,1.5,1.5,1.5
				S486.5,448.8,486.5,448z M483.5,426.5c0-0.5-0.5-1-1-1s-1,0.5-1,1s0.5,1,1,1S483.5,427,483.5,426.5z M483.5,442.5
				c0-0.5-0.5-1-1-1s-1,0.5-1,1s0.5,1,1,1S483.5,443,483.5,442.5z M482.5,436c0-0.8-0.8-1.4-1.8-1.5c-0.1,0-0.1,0-0.2,0
				s-0.1,0-0.2,0c-1,0.1-1.8,0.7-1.8,1.5c0,0.8,0.9,1.5,2,1.5S482.5,436.8,482.5,436z M482.5,432.5c0-0.5-0.5-1-1-1s-1,0.5-1,1
				s0.5,1,1,1S482.5,433,482.5,432.5z M482.5,445.5c0-0.5-0.5-1-1-1s-1,0.5-1,1s0.5,1,1,1S482.5,446,482.5,445.5z M482.5,439
				c0-0.3-0.7-0.5-1.5-0.5s-1.5,0.2-1.5,0.5s0.7,0.5,1.5,0.5S482.5,439.3,482.5,439z M479.5,442.5c0-0.5-0.5-1-1-1s-1,0.5-1,1
				s0.5,1,1,1S479.5,443,479.5,442.5z"/>
			<circle class="st11" cx="512.5" cy="438.5" r="1"/>
			<ellipse class="st11" cx="508" cy="428.5" rx="1.5" ry="1"/>
			<circle class="st11" cx="500.5" cy="416.5" r="2"/>
			<circle class="st11" cx="501" cy="433" r="1.5"/>
			<path class="st10" d="M499.5,440.5c0.5,0,1,0.7,1,1.5s-0.5,1.5-1,1.5c0,0-0.1,0-0.1,0c-0.1-0.4-0.4-0.7-0.8-0.9
				c-0.1-0.2-0.1-0.4-0.1-0.6C498.5,441.2,499,440.5,499.5,440.5z"/>
			<path class="st11" d="M499.4,443.5c0.1,0.2,0.1,0.3,0.1,0.5c0,0.8-0.7,1.5-1.5,1.5s-1.5-0.7-1.5-1.5s0.7-1.5,1.5-1.5
				c0.2,0,0.4,0,0.6,0.1C498.7,443.1,499,443.4,499.4,443.5z"/>
			<path class="st11" d="M498.6,442.6c0.4,0.2,0.7,0.5,0.8,0.9C499,443.4,498.7,443.1,498.6,442.6z"/>
			<circle class="st10" cx="495.5" cy="440.5" r="1"/>
			<circle class="st11" cx="495" cy="449" r="0.5"/>
			<circle class="st11" cx="494.5" cy="428.5" r="1"/>
			<circle class="st11" cx="493.5" cy="437.5" r="1"/>
			<circle class="st11" cx="490" cy="421" r="0.5"/>
			<ellipse class="st11" cx="489" cy="414" rx="0.5" ry="1.5"/>
			<circle class="st11" cx="488.5" cy="445.5" r="1"/>
			<path d="M488.1,298.6c0.4,3.4-0.8,7.1-3.6,9c-2.1-4-5.5-7.2-8.8-10.3c-2.4-2.2-4.8-4.4-7.8-5.7c-2.4-1-5-1.3-7.6-1.5
				c-8.3-0.7-16.6-0.8-24.9-0.2c-2.6,0.2-5.2,0.4-7.6,1.4c-5.6,2.4-8.4,8-11.3,13c-0.9,1.5-2.8,6.6-5.1,6.5c-3-0.2-0.5-7.3,0.1-8.9
				c2.5-6.4,6.8-12,12-16.6c2.4-2.2,5.1-4.1,8.2-5.2c2.9-1.1,6-1.3,9.1-1.5c7.6-0.5,15.4-0.7,22.9,0.7c7.5,1.5,14.9,4.8,20,10.4
				C485.9,292.2,487.7,295.2,488.1,298.6z"/>
			<circle class="st11" cx="487.5" cy="433.5" r="1"/>
			<ellipse class="st11" cx="487" cy="424" rx="1.5" ry="0.5"/>
			<circle class="st10" cx="485" cy="418" r="1.5"/>
			<circle class="st11" cx="485" cy="448" r="1.5"/>
			<path class="st10" d="M486.4,451.3c-0.9-0.2-1.8-0.4-2.6-0.6C484.7,450.8,485.5,451,486.4,451.3z"/>
			<circle class="st10" cx="482.5" cy="426.5" r="1"/>
			<circle class="st11" cx="482.5" cy="442.5" r="1"/>
			<path class="st10" d="M480.7,434.5c1,0.1,1.8,0.7,1.8,1.5c0,0.8-0.9,1.5-2,1.5s-2-0.7-2-1.5c0-0.8,0.8-1.4,1.8-1.5
				c-0.5,0.1-0.8,0.5-0.8,1c0,0.5,0.5,1,1,1s1-0.5,1-1C481.5,435,481.2,434.6,480.7,434.5z"/>
			<circle class="st10" cx="481.5" cy="432.5" r="1"/>
			<circle class="st10" cx="481.5" cy="445.5" r="1"/>
			<ellipse class="st10" cx="481" cy="439" rx="1.5" ry="0.5"/>
			<path class="st11" d="M480.7,434.5c0.5,0.1,0.8,0.5,0.8,1c0,0.5-0.5,1-1,1s-1-0.5-1-1c0-0.5,0.3-0.9,0.8-1c0.1,0,0.1,0,0.2,0
				S480.6,434.5,480.7,434.5z"/>
			<circle class="st11" cx="478.5" cy="442.5" r="1"/>
			<path class="st6" d="M451.5,310.5c20.4,0,37,11.4,37,25.5s-16.6,25.5-37,25.5s-37-11.4-37-25.5S431.1,310.5,451.5,310.5z
				 M486.5,336c0-8.6-15.5-15.5-34.5-15.5s-34.5,6.9-34.5,15.5s15.5,15.5,34.5,15.5S486.5,344.6,486.5,336z"/>
			<path class="st7" d="M452,320.5c19,0,34.5,6.9,34.5,15.5S471,351.5,452,351.5s-34.5-6.9-34.5-15.5S433,320.5,452,320.5z
				 M457.5,335.5c0-3.3-2.7-6-6-6s-6,2.7-6,6s2.7,6,6,6S457.5,338.8,457.5,335.5z"/>
			<circle class="st8" cx="451.5" cy="335.5" r="6"/>
			<path class="st4" d="M450.6,221.8c3,1.3,5,3,4.9,3.7c-0.1,0.6-4.8-0.1-8.9-0.4C447.9,224,449.3,222.9,450.6,221.8z"/>
			<path class="st5" d="M446.6,225.1c-1.1,0.9-2.1,1.8-3.2,2.8c-1.6-0.9-3.1-1.8-2.9-2.4C440.7,224.8,443.5,224.8,446.6,225.1z"/>
		</g>
		<g>
			<path class="st12" d="M446.6,225.1c1.3-1.1,2.7-2.2,4.1-3.3"/>
			<path class="st12" d="M378.1,413.2c1.3-13.6,6.4-24.7,6.4-24.7c2.6-5.5,5.6-10,8.1-13.3c1.4-1.8,2.6-3.2,3.6-4.3
				c0.9-0.9,1.6-1.7,1.9-2.1c0.2-0.1,0.3-0.3,0.3-0.3c10.6-10.9,15-36,15-36c0.9-5.3,1.4-8,1-10c-1.1-5.6-4.9-8.8-5-16
				c0,0,0-1,0.1-2.2c0.4-8.2,2.5-34.9,16.9-56.8c4.8-7.2,10.5-13.8,16.9-19.6"/>
			<path class="st12" d="M693.9,317.4c2.6,3,4.5,6,5.6,8.1c2.3,4.4,3,9,3,9c0.4,2.2,0.9,5.5,0,9c-1.4,5.7-4.8,5.5-8,12
				c-2.1,4.2-2.5,8.2-3,13c-0.8,7.8,0.6,9.3-1,12c-2.2,3.6-7.4,5.3-12.2,5.3"/>
			<path class="st13" d="M652.4,358.5c-2.6-0.2-5.1-0.8-7.4-2c-4.5-2.4-7.5-12-13.5-31c-2.8-8.8-3.4-11.9-2.7-15.9
				c1.4-8.7,7.5-14,5.7-16.1c-1.7-2-7.1,2.7-13,0c-2.1-1-5-3.2-5.2-6c-0.3-3.7,4.1-5.9,3.2-8c-0.9-2.1-5.6-0.3-8.4-3.2
				c-1.9-2.1-1.8-5.3-1.6-9.8c0.1-2.6,0.6-4.9,1.1-7.4c0.5-2.3,1-4.3,1.2-5.1c2.3-7.9,10.3-10.8,9.7-13.5c-1.1-5.1-29.5-1.3-31-7
				c-0.8-3,6.4-7.4,6-8c-0.7-1-17.9,11.3-20,9c-1.5-1.6,5.9-9.7,4.5-11.2c-1.8-1.9-16.3,10.4-18.5,8.2c-1.3-1.4,3.1-7,2-8
				c-2-1.8-19.7,15.3-21,14c-1-1,8.4-11.6,7-13c-0.9-0.9-5.8,2.5-8,4c-17.3,11.6-41.6,17.7-45.8,12.3c-2.1-2.8,2.8-8.2,0.8-10.3
				c-4.1-4.2-25,18-39,12c-4.7-2-5-8.5-14-14c-0.4-0.2-0.7-0.4-1.1-0.6c-1.6-0.9-3.1-1.8-2.9-2.4c0.2-0.7,3-0.7,6.1-0.4
				c4.1,0.3,8.8,1,8.9,0.4c0.1-0.7-1.9-2.4-4.9-3.7c-1.2-0.5-2.7-1-4.1-1.3c-11.2-2.3-21.2,6.1-22,5c-0.9-1.3,14.5-11,13-15
				c-1.6-4.1-20.8,0.1-21-1c-0.4-1.9,54.8-14.5,54-20c-0.1-0.9-1.9-2.1-5.5-4.4c-2.7-1.7-4.6-2.5-4.5-2.6c0.2-0.4,12,5.5,27,7
				c7.2,0.7,15.8,0.5,16-1c0.3-2-17.2-4.4-17-7c0.3-4.5,51-4.6,60-3c1,0.2,4.4,0.9,9,1c1,0,1.1,0,5,0c5.3,0,5.1,0.1,6,0
				c3.7-0.3,4.2-1.1,7-1c2,0.1,3.5,0.5,5,1c7,2.3,10.6,3.4,12,4c12.2,5,13.2,1.7,21,6c6.8,3.7,10.1,8.4,14,7c2.3-0.8,3-3.2,5-3
				c2.9,0.3,3.4,4.8,6,5c2.7,0.2,4-4.4,6-4c1.8,0.3,1.7,4.1,4,8c2.5,4.1,6.2,5.8,7.7,6.7c7.4,4.4,29.7,29.1,32.3,57.8
				c1.7,18.5-5.3,34.4,3,43.5c0.7,0.7,4.1,4.3,4.4,6.8c0,0,0,0,0,0c0,0.5,0,0.9-0.2,1.3c-1.1,2-5.7,1.1-6.2,2.8
				c-0.5,1.8,4.1,3.9,3.5,5.6c-0.5,1.4-3.8,0.8-4.5,2.4c-0.7,1.8,2.6,3.6,2,6c-0.4,1.4-2.3,2.2-3.9,2.8c-2.4,1-3,0.3-4.1,1.2
				c-2.1,1.6-0.9,4.3-2.5,5.5c-1.4,1-3.6,0-5.6-0.8c-1.7-0.7-3.2-1.4-3.9-0.7c-1.3,1.2,2,4.6,1.2,7.7c-0.3,1.2-1.2,2.3-2.6,3.4"/>
			<ellipse class="st14" cx="451.5" cy="336" rx="37" ry="25.5"/>
			<ellipse class="st14" cx="572" cy="339.5" rx="37.5" ry="26"/>
			<circle class="st15" cx="451.5" cy="335.5" r="6"/>
			<circle class="st15" cx="570.5" cy="337.5" r="6"/>
			<path class="st15" d="M427.7,291.3c2.4-1,5-1.2,7.6-1.4c8.3-0.6,16.6-0.5,24.9,0.2c2.6,0.2,5.2,0.5,7.6,1.5
				c3,1.2,5.4,3.5,7.8,5.7c3.4,3.1,6.8,6.2,8.8,10.3c2.8-1.9,4-5.6,3.6-9c-0.4-3.4-2.3-6.4-4.5-8.9c-5.1-5.7-12.5-9-20-10.4
				c-7.5-1.5-15.2-1.2-22.9-0.7c-3.1,0.2-6.2,0.4-9.1,1.5c-3.1,1.1-5.8,3.1-8.2,5.2c-5.2,4.5-9.5,10.1-12,16.6
				c-0.6,1.6-3.1,8.8-0.1,8.9c2.3,0.1,4.2-4.9,5.1-6.5C419.3,299.3,422.1,293.7,427.7,291.3z"/>
			<path class="st15" d="M545.1,286.2c10.1-3.7,21.1-3.7,31.8-3.6c4,0,8.1,0.1,12,1.2c10.1,2.8,17,12,21.8,21.3
				c-2.5,0.7-5.1-0.4-7.1-2c-2-1.6-3.5-3.8-5.2-5.6c-8.1-8.1-20.8-8.5-32.2-8.5c-2.6,0-5.2,0-7.6,0.8c-2.5,0.7-4.6,2.2-6.8,3.6
				c-4.7,3.3-9.3,6.9-13.6,10.8c-1.9,1.7-3.8,3.6-6.2,4.6c-10.1,4.3-6-6.6-2.8-11C533.2,292.4,539,288.5,545.1,286.2z"/>
			<path class="st16" d="M543.8,505.4c7.1-0.6,14.8-1.8,19.8-6.9c-2.3,2.4-18.8,0.6-22.5,0.7c-8.1,0.2-16.2,0.3-24.3,0.4
				c-5.5,0.1-42.7-1.9-43.1,1.9C495,508.3,521.9,507.3,543.8,505.4z"/>
			<circle class="st17" cx="623.5" cy="336.5" r="2"/>
			<path class="st18" d="M541.6,418.1c10.7,6.2,20.7,14,28.4,23.7c7.6,9.8,12.8,21.7,13.4,34.1"/>
			<path class="st18" d="M472.7,419.3c-16.1,12.2-28.1,29.7-33.7,49"/>
			<path class="st18" d="M417.8,356.2c4.6,4.1,10,7.1,15.9,9c4.6,1.5,9.4,2.1,14.2,2.5c6.7,0.5,13.5,0.4,20.1-1.2
				c6.5-1.6,12.9-4.6,17.6-9.4"/>
			<path class="st18" d="M534.1,355.2c7.6,7.7,17.7,13,28.3,14.9c10.7,1.9,21.9,0.4,31.7-4.2"/>
		</g>
	</g>
</g>
</svg>
