<?xml version="1.0" encoding="utf-8"?>
<!-- Generator: Adobe Illustrator 21.1.0, SVG Export Plug-In . SVG Version: 6.00 Build 0)  -->
<svg version="1.1" id="Layer_1" xmlns="http://www.w3.org/2000/svg" xmlns:xlink="http://www.w3.org/1999/xlink" x="0px" y="0px"
	 viewBox="0 0 1071.3 819.9" style="enable-background:new 0 0 1071.3 819.9;" xml:space="preserve">
<style type="text/css">
	.st0{fill:#0071BC;stroke:#4D4D4D;stroke-width:3;stroke-miterlimit:10;}
	.st1{fill:#009245;stroke:#4D4D4D;stroke-width:3;stroke-miterlimit:10;}
	.st2{fill:#FFFF00;}
	.st3{font-family:'Impact';}
	.st4{font-size:28.2414px;}
	.st5{font-family:'Silom';}
	.st6{font-size:25.1035px;}
	.st7{fill:#FCEE21;}
	.st8{fill:#D9E021;}
	.st9{fill:#666666;stroke:#4D4D4D;stroke-width:3;stroke-miterlimit:10;}
	.st10{fill:#8CC63F;}
	.st11{font-family:'Courier-Bold';}
	.st12{font-size:64.4787px;}
	.st13{fill:#B3B3B3;stroke:#000000;stroke-width:3;stroke-miterlimit:10;}
	.st14{fill:#1B1464;}
	.st15{font-size:28.5974px;}
	.st16{fill:#998675;stroke:#000000;stroke-width:3;stroke-miterlimit:10;}
	.st17{fill:#C1272D;}
	.st18{font-size:72.1439px;}
	.st19{stroke:#31C5F0;stroke-width:3;stroke-miterlimit:10;}
	.st20{fill:#31C5F0;}
	.st21{font-size:76.8993px;}
	.st22{fill:#2B1A12;stroke:#CF6218;stroke-width:3;stroke-miterlimit:10;}
	.st23{fill:#CF6218;}
	.st24{font-size:72.9272px;}
	.st25{fill:#AF082F;stroke:#FFFFFF;stroke-width:3;stroke-miterlimit:10;}
	.st26{fill:#FFFFFF;}
	.st27{font-size:47.6667px;}
</style>
<g>
	<path class="st0" d="M494.3,105.3c-11.6,0-20.8-9.7-20.8-21.8v-48c0-11.9,9.3-21.8,20.8-21.8h72.6c11.6,0,20.8,9.7,20.8,21.8v47.9
		c0,11.9-9.3,21.8-20.8,21.8L494.3,105.3L494.3,105.3z"/>
	<path class="st1" d="M566.9,14.1c11.4,0,20.6,9.6,20.6,21.4v47.9c0,11.8-9.2,21.4-20.6,21.4h-72.6c-11.4,0-20.6-9.6-20.6-21.4V35.5
		c0-11.8,9.2-21.4,20.6-21.4H566.9 M566.9,13.6h-72.6c-11.6,0-21.2,9.9-21.2,22v47.9c0,12.2,9.3,22,21.2,22h72.6
		c11.6,0,21.2-9.9,21.2-22V35.6C588,23.4,578.4,13.6,566.9,13.6L566.9,13.6z"/>
</g>
<text transform="matrix(0.9715 0 0 1 508.2126 51.2751)" class="st2 st3 st4">&lt;/&gt;</text>
<text transform="matrix(0.9715 0 0 1 494.778 81.36)" class="st2 st5 st6">HTML</text>
<g>
	<polygon class="st7" points="643.6,79.4 617.4,92.6 623.3,64.5 603.1,44.4 632.2,40.4 646,14.8 658.1,40.6 686.8,44.8 665,64.7 
		668.9,92.9 	"/>
	<path class="st8" d="M646,15.6l11.7,25.1l0.1,0.3h0.2l27.8,4.1l-21,19.2l-0.1,0.1l0.1,0.3l3.7,27.5L644,79.3l-0.2-0.1h-0.2
		L617.9,92l5.9-27.3v-0.4h-0.2l-19.7-19.5l28.2-3.8h0.2l0.1-0.3L646,15.6 M646,14.2l-14.2,26l-29.5,4l20.4,20.4l-6.1,28.7L643.4,80
		l25.7,13.7L665.2,65l22.1-20.1L658,40.4L646,14.2L646,14.2z"/>
</g>
<g>
	<polygon class="st7" points="737.3,79.4 710.9,92.6 717,64.5 696.8,44.4 725.8,40.4 739.7,14.8 751.8,40.6 780.3,44.8 758.7,64.7 
		762.5,92.9 	"/>
	<path class="st8" d="M739.7,15.6l11.7,25.1l0.1,0.3h0.2l27.8,4.1l-21,19.2l-0.1,0.1l0.1,0.3l3.8,27.5l-24.7-13.1l-0.2-0.1h-0.2
		l-25.7,12.9l5.9-27.3v-0.4l-0.2-0.1l-19.6-19.6l28.2-3.8h0.2l0.1-0.3L739.7,15.6 M739.7,14.2l-14.2,26l-29.5,4l20.4,20.4l-6.1,28.7
		L737.1,80l25.7,13.7L758.9,65L781,44.9l-29.3-4.5L739.7,14.2L739.7,14.2z"/>
</g>
<g>
	<polygon class="st7" points="827.9,79.4 801.6,92.6 807.5,64.5 787.5,44.4 816.4,40.4 830.3,14.8 842.3,40.6 870.9,44.8 
		849.2,64.7 853.1,92.9 	"/>
	<path class="st8" d="M830.3,15.6L842,40.7l0.1,0.3h0.2l27.8,4.1l-21,19.2l-0.1,0.1l0.1,0.3l3.8,27.5l-24.7-13.1L828,79h-0.2
		l-25.7,12.9l5.9-27.3v-0.4l-0.2-0.1l-19.6-19.5l28.2-3.8h0.2l0.1-0.3L830.3,15.6 M830.3,14.2l-14.2,26l-29.5,4L807,64.6l-6.1,28.7
		L827.7,80l25.7,13.7L849.5,65l22.1-20.1l-29.3-4.5L830.3,14.2L830.3,14.2z"/>
</g>
<g>
	<polygon class="st7" points="920,79.4 893.6,92.6 899.5,64.5 879.5,44.4 908.5,40.4 922.3,14.8 934.3,40.6 963.1,44.8 941.5,64.7 
		945.3,92.9 	"/>
	<path class="st8" d="M922.5,15.6l11.7,25.1l0.1,0.3h0.2l27.8,4.1l-21,19.2l-0.1,0.1l0.1,0.3l3.8,27.5l-24.7-13.1l-0.2-0.1H920
		l-25.7,12.9l5.9-27.3v-0.4l-0.2-0.1l-19.6-19.5l28.2-3.8h0.2l0.1-0.3L922.5,15.6 M922.5,14.2l-14.2,25.9l-29.5,4l20.4,20.4
		l-6.1,28.7l26.8-13.3l25.7,13.7l-3.9-28.7l22.1-20.1l-29.3-4.5L922.5,14.2L922.5,14.2z"/>
</g>
<g>
	<polygon class="st7" points="1012.2,81.1 985.7,94 991.8,66 971.7,46.1 1000.6,42 1014.5,16.5 1026.4,42.1 1055.1,46.5 
		1033.5,66.2 1037.4,94.5 	"/>
	<path class="st8" d="M1014.5,17.3l11.7,25.1l0.1,0.3h0.2l27.8,4.1l-21,19.2l-0.1,0.1l0.1,0.3l3.8,27.5l-24.7-13.1l-0.2-0.1h-0.2
		l-25.7,12.8l5.9-27.3v-0.4l-0.2-0.1l-19.6-19.5l28.2-3.8h0.2l0.1-0.3L1014.5,17.3 M1014.6,15.7l-14.2,26l-29.5,4l20.4,20.4
		l-6.1,28.7l26.8-13.3l25.7,13.7l-3.9-28.7l22.1-20.2l-29.3-4.5L1014.6,15.7L1014.6,15.7z"/>
</g>
<g>
	<polygon class="st7" points="49.6,76.2 23.1,89.3 29.1,61.2 9.2,41.1 38.1,37.3 51.9,11.6 63.9,37.5 92.5,41.7 70.9,61.6 
		74.9,89.8 	"/>
	<path class="st8" d="M51.9,12.4l11.7,25.1l0.1,0.3h0.2l27.8,4.1l-21,19.2l-0.1,0.1l0.1,0.3L74.5,89L49.8,75.9l-0.2-0.1h-0.2
		L23.7,88.6l5.9-27.3v-0.4l-0.2-0.1L9.8,41.3L38,37.5h0.2l0.1-0.3L51.9,12.4 M52.1,11L37.9,37L8.4,41l20.4,20.4l-6.1,28.7l26.8-13.3
		l25.7,13.7l-3.9-28.7l22.1-20.2l-29.3-4.5L52.1,11L52.1,11z"/>
</g>
<g>
	<polygon class="st7" points="143.2,76.2 116.8,89.3 122.8,61.2 102.7,41.1 131.6,37.3 145.5,11.6 157.5,37.5 186.3,41.7 
		164.5,61.6 168.4,89.8 	"/>
	<path class="st8" d="M145.7,12.4l11.7,25.1l0.1,0.3h0.2l27.8,4.1l-21,19.2l-0.1,0.1l0.1,0.3l3.8,27.5l-24.8-13.1l-0.2-0.1h-0.2
		l-25.7,12.8l5.9-27.3v-0.4l-0.2-0.1l-19.6-19.5l28.2-3.8h0.2l0.1-0.3L145.7,12.4 M145.7,11l-14.2,26L102,40.8l20.4,20.4l-6.1,28.7
		l26.8-13.3l25.7,13.7l-3.9-28.7L187,41.5L157.7,37L145.7,11L145.7,11z"/>
</g>
<g>
	<polygon class="st7" points="233.8,76.2 207.4,89.3 213.3,61.2 193.3,41.1 222.2,37.3 236,11.6 248.1,37.5 276.9,41.7 255.3,61.6 
		259.1,89.8 	"/>
	<path class="st8" d="M236.3,12.4L248,37.5l0.1,0.3h0.2l27.8,4.1l-21,19.2l-0.1,0.1l0.1,0.3l3.8,27.5l-24.8-13.1l-0.2-0.1h-0.2
		L208,88.6l5.9-27.3v-0.4l-0.2-0.1l-19.5-19.3l28.2-3.8h0.2l0.1-0.3L236.3,12.4 M236.3,11l-14.2,26l-29.5,3.8L213,61.2l-6.1,28.7
		l26.8-13.3l25.7,13.7l-3.9-28.7l22.1-20.1L248.3,37L236.3,11L236.3,11z"/>
</g>
<g>
	<polygon class="st7" points="325.8,76.2 299.5,89.3 305.4,61.2 285.5,41.1 314.4,37.3 328.3,11.6 340.2,37.5 368.9,41.7 
		347.3,61.6 351.2,89.8 	"/>
	<path class="st8" d="M328.3,12.4L340,37.5l0.1,0.3h0.2l27.8,4.1l-20.8,19.3l-0.1,0.1l0.1,0.3l3.8,27.5l-24.8-13.2l-0.2-0.1h-0.2
		l-25.7,12.8l5.9-27.3v-0.4l-0.2-0.1l-19.6-19.3l28.2-3.8h0.2l0.1-0.3L328.3,12.4 M328.3,11l-14.2,26l-29.5,3.8L305,61.2l-6.1,28.7
		l26.8-13.3l25.7,13.7l-3.9-28.7l22.1-20.1L340.3,37L328.3,11L328.3,11z"/>
</g>
<g>
	<polygon class="st7" points="418,77.7 391.7,90.9 397.7,62.9 377.5,42.8 406.5,38.9 420.5,13.2 432.4,39.1 461,43.4 439.5,63 
		443.2,91.4 	"/>
	<path class="st8" d="M420.5,13.9L432.2,39l0.1,0.3h0.2l27.8,4.1l-21,19.2l-0.1,0.1l0.1,0.3l3.8,27.5l-24.7-13.1l-0.2-0.1H418
		l-25.7,12.8l5.9-27.3v-0.4l-0.2-0.1l-19.6-19.5l28.2-3.8h0.2l0.1-0.3L420.5,13.9 M420.5,12.7l-14.2,26l-29.5,4l20.4,20.4l-6.1,28.7
		l26.8-13.3l25.7,13.7l-3.9-28.7l22.1-20.1l-29.3-4.5L420.5,12.7L420.5,12.7z"/>
</g>
<g>
	<path class="st9" d="M495,235.9c-11.6,0-20.8-10-20.8-22.4v-49.6c0-12.4,9.3-22.4,20.8-22.4h72.6c11.6,0,20.8,10,20.8,22.4v49.5
		c0,12.4-9.3,22.4-20.8,22.4H495V235.9z"/>
	<path class="st9" d="M567.8,141.8c11.4,0,20.6,9.9,20.6,22.2v49.5c0,12.3-9.2,22.2-20.6,22.2h-72.6c-11.4,0-20.6-9.9-20.6-22.2
		v-49.6c0-12.3,9.2-22.2,20.6-22.2L567.8,141.8 M567.8,141.2h-72.6c-11.6,0-21.2,10.2-21.2,22.8v49.5c0,12.6,9.3,22.8,21.2,22.8
		h72.6c11.6,0,21.2-10.2,21.2-22.8v-49.6C588.8,151.3,579.4,141.2,567.8,141.2L567.8,141.2z"/>
</g>
<text transform="matrix(0.9092 0 0 1 477.821 211.007)" class="st10 st11 st12">CSS</text>
<g>
	<polygon class="st7" points="138.3,206.3 111.9,219.5 117.9,191.5 97.9,171.5 126.8,167.5 140.7,141.9 152.7,167.7 181.3,171.9 
		159.7,191.7 163.6,219.9 	"/>
	<path class="st8" d="M140.7,142.7l11.7,25.1l0.1,0.3h0.2l27.8,4.1l-21,19.2l-0.1,0.1l0.1,0.3l3.8,27.5l-24.5-13.1l-0.2-0.3h-0.2
		l-25.8,12.9l5.9-27.3v-0.4l-0.2-0.1l-19.6-19.5l28.2-3.8h0.2l0.1-0.3L140.7,142.7 M140.8,141.2l-14.2,26l-29.5,4l20.4,20.4
		l-6.1,28.7l26.8-13.3l25.7,13.7L160,192l22.1-20.1l-29.3-4.5L140.8,141.2L140.8,141.2z"/>
</g>
<g>
	<polygon class="st7" points="229,206.3 202.5,219.5 208.4,191.5 188.5,171.5 217.4,167.5 231.3,141.9 243.2,167.7 271.9,171.9 
		250.3,191.7 254.2,219.9 	"/>
	<path class="st8" d="M231.4,142.7l11.7,25.1l0.1,0.3h0.2l27.8,4.1l-21,19.2l-0.1,0.1l0.1,0.3l3.8,27.5l-24.4-13l-0.5-0.3h-0.2
		l-25.7,12.8l5.9-27.3v-0.4l-0.2-0.1l-19.6-19.5l28.2-3.8h0.2l0.1-0.3L231.4,142.7 M231.4,141.2l-14.2,26l-29.5,4l20.4,20.4
		l-6.1,28.7l26.8-13.3l25.7,13.7l-3.9-28.7l22.1-20.1l-29.3-4.5L231.4,141.2L231.4,141.2z"/>
</g>
<g>
	<polygon class="st7" points="321,206.3 294.7,219.5 300.7,191.5 280.6,171.5 309.5,167.5 323.5,141.9 335.4,167.7 364.1,171.9 
		342.5,191.7 346.2,219.9 	"/>
	<path class="st8" d="M323.5,142.7l11.7,25.1l0.1,0.3h0.2l27.8,4.1l-21,19.2l-0.1,0.1l0.1,0.3l3.8,27.5l-24.5-13l-0.5-0.3h-0.4
		L295,218.8l5.9-27.3v-0.4l-0.2-0.1l-19.6-19.5l28.2-3.8h0.2l0.1-0.3L323.5,142.7 M323.5,141.2l-14.2,26l-29.5,4l20.4,20.4
		l-6.1,28.7l26.8-13.3l25.7,13.7l-3.9-28.7l22.1-20.1l-29.3-4.5L323.5,141.2L323.5,141.2z"/>
</g>
<g>
	<polygon class="st7" points="413.1,208 386.7,221.1 392.7,193 372.7,172.9 401.6,169.1 415.5,143.4 427.4,169.2 456.2,173.5 
		434.6,193.4 438.4,221.6 	"/>
	<path class="st8" d="M415.6,144.1l11.7,25.1l0.1,0.3h0.2l27.8,4.1l-20.8,19.3l-0.1,0.1l0.1,0.3l3.8,27.5l-24.7-13.1l-0.2-0.1h-0.2
		l-25.7,12.8l5.9-27.3v-0.4l-0.2-0.1L373.6,173l28.2-3.8h0.2l0.1-0.3L415.6,144.1 M415.6,142.8l-14.2,26l-29.5,4l20.4,20.4
		l-6.1,28.7l26.8-13.3l25.7,13.7l-3.9-28.7l22.1-20.1l-29.3-4.5L415.6,142.8L415.6,142.8z"/>
</g>
<g>
	<polygon class="st7" points="643.6,206.2 617.4,219.4 623.3,191.2 603.1,171.1 632.2,167.4 646,141.6 658.1,167.5 686.8,171.8 
		665,191.5 668.9,219.8 	"/>
	<path class="st8" d="M646,142.4l11.7,25.1l0.1,0.3h0.2l27.8,4.1l-21,19.2l-0.1,0.1l0.1,0.3l3.8,27.5l-24.7-13.1l-0.2-0.1h-0.1
		l-25.7,12.8l5.9-27.3v-0.4l-0.2-0.1L604,171.4l28.2-3.8h0.2l0.1-0.3L646,142.4 M646,141l-14.2,26l-29.5,4l20.4,20.4l-6.1,28.7
		l26.8-13.3l25.7,13.7l-3.9-28.7l22.1-20.1l-29.3-4.5L646,141L646,141z"/>
</g>
<g>
	<polygon class="st7" points="737.3,206.2 710.9,219.4 717,191.2 696.8,171.1 725.8,167.4 739.7,141.6 751.8,167.5 780.3,171.8 
		758.7,191.5 762.5,219.8 	"/>
	<path class="st8" d="M739.7,142.4l11.7,25.1l0.1,0.3h0.2l27.9,4.1l-21,19.2l-0.1,0.1l0.1,0.3l3.8,27.5l-24.7-13.1l-0.2-0.1h-0.2
		l-25.7,12.8l5.9-27.3v-0.4l-0.2-0.1l-19.7-19.5l28.2-3.7h0.2l0.1-0.3L739.7,142.4 M739.7,141l-14.2,26l-29.5,4l20.4,20.4l-6.1,28.7
		l26.8-13.3l25.7,13.7l-3.9-28.7l22.1-20.1l-29.3-4.5L739.7,141L739.7,141z"/>
</g>
<g>
	<polygon class="st7" points="827.9,206.2 801.6,219.4 807.5,191.2 787.5,171.1 816.4,167.4 830.3,141.6 842.3,167.5 870.9,171.8 
		849.2,191.5 853.1,219.8 	"/>
	<path class="st8" d="M830.3,142.4l11.7,25.1l0.1,0.3h0.2l27.8,4.1l-21,19.2l-0.1,0.1l0.1,0.3l3.8,27.5l-24.7-13.1l-0.2-0.1h-0.2
		l-25.7,12.9l5.9-27.3V191l-0.2-0.1l-19.6-19.5l28.2-3.7h0.2l0.1-0.3L830.3,142.4 M830.3,141l-14.2,26l-29.5,4l20.4,20.4l-6.1,28.7
		l26.8-13.3l25.7,13.7l-3.8-28.6l22.1-20.1l-29.3-4.5L830.3,141L830.3,141z"/>
</g>
<g>
	<polygon class="st7" points="920,206.2 893.6,219.4 899.5,191.2 879.5,171.1 908.5,167.4 922.3,141.6 934.3,167.5 963.1,171.8 
		941.5,191.5 945.3,219.8 	"/>
	<path class="st8" d="M922.5,142.4l11.7,25.1l0.1,0.3h0.2l27.8,4.1l-21,19.2l-0.1,0.1l0.1,0.3l3.8,27.5l-24.7-13.1l-0.2-0.1H920
		l-25.7,12.8l5.9-27.3v-0.4l-0.2-0.1l-19.6-19.5l28.2-3.8h0.2l0.1-0.3L922.5,142.4 M922.5,141l-14.2,26l-29.5,4l20.4,20.4l-6.1,28.7
		l26.8-13.3l25.7,13.7l-3.9-28.7l22.1-20.1l-29.3-4.5L922.5,141L922.5,141z"/>
</g>
<g>
	<polygon class="st7" points="1012.2,207.9 985.7,221 991.8,192.9 971.7,172.8 1000.6,168.9 1014.5,143.2 1026.4,168.9 
		1055.1,173.3 1033.5,193 1037.4,221.4 	"/>
	<path class="st8" d="M1014.5,144l11.7,25.1l0.1,0.3h0.2l27.8,4.1l-21,19.2l-0.1,0.1l0.1,0.3l3.8,27.5l-24.7-13.1l-0.2-0.1h-0.2
		l-25.7,12.8l5.9-27.3v-0.4l-0.2-0.1l-19.6-19.5l28.2-3.8h0.2l0.1-0.3L1014.5,144 M1014.6,142.7l-14.2,26l-29.5,4l20.4,20.4
		l-6.1,28.7l26.8-13.3l25.7,13.7l-3.9-28.7l22.1-20.1l-29.3-4.5L1014.6,142.7L1014.6,142.7z"/>
</g>
<rect x="474.5" y="259.2" class="st13" width="113.5" height="94"/>
<text transform="matrix(0.8963 0 0 1 500.901 295.4435)" class="st14 st11 st15">$( )</text>
<text transform="matrix(0.8963 0 0 1 485.5397 329.7218)" class="st14 st11 st15">jQuery</text>
<g>
	<polygon class="st7" points="641.7,322.8 615.4,336 621.4,307.8 601.5,287.9 630.4,284 644.2,258.3 656.2,284.1 684.9,288.3 
		663.2,308.2 667.2,336.4 	"/>
	<path class="st8" d="M644.2,259.1l11.7,25.1l0.1,0.3h0.2l27.8,4.1l-20.9,19.2l-0.1,0.1l0.1,0.3l3.8,27.5l-24.7-13.1l-0.2-0.1h-0.4
		l-25.7,12.8l5.9-27.3v-0.4l-0.2-0.1L602,288l28.2-3.8h0.2l0.1-0.3L644.2,259.1 M644.2,257.6l-14.2,26l-29.5,4l20.4,20.4l-6.1,28.7
		l26.8-13.3l25.7,13.7l-3.9-28.7l22.1-20.1l-29.3-4.5L644.2,257.6L644.2,257.6z"/>
</g>
<g>
	<polygon class="st7" points="732.4,322.8 706,336 712,307.8 691.9,287.9 720.9,284 734.8,258.3 746.7,284.1 775.4,288.3 
		753.8,308.2 757.7,336.4 	"/>
	<path class="st8" d="M734.8,259.1l11.7,25.1l0.1,0.3h0.2l27.8,4.1l-20.9,19.2l-0.1,0.1l0.1,0.3l3.8,27.5l-24.7-13.1l-0.2-0.1h-0.2
		l-25.8,13l5.9-27.3v-0.4l-0.2-0.1l-19.6-19.5l28.2-3.8h0.2l0.1-0.3L734.8,259.1 M734.9,257.6l-14.2,26l-29.5,4l20.4,20.4l-6.1,28.7
		l26.8-13.3l25.7,13.7l-3.9-28.7l22.1-20.1l-29.3-4.5L734.9,257.6L734.9,257.6z"/>
</g>
<g>
	<polygon class="st7" points="824.4,322.8 798.1,336 804.2,307.8 784,287.9 813,284 826.9,258.3 839,284.1 867.5,288.3 845.9,308.2 
		849.7,336.4 	"/>
	<path class="st8" d="M826.9,259.1l11.7,25.1l0.1,0.3h0.2l27.8,4.1l-20.9,19.2l-0.1,0.1l0.1,0.3l3.8,27.5l-24.7-13.1l-0.2-0.1h-0.1
		l-25.7,12.8l5.9-27.3v-0.4l-0.2-0.1L785,288l28.2-3.8h0.2l0.1-0.3L826.9,259.1 M826.9,257.6l-14.2,26l-29.5,4l20.4,20.4l-6.1,28.7
		l26.8-13.3l25.7,13.7l-3.9-28.7l22.1-20.1l-29.3-4.5L826.9,257.6L826.9,257.6z"/>
</g>
<g>
	<polygon class="st7" points="916.6,324.4 890.2,337.5 896.2,309.5 876.1,289.4 905,285.5 919,259.9 931,285.6 959.7,290 938,309.7 
		941.8,338 	"/>
	<path class="st8" d="M919.1,260.5l11.7,25.1l0.1,0.3h0.2l27.8,4.1l-21,19.2l-0.1,0.1l0.1,0.3l3.8,27.5L916.9,324l-0.2-0.1h-0.2
		l-25.7,13l5.9-27.3v-0.4l-0.2-0.1l-19.6-19.5l28.2-3.8h0.2l0.1-0.3L919.1,260.5 M919.1,259.2l-14.2,26l-29.5,4l20.4,20.4l-6.1,28.7
		l26.8-13.3l25.7,13.7l-3.9-28.7l22.1-20.1l-29.3-4.5L919.1,259.2L919.1,259.2z"/>
</g>
<g>
	<polygon class="st7" points="140.1,318.8 113.8,331.9 119.8,303.8 99.6,283.7 128.8,279.7 142.6,254.2 154.6,279.9 183.2,284.2 
		161.6,304.1 165.4,332.3 	"/>
	<path class="st8" d="M142.6,255l11.7,25.1l0.1,0.3h0.2l27.8,4.1l-21,19.2l-0.1,0.1l0.1,0.3l3.8,27.5l-24.6-13l-0.2-0.1h-0.2
		l-25.7,12.8l5.9-27.3v-0.4l-0.2-0.1l-19.7-19.6l28.2-3.8h0.2l0.1-0.3L142.6,255 M142.6,253.6l-14.2,26l-29.5,4l20.4,20.4l-6.1,28.7
		l26.8-13.3l25.7,13.7l-3.9-28.7l22.1-20.1l-29.3-4.4L142.6,253.6L142.6,253.6z"/>
</g>
<g>
	<polygon class="st7" points="230.7,318.8 204.4,331.9 210.4,303.8 190.3,283.7 219.3,279.7 233.2,254.2 245.1,279.9 273.8,284.2 
		252.2,304.1 256,332.3 	"/>
	<path class="st8" d="M233.2,255l11.7,25.1l0.1,0.3h0.2l27.8,4.1l-21,19.2l-0.1,0.1l0.1,0.3l3.8,27.5l-24.7-13.1l-0.2-0.1h-0.2
		L205,331.2l5.9-27.3v-0.4l-0.2-0.1L191,284l28.2-3.8h0.2l0.1-0.3L233.2,255 M233.2,253.6l-14.2,26l-29.5,4l20.4,20.4l-6.1,28.7
		l26.8-13.3l25.7,13.7l-4-28.7l22.1-20.1l-29.3-4.5L233.2,253.6L233.2,253.6z"/>
</g>
<g>
	<polygon class="st7" points="322.9,318.8 296.5,331.9 302.4,303.8 282.4,283.7 311.3,279.7 325.2,254.2 337.2,279.9 365.9,284.2 
		344.2,304.1 348.1,332.3 	"/>
	<path class="st8" d="M325.4,255l11.7,25.1l0.1,0.3h0.2l27.8,4.1l-20.9,19.2l-0.1,0.1l0.1,0.3l3.8,27.5l-24.7-13.1l-0.2-0.1H323
		l-25.8,12.9l5.9-27.3v-0.4l-0.2-0.1L283.3,284l28.2-3.8h0.2l0.1-0.3L325.4,255 M325.4,253.6l-14.2,26l-29.5,4l20.4,20.4l-6.1,28.7
		l26.8-13.3l25.7,13.7l-3.9-28.7l22.1-20.1l-29.3-4.5L325.4,253.6L325.4,253.6z"/>
</g>
<g>
	<polygon class="st7" points="414.9,320.5 388.6,333.4 394.6,305.4 374.6,285.4 403.5,281.4 417.4,255.8 429.3,281.5 458,285.9 
		436.4,305.6 440.3,333.8 	"/>
	<path class="st8" d="M417.4,256.6l11.7,25.1l0.1,0.3h0.2l27.8,4.1l-20.9,19.2l-0.1,0.1l0.1,0.3l3.8,27.5l-24.7-13.1L415,320h-0.2
		l-25.7,12.8l5.9-27.3v-0.4l-0.2-0.1l-19.7-19.5l28.2-3.8h0.2l0.1-0.3L417.4,256.6 M417.4,255.1l-14.2,26l-29.5,4l20.4,20.4
		l-6.1,28.7l26.8-13.3l25.7,13.7l-3.9-28.7l22.1-20.1l-29.3-4.5L417.4,255.1L417.4,255.1z"/>
</g>
<rect x="476.4" y="381.7" class="st16" width="113.5" height="94"/>
<text transform="matrix(0.9261 0 0 1 493.195 442.9386)" class="st17 st11 st18">Js</text>
<g>
	<polygon class="st7" points="643.6,445.4 617.1,458.6 623.2,430.5 603.1,410.4 632.1,406.6 645.9,380.8 658.1,406.6 686.8,410.8 
		665,430.6 668.9,459.1 	"/>
	<path class="st8" d="M646,381.6l11.7,25.1l0.1,0.3h0.2l27.8,4.1l-21,19.2l-0.1,0.1l0.1,0.3l3.8,27.5l-24.7-13.1l-0.2-0.1h-0.1
		l-25.7,12.9l5.9-27.3v-0.4l-0.2-0.1L604,410.6l28.2-3.8h0.2l0.1-0.3L646,381.6 M646,380.3l-14.2,26l-29.5,4l20.4,20.4l-6.1,28.7
		l26.8-13.3l25.7,13.7l-3.9-28.7l22.1-20.1l-29.3-4.5L646,380.3L646,380.3z"/>
</g>
<g>
	<polygon class="st7" points="734.2,445.4 707.9,458.6 713.9,430.5 693.7,410.4 722.7,406.6 736.7,380.8 748.7,406.6 777.3,410.8 
		755.7,430.6 759.4,459.1 	"/>
	<path class="st8" d="M736.7,381.6l11.7,25.1l0.1,0.3h0.2l27.8,4.1l-21,19.2l-0.1,0.1l0.1,0.3l3.8,27.5l-24.7-13.1l-0.2-0.1h-0.2
		l-25.7,12.9l5.9-27.3v-0.4l-0.2-0.1l-19.7-19.5l28.2-3.8h0.2l0.1-0.3L736.7,381.6 M736.7,380.3l-14.2,26l-29.5,4l20.4,20.4
		l-6.1,28.7l26.8-13.3l25.7,13.7l-3.9-28.7L778,411l-29.3-4.5L736.7,380.3L736.7,380.3z"/>
</g>
<g>
	<polygon class="st7" points="826.3,445.4 799.9,458.6 805.9,430.5 785.9,410.4 814.8,406.6 828.7,380.8 840.6,406.6 869.4,410.8 
		847.7,430.6 851.6,459.1 	"/>
	<path class="st8" d="M828.8,381.6l11.7,25.1l0.1,0.3h0.2l27.8,4.1l-21,19.2l-0.1,0.1l0.1,0.3l3.8,27.5l-24.5-13.1l-0.2-0.1h-0.2
		l-25.8,12.9l5.9-27.3v-0.4l-0.2-0.1l-19.8-19.6l28.2-3.8h0.2l0.1-0.3L828.8,381.6 M828.8,380.3l-14.2,26l-29.5,4l20.4,20.4
		l-6.1,28.7l26.8-13.3l25.7,13.7l-3.9-28.7l22.1-20.1l-29.3-4.5L828.8,380.3L828.8,380.3z"/>
</g>
<g>
	<polygon class="st7" points="918.4,447 892.1,460.2 898.1,432.2 878,412.1 906.9,408.1 920.8,382.5 932.9,408.2 961.4,412.5 
		939.8,432.3 943.6,460.5 	"/>
	<path class="st8" d="M920.8,383.2l11.7,25.1l0.1,0.3h0.2l27.8,4.1l-21,19.2l-0.1,0.1l0.1,0.3l3.8,27.5L919,446.9l-0.2-0.1h-0.2
		l-26,12.8l5.9-27.3v-0.4l-0.2-0.1l-19.6-19.5l28.2-3.8h0.2l0.1-0.3L920.8,383.2 M920.8,381.7l-14.2,26l-29.5,4l20.4,20.4l-6.1,28.7
		l26.8-13.3l25.7,13.7l-3.9-28.7l22.1-20.1l-29.3-4.5L920.8,381.7L920.8,381.7z"/>
</g>
<g>
	<polygon class="st7" points="232.6,441.3 206.2,454.5 212.1,426.4 192.2,406.4 221.1,402.4 235,376.7 246.9,402.6 275.7,406.8 
		253.9,426.7 257.9,454.9 	"/>
	<path class="st8" d="M235.1,377.5l11.7,25.1l0.1,0.3h0.2l27.8,4.1l-21,19.2l-0.1,0.1l0.1,0.3l3.8,27.5L233,441l-0.2-0.1h-0.2
		l-25.7,12.8l5.9-27.3V426l-0.2-0.1L193,406.4l28.2-3.8h0.2l0.1-0.3L235.1,377.5 M235.1,376.1l-14.2,26l-29.5,4l20.4,20.4l-6.1,28.7
		l26.8-13.3l25.7,13.7l-3.9-28.7l22.1-20.1l-29.3-4.5L235.1,376.1L235.1,376.1z"/>
</g>
<g>
	<polygon class="st7" points="324.7,441.3 298.3,454.5 304.4,426.4 284.3,406.4 313.2,402.4 327.1,376.7 339,402.6 367.7,406.8 
		346.1,426.7 349.9,454.9 	"/>
	<path class="st8" d="M327.1,377.5l11.7,25.1l0.1,0.3h0.2l27.8,4.1l-21,19.2l-0.1,0.1l0.1,0.3l3.8,27.5L325,441l-0.2-0.1h-0.2
		l-25.7,12.8l5.9-27.3V426l-0.2-0.1L285,406.4l28.2-3.8h0.2l0.1-0.3L327.1,377.5 M327.1,376.1l-14.2,26l-29.5,4l20.4,20.4l-6.1,28.7
		l26.8-13.3l25.7,13.7l-3.9-28.7l22.1-20.1l-29.3-4.5L327.1,376.1L327.1,376.1z"/>
</g>
<g>
	<polygon class="st7" points="416.8,442.9 390.4,456 396.3,428 376.3,407.8 405.2,404 419.2,378.4 431.1,404.1 459.9,408.5 
		438.3,428.1 442,456.5 	"/>
	<path class="st8" d="M419.3,379l11.7,25.1l0.1,0.3h0.2l27.8,4.1l-21,19.2l-0.1,0.1l0.1,0.3l3.8,27.5l-24.7-13.1l-0.2-0.1h-0.2
		l-25.7,12.8l5.9-27.3v-0.4l-0.2-0.1l-19.6-19.5l28.2-3.8h0.2l0.1-0.3L419.3,379 M419.3,377.7l-14.2,26l-29.5,4l20.4,20.4l-6.1,28.7
		l26.8-13.3l25.7,13.7l-3.9-28.7l22.1-20.1l-29.3-4.5L419.3,377.7L419.3,377.7z"/>
</g>
<g>
	<polygon class="st7" points="141.5,556.9 115.1,570.1 121.1,542.1 101.2,522 130.1,518 143.9,492.4 155.9,518.1 184.7,522.4 
		162.9,542.2 166.9,570.4 	"/>
	<path class="st8" d="M144,493.1l11.7,25.1l0.1,0.3h0.2l27.8,4.1l-21,19.2l-0.1,0.1l0.1,0.3l3.8,27.5l-24.7-13.1l-0.2-0.1h-0.2
		l-25.7,12.8l5.9-27.3v-0.4l-0.2-0.1l-19.6-19.4l28.2-3.8h0.2l0.1-0.3L144,493.1 M144,491.6l-14.2,26l-29.5,4l20.4,20.4l-6.1,28.7
		l26.8-13.3l25.7,13.7l-3.9-28.7l22.1-20.2l-29.3-4.5L144,491.6L144,491.6z"/>
</g>
<g>
	<polygon class="st7" points="232.1,556.9 205.7,570.1 211.7,542.1 191.7,522 220.6,518 234.5,492.4 246.4,518.1 275.2,522.4 
		253.6,542.2 257.4,570.4 	"/>
	<path class="st8" d="M234.6,493.1l11.7,25.1l0.1,0.3h0.2l27.8,4.1l-21,19.2l-0.1,0.1l0.1,0.3l3.8,27.5l-24.6-13l-0.2-0.1h-0.2
		l-25.7,12.8l5.9-27.3v-0.4l-0.2-0.1l-19.7-19.4l28.2-3.8h0.2l0.1-0.3L234.6,493.1 M234.6,491.6l-14.2,26l-29.5,4l20.4,20.4
		l-6.1,28.7l26.8-13.3l25.7,13.7l-3.9-28.7l22.1-20.2l-29.3-4.5L234.6,491.6L234.6,491.6z"/>
</g>
<g>
	<polygon class="st7" points="324.2,556.9 297.9,570.1 303.9,542.1 283.8,522 312.7,518 326.7,492.4 338.6,518.1 367.2,522.4 
		345.7,542.2 349.5,570.4 	"/>
	<path class="st8" d="M326.7,493.1l11.7,25.1l0.1,0.3h0.2l27.8,4.1l-21,19.2l-0.1,0.1l0.1,0.3l3.8,27.5l-24.7-13.1l-0.2-0.1h-0.2
		l-25.7,12.8l5.9-27.3v-0.4l-0.2-0.1l-19.7-19.4l28.2-3.8h0.2l0.1-0.3L326.7,493.1 M326.8,491.6l-14.2,26l-29.5,4l20.4,20.4
		l-6.1,28.7l26.8-13.3l25.7,13.7l-3.9-28.7l22.1-20.1l-29.3-4.5L326.8,491.6L326.8,491.6z"/>
</g>
<g>
	<polygon class="st7" points="416.3,558.5 390,571.6 396,543.5 375.9,523.6 405,519.5 418.8,494 430.8,519.8 459.4,524 437.8,543.9 
		441.6,572.1 	"/>
	<path class="st8" d="M418.8,494.8l11.7,25.1l0.1,0.3h0.2l28,4.1l-21,19.2l-0.1,0.1l0.1,0.3l3.8,27.5l-24.7-13.1l-0.2-0.1h-0.4
		l-25.7,13l5.9-27.3v-0.4l-0.2-0.1l-19.6-19.5l28.2-3.8h0.2l0.1-0.3L418.8,494.8 M418.8,493.3l-14.2,26l-29.5,4l20.4,20.4l-6.1,28.7
		l26.8-13.3l25.7,13.7l-3.9-28.7l22.1-20.1l-29.3-4.5L418.8,493.3L418.8,493.3z"/>
</g>
<g>
	<polygon class="st7" points="639.9,564.8 613.7,577.9 619.6,549.9 599.7,529.9 628.6,525.9 642.5,500.2 654.4,526.1 683.1,530.4 
		661.4,550.2 665.4,578.3 	"/>
	<path class="st8" d="M642.5,501l11.7,25.1l0.1,0.3h0.2l27.8,4.1l-21,19.2l-0.1,0.1l0.1,0.3l3.8,27.5l-24.7-13.1l-0.2-0.1H640
		l-25.7,12.8l5.9-27.3v-0.4l-0.2-0.1l-19.7-19.5l28.2-3.8h0.2l0.1-0.3L642.5,501 M642.5,499.7l-14.2,26l-29.5,4l20.4,20.3l-6.1,28.7
		l26.8-13.3l25.7,13.7l-3.9-28.7l22.1-20.1l-29.3-4.5L642.5,499.7L642.5,499.7z"/>
</g>
<g>
	<polygon class="st7" points="730.5,564.8 704.2,577.9 710.2,549.9 690.2,529.9 719.1,525.9 733,500.2 745,526.1 773.6,530.4 
		752,550.2 755.9,578.3 	"/>
	<path class="st8" d="M733,501l11.7,25.1l0.1,0.3h0.2l27.8,4.1l-21,19.2l-0.1,0.1l0.1,0.3l3.8,27.5l-24.7-13.1l-0.2-0.1h-0.2
		l-25.7,12.8l5.9-27.3v-0.4l-0.2-0.1l-19.7-19.5l28.2-3.8h0.2l0.1-0.3L733,501 M733.1,499.7l-14.2,26l-29.5,4l20.4,20.4l-6.1,28.7
		l26.8-13.3l25.7,13.7l-3.9-28.7l22.1-20.1l-29.3-4.5L733.1,499.7L733.1,499.7z"/>
</g>
<g>
	<polygon class="st7" points="822.7,564.8 796.4,577.9 802.4,549.9 782.2,529.9 811.4,525.9 825.2,500.2 837.2,526.1 865.7,530.4 
		844.2,550.2 847.9,578.3 	"/>
	<path class="st8" d="M825.2,501l11.7,25.1l0.1,0.3h0.2l27.8,4.1l-21,19.2l-0.1,0.1l0.1,0.3l3.8,27.5l-24.7-13.1l-0.2-0.1h-0.2
		L797,577.2l5.9-27.3v-0.4l-0.2-0.1l-19.8-19.5l28.2-3.8h0.2l0.1-0.3L825.2,501 M825.2,499.7l-14.2,26l-29.5,4l20.4,20.4l-6.1,28.7
		l26.8-13.3l25.7,13.7l-3.9-28.7l22.1-20.1l-29.3-4.5L825.2,499.7L825.2,499.7z"/>
</g>
<g>
	<polygon class="st7" points="914.8,566.4 888.4,579.6 894.4,551.4 874.4,531.4 903.4,527.6 917.2,501.9 929.2,527.7 958,532 
		936.2,551.8 940.2,580 	"/>
	<path class="st8" d="M917.3,502.6l11.7,25.1l0.1,0.3h0.2l27.8,4.1l-21,19.2l-0.1,0.1l0.1,0.3l3.8,27.5l-24.5-12.9l-0.2-0.1H915
		L889.2,579l5.9-27.3v-0.4l-0.2-0.1l-19.6-19.5l28.2-3.8h0.2l0.1-0.3L917.3,502.6 M917.3,501.2l-14.2,26l-29.5,4l20.4,20.4
		l-6.1,28.7l26.8-13.3l25.7,13.7l-3.9-28.7l22.1-20.1l-29.3-4.5L917.3,501.2L917.3,501.2z"/>
</g>
<rect x="476.3" y="493.1" class="st19" width="110.4" height="96.7"/>
<text transform="matrix(0.7601 0 0 1 495.8893 560.2248)" class="st20 st11 st21">Ps</text>
<rect x="476.3" y="603.3" class="st22" width="109.5" height="95.9"/>
<text transform="matrix(0.8016 0 0 1 495.6344 672.8703)" class="st23 st11 st24">Ai</text>
<g>
	<polygon class="st7" points="230.5,661.6 204.1,674.8 210.1,646.6 190,626.6 219.1,622.8 232.9,597 244.9,622.9 273.7,627.1 
		251.9,647 255.9,675.2 	"/>
	<path class="st8" d="M233,597.8l11.7,25.1l0.1,0.3h0.2l27.8,4.1l-21,19.2l-0.1,0.1l0.1,0.3l3.8,27.5l-24.5-12.9l-0.2-0.1h-0.3
		l-25.7,12.8l5.9-27.3v-0.4l-0.2-0.1L191,626.9l28.2-3.8h0.2l0.1-0.3L233,597.8 M233,596.4l-14.2,26l-29.5,4l20.4,20.4l-6.1,28.7
		l26.8-13.3l25.7,13.7l-3.9-28.7l22.1-20.1l-29.3-4.5L233,596.4L233,596.4z"/>
</g>
<g>
	<polygon class="st7" points="322.5,661.6 296.2,674.8 302.2,646.6 282.3,626.6 311.2,622.8 325,597 337,622.9 365.7,627.1 344,647 
		347.8,675.2 	"/>
	<path class="st8" d="M325,597.8l11.7,25.1l0.1,0.3h0.2l27.8,4.1l-21,19.2l-0.1,0.1l0.1,0.3l3.8,27.5l-24.5-12.9l-0.2-0.1h-0.3
		l-25.7,12.8l5.9-27.3v-0.4l-0.2-0.1L283,626.9l28.2-3.8h0.2l0.1-0.3L325,597.8 M325,596.4l-14.2,26l-29.5,4l20.4,20.4l-6.1,28.7
		l26.8-13.3l25.7,13.7l-3.9-28.7l22.1-20.1l-29.3-4.5L325,596.4L325,596.4z"/>
</g>
<g>
	<polygon class="st7" points="414.7,663.2 388.2,676.3 394.3,648.3 374.3,628.2 403.2,624.3 417,598.7 429.2,624.3 457.9,628.7 
		436.1,648.4 440,676.8 	"/>
	<path class="st8" d="M417.3,599.3l11.7,25.1l0.1,0.3h0.2l27.8,4.1l-21,19.2l-0.1,0.1l0.1,0.3l3.8,27.5l-24.6-13l-0.2-0.1h-0.2
		l-25.7,12.8l5.9-27.3v-0.4l-0.2-0.1l-19.7-19.4l28.2-3.8h0.2l0.1-0.3L417.3,599.3 M417.3,598.1l-14.2,26l-29.5,4l20.4,20.4
		l-6.1,28.7l26.8-13.3l25.7,13.7l-3.9-28.7l22.1-20l-29.3-4.5L417.3,598.1L417.3,598.1z"/>
</g>
<g>
	<polygon class="st7" points="640.3,661.3 613.8,674.3 619.9,646.2 599.8,626.2 628.7,622.3 642.6,596.8 654.5,622.4 683.2,626.7 
		661.6,646.5 665.5,674.8 	"/>
	<path class="st8" d="M642.7,597.4l11.7,25.1l0.1,0.3h0.2l27.8,4.1l-20.9,19.2l-0.2,0.1l0.1,0.3l3.8,27.5l-24.7-13.1l-0.2-0.1h-0.2
		l-25.8,13.1l5.9-27.3v-0.4l-0.2-0.1l-19.7-19.5l28.2-3.8h0.2l0.1-0.3L642.7,597.4 M642.7,596l-14.2,26l-29.5,4l20.4,20.4l-6.1,28.6
		l26.8-13.3l25.7,13.7l-3.9-28.7l22.1-20.1l-29.3-4.5L642.7,596L642.7,596z"/>
</g>
<g>
	<polygon class="st7" points="730.8,661.3 704.3,674.3 710.4,646.2 690.4,626.2 719.3,622.3 733.1,596.8 745.2,622.4 773.9,626.7 
		752.1,646.5 756.1,674.8 	"/>
	<path class="st8" d="M733.4,597.4l11.7,25.1l0.1,0.3h0.2l27.8,4.1l-21,19.2l-0.2,0.1l0.1,0.3l3.8,27.5l-24.7-13.1l-0.2-0.1h-0.2
		l-25.9,13.1l5.9-27.3v-0.4l-0.2-0.1L691,626.6l28.2-3.8h0.2l0.1-0.3L733.4,597.4 M733.4,596l-14.2,26l-29.5,4l20.4,20.4l-6.1,28.7
		l26.8-13.3l25.7,13.7l-3.9-28.6l22.1-20.1l-29.3-4.5L733.4,596L733.4,596z"/>
</g>
<g>
	<polygon class="st7" points="821.4,662.7 795.1,675.8 801.1,647.6 781,627.8 809.9,623.8 823.9,598.2 835.9,623.9 864.4,628.2 
		842.9,648 846.6,676.2 	"/>
	<path class="st8" d="M823.9,598.9l11.7,25.1l0.1,0.3h0.2l27.8,4.1l-21,19.2l-0.1,0.1l0.1,0.3l3.8,27.5l-24.7-13.1l-0.2-0.1h-0.2
		l-25.7,12.8l5.9-27.2v-0.4l-0.2-0.1l-19.6-19.5l28.2-3.8h0.2l0.1-0.3L823.9,598.9 M823.9,597.4l-14.2,26l-29.5,4l20.4,20.5
		l-6.1,28.7l26.8-13.3L847,677l-3.9-28.7l22.1-20.1l-29.3-4.5L823.9,597.4L823.9,597.4z"/>
</g>
<rect x="475.9" y="712.8" class="st25" width="109.5" height="96.1"/>
<g>
	<polygon class="st7" points="635.9,778 609.5,791 615.4,762.9 595.4,742.9 624.3,739 638.3,713.5 650.2,739.1 678.9,743.4 
		657.3,763.3 661.2,791.5 	"/>
	<path class="st8" d="M638.4,714.2l11.7,25.1l0.1,0.3h0.2l27.8,4.1l-21,19.2l-0.2,0.2l0.1,0.3l3.8,27.5l-24.6-13l-0.2-0.1h-0.2
		l-25.7,12.8l5.9-27.3v-0.4l-0.2-0.1l-19.6-19.5l28.2-3.8h0.2l0.1-0.3L638.4,714.2 M638.4,712.7l-14.2,26l-29.5,4l20.4,20.4
		l-6.1,28.7l26.8-13.3l25.7,13.7l-3.9-28.7l22.1-20.1l-29.3-4.5L638.4,712.7L638.4,712.7z"/>
</g>
<g>
	<polygon class="st7" points="416.8,778 390.4,791 396.3,762.9 376.3,742.9 405.2,739 419.2,713.5 431.1,739.1 459.9,743.4 
		438.2,763.3 442,791.5 	"/>
	<path class="st8" d="M419.3,714.2l11.7,25.1l0.1,0.3h0.2l27.8,4.1l-21,19.2l-0.2,0.1l0.1,0.3l3.8,27.5l-24.7-13.1l-0.2-0.1h-0.2
		L391,790.4l5.9-27.3v-0.4l-0.2-0.1l-19.6-19.5l28.2-3.8h0.2l0.1-0.3L419.3,714.2 M419.3,712.7l-14.2,26l-29.5,4l20.4,20.4
		l-6.1,28.7l26.8-13.3l25.6,13.6l-3.9-28.7l22.1-20.1l-29.3-4.5L419.3,712.7L419.3,712.7z"/>
</g>
<text transform="matrix(0.935 0 0 1 488.778 774.2141)" class="st26 st11 st27">git</text>
<g>
	<polygon class="st7" points="1012.2,81 985.8,94.2 991.7,66.1 971.7,46 1000.7,42 1014.5,16.4 1026.5,42.2 1055.3,46.4 
		1033.7,66.3 1037.5,94.5 	"/>
	<path class="st8" d="M1014.7,17.2l11.7,25.1l0.1,0.3h0.2l27.8,4.1l-21,19.2l-0.1,0.1l0.1,0.3l3.8,27.5l-24.7-13.1l-0.2-0.1h-0.2
		l-25.7,12.9l5.9-27.3v-0.4l-0.2-0.1l-19.6-19.5l28.2-3.8h0.2l0.1-0.3L1014.7,17.2 M1014.7,15.8l-14.2,25.9l-29.5,4l20.4,20.4
		l-6.1,28.7l26.8-13.3l25.7,13.7l-3.9-28.7l22.1-20.1l-29.3-4.5L1014.7,15.8L1014.7,15.8z"/>
</g>
<g>
	<polygon class="st7" points="49.6,206.1 23.2,219.3 29.2,191.3 9.2,171.3 38.1,167.3 52,141.7 64,167.5 92.6,171.7 71,191.5 
		74.9,219.7 	"/>
	<path class="st8" d="M52,142.5l11.7,25.1l0.1,0.3H64l27.8,4.1l-21,19.2l-0.1,0.1l0.1,0.3l3.8,27.5L50.1,206l-0.2-0.3h-0.2
		l-25.8,12.9l5.9-27.3v-0.4l-0.2-0.1L10,171.3l28.2-3.8h0.2l0.1-0.3L52,142.5 M52.1,141l-14.2,26l-29.5,4l20.4,20.4l-6.1,28.7
		l26.8-13.3l25.7,13.7l-3.9-28.7l22.1-20.1l-29.3-4.5L52.1,141L52.1,141z"/>
</g>
<g>
	<polygon class="st7" points="1012.2,207.9 985.8,221.1 991.8,193.1 971.8,173.1 1000.7,169.1 1014.6,143.5 1026.6,169.3 
		1055.2,173.5 1033.6,193.3 1037.5,221.5 	"/>
	<path class="st8" d="M1014.6,144.3l11.7,25.1l0.1,0.3h0.2l27.8,4.1l-21,19.2l-0.1,0.1l0.1,0.3l3.8,27.5l-24.5-13.1l-0.2-0.3h-0.2
		l-25.8,12.9l5.9-27.3v-0.4l-0.2-0.1l-19.6-19.5l28.2-3.8h0.2l0.1-0.3L1014.6,144.3 M1014.7,142.8l-14.2,26l-29.5,4l20.4,20.4
		l-6.1,28.7l26.8-13.3l25.7,13.7l-3.9-28.7l22.1-20.1l-29.3-4.5L1014.7,142.8L1014.7,142.8z"/>
</g>
<g>
	<polygon class="st7" points="143.3,440.3 116.9,453.5 122.8,425.4 102.9,405.4 131.8,401.4 145.7,375.7 157.6,401.6 186.4,405.8 
		164.6,425.7 168.6,453.9 	"/>
	<path class="st8" d="M145.8,376.5l11.7,25.1l0.1,0.3h0.2l27.8,4.1l-21,19.2l-0.1,0.1l0.1,0.3l3.8,27.5L143.7,440l-0.2-0.1h-0.2
		l-25.7,12.8l5.9-27.3V425l-0.2-0.1l-19.6-19.5l28.2-3.8h0.2l0.1-0.3L145.8,376.5 M145.8,375.1l-14.2,26l-29.5,4l20.4,20.4
		l-6.1,28.7l26.8-13.3l25.7,13.7l-3.9-28.7l22.1-20.1l-29.3-4.5L145.8,375.1L145.8,375.1z"/>
</g>
</svg>
