<?xml version="1.0" encoding="utf-8"?>
<!-- Generator: Adobe Illustrator 21.1.0, SVG Export Plug-In . SVG Version: 6.00 Build 0)  -->
<svg version="1.1" id="Layer_1" xmlns="http://www.w3.org/2000/svg" xmlns:xlink="http://www.w3.org/1999/xlink" x="0px" y="0px"
	 viewBox="0 0 1024 368" style="enable-background:new 0 0 1024 368;" xml:space="preserve">
<style type="text/css">
	.st0{fill:#B8D6E0;}
	.st1{fill:#E6E7E8;}
	.st2{display:none;}
	.st3{display:inline;fill:#E6E7E8;}
	.st4{fill:#032A47;}
	.st5{font-family:'Futura-Medium';}
	.st6{font-size:25px;}
	.st7{letter-spacing:28;}
	.st8{display:none;fill:#E6E7E8;enable-background:new    ;}
	.st9{font-size:61px;}
</style>
<g id="Layer_2">
	<rect class="st0" width="1024" height="368"/>
</g>
<g id="cloud_4">
	<path class="st1" d="M751.4,285.7c-3.7-1.5-7.9-2.3-12.4-2.3c-14.4,0-26.1,8.5-26.1,19s11.7,19,26.1,19c8.8,0,16.6-3.1,21.3-8.1
		c4,3,9,4.7,14.3,4.7c7,0,13.4-3,17.8-7.8c3.7,5.4,11.5,9.1,20.5,9.1c12.6,0,22.9-7.3,22.9-16.2s-10.3-16.2-22.9-16.2
		c-5.4,0-10.3,1.3-14.1,3.5c-1.4-12.4-11.7-21.9-24.2-21.9C763.8,268.6,754.6,275.7,751.4,285.7z	">
<animateTransform  accumulate="none" additive="replace" attributeName="transform" attributeType="XML" calcMode="linear" dur="6s" fill="remove" repeatCount="indefinite" restart="always" type="translate" values="10,0;-10;10,0">
			</animateTransform>
	</path>
</g>
<g id="cloud_7">
	<path class="st1" d="M202.2,207c-2.9-1.2-6.3-1.8-9.9-1.8c-11.4,0-20.7,6.8-20.7,15.1c0,8.4,9.3,15.1,20.7,15.1
		c7,0,13.2-2.5,16.9-6.4c3.2,2.4,7.1,3.7,11.3,3.7c5.6,0,10.6-2.4,14.1-6.2c2.9,4.3,9.2,7.2,16.3,7.2c10,0,18.1-5.8,18.1-12.9
		s-8.1-12.9-18.1-12.9c-4.2,0-8.1,1-11.2,2.7c-1.1-9.8-9.3-17.4-19.2-17.4C212,193.4,204.7,199.1,202.2,207z	">
<animateTransform  accumulate="none" additive="replace" attributeName="transform" attributeType="XML" calcMode="linear" dur="6s" fill="remove" repeatCount="indefinite" restart="always" type="translate" values="10,0;-10;10,0">
			</animateTransform>
	</path>
</g>
<g id="cloud_6">
	<path class="st1" d="M369.2,277.4c-1.7-0.6-3.7-1-5.9-1c-6.8,0-12.3,3.6-12.3,7.9c0,4.4,5.5,7.9,12.3,7.9c4.2,0,7.9-1.3,10-3.3
		c1.9,1.3,4.3,2,6.8,2c3.3,0,6.3-1.3,8.4-3.3c1.7,2.2,5.5,3.8,9.7,3.8c5.9,0,10.8-3.1,10.8-6.8c0-3.7-4.8-6.8-10.8-6.8
		c-2.5,0-4.8,0.6-6.6,1.4c-0.7-5.2-5.5-9.1-11.5-9.1C375,270.3,370.6,273.3,369.2,277.4z	">
<animateTransform  accumulate="none" additive="replace" attributeName="transform" attributeType="XML" calcMode="linear" dur="6s" fill="remove" repeatCount="indefinite" restart="always" type="translate" values="10,0;-10;10,0">
			</animateTransform>
	</path>
</g>
<g id="cloud_3" class="st2">
	<path class="st3" d="M907.1,163.4c-2.3,0.9-5,1.4-7.7,1.4c-10.1,0-18.3-6.7-18.3-15.1c0-8.3,8.2-15.1,18.3-15.1
		c4.6,0,8.8,1.4,12.1,3.7c2.4-2.6,5.3-4.1,8.6-4.1s6.5,1.7,8.9,4.4c1.7-4,4.7-6.7,8.3-6.7c5.3,0,9.7,6.2,9.7,13.8
		c0,0.9-0.1,1.8-0.2,2.7c10.9,0.7,19.3,5.4,19.3,10.9c0,6.1-10,11-22.3,11c-5,0-9.6-0.8-13.2-2.2c-2.6,4-6.3,6.5-10.4,6.5
		C914.2,175,909.3,170.2,907.1,163.4z	">
<animateTransform  accumulate="none" additive="replace" attributeName="transform" attributeType="XML" calcMode="linear" dur="6s" fill="remove" repeatCount="indefinite" restart="always" type="translate" values="10,0;-10;10,0">
			</animateTransform>
	</path>
</g>
<text transform="matrix(1 0 0 1 389.3755 268.4014)" class="st4 st5 st6 st7"> </text>
<g id="cloud_8">
	<path class="st1" d="M118,272.7c-3.5-1.3-7.4-2.1-11.7-2.1c-13.5,0-24.5,7.8-24.5,17.3s11,17.3,24.5,17.3c8.3,0,15.6-2.9,20-7.3
		c3.8,2.7,8.4,4.3,13.4,4.3c6.6,0,12.5-2.7,16.7-7.1c3.5,4.9,10.8,8.2,19.2,8.2c11.8,0,21.4-6.6,21.4-14.7s-9.6-14.7-21.4-14.7
		c-5,0-9.6,1.2-13.2,3.1c-1.3-11.2-11-19.9-22.7-19.9C129.6,257.1,120.9,263.6,118,272.7z	">
<animateTransform  accumulate="none" additive="replace" attributeName="transform" attributeType="XML" calcMode="linear" dur="6s" fill="remove" repeatCount="indefinite" restart="always" type="translate" values="10,0;-10;10,0">
			</animateTransform>
	</path>
</g>
<g id="cloud_5">
	<path class="st1" d="M520.8,331.6c-2.8,0.9-6,1.4-9.3,1.4c-12.1,0-22-6.8-22-15.3c0-8.4,9.8-15.3,22-15.3c5.5,0,10.6,1.4,14.5,3.8
		c2.9-2.6,6.4-4.2,10.3-4.2c4,0,7.8,1.7,10.7,4.5c2-4.1,5.7-6.8,10-6.8c6.4,0,11.6,6.3,11.6,14c0,0.9-0.1,1.8-0.2,2.7
		c13.1,0.7,23.2,5.5,23.2,11.1c0,6.2-12,11.2-26.8,11.2c-6,0-11.5-0.8-15.9-2.2c-3.1,4.1-7.6,6.6-12.5,6.6
		C529.4,343.4,523.5,338.5,520.8,331.6z	">
<animateTransform  accumulate="none" additive="replace" attributeName="transform" attributeType="XML" calcMode="linear" dur="6s" fill="remove" repeatCount="indefinite" restart="always" type="translate" values="10,0;-10;10,0">
			</animateTransform>
	</path>
</g>
<g id="cloud_2">
	<path class="st1" d="M650.1,138.5c-3.6-1.1-7.9-1.8-12.3-1.8c-14.3,0-25.9,6.7-25.9,14.9s11.6,14.9,25.9,14.9
		c8.7,0,16.4-2.4,21-6.3c4,2.4,8.9,3.7,14.1,3.7c6.9,0,13.2-2.4,17.6-6.2c3.6,4.2,11.4,7.1,20.3,7.1c12.5,0,22.6-5.7,22.6-12.7
		s-10.1-12.7-22.6-12.7c-5.3,0-10.1,1-13.9,2.7c-1.5-9.8-11.7-17.3-24-17.3C662.4,125.1,653.2,130.6,650.1,138.5z	">
<animateTransform  accumulate="none" additive="replace" attributeName="transform" attributeType="XML" calcMode="linear" dur="6s" fill="remove" repeatCount="indefinite" restart="always" type="translate" values="10,0;-10;10,0">
			</animateTransform>
	</path>
</g>
<g id="cloud_1">
	<path class="st1" d="M340.1,119.9c-4.9-1.9-10.5-3-16.5-3c-19.1,0-34.6,11.1-34.6,24.8s15.5,24.8,34.6,24.8
		c11.7,0,22-4.1,28.2-10.5c5.3,3.9,11.9,6.1,18.9,6.1c9.3,0,17.7-3.9,23.6-10.2c4.9,7,15.3,11.8,27.2,11.8
		c16.7,0,30.3-9.5,30.3-21.1s-13.6-21.1-30.3-21.1c-7.1,0-13.6,1.7-18.7,4.5c-1.9-16.1-15.5-28.5-32.1-28.5
		C356.5,97.6,344.3,106.9,340.1,119.9z	">
<animateTransform  accumulate="none" additive="replace" attributeName="transform" attributeType="XML" calcMode="linear" dur="6s" fill="remove" repeatCount="indefinite" restart="always" type="translate" values="10,0;-10;10,0">
			</animateTransform>
	</path>
</g>
<g id="cloud_9">
	<path class="st1" d="M91.8,142.8c-1.8-0.9-3.9-1.5-6.1-1.5c-7,0-12.7,5.5-12.7,12.3S78.6,166,85.7,166c4.3,0,8.1-2,10.3-5.2
		c1.9,2,4.3,3.1,6.9,3.1c3.4,0,6.5-1.9,8.7-5.1c1.8,3.5,5.6,5.9,9.9,5.9c6.1,0,11.1-4.7,11.2-10.4c0-5.8-5-10.5-11.1-10.6
		c-2.6,0-5,0.8-6.8,2.2c-0.6-8.1-5.6-14.2-11.8-14.2C97.8,131.6,93.4,136.3,91.8,142.8z	">
<animateTransform  accumulate="none" additive="replace" attributeName="transform" attributeType="XML" calcMode="linear" dur="6s" fill="remove" repeatCount="indefinite" restart="always" type="translate" values="10,0;-10;10,0">
			</animateTransform>
	</path>
</g>
<g id="cloud_10">
	<path class="st1" d="M790.2,113.2c-1.5-0.4-3.2-0.8-5.1-0.8c-5.9,0-10.7,2.8-10.7,6.2c0,3.4,4.8,6.2,10.7,6.2c3.6,0,6.8-1,8.7-2.6
		c1.6,1,3.7,1.6,5.9,1.6c2.9,0,5.5-1,7.3-2.6c1.5,1.8,4.8,2.9,8.5,2.9c5.2,0,9.4-2.4,9.4-5.3s-4.2-5.3-9.4-5.3
		c-2.2,0-4.2,0.4-5.8,1.1c-0.6-4.1-4.8-7.1-10-7.1C795.3,107.6,791.5,109.9,790.2,113.2z	">
<animateTransform  accumulate="none" additive="replace" attributeName="transform" attributeType="XML" calcMode="linear" dur="6s" fill="remove" repeatCount="indefinite" restart="always" type="translate" values="10,0;-10;10,0">
			</animateTransform>
	</path>
</g>
<g id="cloud_11">
	<path class="st1" d="M847.9,219.4c-1.1,0.4-2.3,0.7-3.6,0.7c-4.7,0-8.5-3.4-8.5-7.7c0-4.2,3.8-7.6,8.5-7.6c2.1,0,4.1,0.7,5.6,1.9
		c1.1-1.3,2.5-2.1,4-2.1s3,0.8,4.1,2.2c0.8-2.1,2.2-3.4,3.9-3.4c2.5,0,4.5,3.2,4.5,7c0,0.4,0,0.9-0.1,1.4c5.1,0.3,9,2.8,9,5.6
		c0,3.1-4.6,5.6-10.4,5.6c-2.3,0-4.4-0.4-6.1-1.1c-1.2,2.1-2.9,3.3-4.8,3.3C851.2,225.3,848.9,222.8,847.9,219.4z	">
<animateTransform  accumulate="none" additive="replace" attributeName="transform" attributeType="XML" calcMode="linear" dur="6s" fill="remove" repeatCount="indefinite" restart="always" type="translate" values="10,0;-10;10,0">
			</animateTransform>
	</path>
</g>
<text transform="matrix(1 0 0 1 336.3002 237.4017)" class="st8 st5 st9">Nate Walker</text>
<g id="cloud_12">
	<path class="st1" d="M281.4,337.4c-1.1,0.4-2.3,0.7-3.6,0.7c-4.7,0-8.5-3.4-8.5-7.7c0-4.2,3.8-7.6,8.5-7.6c2.1,0,4.1,0.7,5.6,1.9
		c1.1-1.3,2.5-2.1,4-2.1s3,0.8,4.1,2.2c0.8-2.1,2.2-3.4,3.9-3.4c2.5,0,4.5,3.2,4.5,7c0,0.4,0,0.9-0.1,1.4c5.1,0.3,9,2.8,9,5.6
		c0,3.1-4.6,5.6-10.4,5.6c-2.3,0-4.4-0.4-6.1-1.1c-1.2,2.1-2.9,3.3-4.8,3.3C284.7,343.3,282.4,340.8,281.4,337.4z	">
<animateTransform  accumulate="none" additive="replace" attributeName="transform" attributeType="XML" calcMode="linear" dur="6s" fill="remove" repeatCount="indefinite" restart="always" type="translate" values="10,0;-10;10,0">
			</animateTransform>
	</path>
</g>
<text transform="matrix(1 0 0 1 338.7755 237.4014)" class="st4 st5 st9">Nate Walker</text>
<text transform="matrix(1 0 0 1 424.3755 268.4014)" class="st1 st5 st6"> web developer.</text>
<text transform="matrix(1 0 0 1 425.3755 268.4014)" class="st4 st5 st6"> web developer.</text>
</svg>
