<svg id="Layer_1" data-name="Layer 1" xmlns="http://www.w3.org/2000/svg" viewBox="0 0 1024 368"><defs><style>.cls-1,.cls-5{font-size:95px;font-family:Futura-Medium, Futura;}.cls-2{letter-spacing:-0.06em;}.cls-3{letter-spacing:0em;}.cls-4{letter-spacing:0.02em;}.cls-5{fill:#fff;}.cls-6{fill:#e6e7e8;}.cls-7{fill:#446171;}</style></defs><title>Artboard 1</title><text class="cls-1" transform="translate(416.41 208.23)"><tspan class="cls-2">W</tspan><tspan class="cls-3" x="94.86" y="0">o</tspan><tspan class="cls-4" x="151.96" y="0">r</tspan><tspan x="188.93" y="0">k</tspan></text><text class="cls-5" transform="translate(414.41 207.23)"><tspan class="cls-2">W</tspan><tspan class="cls-3" x="94.86" y="0">o</tspan><tspan class="cls-4" x="151.96" y="0">r</tspan><tspan x="188.93" y="0">k</tspan></text><g id="cloud_1" data-name="cloud 1"><path class="cls-6" d="M137.31,221.32a23,23,0,0,0-8.82-1.72c-10.21,0-18.49,6.35-18.49,14.2s8.28,14.2,18.49,14.2c6.25,0,11.76-2.35,15.07-6a16.27,16.27,0,0,0,10.1,3.49,16.71,16.71,0,0,0,12.61-5.84c2.62,4,8.18,6.76,14.54,6.76,8.92,0,16.19-5.44,16.19-12.08s-7.27-12.08-16.19-12.08a19.82,19.82,0,0,0-10,2.58c-1-9.22-8.28-16.32-17.15-16.32C146.07,208.56,139.55,213.88,137.31,221.32Z"/></g><g id="cloud_1-2" data-name="cloud 1"><path class="cls-6" d="M843.1,171.9a45.71,45.71,0,0,0-16.5-3c-19.1,0-34.6,11.1-34.6,24.8s15.5,24.8,34.6,24.8c11.7,0,22-4.1,28.2-10.5a31.84,31.84,0,0,0,18.9,6.1,32.22,32.22,0,0,0,23.6-10.2c4.9,7,15.3,11.8,27.2,11.8,16.7,0,30.3-9.5,30.3-21.1s-13.6-21.1-30.3-21.1a39.16,39.16,0,0,0-18.7,4.5,32.23,32.23,0,0,0-62.7-6.1Z"/></g><polygon class="cls-7" points="805 466.9 805 317.8 799.5 308.6 799.5 296.5 786.6 284 782.8 272.8 779.4 283.6 765.1 295.3 765.1 308.6 761 315.7 761 538.1 805 540.2 805 466.9"/><g id="liberty_building-2" data-name="liberty building-2"><polygon class="cls-7" points="320.7 388.8 320.7 331 315 326.1 315 319.3 311.5 316.5 311.5 310 306.4 306.7 306.4 301.5 302.1 297.4 300.4 289.7 300.4 260.1 298.7 260.1 297.2 288.3 295.5 296.8 291.2 299.8 291.2 307.2 286.4 310.2 286.4 316.5 286.4 318.4 283.2 320.4 283.2 326.4 278.1 330.8 276.4 463.9 320.7 463.9 320.7 388.8"/><polygon class="cls-7" points="288.1 334.3 297.8 325.3 308.7 334.3 308.7 463.9 288.1 463.9 288.1 334.3"/></g></svg>